  0
SECTION
  2
HEADER
  9
$ANGBASE
  50
0.0
  9
$ANGDIR
  70
1
  9
$MEASUREMENT
  70
1
  0
ENDSEC
  0
SECTION
  2
TABLES
  0
TABLE
  2
LTYPE
  70
4
  0
LTYPE
  5
40F
  2
CONTINUOUS
  70
0
  3
Solid line
  72
65
  73
0
  40
0.0
  0
LTYPE
  5
410
  2
DASHDOT
 70
0
  3
Dash Dot ____ _ ____ _
 72
65
 73
4
 40
2.0
 49
1.25
 49
-0.25
 49
0.25
 49
-0.25
  0
LTYPE
  5
411
  2
DASHED
 70
0
  3
Dashed __ __ __ __ __
 72
65
 73
2
 40
0.75
 49
0.5
 49
-0.25
  0
LTYPE
  5
43B
  2
DOTTED
 70
0
  3
Dotted .  .  .  .
 72
65
 73
2
 40
0.2
 49
0.0
 49
-0.2
  0
ENDTAB
  0
TABLE
  2
STYLE
  70
4
  0
STYLE
  2
KICAD
  70
0
  40
0
  41
1
  42
1
  50
0
  71
0
  3
isocp.shx
  0
STYLE
  2
KICADB
  70
0
  40
0
  41
1
  42
1
  50
0
  71
0
  3
isocp.shx
  0
STYLE
  2
KICADI
  70
0
  40
0
  41
1
  42
1
  50
15
  71
0
  3
isocp.shx
  0
STYLE
  2
KICADBI
  70
0
  40
0
  41
1
  42
1
  50
15
  71
0
  3
isocp.shx
  0
ENDTAB
  0
TABLE
  2
LAYER
  70
1
  0
LAYER
  2
BLACK
  70
0
  62
7
  6
CONTINUOUS
  0
ENDTAB
  0
ENDSEC
  0
SECTION
  2
ENTITIES
0
LINE
8
BLACK
6
CONTINUOUS
10
129
20
-120
11
129
21
-33
0
LINE
8
BLACK
6
CONTINUOUS
10
165
20
-95
11
172
21
-95
0
ARC
8
BLACK
10
204
20
-120
40
2
50
-90
51
-0
0
LINE
8
BLACK
6
CONTINUOUS
10
165
20
-109
11
165
21
-95
0
ARC
8
BLACK
10
131
20
-33
40
2
50
90
51
180
0
LINE
8
BLACK
6
CONTINUOUS
10
131
20
-31
11
204
21
-31
0
LINE
8
BLACK
6
CONTINUOUS
10
206
20
-33
11
206
21
-120
0
ARC
8
BLACK
10
204
20
-33
40
2
50
-0
51
90
0
LINE
8
BLACK
6
CONTINUOUS
10
172
20
-95
11
172
21
-109
0
ARC
8
BLACK
10
131
20
-120
40
2
50
-180
51
-90
0
LINE
8
BLACK
6
CONTINUOUS
10
172
20
-109
11
165
21
-109
0
LINE
8
BLACK
6
CONTINUOUS
10
204
20
-122
11
131
21
-122
0
LINE
8
BLACK
6
CONTINUOUS
10
157.8
20
-69.8
11
158.2
21
-70.2
0
LINE
8
BLACK
6
CONTINUOUS
10
158.2
20
-69.8
11
157.8
21
-70.2
0
LINE
8
BLACK
6
CONTINUOUS
10
170.8
20
-53.8
11
171.2
21
-54.2
0
LINE
8
BLACK
6
CONTINUOUS
10
171.2
20
-53.8
11
170.8
21
-54.2
0
LINE
8
BLACK
6
CONTINUOUS
10
175.8
20
-77.8
11
176.2
21
-78.2
0
LINE
8
BLACK
6
CONTINUOUS
10
176.2
20
-77.8
11
175.8
21
-78.2
0
LINE
8
BLACK
6
CONTINUOUS
10
175.8
20
-79.8
11
176.2
21
-80.2
0
LINE
8
BLACK
6
CONTINUOUS
10
176.2
20
-79.8
11
175.8
21
-80.2
0
LINE
8
BLACK
6
CONTINUOUS
10
175.8
20
-81.8
11
176.2
21
-82.2
0
LINE
8
BLACK
6
CONTINUOUS
10
176.2
20
-81.8
11
175.8
21
-82.2
0
LINE
8
BLACK
6
CONTINUOUS
10
177.8
20
-59.8
11
178.2
21
-60.2
0
LINE
8
BLACK
6
CONTINUOUS
10
178.2
20
-59.8
11
177.8
21
-60.2
0
LINE
8
BLACK
6
CONTINUOUS
10
177.8
20
-73.8
11
178.2
21
-74.2
0
LINE
8
BLACK
6
CONTINUOUS
10
178.2
20
-73.8
11
177.8
21
-74.2
0
LINE
8
BLACK
6
CONTINUOUS
10
178.8
20
-76.8
11
179.2
21
-77.2
0
LINE
8
BLACK
6
CONTINUOUS
10
179.2
20
-76.8
11
178.8
21
-77.2
0
LINE
8
BLACK
6
CONTINUOUS
10
181.8
20
-58.8
11
182.2
21
-59.2
0
LINE
8
BLACK
6
CONTINUOUS
10
182.2
20
-58.8
11
181.8
21
-59.2
0
LINE
8
BLACK
6
CONTINUOUS
10
183.8
20
-60.8
11
184.2
21
-61.2
0
LINE
8
BLACK
6
CONTINUOUS
10
184.2
20
-60.8
11
183.8
21
-61.2
0
LINE
8
BLACK
6
CONTINUOUS
10
185.8
20
-51.8
11
186.2
21
-52.2
0
LINE
8
BLACK
6
CONTINUOUS
10
186.2
20
-51.8
11
185.8
21
-52.2
0
LINE
8
BLACK
6
CONTINUOUS
10
187.8
20
-59.8
11
188.2
21
-60.2
0
LINE
8
BLACK
6
CONTINUOUS
10
188.2
20
-59.8
11
187.8
21
-60.2
0
LINE
8
BLACK
6
CONTINUOUS
10
188.8
20
-67.8
11
189.2
21
-68.2
0
LINE
8
BLACK
6
CONTINUOUS
10
189.2
20
-67.8
11
188.8
21
-68.2
0
LINE
8
BLACK
6
CONTINUOUS
10
189.8
20
-60.8
11
190.2
21
-61.2
0
LINE
8
BLACK
6
CONTINUOUS
10
190.2
20
-60.8
11
189.8
21
-61.2
0
CIRCLE
8
BLACK
10
161.82
20
-68.325
40
0.35
0
CIRCLE
8
BLACK
10
161.82
20
-70.105
40
0.35
0
CIRCLE
8
BLACK
10
161.82
20
-71.885
40
0.35
0
CIRCLE
8
BLACK
10
161.82
20
-73.665
40
0.35
0
CIRCLE
8
BLACK
10
161.82
20
-75.445
40
0.35
0
CIRCLE
8
BLACK
10
161.82
20
-77.225
40
0.35
0
CIRCLE
8
BLACK
10
161.82
20
-79.005
40
0.35
0
CIRCLE
8
BLACK
10
161.82
20
-80.785
40
0.35
0
CIRCLE
8
BLACK
10
172.52
20
-69.215
40
0.35
0
CIRCLE
8
BLACK
10
172.52
20
-70.995
40
0.35
0
CIRCLE
8
BLACK
10
172.52
20
-72.775
40
0.35
0
CIRCLE
8
BLACK
10
172.52
20
-74.555
40
0.35
0
CIRCLE
8
BLACK
10
172.52
20
-76.335
40
0.35
0
CIRCLE
8
BLACK
10
172.52
20
-78.115
40
0.35
0
CIRCLE
8
BLACK
10
172.52
20
-79.895
40
0.35
0
CIRCLE
8
BLACK
10
172.52
20
-81.675
40
0.35
0
LINE
8
BLACK
6
CONTINUOUS
10
134.5
20
-114.5
11
134.5
21
-115.5
0
LINE
8
BLACK
6
CONTINUOUS
10
134
20
-115
11
135
21
-115
0
LINE
8
BLACK
6
CONTINUOUS
10
135
20
-90.5
11
135
21
-91.5
0
LINE
8
BLACK
6
CONTINUOUS
10
134.5
20
-91
11
135.5
21
-91
0
LINE
8
BLACK
6
CONTINUOUS
10
139.5
20
-114.5
11
139.5
21
-115.5
0
LINE
8
BLACK
6
CONTINUOUS
10
139
20
-115
11
140
21
-115
0
LINE
8
BLACK
6
CONTINUOUS
10
140
20
-90.5
11
140
21
-91.5
0
LINE
8
BLACK
6
CONTINUOUS
10
139.5
20
-91
11
140.5
21
-91
0
LINE
8
BLACK
6
CONTINUOUS
10
145
20
-90.5
11
145
21
-91.5
0
LINE
8
BLACK
6
CONTINUOUS
10
144.5
20
-91
11
145.5
21
-91
0
LINE
8
BLACK
6
CONTINUOUS
10
145
20
-114.5
11
145
21
-115.5
0
LINE
8
BLACK
6
CONTINUOUS
10
144.5
20
-115
11
145.5
21
-115
0
LINE
8
BLACK
6
CONTINUOUS
10
150
20
-90.5
11
150
21
-91.5
0
LINE
8
BLACK
6
CONTINUOUS
10
149.5
20
-91
11
150.5
21
-91
0
LINE
8
BLACK
6
CONTINUOUS
10
150
20
-114.5
11
150
21
-115.5
0
LINE
8
BLACK
6
CONTINUOUS
10
149.5
20
-115
11
150.5
21
-115
0
LINE
8
BLACK
6
CONTINUOUS
10
155
20
-90.5
11
155
21
-91.5
0
LINE
8
BLACK
6
CONTINUOUS
10
154.5
20
-91
11
155.5
21
-91
0
LINE
8
BLACK
6
CONTINUOUS
10
155
20
-114.5
11
155
21
-115.5
0
LINE
8
BLACK
6
CONTINUOUS
10
154.5
20
-115
11
155.5
21
-115
0
LINE
8
BLACK
6
CONTINUOUS
10
155.5
20
-103.725
11
155.5
21
-104.725
0
LINE
8
BLACK
6
CONTINUOUS
10
155
20
-104.225
11
156
21
-104.225
0
LINE
8
BLACK
6
CONTINUOUS
10
160
20
-90.5
11
160
21
-91.5
0
LINE
8
BLACK
6
CONTINUOUS
10
159.5
20
-91
11
160.5
21
-91
0
LINE
8
BLACK
6
CONTINUOUS
10
160
20
-114.5
11
160
21
-115.5
0
LINE
8
BLACK
6
CONTINUOUS
10
159.5
20
-115
11
160.5
21
-115
0
LINE
8
BLACK
6
CONTINUOUS
10
160.5
20
-103.725
11
160.5
21
-104.725
0
LINE
8
BLACK
6
CONTINUOUS
10
160
20
-104.225
11
161
21
-104.225
0
LINE
8
BLACK
6
CONTINUOUS
10
165
20
-114.5
11
165
21
-115.5
0
LINE
8
BLACK
6
CONTINUOUS
10
164.5
20
-115
11
165.5
21
-115
0
LINE
8
BLACK
6
CONTINUOUS
10
170
20
-114.5
11
170
21
-115.5
0
LINE
8
BLACK
6
CONTINUOUS
10
169.5
20
-115
11
170.5
21
-115
0
LINE
8
BLACK
6
CONTINUOUS
10
175
20
-90.5
11
175
21
-91.5
0
LINE
8
BLACK
6
CONTINUOUS
10
174.5
20
-91
11
175.5
21
-91
0
LINE
8
BLACK
6
CONTINUOUS
10
175
20
-101
11
175
21
-102
0
LINE
8
BLACK
6
CONTINUOUS
10
174.5
20
-101.5
11
175.5
21
-101.5
0
LINE
8
BLACK
6
CONTINUOUS
10
175
20
-103.5
11
175
21
-104.5
0
LINE
8
BLACK
6
CONTINUOUS
10
174.5
20
-104
11
175.5
21
-104
0
LINE
8
BLACK
6
CONTINUOUS
10
175
20
-106
11
175
21
-107
0
LINE
8
BLACK
6
CONTINUOUS
10
174.5
20
-106.5
11
175.5
21
-106.5
0
LINE
8
BLACK
6
CONTINUOUS
10
175
20
-114.5
11
175
21
-115.5
0
LINE
8
BLACK
6
CONTINUOUS
10
174.5
20
-115
11
175.5
21
-115
0
LINE
8
BLACK
6
CONTINUOUS
10
180
20
-90.5
11
180
21
-91.5
0
LINE
8
BLACK
6
CONTINUOUS
10
179.5
20
-91
11
180.5
21
-91
0
LINE
8
BLACK
6
CONTINUOUS
10
180
20
-114.5
11
180
21
-115.5
0
LINE
8
BLACK
6
CONTINUOUS
10
179.5
20
-115
11
180.5
21
-115
0
LINE
8
BLACK
6
CONTINUOUS
10
185.5
20
-90.5
11
185.5
21
-91.5
0
LINE
8
BLACK
6
CONTINUOUS
10
185
20
-91
11
186
21
-91
0
LINE
8
BLACK
6
CONTINUOUS
10
186
20
-114.5
11
186
21
-115.5
0
LINE
8
BLACK
6
CONTINUOUS
10
185.5
20
-115
11
186.5
21
-115
0
LINE
8
BLACK
6
CONTINUOUS
10
190.5
20
-90.5
11
190.5
21
-91.5
0
LINE
8
BLACK
6
CONTINUOUS
10
190
20
-91
11
191
21
-91
0
LINE
8
BLACK
6
CONTINUOUS
10
191
20
-114.5
11
191
21
-115.5
0
LINE
8
BLACK
6
CONTINUOUS
10
190.5
20
-115
11
191.5
21
-115
0
LINE
8
BLACK
6
CONTINUOUS
10
196
20
-90.5
11
196
21
-91.5
0
LINE
8
BLACK
6
CONTINUOUS
10
195.5
20
-91
11
196.5
21
-91
0
LINE
8
BLACK
6
CONTINUOUS
10
197
20
-114.5
11
197
21
-115.5
0
LINE
8
BLACK
6
CONTINUOUS
10
196.5
20
-115
11
197.5
21
-115
0
LINE
8
BLACK
6
CONTINUOUS
10
201
20
-90.5
11
201
21
-91.5
0
LINE
8
BLACK
6
CONTINUOUS
10
200.5
20
-91
11
201.5
21
-91
0
LINE
8
BLACK
6
CONTINUOUS
10
202
20
-114.5
11
202
21
-115.5
0
LINE
8
BLACK
6
CONTINUOUS
10
201.5
20
-115
11
202.5
21
-115
0
LINE
8
BLACK
6
CONTINUOUS
10
159.766
20
-35.4029
11
159.766
21
-34.6306
0
LINE
8
BLACK
6
CONTINUOUS
10
159.766
20
-34.6306
11
158.994
21
-34.6306
0
LINE
8
BLACK
6
CONTINUOUS
10
158.994
20
-34.6306
11
158.994
21
-35.4029
0
LINE
8
BLACK
6
CONTINUOUS
10
158.994
20
-35.4029
11
159.766
21
-35.4029
0
LINE
8
BLACK
6
CONTINUOUS
10
159.766
20
-37.9429
11
159.766
21
-37.1706
0
LINE
8
BLACK
6
CONTINUOUS
10
159.766
20
-37.1706
11
158.994
21
-37.1706
0
LINE
8
BLACK
6
CONTINUOUS
10
158.994
20
-37.1706
11
158.994
21
-37.9429
0
LINE
8
BLACK
6
CONTINUOUS
10
158.994
20
-37.9429
11
159.766
21
-37.9429
0
LINE
8
BLACK
6
CONTINUOUS
10
159.766
20
-40.4829
11
159.766
21
-39.7106
0
LINE
8
BLACK
6
CONTINUOUS
10
159.766
20
-39.7106
11
158.994
21
-39.7106
0
LINE
8
BLACK
6
CONTINUOUS
10
158.994
20
-39.7106
11
158.994
21
-40.4829
0
LINE
8
BLACK
6
CONTINUOUS
10
158.994
20
-40.4829
11
159.766
21
-40.4829
0
LINE
8
BLACK
6
CONTINUOUS
10
159.766
20
-43.0229
11
159.766
21
-42.2506
0
LINE
8
BLACK
6
CONTINUOUS
10
159.766
20
-42.2506
11
158.994
21
-42.2506
0
LINE
8
BLACK
6
CONTINUOUS
10
158.994
20
-42.2506
11
158.994
21
-43.0229
0
LINE
8
BLACK
6
CONTINUOUS
10
158.994
20
-43.0229
11
159.766
21
-43.0229
0
LINE
8
BLACK
6
CONTINUOUS
10
159.766
20
-45.5629
11
159.766
21
-44.7906
0
LINE
8
BLACK
6
CONTINUOUS
10
159.766
20
-44.7906
11
158.994
21
-44.7906
0
LINE
8
BLACK
6
CONTINUOUS
10
158.994
20
-44.7906
11
158.994
21
-45.5629
0
LINE
8
BLACK
6
CONTINUOUS
10
158.994
20
-45.5629
11
159.766
21
-45.5629
0
LINE
8
BLACK
6
CONTINUOUS
10
159.766
20
-48.1029
11
159.766
21
-47.3306
0
LINE
8
BLACK
6
CONTINUOUS
10
159.766
20
-47.3306
11
158.994
21
-47.3306
0
LINE
8
BLACK
6
CONTINUOUS
10
158.994
20
-47.3306
11
158.994
21
-48.1029
0
LINE
8
BLACK
6
CONTINUOUS
10
158.994
20
-48.1029
11
159.766
21
-48.1029
0
LINE
8
BLACK
6
CONTINUOUS
10
159.766
20
-50.6429
11
159.766
21
-49.8706
0
LINE
8
BLACK
6
CONTINUOUS
10
159.766
20
-49.8706
11
158.994
21
-49.8706
0
LINE
8
BLACK
6
CONTINUOUS
10
158.994
20
-49.8706
11
158.994
21
-50.6429
0
LINE
8
BLACK
6
CONTINUOUS
10
158.994
20
-50.6429
11
159.766
21
-50.6429
0
LINE
8
BLACK
6
CONTINUOUS
10
159.766
20
-53.1829
11
159.766
21
-52.4106
0
LINE
8
BLACK
6
CONTINUOUS
10
159.766
20
-52.4106
11
158.994
21
-52.4106
0
LINE
8
BLACK
6
CONTINUOUS
10
158.994
20
-52.4106
11
158.994
21
-53.1829
0
LINE
8
BLACK
6
CONTINUOUS
10
158.994
20
-53.1829
11
159.766
21
-53.1829
0
LINE
8
BLACK
6
CONTINUOUS
10
159.766
20
-55.7229
11
159.766
21
-54.9506
0
LINE
8
BLACK
6
CONTINUOUS
10
159.766
20
-54.9506
11
158.994
21
-54.9506
0
LINE
8
BLACK
6
CONTINUOUS
10
158.994
20
-54.9506
11
158.994
21
-55.7229
0
LINE
8
BLACK
6
CONTINUOUS
10
158.994
20
-55.7229
11
159.766
21
-55.7229
0
LINE
8
BLACK
6
CONTINUOUS
10
159.766
20
-58.2629
11
159.766
21
-57.4906
0
LINE
8
BLACK
6
CONTINUOUS
10
159.766
20
-57.4906
11
158.994
21
-57.4906
0
LINE
8
BLACK
6
CONTINUOUS
10
158.994
20
-57.4906
11
158.994
21
-58.2629
0
LINE
8
BLACK
6
CONTINUOUS
10
158.994
20
-58.2629
11
159.766
21
-58.2629
0
LINE
8
BLACK
6
CONTINUOUS
10
159.766
20
-60.8029
11
159.766
21
-60.0306
0
LINE
8
BLACK
6
CONTINUOUS
10
159.766
20
-60.0306
11
158.994
21
-60.0306
0
LINE
8
BLACK
6
CONTINUOUS
10
158.994
20
-60.0306
11
158.994
21
-60.8029
0
LINE
8
BLACK
6
CONTINUOUS
10
158.994
20
-60.8029
11
159.766
21
-60.8029
0
LINE
8
BLACK
6
CONTINUOUS
10
159.766
20
-63.3429
11
159.766
21
-62.5706
0
LINE
8
BLACK
6
CONTINUOUS
10
159.766
20
-62.5706
11
158.994
21
-62.5706
0
LINE
8
BLACK
6
CONTINUOUS
10
158.994
20
-62.5706
11
158.994
21
-63.3429
0
LINE
8
BLACK
6
CONTINUOUS
10
158.994
20
-63.3429
11
159.766
21
-63.3429
0
LINE
8
BLACK
6
CONTINUOUS
10
175.006
20
-35.4029
11
175.006
21
-34.6306
0
LINE
8
BLACK
6
CONTINUOUS
10
175.006
20
-34.6306
11
174.234
21
-34.6306
0
LINE
8
BLACK
6
CONTINUOUS
10
174.234
20
-34.6306
11
174.234
21
-35.4029
0
LINE
8
BLACK
6
CONTINUOUS
10
174.234
20
-35.4029
11
175.006
21
-35.4029
0
LINE
8
BLACK
6
CONTINUOUS
10
175.006
20
-37.9429
11
175.006
21
-37.1706
0
LINE
8
BLACK
6
CONTINUOUS
10
175.006
20
-37.1706
11
174.234
21
-37.1706
0
LINE
8
BLACK
6
CONTINUOUS
10
174.234
20
-37.1706
11
174.234
21
-37.9429
0
LINE
8
BLACK
6
CONTINUOUS
10
174.234
20
-37.9429
11
175.006
21
-37.9429
0
LINE
8
BLACK
6
CONTINUOUS
10
175.006
20
-40.4829
11
175.006
21
-39.7106
0
LINE
8
BLACK
6
CONTINUOUS
10
175.006
20
-39.7106
11
174.234
21
-39.7106
0
LINE
8
BLACK
6
CONTINUOUS
10
174.234
20
-39.7106
11
174.234
21
-40.4829
0
LINE
8
BLACK
6
CONTINUOUS
10
174.234
20
-40.4829
11
175.006
21
-40.4829
0
LINE
8
BLACK
6
CONTINUOUS
10
175.006
20
-43.0229
11
175.006
21
-42.2506
0
LINE
8
BLACK
6
CONTINUOUS
10
175.006
20
-42.2506
11
174.234
21
-42.2506
0
LINE
8
BLACK
6
CONTINUOUS
10
174.234
20
-42.2506
11
174.234
21
-43.0229
0
LINE
8
BLACK
6
CONTINUOUS
10
174.234
20
-43.0229
11
175.006
21
-43.0229
0
LINE
8
BLACK
6
CONTINUOUS
10
175.006
20
-45.5629
11
175.006
21
-44.7906
0
LINE
8
BLACK
6
CONTINUOUS
10
175.006
20
-44.7906
11
174.234
21
-44.7906
0
LINE
8
BLACK
6
CONTINUOUS
10
174.234
20
-44.7906
11
174.234
21
-45.5629
0
LINE
8
BLACK
6
CONTINUOUS
10
174.234
20
-45.5629
11
175.006
21
-45.5629
0
LINE
8
BLACK
6
CONTINUOUS
10
175.006
20
-48.1029
11
175.006
21
-47.3306
0
LINE
8
BLACK
6
CONTINUOUS
10
175.006
20
-47.3306
11
174.234
21
-47.3306
0
LINE
8
BLACK
6
CONTINUOUS
10
174.234
20
-47.3306
11
174.234
21
-48.1029
0
LINE
8
BLACK
6
CONTINUOUS
10
174.234
20
-48.1029
11
175.006
21
-48.1029
0
LINE
8
BLACK
6
CONTINUOUS
10
175.006
20
-50.6429
11
175.006
21
-49.8706
0
LINE
8
BLACK
6
CONTINUOUS
10
175.006
20
-49.8706
11
174.234
21
-49.8706
0
LINE
8
BLACK
6
CONTINUOUS
10
174.234
20
-49.8706
11
174.234
21
-50.6429
0
LINE
8
BLACK
6
CONTINUOUS
10
174.234
20
-50.6429
11
175.006
21
-50.6429
0
LINE
8
BLACK
6
CONTINUOUS
10
175.006
20
-53.1829
11
175.006
21
-52.4106
0
LINE
8
BLACK
6
CONTINUOUS
10
175.006
20
-52.4106
11
174.234
21
-52.4106
0
LINE
8
BLACK
6
CONTINUOUS
10
174.234
20
-52.4106
11
174.234
21
-53.1829
0
LINE
8
BLACK
6
CONTINUOUS
10
174.234
20
-53.1829
11
175.006
21
-53.1829
0
LINE
8
BLACK
6
CONTINUOUS
10
175.006
20
-55.7229
11
175.006
21
-54.9506
0
LINE
8
BLACK
6
CONTINUOUS
10
175.006
20
-54.9506
11
174.234
21
-54.9506
0
LINE
8
BLACK
6
CONTINUOUS
10
174.234
20
-54.9506
11
174.234
21
-55.7229
0
LINE
8
BLACK
6
CONTINUOUS
10
174.234
20
-55.7229
11
175.006
21
-55.7229
0
LINE
8
BLACK
6
CONTINUOUS
10
175.006
20
-58.2629
11
175.006
21
-57.4906
0
LINE
8
BLACK
6
CONTINUOUS
10
175.006
20
-57.4906
11
174.234
21
-57.4906
0
LINE
8
BLACK
6
CONTINUOUS
10
174.234
20
-57.4906
11
174.234
21
-58.2629
0
LINE
8
BLACK
6
CONTINUOUS
10
174.234
20
-58.2629
11
175.006
21
-58.2629
0
LINE
8
BLACK
6
CONTINUOUS
10
175.006
20
-60.8029
11
175.006
21
-60.0306
0
LINE
8
BLACK
6
CONTINUOUS
10
175.006
20
-60.0306
11
174.234
21
-60.0306
0
LINE
8
BLACK
6
CONTINUOUS
10
174.234
20
-60.0306
11
174.234
21
-60.8029
0
LINE
8
BLACK
6
CONTINUOUS
10
174.234
20
-60.8029
11
175.006
21
-60.8029
0
LINE
8
BLACK
6
CONTINUOUS
10
175.006
20
-63.3429
11
175.006
21
-62.5706
0
LINE
8
BLACK
6
CONTINUOUS
10
175.006
20
-62.5706
11
174.234
21
-62.5706
0
LINE
8
BLACK
6
CONTINUOUS
10
174.234
20
-62.5706
11
174.234
21
-63.3429
0
LINE
8
BLACK
6
CONTINUOUS
10
174.234
20
-63.3429
11
175.006
21
-63.3429
0
LINE
8
BLACK
6
CONTINUOUS
10
177
20
-100.4
11
177.9
21
-99.5
0
LINE
8
BLACK
6
CONTINUOUS
10
177.9
20
-99.5
11
177
21
-98.6
0
LINE
8
BLACK
6
CONTINUOUS
10
177
20
-98.6
11
176.1
21
-99.5
0
LINE
8
BLACK
6
CONTINUOUS
10
176.1
20
-99.5
11
177
21
-100.4
0
LINE
8
BLACK
6
CONTINUOUS
10
177.15
20
-98.6
11
176.85
21
-98.6
0
ARC
8
BLACK
10
176.85
20
-99.5
40
0.9
50
450
51
630
0
LINE
8
BLACK
6
CONTINUOUS
10
176.85
20
-100.4
11
177.15
21
-100.4
0
ARC
8
BLACK
10
177.15
20
-99.5
40
0.9
50
270
51
450
0
LINE
8
BLACK
6
CONTINUOUS
10
177
20
-109.4
11
177.9
21
-108.5
0
LINE
8
BLACK
6
CONTINUOUS
10
177.9
20
-108.5
11
177
21
-107.6
0
LINE
8
BLACK
6
CONTINUOUS
10
177
20
-107.6
11
176.1
21
-108.5
0
LINE
8
BLACK
6
CONTINUOUS
10
176.1
20
-108.5
11
177
21
-109.4
0
LINE
8
BLACK
6
CONTINUOUS
10
177.15
20
-107.6
11
176.85
21
-107.6
0
ARC
8
BLACK
10
176.85
20
-108.5
40
0.9
50
450
51
630
0
LINE
8
BLACK
6
CONTINUOUS
10
176.85
20
-109.4
11
177.15
21
-109.4
0
ARC
8
BLACK
10
177.15
20
-108.5
40
0.9
50
270
51
450
0
LINE
8
BLACK
6
CONTINUOUS
10
131.558
20
-125.165
11
131.558
21
-123.165
0
LINE
8
BLACK
6
CONTINUOUS
10
131.558
20
-123.165
11
132.034
21
-123.165
0
LINE
8
BLACK
6
CONTINUOUS
10
132.034
20
-123.165
11
132.32
21
-123.26
0
LINE
8
BLACK
6
CONTINUOUS
10
132.32
20
-123.26
11
132.51
21
-123.451
0
LINE
8
BLACK
6
CONTINUOUS
10
132.51
20
-123.451
11
132.605
21
-123.641
0
LINE
8
BLACK
6
CONTINUOUS
10
132.605
20
-123.641
11
132.701
21
-124.022
0
LINE
8
BLACK
6
CONTINUOUS
10
132.701
20
-124.022
11
132.701
21
-124.308
0
LINE
8
BLACK
6
CONTINUOUS
10
132.701
20
-124.308
11
132.605
21
-124.689
0
LINE
8
BLACK
6
CONTINUOUS
10
132.605
20
-124.689
11
132.51
21
-124.879
0
LINE
8
BLACK
6
CONTINUOUS
10
132.51
20
-124.879
11
132.32
21
-125.07
0
LINE
8
BLACK
6
CONTINUOUS
10
132.32
20
-125.07
11
132.034
21
-125.165
0
LINE
8
BLACK
6
CONTINUOUS
10
132.034
20
-125.165
11
131.558
21
-125.165
0
LINE
8
BLACK
6
CONTINUOUS
10
133.558
20
-125.165
11
133.558
21
-123.832
0
LINE
8
BLACK
6
CONTINUOUS
10
133.558
20
-124.212
11
133.653
21
-124.022
0
LINE
8
BLACK
6
CONTINUOUS
10
133.653
20
-124.022
11
133.748
21
-123.927
0
LINE
8
BLACK
6
CONTINUOUS
10
133.748
20
-123.927
11
133.939
21
-123.832
0
LINE
8
BLACK
6
CONTINUOUS
10
133.939
20
-123.832
11
134.129
21
-123.832
0
LINE
8
BLACK
6
CONTINUOUS
10
134.796
20
-125.165
11
134.796
21
-123.832
0
LINE
8
BLACK
6
CONTINUOUS
10
134.796
20
-123.165
11
134.701
21
-123.26
0
LINE
8
BLACK
6
CONTINUOUS
10
134.701
20
-123.26
11
134.796
21
-123.355
0
LINE
8
BLACK
6
CONTINUOUS
10
134.796
20
-123.355
11
134.891
21
-123.26
0
LINE
8
BLACK
6
CONTINUOUS
10
134.891
20
-123.26
11
134.796
21
-123.165
0
LINE
8
BLACK
6
CONTINUOUS
10
134.796
20
-123.165
11
134.796
21
-123.355
0
LINE
8
BLACK
6
CONTINUOUS
10
136.034
20
-125.165
11
135.843
21
-125.07
0
LINE
8
BLACK
6
CONTINUOUS
10
135.843
20
-125.07
11
135.748
21
-124.879
0
LINE
8
BLACK
6
CONTINUOUS
10
135.748
20
-124.879
11
135.748
21
-123.165
0
LINE
8
BLACK
6
CONTINUOUS
10
137.082
20
-125.165
11
136.891
21
-125.07
0
LINE
8
BLACK
6
CONTINUOUS
10
136.891
20
-125.07
11
136.796
21
-124.879
0
LINE
8
BLACK
6
CONTINUOUS
10
136.796
20
-124.879
11
136.796
21
-123.165
0
LINE
8
BLACK
6
CONTINUOUS
10
139.367
20
-125.165
11
139.367
21
-123.165
0
LINE
8
BLACK
6
CONTINUOUS
10
139.367
20
-123.165
11
140.034
21
-124.593
0
LINE
8
BLACK
6
CONTINUOUS
10
140.034
20
-124.593
11
140.701
21
-123.165
0
LINE
8
BLACK
6
CONTINUOUS
10
140.701
20
-123.165
11
140.701
21
-125.165
0
LINE
8
BLACK
6
CONTINUOUS
10
142.51
20
-125.165
11
142.51
21
-124.117
0
LINE
8
BLACK
6
CONTINUOUS
10
142.51
20
-124.117
11
142.415
21
-123.927
0
LINE
8
BLACK
6
CONTINUOUS
10
142.415
20
-123.927
11
142.224
21
-123.832
0
LINE
8
BLACK
6
CONTINUOUS
10
142.224
20
-123.832
11
141.843
21
-123.832
0
LINE
8
BLACK
6
CONTINUOUS
10
141.843
20
-123.832
11
141.653
21
-123.927
0
LINE
8
BLACK
6
CONTINUOUS
10
142.51
20
-125.07
11
142.32
21
-125.165
0
LINE
8
BLACK
6
CONTINUOUS
10
142.32
20
-125.165
11
141.843
21
-125.165
0
LINE
8
BLACK
6
CONTINUOUS
10
141.843
20
-125.165
11
141.653
21
-125.07
0
LINE
8
BLACK
6
CONTINUOUS
10
141.653
20
-125.07
11
141.558
21
-124.879
0
LINE
8
BLACK
6
CONTINUOUS
10
141.558
20
-124.879
11
141.558
21
-124.689
0
LINE
8
BLACK
6
CONTINUOUS
10
141.558
20
-124.689
11
141.653
21
-124.498
0
LINE
8
BLACK
6
CONTINUOUS
10
141.653
20
-124.498
11
141.843
21
-124.403
0
LINE
8
BLACK
6
CONTINUOUS
10
141.843
20
-124.403
11
142.32
21
-124.403
0
LINE
8
BLACK
6
CONTINUOUS
10
142.32
20
-124.403
11
142.51
21
-124.308
0
LINE
8
BLACK
6
CONTINUOUS
10
143.463
20
-123.832
11
143.463
21
-125.832
0
LINE
8
BLACK
6
CONTINUOUS
10
143.463
20
-123.927
11
143.653
21
-123.832
0
LINE
8
BLACK
6
CONTINUOUS
10
143.653
20
-123.832
11
144.034
21
-123.832
0
LINE
8
BLACK
6
CONTINUOUS
10
144.034
20
-123.832
11
144.224
21
-123.927
0
LINE
8
BLACK
6
CONTINUOUS
10
144.224
20
-123.927
11
144.32
21
-124.022
0
LINE
8
BLACK
6
CONTINUOUS
10
144.32
20
-124.022
11
144.415
21
-124.212
0
LINE
8
BLACK
6
CONTINUOUS
10
144.415
20
-124.212
11
144.415
21
-124.784
0
LINE
8
BLACK
6
CONTINUOUS
10
144.415
20
-124.784
11
144.32
21
-124.974
0
LINE
8
BLACK
6
CONTINUOUS
10
144.32
20
-124.974
11
144.224
21
-125.07
0
LINE
8
BLACK
6
CONTINUOUS
10
144.224
20
-125.07
11
144.034
21
-125.165
0
LINE
8
BLACK
6
CONTINUOUS
10
144.034
20
-125.165
11
143.653
21
-125.165
0
LINE
8
BLACK
6
CONTINUOUS
10
143.653
20
-125.165
11
143.463
21
-125.07
0
LINE
8
BLACK
6
CONTINUOUS
10
145.272
20
-124.974
11
145.367
21
-125.07
0
LINE
8
BLACK
6
CONTINUOUS
10
145.367
20
-125.07
11
145.272
21
-125.165
0
LINE
8
BLACK
6
CONTINUOUS
10
145.272
20
-125.165
11
145.177
21
-125.07
0
LINE
8
BLACK
6
CONTINUOUS
10
145.177
20
-125.07
11
145.272
21
-124.974
0
LINE
8
BLACK
6
CONTINUOUS
10
145.272
20
-124.974
11
145.272
21
-125.165
0
LINE
8
BLACK
6
CONTINUOUS
10
145.272
20
-123.927
11
145.367
21
-124.022
0
LINE
8
BLACK
6
CONTINUOUS
10
145.367
20
-124.022
11
145.272
21
-124.117
0
LINE
8
BLACK
6
CONTINUOUS
10
145.272
20
-124.117
11
145.177
21
-124.022
0
LINE
8
BLACK
6
CONTINUOUS
10
145.177
20
-124.022
11
145.272
21
-123.927
0
LINE
8
BLACK
6
CONTINUOUS
10
145.272
20
-123.927
11
145.272
21
-124.117
0
LINE
8
BLACK
6
CONTINUOUS
10
128.55
20
-128.25
11
128.95
21
-128.65
0
LINE
8
BLACK
6
CONTINUOUS
10
128.95
20
-128.25
11
128.55
21
-128.65
0
LINE
8
BLACK
6
CONTINUOUS
10
131.939
20
-127.365
11
132.129
21
-127.365
0
LINE
8
BLACK
6
CONTINUOUS
10
132.129
20
-127.365
11
132.32
21
-127.46
0
LINE
8
BLACK
6
CONTINUOUS
10
132.32
20
-127.46
11
132.415
21
-127.555
0
LINE
8
BLACK
6
CONTINUOUS
10
132.415
20
-127.555
11
132.51
21
-127.746
0
LINE
8
BLACK
6
CONTINUOUS
10
132.51
20
-127.746
11
132.605
21
-128.127
0
LINE
8
BLACK
6
CONTINUOUS
10
132.605
20
-128.127
11
132.605
21
-128.603
0
LINE
8
BLACK
6
CONTINUOUS
10
132.605
20
-128.603
11
132.51
21
-128.984
0
LINE
8
BLACK
6
CONTINUOUS
10
132.51
20
-128.984
11
132.415
21
-129.174
0
LINE
8
BLACK
6
CONTINUOUS
10
132.415
20
-129.174
11
132.32
21
-129.27
0
LINE
8
BLACK
6
CONTINUOUS
10
132.32
20
-129.27
11
132.129
21
-129.365
0
LINE
8
BLACK
6
CONTINUOUS
10
132.129
20
-129.365
11
131.939
21
-129.365
0
LINE
8
BLACK
6
CONTINUOUS
10
131.939
20
-129.365
11
131.748
21
-129.27
0
LINE
8
BLACK
6
CONTINUOUS
10
131.748
20
-129.27
11
131.653
21
-129.174
0
LINE
8
BLACK
6
CONTINUOUS
10
131.653
20
-129.174
11
131.558
21
-128.984
0
LINE
8
BLACK
6
CONTINUOUS
10
131.558
20
-128.984
11
131.463
21
-128.603
0
LINE
8
BLACK
6
CONTINUOUS
10
131.463
20
-128.603
11
131.463
21
-128.127
0
LINE
8
BLACK
6
CONTINUOUS
10
131.463
20
-128.127
11
131.558
21
-127.746
0
LINE
8
BLACK
6
CONTINUOUS
10
131.558
20
-127.746
11
131.653
21
-127.555
0
LINE
8
BLACK
6
CONTINUOUS
10
131.653
20
-127.555
11
131.748
21
-127.46
0
LINE
8
BLACK
6
CONTINUOUS
10
131.748
20
-127.46
11
131.939
21
-127.365
0
LINE
8
BLACK
6
CONTINUOUS
10
133.463
20
-129.174
11
133.558
21
-129.27
0
LINE
8
BLACK
6
CONTINUOUS
10
133.558
20
-129.27
11
133.463
21
-129.365
0
LINE
8
BLACK
6
CONTINUOUS
10
133.463
20
-129.365
11
133.367
21
-129.27
0
LINE
8
BLACK
6
CONTINUOUS
10
133.367
20
-129.27
11
133.463
21
-129.174
0
LINE
8
BLACK
6
CONTINUOUS
10
133.463
20
-129.174
11
133.463
21
-129.365
0
LINE
8
BLACK
6
CONTINUOUS
10
135.272
20
-128.032
11
135.272
21
-129.365
0
LINE
8
BLACK
6
CONTINUOUS
10
134.796
20
-127.27
11
134.32
21
-128.698
0
LINE
8
BLACK
6
CONTINUOUS
10
134.32
20
-128.698
11
135.558
21
-128.698
0
LINE
8
BLACK
6
CONTINUOUS
10
136.701
20
-127.365
11
136.891
21
-127.365
0
LINE
8
BLACK
6
CONTINUOUS
10
136.891
20
-127.365
11
137.082
21
-127.46
0
LINE
8
BLACK
6
CONTINUOUS
10
137.082
20
-127.46
11
137.177
21
-127.555
0
LINE
8
BLACK
6
CONTINUOUS
10
137.177
20
-127.555
11
137.272
21
-127.746
0
LINE
8
BLACK
6
CONTINUOUS
10
137.272
20
-127.746
11
137.367
21
-128.127
0
LINE
8
BLACK
6
CONTINUOUS
10
137.367
20
-128.127
11
137.367
21
-128.603
0
LINE
8
BLACK
6
CONTINUOUS
10
137.367
20
-128.603
11
137.272
21
-128.984
0
LINE
8
BLACK
6
CONTINUOUS
10
137.272
20
-128.984
11
137.177
21
-129.174
0
LINE
8
BLACK
6
CONTINUOUS
10
137.177
20
-129.174
11
137.082
21
-129.27
0
LINE
8
BLACK
6
CONTINUOUS
10
137.082
20
-129.27
11
136.891
21
-129.365
0
LINE
8
BLACK
6
CONTINUOUS
10
136.891
20
-129.365
11
136.701
21
-129.365
0
LINE
8
BLACK
6
CONTINUOUS
10
136.701
20
-129.365
11
136.51
21
-129.27
0
LINE
8
BLACK
6
CONTINUOUS
10
136.51
20
-129.27
11
136.415
21
-129.174
0
LINE
8
BLACK
6
CONTINUOUS
10
136.415
20
-129.174
11
136.32
21
-128.984
0
LINE
8
BLACK
6
CONTINUOUS
10
136.32
20
-128.984
11
136.224
21
-128.603
0
LINE
8
BLACK
6
CONTINUOUS
10
136.224
20
-128.603
11
136.224
21
-128.127
0
LINE
8
BLACK
6
CONTINUOUS
10
136.224
20
-128.127
11
136.32
21
-127.746
0
LINE
8
BLACK
6
CONTINUOUS
10
136.32
20
-127.746
11
136.415
21
-127.555
0
LINE
8
BLACK
6
CONTINUOUS
10
136.415
20
-127.555
11
136.51
21
-127.46
0
LINE
8
BLACK
6
CONTINUOUS
10
136.51
20
-127.46
11
136.701
21
-127.365
0
LINE
8
BLACK
6
CONTINUOUS
10
138.605
20
-127.365
11
138.796
21
-127.365
0
LINE
8
BLACK
6
CONTINUOUS
10
138.796
20
-127.365
11
138.986
21
-127.46
0
LINE
8
BLACK
6
CONTINUOUS
10
138.986
20
-127.46
11
139.082
21
-127.555
0
LINE
8
BLACK
6
CONTINUOUS
10
139.082
20
-127.555
11
139.177
21
-127.746
0
LINE
8
BLACK
6
CONTINUOUS
10
139.177
20
-127.746
11
139.272
21
-128.127
0
LINE
8
BLACK
6
CONTINUOUS
10
139.272
20
-128.127
11
139.272
21
-128.603
0
LINE
8
BLACK
6
CONTINUOUS
10
139.272
20
-128.603
11
139.177
21
-128.984
0
LINE
8
BLACK
6
CONTINUOUS
10
139.177
20
-128.984
11
139.082
21
-129.174
0
LINE
8
BLACK
6
CONTINUOUS
10
139.082
20
-129.174
11
138.986
21
-129.27
0
LINE
8
BLACK
6
CONTINUOUS
10
138.986
20
-129.27
11
138.796
21
-129.365
0
LINE
8
BLACK
6
CONTINUOUS
10
138.796
20
-129.365
11
138.605
21
-129.365
0
LINE
8
BLACK
6
CONTINUOUS
10
138.605
20
-129.365
11
138.415
21
-129.27
0
LINE
8
BLACK
6
CONTINUOUS
10
138.415
20
-129.27
11
138.32
21
-129.174
0
LINE
8
BLACK
6
CONTINUOUS
10
138.32
20
-129.174
11
138.224
21
-128.984
0
LINE
8
BLACK
6
CONTINUOUS
10
138.224
20
-128.984
11
138.129
21
-128.603
0
LINE
8
BLACK
6
CONTINUOUS
10
138.129
20
-128.603
11
138.129
21
-128.127
0
LINE
8
BLACK
6
CONTINUOUS
10
138.129
20
-128.127
11
138.224
21
-127.746
0
LINE
8
BLACK
6
CONTINUOUS
10
138.224
20
-127.746
11
138.32
21
-127.555
0
LINE
8
BLACK
6
CONTINUOUS
10
138.32
20
-127.555
11
138.415
21
-127.46
0
LINE
8
BLACK
6
CONTINUOUS
10
138.415
20
-127.46
11
138.605
21
-127.365
0
LINE
8
BLACK
6
CONTINUOUS
10
140.129
20
-129.365
11
140.129
21
-128.032
0
LINE
8
BLACK
6
CONTINUOUS
10
140.129
20
-128.222
11
140.224
21
-128.127
0
LINE
8
BLACK
6
CONTINUOUS
10
140.224
20
-128.127
11
140.415
21
-128.032
0
LINE
8
BLACK
6
CONTINUOUS
10
140.415
20
-128.032
11
140.701
21
-128.032
0
LINE
8
BLACK
6
CONTINUOUS
10
140.701
20
-128.032
11
140.891
21
-128.127
0
LINE
8
BLACK
6
CONTINUOUS
10
140.891
20
-128.127
11
140.986
21
-128.317
0
LINE
8
BLACK
6
CONTINUOUS
10
140.986
20
-128.317
11
140.986
21
-129.365
0
LINE
8
BLACK
6
CONTINUOUS
10
140.986
20
-128.317
11
141.082
21
-128.127
0
LINE
8
BLACK
6
CONTINUOUS
10
141.082
20
-128.127
11
141.272
21
-128.032
0
LINE
8
BLACK
6
CONTINUOUS
10
141.272
20
-128.032
11
141.558
21
-128.032
0
LINE
8
BLACK
6
CONTINUOUS
10
141.558
20
-128.032
11
141.748
21
-128.127
0
LINE
8
BLACK
6
CONTINUOUS
10
141.748
20
-128.127
11
141.843
21
-128.317
0
LINE
8
BLACK
6
CONTINUOUS
10
141.843
20
-128.317
11
141.843
21
-129.365
0
LINE
8
BLACK
6
CONTINUOUS
10
142.796
20
-129.365
11
142.796
21
-128.032
0
LINE
8
BLACK
6
CONTINUOUS
10
142.796
20
-128.222
11
142.891
21
-128.127
0
LINE
8
BLACK
6
CONTINUOUS
10
142.891
20
-128.127
11
143.082
21
-128.032
0
LINE
8
BLACK
6
CONTINUOUS
10
143.082
20
-128.032
11
143.367
21
-128.032
0
LINE
8
BLACK
6
CONTINUOUS
10
143.367
20
-128.032
11
143.558
21
-128.127
0
LINE
8
BLACK
6
CONTINUOUS
10
143.558
20
-128.127
11
143.653
21
-128.317
0
LINE
8
BLACK
6
CONTINUOUS
10
143.653
20
-128.317
11
143.653
21
-129.365
0
LINE
8
BLACK
6
CONTINUOUS
10
143.653
20
-128.317
11
143.748
21
-128.127
0
LINE
8
BLACK
6
CONTINUOUS
10
143.748
20
-128.127
11
143.939
21
-128.032
0
LINE
8
BLACK
6
CONTINUOUS
10
143.939
20
-128.032
11
144.224
21
-128.032
0
LINE
8
BLACK
6
CONTINUOUS
10
144.224
20
-128.032
11
144.415
21
-128.127
0
LINE
8
BLACK
6
CONTINUOUS
10
144.415
20
-128.127
11
144.51
21
-128.317
0
LINE
8
BLACK
6
CONTINUOUS
10
144.51
20
-128.317
11
144.51
21
-129.365
0
LINE
8
BLACK
6
CONTINUOUS
10
148.415
20
-127.27
11
146.701
21
-129.841
0
LINE
8
BLACK
6
CONTINUOUS
10
150.986
20
-127.365
11
151.177
21
-127.365
0
LINE
8
BLACK
6
CONTINUOUS
10
151.177
20
-127.365
11
151.367
21
-127.46
0
LINE
8
BLACK
6
CONTINUOUS
10
151.367
20
-127.46
11
151.463
21
-127.555
0
LINE
8
BLACK
6
CONTINUOUS
10
151.463
20
-127.555
11
151.558
21
-127.746
0
LINE
8
BLACK
6
CONTINUOUS
10
151.558
20
-127.746
11
151.653
21
-128.127
0
LINE
8
BLACK
6
CONTINUOUS
10
151.653
20
-128.127
11
151.653
21
-128.603
0
LINE
8
BLACK
6
CONTINUOUS
10
151.653
20
-128.603
11
151.558
21
-128.984
0
LINE
8
BLACK
6
CONTINUOUS
10
151.558
20
-128.984
11
151.463
21
-129.174
0
LINE
8
BLACK
6
CONTINUOUS
10
151.463
20
-129.174
11
151.367
21
-129.27
0
LINE
8
BLACK
6
CONTINUOUS
10
151.367
20
-129.27
11
151.177
21
-129.365
0
LINE
8
BLACK
6
CONTINUOUS
10
151.177
20
-129.365
11
150.986
21
-129.365
0
LINE
8
BLACK
6
CONTINUOUS
10
150.986
20
-129.365
11
150.796
21
-129.27
0
LINE
8
BLACK
6
CONTINUOUS
10
150.796
20
-129.27
11
150.701
21
-129.174
0
LINE
8
BLACK
6
CONTINUOUS
10
150.701
20
-129.174
11
150.605
21
-128.984
0
LINE
8
BLACK
6
CONTINUOUS
10
150.605
20
-128.984
11
150.51
21
-128.603
0
LINE
8
BLACK
6
CONTINUOUS
10
150.51
20
-128.603
11
150.51
21
-128.127
0
LINE
8
BLACK
6
CONTINUOUS
10
150.51
20
-128.127
11
150.605
21
-127.746
0
LINE
8
BLACK
6
CONTINUOUS
10
150.605
20
-127.746
11
150.701
21
-127.555
0
LINE
8
BLACK
6
CONTINUOUS
10
150.701
20
-127.555
11
150.796
21
-127.46
0
LINE
8
BLACK
6
CONTINUOUS
10
150.796
20
-127.46
11
150.986
21
-127.365
0
LINE
8
BLACK
6
CONTINUOUS
10
152.51
20
-129.174
11
152.605
21
-129.27
0
LINE
8
BLACK
6
CONTINUOUS
10
152.605
20
-129.27
11
152.51
21
-129.365
0
LINE
8
BLACK
6
CONTINUOUS
10
152.51
20
-129.365
11
152.415
21
-129.27
0
LINE
8
BLACK
6
CONTINUOUS
10
152.415
20
-129.27
11
152.51
21
-129.174
0
LINE
8
BLACK
6
CONTINUOUS
10
152.51
20
-129.174
11
152.51
21
-129.365
0
LINE
8
BLACK
6
CONTINUOUS
10
153.843
20
-127.365
11
154.034
21
-127.365
0
LINE
8
BLACK
6
CONTINUOUS
10
154.034
20
-127.365
11
154.224
21
-127.46
0
LINE
8
BLACK
6
CONTINUOUS
10
154.224
20
-127.46
11
154.32
21
-127.555
0
LINE
8
BLACK
6
CONTINUOUS
10
154.32
20
-127.555
11
154.415
21
-127.746
0
LINE
8
BLACK
6
CONTINUOUS
10
154.415
20
-127.746
11
154.51
21
-128.127
0
LINE
8
BLACK
6
CONTINUOUS
10
154.51
20
-128.127
11
154.51
21
-128.603
0
LINE
8
BLACK
6
CONTINUOUS
10
154.51
20
-128.603
11
154.415
21
-128.984
0
LINE
8
BLACK
6
CONTINUOUS
10
154.415
20
-128.984
11
154.32
21
-129.174
0
LINE
8
BLACK
6
CONTINUOUS
10
154.32
20
-129.174
11
154.224
21
-129.27
0
LINE
8
BLACK
6
CONTINUOUS
10
154.224
20
-129.27
11
154.034
21
-129.365
0
LINE
8
BLACK
6
CONTINUOUS
10
154.034
20
-129.365
11
153.843
21
-129.365
0
LINE
8
BLACK
6
CONTINUOUS
10
153.843
20
-129.365
11
153.653
21
-129.27
0
LINE
8
BLACK
6
CONTINUOUS
10
153.653
20
-129.27
11
153.558
21
-129.174
0
LINE
8
BLACK
6
CONTINUOUS
10
153.558
20
-129.174
11
153.463
21
-128.984
0
LINE
8
BLACK
6
CONTINUOUS
10
153.463
20
-128.984
11
153.367
21
-128.603
0
LINE
8
BLACK
6
CONTINUOUS
10
153.367
20
-128.603
11
153.367
21
-128.127
0
LINE
8
BLACK
6
CONTINUOUS
10
153.367
20
-128.127
11
153.463
21
-127.746
0
LINE
8
BLACK
6
CONTINUOUS
10
153.463
20
-127.746
11
153.558
21
-127.555
0
LINE
8
BLACK
6
CONTINUOUS
10
153.558
20
-127.555
11
153.653
21
-127.46
0
LINE
8
BLACK
6
CONTINUOUS
10
153.653
20
-127.46
11
153.843
21
-127.365
0
LINE
8
BLACK
6
CONTINUOUS
10
156.415
20
-129.365
11
155.272
21
-129.365
0
LINE
8
BLACK
6
CONTINUOUS
10
155.843
20
-129.365
11
155.843
21
-127.365
0
LINE
8
BLACK
6
CONTINUOUS
10
155.843
20
-127.365
11
155.653
21
-127.651
0
LINE
8
BLACK
6
CONTINUOUS
10
155.653
20
-127.651
11
155.463
21
-127.841
0
LINE
8
BLACK
6
CONTINUOUS
10
155.463
20
-127.841
11
155.272
21
-127.936
0
LINE
8
BLACK
6
CONTINUOUS
10
158.224
20
-127.365
11
157.272
21
-127.365
0
LINE
8
BLACK
6
CONTINUOUS
10
157.272
20
-127.365
11
157.177
21
-128.317
0
LINE
8
BLACK
6
CONTINUOUS
10
157.177
20
-128.317
11
157.272
21
-128.222
0
LINE
8
BLACK
6
CONTINUOUS
10
157.272
20
-128.222
11
157.463
21
-128.127
0
LINE
8
BLACK
6
CONTINUOUS
10
157.463
20
-128.127
11
157.939
21
-128.127
0
LINE
8
BLACK
6
CONTINUOUS
10
157.939
20
-128.127
11
158.129
21
-128.222
0
LINE
8
BLACK
6
CONTINUOUS
10
158.129
20
-128.222
11
158.224
21
-128.317
0
LINE
8
BLACK
6
CONTINUOUS
10
158.224
20
-128.317
11
158.32
21
-128.508
0
LINE
8
BLACK
6
CONTINUOUS
10
158.32
20
-128.508
11
158.32
21
-128.984
0
LINE
8
BLACK
6
CONTINUOUS
10
158.32
20
-128.984
11
158.224
21
-129.174
0
LINE
8
BLACK
6
CONTINUOUS
10
158.224
20
-129.174
11
158.129
21
-129.27
0
LINE
8
BLACK
6
CONTINUOUS
10
158.129
20
-129.27
11
157.939
21
-129.365
0
LINE
8
BLACK
6
CONTINUOUS
10
157.939
20
-129.365
11
157.463
21
-129.365
0
LINE
8
BLACK
6
CONTINUOUS
10
157.463
20
-129.365
11
157.272
21
-129.27
0
LINE
8
BLACK
6
CONTINUOUS
10
157.272
20
-129.27
11
157.177
21
-129.174
0
LINE
8
BLACK
6
CONTINUOUS
10
158.986
20
-127.365
11
160.32
21
-127.365
0
LINE
8
BLACK
6
CONTINUOUS
10
160.32
20
-127.365
11
159.463
21
-129.365
0
LINE
8
BLACK
6
CONTINUOUS
10
160.986
20
-127.365
11
160.986
21
-127.746
0
LINE
8
BLACK
6
CONTINUOUS
10
161.748
20
-127.365
11
161.748
21
-127.746
0
LINE
8
BLACK
6
CONTINUOUS
10
164.701
20
-130.127
11
164.605
21
-130.032
0
LINE
8
BLACK
6
CONTINUOUS
10
164.605
20
-130.032
11
164.415
21
-129.746
0
LINE
8
BLACK
6
CONTINUOUS
10
164.415
20
-129.746
11
164.32
21
-129.555
0
LINE
8
BLACK
6
CONTINUOUS
10
164.32
20
-129.555
11
164.224
21
-129.27
0
LINE
8
BLACK
6
CONTINUOUS
10
164.224
20
-129.27
11
164.129
21
-128.793
0
LINE
8
BLACK
6
CONTINUOUS
10
164.129
20
-128.793
11
164.129
21
-128.412
0
LINE
8
BLACK
6
CONTINUOUS
10
164.129
20
-128.412
11
164.224
21
-127.936
0
LINE
8
BLACK
6
CONTINUOUS
10
164.224
20
-127.936
11
164.32
21
-127.651
0
LINE
8
BLACK
6
CONTINUOUS
10
164.32
20
-127.651
11
164.415
21
-127.46
0
LINE
8
BLACK
6
CONTINUOUS
10
164.415
20
-127.46
11
164.605
21
-127.174
0
LINE
8
BLACK
6
CONTINUOUS
10
164.605
20
-127.174
11
164.701
21
-127.079
0
LINE
8
BLACK
6
CONTINUOUS
10
166.51
20
-129.365
11
165.367
21
-129.365
0
LINE
8
BLACK
6
CONTINUOUS
10
165.939
20
-129.365
11
165.939
21
-127.365
0
LINE
8
BLACK
6
CONTINUOUS
10
165.939
20
-127.365
11
165.748
21
-127.651
0
LINE
8
BLACK
6
CONTINUOUS
10
165.748
20
-127.651
11
165.558
21
-127.841
0
LINE
8
BLACK
6
CONTINUOUS
10
165.558
20
-127.841
11
165.367
21
-127.936
0
LINE
8
BLACK
6
CONTINUOUS
10
168.224
20
-128.032
11
168.224
21
-129.365
0
LINE
8
BLACK
6
CONTINUOUS
10
167.748
20
-127.27
11
167.272
21
-128.698
0
LINE
8
BLACK
6
CONTINUOUS
10
167.272
20
-128.698
11
168.51
21
-128.698
0
LINE
8
BLACK
6
CONTINUOUS
10
170.796
20
-129.365
11
170.796
21
-127.365
0
LINE
8
BLACK
6
CONTINUOUS
10
171.653
20
-129.365
11
171.653
21
-128.317
0
LINE
8
BLACK
6
CONTINUOUS
10
171.653
20
-128.317
11
171.558
21
-128.127
0
LINE
8
BLACK
6
CONTINUOUS
10
171.558
20
-128.127
11
171.367
21
-128.032
0
LINE
8
BLACK
6
CONTINUOUS
10
171.367
20
-128.032
11
171.082
21
-128.032
0
LINE
8
BLACK
6
CONTINUOUS
10
171.082
20
-128.032
11
170.891
21
-128.127
0
LINE
8
BLACK
6
CONTINUOUS
10
170.891
20
-128.127
11
170.796
21
-128.222
0
LINE
8
BLACK
6
CONTINUOUS
10
172.891
20
-129.365
11
172.701
21
-129.27
0
LINE
8
BLACK
6
CONTINUOUS
10
172.701
20
-129.27
11
172.605
21
-129.174
0
LINE
8
BLACK
6
CONTINUOUS
10
172.605
20
-129.174
11
172.51
21
-128.984
0
LINE
8
BLACK
6
CONTINUOUS
10
172.51
20
-128.984
11
172.51
21
-128.412
0
LINE
8
BLACK
6
CONTINUOUS
10
172.51
20
-128.412
11
172.605
21
-128.222
0
LINE
8
BLACK
6
CONTINUOUS
10
172.605
20
-128.222
11
172.701
21
-128.127
0
LINE
8
BLACK
6
CONTINUOUS
10
172.701
20
-128.127
11
172.891
21
-128.032
0
LINE
8
BLACK
6
CONTINUOUS
10
172.891
20
-128.032
11
173.177
21
-128.032
0
LINE
8
BLACK
6
CONTINUOUS
10
173.177
20
-128.032
11
173.367
21
-128.127
0
LINE
8
BLACK
6
CONTINUOUS
10
173.367
20
-128.127
11
173.463
21
-128.222
0
LINE
8
BLACK
6
CONTINUOUS
10
173.463
20
-128.222
11
173.558
21
-128.412
0
LINE
8
BLACK
6
CONTINUOUS
10
173.558
20
-128.412
11
173.558
21
-128.984
0
LINE
8
BLACK
6
CONTINUOUS
10
173.558
20
-128.984
11
173.463
21
-129.174
0
LINE
8
BLACK
6
CONTINUOUS
10
173.463
20
-129.174
11
173.367
21
-129.27
0
LINE
8
BLACK
6
CONTINUOUS
10
173.367
20
-129.27
11
173.177
21
-129.365
0
LINE
8
BLACK
6
CONTINUOUS
10
173.177
20
-129.365
11
172.891
21
-129.365
0
LINE
8
BLACK
6
CONTINUOUS
10
174.701
20
-129.365
11
174.51
21
-129.27
0
LINE
8
BLACK
6
CONTINUOUS
10
174.51
20
-129.27
11
174.415
21
-129.079
0
LINE
8
BLACK
6
CONTINUOUS
10
174.415
20
-129.079
11
174.415
21
-127.365
0
LINE
8
BLACK
6
CONTINUOUS
10
176.224
20
-129.27
11
176.034
21
-129.365
0
LINE
8
BLACK
6
CONTINUOUS
10
176.034
20
-129.365
11
175.653
21
-129.365
0
LINE
8
BLACK
6
CONTINUOUS
10
175.653
20
-129.365
11
175.463
21
-129.27
0
LINE
8
BLACK
6
CONTINUOUS
10
175.463
20
-129.27
11
175.367
21
-129.079
0
LINE
8
BLACK
6
CONTINUOUS
10
175.367
20
-129.079
11
175.367
21
-128.317
0
LINE
8
BLACK
6
CONTINUOUS
10
175.367
20
-128.317
11
175.463
21
-128.127
0
LINE
8
BLACK
6
CONTINUOUS
10
175.463
20
-128.127
11
175.653
21
-128.032
0
LINE
8
BLACK
6
CONTINUOUS
10
175.653
20
-128.032
11
176.034
21
-128.032
0
LINE
8
BLACK
6
CONTINUOUS
10
176.034
20
-128.032
11
176.224
21
-128.127
0
LINE
8
BLACK
6
CONTINUOUS
10
176.224
20
-128.127
11
176.32
21
-128.317
0
LINE
8
BLACK
6
CONTINUOUS
10
176.32
20
-128.317
11
176.32
21
-128.508
0
LINE
8
BLACK
6
CONTINUOUS
10
176.32
20
-128.508
11
175.367
21
-128.698
0
LINE
8
BLACK
6
CONTINUOUS
10
177.082
20
-129.27
11
177.272
21
-129.365
0
LINE
8
BLACK
6
CONTINUOUS
10
177.272
20
-129.365
11
177.653
21
-129.365
0
LINE
8
BLACK
6
CONTINUOUS
10
177.653
20
-129.365
11
177.843
21
-129.27
0
LINE
8
BLACK
6
CONTINUOUS
10
177.843
20
-129.27
11
177.939
21
-129.079
0
LINE
8
BLACK
6
CONTINUOUS
10
177.939
20
-129.079
11
177.939
21
-128.984
0
LINE
8
BLACK
6
CONTINUOUS
10
177.939
20
-128.984
11
177.843
21
-128.793
0
LINE
8
BLACK
6
CONTINUOUS
10
177.843
20
-128.793
11
177.653
21
-128.698
0
LINE
8
BLACK
6
CONTINUOUS
10
177.653
20
-128.698
11
177.367
21
-128.698
0
LINE
8
BLACK
6
CONTINUOUS
10
177.367
20
-128.698
11
177.177
21
-128.603
0
LINE
8
BLACK
6
CONTINUOUS
10
177.177
20
-128.603
11
177.082
21
-128.412
0
LINE
8
BLACK
6
CONTINUOUS
10
177.082
20
-128.412
11
177.082
21
-128.317
0
LINE
8
BLACK
6
CONTINUOUS
10
177.082
20
-128.317
11
177.177
21
-128.127
0
LINE
8
BLACK
6
CONTINUOUS
10
177.177
20
-128.127
11
177.367
21
-128.032
0
LINE
8
BLACK
6
CONTINUOUS
10
177.367
20
-128.032
11
177.653
21
-128.032
0
LINE
8
BLACK
6
CONTINUOUS
10
177.653
20
-128.032
11
177.843
21
-128.127
0
LINE
8
BLACK
6
CONTINUOUS
10
178.605
20
-130.127
11
178.701
21
-130.032
0
LINE
8
BLACK
6
CONTINUOUS
10
178.701
20
-130.032
11
178.891
21
-129.746
0
LINE
8
BLACK
6
CONTINUOUS
10
178.891
20
-129.746
11
178.986
21
-129.555
0
LINE
8
BLACK
6
CONTINUOUS
10
178.986
20
-129.555
11
179.082
21
-129.27
0
LINE
8
BLACK
6
CONTINUOUS
10
179.082
20
-129.27
11
179.177
21
-128.793
0
LINE
8
BLACK
6
CONTINUOUS
10
179.177
20
-128.793
11
179.177
21
-128.412
0
LINE
8
BLACK
6
CONTINUOUS
10
179.177
20
-128.412
11
179.082
21
-127.936
0
LINE
8
BLACK
6
CONTINUOUS
10
179.082
20
-127.936
11
178.986
21
-127.651
0
LINE
8
BLACK
6
CONTINUOUS
10
178.986
20
-127.651
11
178.891
21
-127.46
0
LINE
8
BLACK
6
CONTINUOUS
10
178.891
20
-127.46
11
178.701
21
-127.174
0
LINE
8
BLACK
6
CONTINUOUS
10
178.701
20
-127.174
11
178.605
21
-127.079
0
CIRCLE
8
BLACK
10
128.6
20
-131.09
40
0.35
0
LINE
8
BLACK
6
CONTINUOUS
10
131.939
20
-130.005
11
132.129
21
-130.005
0
LINE
8
BLACK
6
CONTINUOUS
10
132.129
20
-130.005
11
132.32
21
-130.1
0
LINE
8
BLACK
6
CONTINUOUS
10
132.32
20
-130.1
11
132.415
21
-130.195
0
LINE
8
BLACK
6
CONTINUOUS
10
132.415
20
-130.195
11
132.51
21
-130.386
0
LINE
8
BLACK
6
CONTINUOUS
10
132.51
20
-130.386
11
132.605
21
-130.767
0
LINE
8
BLACK
6
CONTINUOUS
10
132.605
20
-130.767
11
132.605
21
-131.243
0
LINE
8
BLACK
6
CONTINUOUS
10
132.605
20
-131.243
11
132.51
21
-131.624
0
LINE
8
BLACK
6
CONTINUOUS
10
132.51
20
-131.624
11
132.415
21
-131.814
0
LINE
8
BLACK
6
CONTINUOUS
10
132.415
20
-131.814
11
132.32
21
-131.91
0
LINE
8
BLACK
6
CONTINUOUS
10
132.32
20
-131.91
11
132.129
21
-132.005
0
LINE
8
BLACK
6
CONTINUOUS
10
132.129
20
-132.005
11
131.939
21
-132.005
0
LINE
8
BLACK
6
CONTINUOUS
10
131.939
20
-132.005
11
131.748
21
-131.91
0
LINE
8
BLACK
6
CONTINUOUS
10
131.748
20
-131.91
11
131.653
21
-131.814
0
LINE
8
BLACK
6
CONTINUOUS
10
131.653
20
-131.814
11
131.558
21
-131.624
0
LINE
8
BLACK
6
CONTINUOUS
10
131.558
20
-131.624
11
131.463
21
-131.243
0
LINE
8
BLACK
6
CONTINUOUS
10
131.463
20
-131.243
11
131.463
21
-130.767
0
LINE
8
BLACK
6
CONTINUOUS
10
131.463
20
-130.767
11
131.558
21
-130.386
0
LINE
8
BLACK
6
CONTINUOUS
10
131.558
20
-130.386
11
131.653
21
-130.195
0
LINE
8
BLACK
6
CONTINUOUS
10
131.653
20
-130.195
11
131.748
21
-130.1
0
LINE
8
BLACK
6
CONTINUOUS
10
131.748
20
-130.1
11
131.939
21
-130.005
0
LINE
8
BLACK
6
CONTINUOUS
10
133.463
20
-131.814
11
133.558
21
-131.91
0
LINE
8
BLACK
6
CONTINUOUS
10
133.558
20
-131.91
11
133.463
21
-132.005
0
LINE
8
BLACK
6
CONTINUOUS
10
133.463
20
-132.005
11
133.367
21
-131.91
0
LINE
8
BLACK
6
CONTINUOUS
10
133.367
20
-131.91
11
133.463
21
-131.814
0
LINE
8
BLACK
6
CONTINUOUS
10
133.463
20
-131.814
11
133.463
21
-132.005
0
LINE
8
BLACK
6
CONTINUOUS
10
134.224
20
-130.005
11
135.558
21
-130.005
0
LINE
8
BLACK
6
CONTINUOUS
10
135.558
20
-130.005
11
134.701
21
-132.005
0
LINE
8
BLACK
6
CONTINUOUS
10
136.701
20
-130.005
11
136.891
21
-130.005
0
LINE
8
BLACK
6
CONTINUOUS
10
136.891
20
-130.005
11
137.082
21
-130.1
0
LINE
8
BLACK
6
CONTINUOUS
10
137.082
20
-130.1
11
137.177
21
-130.195
0
LINE
8
BLACK
6
CONTINUOUS
10
137.177
20
-130.195
11
137.272
21
-130.386
0
LINE
8
BLACK
6
CONTINUOUS
10
137.272
20
-130.386
11
137.367
21
-130.767
0
LINE
8
BLACK
6
CONTINUOUS
10
137.367
20
-130.767
11
137.367
21
-131.243
0
LINE
8
BLACK
6
CONTINUOUS
10
137.367
20
-131.243
11
137.272
21
-131.624
0
LINE
8
BLACK
6
CONTINUOUS
10
137.272
20
-131.624
11
137.177
21
-131.814
0
LINE
8
BLACK
6
CONTINUOUS
10
137.177
20
-131.814
11
137.082
21
-131.91
0
LINE
8
BLACK
6
CONTINUOUS
10
137.082
20
-131.91
11
136.891
21
-132.005
0
LINE
8
BLACK
6
CONTINUOUS
10
136.891
20
-132.005
11
136.701
21
-132.005
0
LINE
8
BLACK
6
CONTINUOUS
10
136.701
20
-132.005
11
136.51
21
-131.91
0
LINE
8
BLACK
6
CONTINUOUS
10
136.51
20
-131.91
11
136.415
21
-131.814
0
LINE
8
BLACK
6
CONTINUOUS
10
136.415
20
-131.814
11
136.32
21
-131.624
0
LINE
8
BLACK
6
CONTINUOUS
10
136.32
20
-131.624
11
136.224
21
-131.243
0
LINE
8
BLACK
6
CONTINUOUS
10
136.224
20
-131.243
11
136.224
21
-130.767
0
LINE
8
BLACK
6
CONTINUOUS
10
136.224
20
-130.767
11
136.32
21
-130.386
0
LINE
8
BLACK
6
CONTINUOUS
10
136.32
20
-130.386
11
136.415
21
-130.195
0
LINE
8
BLACK
6
CONTINUOUS
10
136.415
20
-130.195
11
136.51
21
-130.1
0
LINE
8
BLACK
6
CONTINUOUS
10
136.51
20
-130.1
11
136.701
21
-130.005
0
LINE
8
BLACK
6
CONTINUOUS
10
138.605
20
-130.005
11
138.796
21
-130.005
0
LINE
8
BLACK
6
CONTINUOUS
10
138.796
20
-130.005
11
138.986
21
-130.1
0
LINE
8
BLACK
6
CONTINUOUS
10
138.986
20
-130.1
11
139.082
21
-130.195
0
LINE
8
BLACK
6
CONTINUOUS
10
139.082
20
-130.195
11
139.177
21
-130.386
0
LINE
8
BLACK
6
CONTINUOUS
10
139.177
20
-130.386
11
139.272
21
-130.767
0
LINE
8
BLACK
6
CONTINUOUS
10
139.272
20
-130.767
11
139.272
21
-131.243
0
LINE
8
BLACK
6
CONTINUOUS
10
139.272
20
-131.243
11
139.177
21
-131.624
0
LINE
8
BLACK
6
CONTINUOUS
10
139.177
20
-131.624
11
139.082
21
-131.814
0
LINE
8
BLACK
6
CONTINUOUS
10
139.082
20
-131.814
11
138.986
21
-131.91
0
LINE
8
BLACK
6
CONTINUOUS
10
138.986
20
-131.91
11
138.796
21
-132.005
0
LINE
8
BLACK
6
CONTINUOUS
10
138.796
20
-132.005
11
138.605
21
-132.005
0
LINE
8
BLACK
6
CONTINUOUS
10
138.605
20
-132.005
11
138.415
21
-131.91
0
LINE
8
BLACK
6
CONTINUOUS
10
138.415
20
-131.91
11
138.32
21
-131.814
0
LINE
8
BLACK
6
CONTINUOUS
10
138.32
20
-131.814
11
138.224
21
-131.624
0
LINE
8
BLACK
6
CONTINUOUS
10
138.224
20
-131.624
11
138.129
21
-131.243
0
LINE
8
BLACK
6
CONTINUOUS
10
138.129
20
-131.243
11
138.129
21
-130.767
0
LINE
8
BLACK
6
CONTINUOUS
10
138.129
20
-130.767
11
138.224
21
-130.386
0
LINE
8
BLACK
6
CONTINUOUS
10
138.224
20
-130.386
11
138.32
21
-130.195
0
LINE
8
BLACK
6
CONTINUOUS
10
138.32
20
-130.195
11
138.415
21
-130.1
0
LINE
8
BLACK
6
CONTINUOUS
10
138.415
20
-130.1
11
138.605
21
-130.005
0
LINE
8
BLACK
6
CONTINUOUS
10
140.129
20
-132.005
11
140.129
21
-130.672
0
LINE
8
BLACK
6
CONTINUOUS
10
140.129
20
-130.862
11
140.224
21
-130.767
0
LINE
8
BLACK
6
CONTINUOUS
10
140.224
20
-130.767
11
140.415
21
-130.672
0
LINE
8
BLACK
6
CONTINUOUS
10
140.415
20
-130.672
11
140.701
21
-130.672
0
LINE
8
BLACK
6
CONTINUOUS
10
140.701
20
-130.672
11
140.891
21
-130.767
0
LINE
8
BLACK
6
CONTINUOUS
10
140.891
20
-130.767
11
140.986
21
-130.957
0
LINE
8
BLACK
6
CONTINUOUS
10
140.986
20
-130.957
11
140.986
21
-132.005
0
LINE
8
BLACK
6
CONTINUOUS
10
140.986
20
-130.957
11
141.082
21
-130.767
0
LINE
8
BLACK
6
CONTINUOUS
10
141.082
20
-130.767
11
141.272
21
-130.672
0
LINE
8
BLACK
6
CONTINUOUS
10
141.272
20
-130.672
11
141.558
21
-130.672
0
LINE
8
BLACK
6
CONTINUOUS
10
141.558
20
-130.672
11
141.748
21
-130.767
0
LINE
8
BLACK
6
CONTINUOUS
10
141.748
20
-130.767
11
141.843
21
-130.957
0
LINE
8
BLACK
6
CONTINUOUS
10
141.843
20
-130.957
11
141.843
21
-132.005
0
LINE
8
BLACK
6
CONTINUOUS
10
142.796
20
-132.005
11
142.796
21
-130.672
0
LINE
8
BLACK
6
CONTINUOUS
10
142.796
20
-130.862
11
142.891
21
-130.767
0
LINE
8
BLACK
6
CONTINUOUS
10
142.891
20
-130.767
11
143.082
21
-130.672
0
LINE
8
BLACK
6
CONTINUOUS
10
143.082
20
-130.672
11
143.367
21
-130.672
0
LINE
8
BLACK
6
CONTINUOUS
10
143.367
20
-130.672
11
143.558
21
-130.767
0
LINE
8
BLACK
6
CONTINUOUS
10
143.558
20
-130.767
11
143.653
21
-130.957
0
LINE
8
BLACK
6
CONTINUOUS
10
143.653
20
-130.957
11
143.653
21
-132.005
0
LINE
8
BLACK
6
CONTINUOUS
10
143.653
20
-130.957
11
143.748
21
-130.767
0
LINE
8
BLACK
6
CONTINUOUS
10
143.748
20
-130.767
11
143.939
21
-130.672
0
LINE
8
BLACK
6
CONTINUOUS
10
143.939
20
-130.672
11
144.224
21
-130.672
0
LINE
8
BLACK
6
CONTINUOUS
10
144.224
20
-130.672
11
144.415
21
-130.767
0
LINE
8
BLACK
6
CONTINUOUS
10
144.415
20
-130.767
11
144.51
21
-130.957
0
LINE
8
BLACK
6
CONTINUOUS
10
144.51
20
-130.957
11
144.51
21
-132.005
0
LINE
8
BLACK
6
CONTINUOUS
10
148.415
20
-129.91
11
146.701
21
-132.481
0
LINE
8
BLACK
6
CONTINUOUS
10
150.986
20
-130.005
11
151.177
21
-130.005
0
LINE
8
BLACK
6
CONTINUOUS
10
151.177
20
-130.005
11
151.367
21
-130.1
0
LINE
8
BLACK
6
CONTINUOUS
10
151.367
20
-130.1
11
151.463
21
-130.195
0
LINE
8
BLACK
6
CONTINUOUS
10
151.463
20
-130.195
11
151.558
21
-130.386
0
LINE
8
BLACK
6
CONTINUOUS
10
151.558
20
-130.386
11
151.653
21
-130.767
0
LINE
8
BLACK
6
CONTINUOUS
10
151.653
20
-130.767
11
151.653
21
-131.243
0
LINE
8
BLACK
6
CONTINUOUS
10
151.653
20
-131.243
11
151.558
21
-131.624
0
LINE
8
BLACK
6
CONTINUOUS
10
151.558
20
-131.624
11
151.463
21
-131.814
0
LINE
8
BLACK
6
CONTINUOUS
10
151.463
20
-131.814
11
151.367
21
-131.91
0
LINE
8
BLACK
6
CONTINUOUS
10
151.367
20
-131.91
11
151.177
21
-132.005
0
LINE
8
BLACK
6
CONTINUOUS
10
151.177
20
-132.005
11
150.986
21
-132.005
0
LINE
8
BLACK
6
CONTINUOUS
10
150.986
20
-132.005
11
150.796
21
-131.91
0
LINE
8
BLACK
6
CONTINUOUS
10
150.796
20
-131.91
11
150.701
21
-131.814
0
LINE
8
BLACK
6
CONTINUOUS
10
150.701
20
-131.814
11
150.605
21
-131.624
0
LINE
8
BLACK
6
CONTINUOUS
10
150.605
20
-131.624
11
150.51
21
-131.243
0
LINE
8
BLACK
6
CONTINUOUS
10
150.51
20
-131.243
11
150.51
21
-130.767
0
LINE
8
BLACK
6
CONTINUOUS
10
150.51
20
-130.767
11
150.605
21
-130.386
0
LINE
8
BLACK
6
CONTINUOUS
10
150.605
20
-130.386
11
150.701
21
-130.195
0
LINE
8
BLACK
6
CONTINUOUS
10
150.701
20
-130.195
11
150.796
21
-130.1
0
LINE
8
BLACK
6
CONTINUOUS
10
150.796
20
-130.1
11
150.986
21
-130.005
0
LINE
8
BLACK
6
CONTINUOUS
10
152.51
20
-131.814
11
152.605
21
-131.91
0
LINE
8
BLACK
6
CONTINUOUS
10
152.605
20
-131.91
11
152.51
21
-132.005
0
LINE
8
BLACK
6
CONTINUOUS
10
152.51
20
-132.005
11
152.415
21
-131.91
0
LINE
8
BLACK
6
CONTINUOUS
10
152.415
20
-131.91
11
152.51
21
-131.814
0
LINE
8
BLACK
6
CONTINUOUS
10
152.51
20
-131.814
11
152.51
21
-132.005
0
LINE
8
BLACK
6
CONTINUOUS
10
153.843
20
-130.005
11
154.034
21
-130.005
0
LINE
8
BLACK
6
CONTINUOUS
10
154.034
20
-130.005
11
154.224
21
-130.1
0
LINE
8
BLACK
6
CONTINUOUS
10
154.224
20
-130.1
11
154.32
21
-130.195
0
LINE
8
BLACK
6
CONTINUOUS
10
154.32
20
-130.195
11
154.415
21
-130.386
0
LINE
8
BLACK
6
CONTINUOUS
10
154.415
20
-130.386
11
154.51
21
-130.767
0
LINE
8
BLACK
6
CONTINUOUS
10
154.51
20
-130.767
11
154.51
21
-131.243
0
LINE
8
BLACK
6
CONTINUOUS
10
154.51
20
-131.243
11
154.415
21
-131.624
0
LINE
8
BLACK
6
CONTINUOUS
10
154.415
20
-131.624
11
154.32
21
-131.814
0
LINE
8
BLACK
6
CONTINUOUS
10
154.32
20
-131.814
11
154.224
21
-131.91
0
LINE
8
BLACK
6
CONTINUOUS
10
154.224
20
-131.91
11
154.034
21
-132.005
0
LINE
8
BLACK
6
CONTINUOUS
10
154.034
20
-132.005
11
153.843
21
-132.005
0
LINE
8
BLACK
6
CONTINUOUS
10
153.843
20
-132.005
11
153.653
21
-131.91
0
LINE
8
BLACK
6
CONTINUOUS
10
153.653
20
-131.91
11
153.558
21
-131.814
0
LINE
8
BLACK
6
CONTINUOUS
10
153.558
20
-131.814
11
153.463
21
-131.624
0
LINE
8
BLACK
6
CONTINUOUS
10
153.463
20
-131.624
11
153.367
21
-131.243
0
LINE
8
BLACK
6
CONTINUOUS
10
153.367
20
-131.243
11
153.367
21
-130.767
0
LINE
8
BLACK
6
CONTINUOUS
10
153.367
20
-130.767
11
153.463
21
-130.386
0
LINE
8
BLACK
6
CONTINUOUS
10
153.463
20
-130.386
11
153.558
21
-130.195
0
LINE
8
BLACK
6
CONTINUOUS
10
153.558
20
-130.195
11
153.653
21
-130.1
0
LINE
8
BLACK
6
CONTINUOUS
10
153.653
20
-130.1
11
153.843
21
-130.005
0
LINE
8
BLACK
6
CONTINUOUS
10
155.272
20
-130.195
11
155.367
21
-130.1
0
LINE
8
BLACK
6
CONTINUOUS
10
155.367
20
-130.1
11
155.558
21
-130.005
0
LINE
8
BLACK
6
CONTINUOUS
10
155.558
20
-130.005
11
156.034
21
-130.005
0
LINE
8
BLACK
6
CONTINUOUS
10
156.034
20
-130.005
11
156.224
21
-130.1
0
LINE
8
BLACK
6
CONTINUOUS
10
156.224
20
-130.1
11
156.32
21
-130.195
0
LINE
8
BLACK
6
CONTINUOUS
10
156.32
20
-130.195
11
156.415
21
-130.386
0
LINE
8
BLACK
6
CONTINUOUS
10
156.415
20
-130.386
11
156.415
21
-130.576
0
LINE
8
BLACK
6
CONTINUOUS
10
156.415
20
-130.576
11
156.32
21
-130.862
0
LINE
8
BLACK
6
CONTINUOUS
10
156.32
20
-130.862
11
155.177
21
-132.005
0
LINE
8
BLACK
6
CONTINUOUS
10
155.177
20
-132.005
11
156.415
21
-132.005
0
LINE
8
BLACK
6
CONTINUOUS
10
157.082
20
-130.005
11
158.415
21
-130.005
0
LINE
8
BLACK
6
CONTINUOUS
10
158.415
20
-130.005
11
157.558
21
-132.005
0
LINE
8
BLACK
6
CONTINUOUS
10
160.034
20
-130.005
11
159.653
21
-130.005
0
LINE
8
BLACK
6
CONTINUOUS
10
159.653
20
-130.005
11
159.463
21
-130.1
0
LINE
8
BLACK
6
CONTINUOUS
10
159.463
20
-130.1
11
159.367
21
-130.195
0
LINE
8
BLACK
6
CONTINUOUS
10
159.367
20
-130.195
11
159.177
21
-130.481
0
LINE
8
BLACK
6
CONTINUOUS
10
159.177
20
-130.481
11
159.082
21
-130.862
0
LINE
8
BLACK
6
CONTINUOUS
10
159.082
20
-130.862
11
159.082
21
-131.624
0
LINE
8
BLACK
6
CONTINUOUS
10
159.082
20
-131.624
11
159.177
21
-131.814
0
LINE
8
BLACK
6
CONTINUOUS
10
159.177
20
-131.814
11
159.272
21
-131.91
0
LINE
8
BLACK
6
CONTINUOUS
10
159.272
20
-131.91
11
159.463
21
-132.005
0
LINE
8
BLACK
6
CONTINUOUS
10
159.463
20
-132.005
11
159.843
21
-132.005
0
LINE
8
BLACK
6
CONTINUOUS
10
159.843
20
-132.005
11
160.034
21
-131.91
0
LINE
8
BLACK
6
CONTINUOUS
10
160.034
20
-131.91
11
160.129
21
-131.814
0
LINE
8
BLACK
6
CONTINUOUS
10
160.129
20
-131.814
11
160.224
21
-131.624
0
LINE
8
BLACK
6
CONTINUOUS
10
160.224
20
-131.624
11
160.224
21
-131.148
0
LINE
8
BLACK
6
CONTINUOUS
10
160.224
20
-131.148
11
160.129
21
-130.957
0
LINE
8
BLACK
6
CONTINUOUS
10
160.129
20
-130.957
11
160.034
21
-130.862
0
LINE
8
BLACK
6
CONTINUOUS
10
160.034
20
-130.862
11
159.843
21
-130.767
0
LINE
8
BLACK
6
CONTINUOUS
10
159.843
20
-130.767
11
159.463
21
-130.767
0
LINE
8
BLACK
6
CONTINUOUS
10
159.463
20
-130.767
11
159.272
21
-130.862
0
LINE
8
BLACK
6
CONTINUOUS
10
159.272
20
-130.862
11
159.177
21
-130.957
0
LINE
8
BLACK
6
CONTINUOUS
10
159.177
20
-130.957
11
159.082
21
-131.148
0
LINE
8
BLACK
6
CONTINUOUS
10
160.986
20
-130.005
11
160.986
21
-130.386
0
LINE
8
BLACK
6
CONTINUOUS
10
161.748
20
-130.005
11
161.748
21
-130.386
0
LINE
8
BLACK
6
CONTINUOUS
10
164.701
20
-132.767
11
164.605
21
-132.672
0
LINE
8
BLACK
6
CONTINUOUS
10
164.605
20
-132.672
11
164.415
21
-132.386
0
LINE
8
BLACK
6
CONTINUOUS
10
164.415
20
-132.386
11
164.32
21
-132.195
0
LINE
8
BLACK
6
CONTINUOUS
10
164.32
20
-132.195
11
164.224
21
-131.91
0
LINE
8
BLACK
6
CONTINUOUS
10
164.224
20
-131.91
11
164.129
21
-131.433
0
LINE
8
BLACK
6
CONTINUOUS
10
164.129
20
-131.433
11
164.129
21
-131.052
0
LINE
8
BLACK
6
CONTINUOUS
10
164.129
20
-131.052
11
164.224
21
-130.576
0
LINE
8
BLACK
6
CONTINUOUS
10
164.224
20
-130.576
11
164.32
21
-130.291
0
LINE
8
BLACK
6
CONTINUOUS
10
164.32
20
-130.291
11
164.415
21
-130.1
0
LINE
8
BLACK
6
CONTINUOUS
10
164.415
20
-130.1
11
164.605
21
-129.814
0
LINE
8
BLACK
6
CONTINUOUS
10
164.605
20
-129.814
11
164.701
21
-129.719
0
LINE
8
BLACK
6
CONTINUOUS
10
166.51
20
-132.005
11
165.367
21
-132.005
0
LINE
8
BLACK
6
CONTINUOUS
10
165.939
20
-132.005
11
165.939
21
-130.005
0
LINE
8
BLACK
6
CONTINUOUS
10
165.939
20
-130.005
11
165.748
21
-130.291
0
LINE
8
BLACK
6
CONTINUOUS
10
165.748
20
-130.291
11
165.558
21
-130.481
0
LINE
8
BLACK
6
CONTINUOUS
10
165.558
20
-130.481
11
165.367
21
-130.576
0
LINE
8
BLACK
6
CONTINUOUS
10
168.224
20
-130.005
11
167.843
21
-130.005
0
LINE
8
BLACK
6
CONTINUOUS
10
167.843
20
-130.005
11
167.653
21
-130.1
0
LINE
8
BLACK
6
CONTINUOUS
10
167.653
20
-130.1
11
167.558
21
-130.195
0
LINE
8
BLACK
6
CONTINUOUS
10
167.558
20
-130.195
11
167.367
21
-130.481
0
LINE
8
BLACK
6
CONTINUOUS
10
167.367
20
-130.481
11
167.272
21
-130.862
0
LINE
8
BLACK
6
CONTINUOUS
10
167.272
20
-130.862
11
167.272
21
-131.624
0
LINE
8
BLACK
6
CONTINUOUS
10
167.272
20
-131.624
11
167.367
21
-131.814
0
LINE
8
BLACK
6
CONTINUOUS
10
167.367
20
-131.814
11
167.463
21
-131.91
0
LINE
8
BLACK
6
CONTINUOUS
10
167.463
20
-131.91
11
167.653
21
-132.005
0
LINE
8
BLACK
6
CONTINUOUS
10
167.653
20
-132.005
11
168.034
21
-132.005
0
LINE
8
BLACK
6
CONTINUOUS
10
168.034
20
-132.005
11
168.224
21
-131.91
0
LINE
8
BLACK
6
CONTINUOUS
10
168.224
20
-131.91
11
168.32
21
-131.814
0
LINE
8
BLACK
6
CONTINUOUS
10
168.32
20
-131.814
11
168.415
21
-131.624
0
LINE
8
BLACK
6
CONTINUOUS
10
168.415
20
-131.624
11
168.415
21
-131.148
0
LINE
8
BLACK
6
CONTINUOUS
10
168.415
20
-131.148
11
168.32
21
-130.957
0
LINE
8
BLACK
6
CONTINUOUS
10
168.32
20
-130.957
11
168.224
21
-130.862
0
LINE
8
BLACK
6
CONTINUOUS
10
168.224
20
-130.862
11
168.034
21
-130.767
0
LINE
8
BLACK
6
CONTINUOUS
10
168.034
20
-130.767
11
167.653
21
-130.767
0
LINE
8
BLACK
6
CONTINUOUS
10
167.653
20
-130.767
11
167.463
21
-130.862
0
LINE
8
BLACK
6
CONTINUOUS
10
167.463
20
-130.862
11
167.367
21
-130.957
0
LINE
8
BLACK
6
CONTINUOUS
10
167.367
20
-130.957
11
167.272
21
-131.148
0
LINE
8
BLACK
6
CONTINUOUS
10
170.796
20
-132.005
11
170.796
21
-130.005
0
LINE
8
BLACK
6
CONTINUOUS
10
171.653
20
-132.005
11
171.653
21
-130.957
0
LINE
8
BLACK
6
CONTINUOUS
10
171.653
20
-130.957
11
171.558
21
-130.767
0
LINE
8
BLACK
6
CONTINUOUS
10
171.558
20
-130.767
11
171.367
21
-130.672
0
LINE
8
BLACK
6
CONTINUOUS
10
171.367
20
-130.672
11
171.082
21
-130.672
0
LINE
8
BLACK
6
CONTINUOUS
10
171.082
20
-130.672
11
170.891
21
-130.767
0
LINE
8
BLACK
6
CONTINUOUS
10
170.891
20
-130.767
11
170.796
21
-130.862
0
LINE
8
BLACK
6
CONTINUOUS
10
172.891
20
-132.005
11
172.701
21
-131.91
0
LINE
8
BLACK
6
CONTINUOUS
10
172.701
20
-131.91
11
172.605
21
-131.814
0
LINE
8
BLACK
6
CONTINUOUS
10
172.605
20
-131.814
11
172.51
21
-131.624
0
LINE
8
BLACK
6
CONTINUOUS
10
172.51
20
-131.624
11
172.51
21
-131.052
0
LINE
8
BLACK
6
CONTINUOUS
10
172.51
20
-131.052
11
172.605
21
-130.862
0
LINE
8
BLACK
6
CONTINUOUS
10
172.605
20
-130.862
11
172.701
21
-130.767
0
LINE
8
BLACK
6
CONTINUOUS
10
172.701
20
-130.767
11
172.891
21
-130.672
0
LINE
8
BLACK
6
CONTINUOUS
10
172.891
20
-130.672
11
173.177
21
-130.672
0
LINE
8
BLACK
6
CONTINUOUS
10
173.177
20
-130.672
11
173.367
21
-130.767
0
LINE
8
BLACK
6
CONTINUOUS
10
173.367
20
-130.767
11
173.463
21
-130.862
0
LINE
8
BLACK
6
CONTINUOUS
10
173.463
20
-130.862
11
173.558
21
-131.052
0
LINE
8
BLACK
6
CONTINUOUS
10
173.558
20
-131.052
11
173.558
21
-131.624
0
LINE
8
BLACK
6
CONTINUOUS
10
173.558
20
-131.624
11
173.463
21
-131.814
0
LINE
8
BLACK
6
CONTINUOUS
10
173.463
20
-131.814
11
173.367
21
-131.91
0
LINE
8
BLACK
6
CONTINUOUS
10
173.367
20
-131.91
11
173.177
21
-132.005
0
LINE
8
BLACK
6
CONTINUOUS
10
173.177
20
-132.005
11
172.891
21
-132.005
0
LINE
8
BLACK
6
CONTINUOUS
10
174.701
20
-132.005
11
174.51
21
-131.91
0
LINE
8
BLACK
6
CONTINUOUS
10
174.51
20
-131.91
11
174.415
21
-131.719
0
LINE
8
BLACK
6
CONTINUOUS
10
174.415
20
-131.719
11
174.415
21
-130.005
0
LINE
8
BLACK
6
CONTINUOUS
10
176.224
20
-131.91
11
176.034
21
-132.005
0
LINE
8
BLACK
6
CONTINUOUS
10
176.034
20
-132.005
11
175.653
21
-132.005
0
LINE
8
BLACK
6
CONTINUOUS
10
175.653
20
-132.005
11
175.463
21
-131.91
0
LINE
8
BLACK
6
CONTINUOUS
10
175.463
20
-131.91
11
175.367
21
-131.719
0
LINE
8
BLACK
6
CONTINUOUS
10
175.367
20
-131.719
11
175.367
21
-130.957
0
LINE
8
BLACK
6
CONTINUOUS
10
175.367
20
-130.957
11
175.463
21
-130.767
0
LINE
8
BLACK
6
CONTINUOUS
10
175.463
20
-130.767
11
175.653
21
-130.672
0
LINE
8
BLACK
6
CONTINUOUS
10
175.653
20
-130.672
11
176.034
21
-130.672
0
LINE
8
BLACK
6
CONTINUOUS
10
176.034
20
-130.672
11
176.224
21
-130.767
0
LINE
8
BLACK
6
CONTINUOUS
10
176.224
20
-130.767
11
176.32
21
-130.957
0
LINE
8
BLACK
6
CONTINUOUS
10
176.32
20
-130.957
11
176.32
21
-131.148
0
LINE
8
BLACK
6
CONTINUOUS
10
176.32
20
-131.148
11
175.367
21
-131.338
0
LINE
8
BLACK
6
CONTINUOUS
10
177.082
20
-131.91
11
177.272
21
-132.005
0
LINE
8
BLACK
6
CONTINUOUS
10
177.272
20
-132.005
11
177.653
21
-132.005
0
LINE
8
BLACK
6
CONTINUOUS
10
177.653
20
-132.005
11
177.843
21
-131.91
0
LINE
8
BLACK
6
CONTINUOUS
10
177.843
20
-131.91
11
177.939
21
-131.719
0
LINE
8
BLACK
6
CONTINUOUS
10
177.939
20
-131.719
11
177.939
21
-131.624
0
LINE
8
BLACK
6
CONTINUOUS
10
177.939
20
-131.624
11
177.843
21
-131.433
0
LINE
8
BLACK
6
CONTINUOUS
10
177.843
20
-131.433
11
177.653
21
-131.338
0
LINE
8
BLACK
6
CONTINUOUS
10
177.653
20
-131.338
11
177.367
21
-131.338
0
LINE
8
BLACK
6
CONTINUOUS
10
177.367
20
-131.338
11
177.177
21
-131.243
0
LINE
8
BLACK
6
CONTINUOUS
10
177.177
20
-131.243
11
177.082
21
-131.052
0
LINE
8
BLACK
6
CONTINUOUS
10
177.082
20
-131.052
11
177.082
21
-130.957
0
LINE
8
BLACK
6
CONTINUOUS
10
177.082
20
-130.957
11
177.177
21
-130.767
0
LINE
8
BLACK
6
CONTINUOUS
10
177.177
20
-130.767
11
177.367
21
-130.672
0
LINE
8
BLACK
6
CONTINUOUS
10
177.367
20
-130.672
11
177.653
21
-130.672
0
LINE
8
BLACK
6
CONTINUOUS
10
177.653
20
-130.672
11
177.843
21
-130.767
0
LINE
8
BLACK
6
CONTINUOUS
10
178.605
20
-132.767
11
178.701
21
-132.672
0
LINE
8
BLACK
6
CONTINUOUS
10
178.701
20
-132.672
11
178.891
21
-132.386
0
LINE
8
BLACK
6
CONTINUOUS
10
178.891
20
-132.386
11
178.986
21
-132.195
0
LINE
8
BLACK
6
CONTINUOUS
10
178.986
20
-132.195
11
179.082
21
-131.91
0
LINE
8
BLACK
6
CONTINUOUS
10
179.082
20
-131.91
11
179.177
21
-131.433
0
LINE
8
BLACK
6
CONTINUOUS
10
179.177
20
-131.433
11
179.177
21
-131.052
0
LINE
8
BLACK
6
CONTINUOUS
10
179.177
20
-131.052
11
179.082
21
-130.576
0
LINE
8
BLACK
6
CONTINUOUS
10
179.082
20
-130.576
11
178.986
21
-130.291
0
LINE
8
BLACK
6
CONTINUOUS
10
178.986
20
-130.291
11
178.891
21
-130.1
0
LINE
8
BLACK
6
CONTINUOUS
10
178.891
20
-130.1
11
178.701
21
-129.814
0
LINE
8
BLACK
6
CONTINUOUS
10
178.701
20
-129.814
11
178.605
21
-129.719
0
LINE
8
BLACK
6
CONTINUOUS
10
128.45
20
-133.23
11
128.45
21
-134.23
0
LINE
8
BLACK
6
CONTINUOUS
10
127.95
20
-133.73
11
128.95
21
-133.73
0
LINE
8
BLACK
6
CONTINUOUS
10
132.605
20
-134.645
11
131.463
21
-134.645
0
LINE
8
BLACK
6
CONTINUOUS
10
132.034
20
-134.645
11
132.034
21
-132.645
0
LINE
8
BLACK
6
CONTINUOUS
10
132.034
20
-132.645
11
131.843
21
-132.931
0
LINE
8
BLACK
6
CONTINUOUS
10
131.843
20
-132.931
11
131.653
21
-133.121
0
LINE
8
BLACK
6
CONTINUOUS
10
131.653
20
-133.121
11
131.463
21
-133.216
0
LINE
8
BLACK
6
CONTINUOUS
10
133.463
20
-134.454
11
133.558
21
-134.55
0
LINE
8
BLACK
6
CONTINUOUS
10
133.558
20
-134.55
11
133.463
21
-134.645
0
LINE
8
BLACK
6
CONTINUOUS
10
133.463
20
-134.645
11
133.367
21
-134.55
0
LINE
8
BLACK
6
CONTINUOUS
10
133.367
20
-134.55
11
133.463
21
-134.454
0
LINE
8
BLACK
6
CONTINUOUS
10
133.463
20
-134.454
11
133.463
21
-134.645
0
LINE
8
BLACK
6
CONTINUOUS
10
134.796
20
-132.645
11
134.986
21
-132.645
0
LINE
8
BLACK
6
CONTINUOUS
10
134.986
20
-132.645
11
135.177
21
-132.74
0
LINE
8
BLACK
6
CONTINUOUS
10
135.177
20
-132.74
11
135.272
21
-132.835
0
LINE
8
BLACK
6
CONTINUOUS
10
135.272
20
-132.835
11
135.367
21
-133.026
0
LINE
8
BLACK
6
CONTINUOUS
10
135.367
20
-133.026
11
135.463
21
-133.407
0
LINE
8
BLACK
6
CONTINUOUS
10
135.463
20
-133.407
11
135.463
21
-133.883
0
LINE
8
BLACK
6
CONTINUOUS
10
135.463
20
-133.883
11
135.367
21
-134.264
0
LINE
8
BLACK
6
CONTINUOUS
10
135.367
20
-134.264
11
135.272
21
-134.454
0
LINE
8
BLACK
6
CONTINUOUS
10
135.272
20
-134.454
11
135.177
21
-134.55
0
LINE
8
BLACK
6
CONTINUOUS
10
135.177
20
-134.55
11
134.986
21
-134.645
0
LINE
8
BLACK
6
CONTINUOUS
10
134.986
20
-134.645
11
134.796
21
-134.645
0
LINE
8
BLACK
6
CONTINUOUS
10
134.796
20
-134.645
11
134.605
21
-134.55
0
LINE
8
BLACK
6
CONTINUOUS
10
134.605
20
-134.55
11
134.51
21
-134.454
0
LINE
8
BLACK
6
CONTINUOUS
10
134.51
20
-134.454
11
134.415
21
-134.264
0
LINE
8
BLACK
6
CONTINUOUS
10
134.415
20
-134.264
11
134.32
21
-133.883
0
LINE
8
BLACK
6
CONTINUOUS
10
134.32
20
-133.883
11
134.32
21
-133.407
0
LINE
8
BLACK
6
CONTINUOUS
10
134.32
20
-133.407
11
134.415
21
-133.026
0
LINE
8
BLACK
6
CONTINUOUS
10
134.415
20
-133.026
11
134.51
21
-132.835
0
LINE
8
BLACK
6
CONTINUOUS
10
134.51
20
-132.835
11
134.605
21
-132.74
0
LINE
8
BLACK
6
CONTINUOUS
10
134.605
20
-132.74
11
134.796
21
-132.645
0
LINE
8
BLACK
6
CONTINUOUS
10
136.701
20
-132.645
11
136.891
21
-132.645
0
LINE
8
BLACK
6
CONTINUOUS
10
136.891
20
-132.645
11
137.082
21
-132.74
0
LINE
8
BLACK
6
CONTINUOUS
10
137.082
20
-132.74
11
137.177
21
-132.835
0
LINE
8
BLACK
6
CONTINUOUS
10
137.177
20
-132.835
11
137.272
21
-133.026
0
LINE
8
BLACK
6
CONTINUOUS
10
137.272
20
-133.026
11
137.367
21
-133.407
0
LINE
8
BLACK
6
CONTINUOUS
10
137.367
20
-133.407
11
137.367
21
-133.883
0
LINE
8
BLACK
6
CONTINUOUS
10
137.367
20
-133.883
11
137.272
21
-134.264
0
LINE
8
BLACK
6
CONTINUOUS
10
137.272
20
-134.264
11
137.177
21
-134.454
0
LINE
8
BLACK
6
CONTINUOUS
10
137.177
20
-134.454
11
137.082
21
-134.55
0
LINE
8
BLACK
6
CONTINUOUS
10
137.082
20
-134.55
11
136.891
21
-134.645
0
LINE
8
BLACK
6
CONTINUOUS
10
136.891
20
-134.645
11
136.701
21
-134.645
0
LINE
8
BLACK
6
CONTINUOUS
10
136.701
20
-134.645
11
136.51
21
-134.55
0
LINE
8
BLACK
6
CONTINUOUS
10
136.51
20
-134.55
11
136.415
21
-134.454
0
LINE
8
BLACK
6
CONTINUOUS
10
136.415
20
-134.454
11
136.32
21
-134.264
0
LINE
8
BLACK
6
CONTINUOUS
10
136.32
20
-134.264
11
136.224
21
-133.883
0
LINE
8
BLACK
6
CONTINUOUS
10
136.224
20
-133.883
11
136.224
21
-133.407
0
LINE
8
BLACK
6
CONTINUOUS
10
136.224
20
-133.407
11
136.32
21
-133.026
0
LINE
8
BLACK
6
CONTINUOUS
10
136.32
20
-133.026
11
136.415
21
-132.835
0
LINE
8
BLACK
6
CONTINUOUS
10
136.415
20
-132.835
11
136.51
21
-132.74
0
LINE
8
BLACK
6
CONTINUOUS
10
136.51
20
-132.74
11
136.701
21
-132.645
0
LINE
8
BLACK
6
CONTINUOUS
10
138.605
20
-132.645
11
138.796
21
-132.645
0
LINE
8
BLACK
6
CONTINUOUS
10
138.796
20
-132.645
11
138.986
21
-132.74
0
LINE
8
BLACK
6
CONTINUOUS
10
138.986
20
-132.74
11
139.082
21
-132.835
0
LINE
8
BLACK
6
CONTINUOUS
10
139.082
20
-132.835
11
139.177
21
-133.026
0
LINE
8
BLACK
6
CONTINUOUS
10
139.177
20
-133.026
11
139.272
21
-133.407
0
LINE
8
BLACK
6
CONTINUOUS
10
139.272
20
-133.407
11
139.272
21
-133.883
0
LINE
8
BLACK
6
CONTINUOUS
10
139.272
20
-133.883
11
139.177
21
-134.264
0
LINE
8
BLACK
6
CONTINUOUS
10
139.177
20
-134.264
11
139.082
21
-134.454
0
LINE
8
BLACK
6
CONTINUOUS
10
139.082
20
-134.454
11
138.986
21
-134.55
0
LINE
8
BLACK
6
CONTINUOUS
10
138.986
20
-134.55
11
138.796
21
-134.645
0
LINE
8
BLACK
6
CONTINUOUS
10
138.796
20
-134.645
11
138.605
21
-134.645
0
LINE
8
BLACK
6
CONTINUOUS
10
138.605
20
-134.645
11
138.415
21
-134.55
0
LINE
8
BLACK
6
CONTINUOUS
10
138.415
20
-134.55
11
138.32
21
-134.454
0
LINE
8
BLACK
6
CONTINUOUS
10
138.32
20
-134.454
11
138.224
21
-134.264
0
LINE
8
BLACK
6
CONTINUOUS
10
138.224
20
-134.264
11
138.129
21
-133.883
0
LINE
8
BLACK
6
CONTINUOUS
10
138.129
20
-133.883
11
138.129
21
-133.407
0
LINE
8
BLACK
6
CONTINUOUS
10
138.129
20
-133.407
11
138.224
21
-133.026
0
LINE
8
BLACK
6
CONTINUOUS
10
138.224
20
-133.026
11
138.32
21
-132.835
0
LINE
8
BLACK
6
CONTINUOUS
10
138.32
20
-132.835
11
138.415
21
-132.74
0
LINE
8
BLACK
6
CONTINUOUS
10
138.415
20
-132.74
11
138.605
21
-132.645
0
LINE
8
BLACK
6
CONTINUOUS
10
140.129
20
-134.645
11
140.129
21
-133.312
0
LINE
8
BLACK
6
CONTINUOUS
10
140.129
20
-133.502
11
140.224
21
-133.407
0
LINE
8
BLACK
6
CONTINUOUS
10
140.224
20
-133.407
11
140.415
21
-133.312
0
LINE
8
BLACK
6
CONTINUOUS
10
140.415
20
-133.312
11
140.701
21
-133.312
0
LINE
8
BLACK
6
CONTINUOUS
10
140.701
20
-133.312
11
140.891
21
-133.407
0
LINE
8
BLACK
6
CONTINUOUS
10
140.891
20
-133.407
11
140.986
21
-133.597
0
LINE
8
BLACK
6
CONTINUOUS
10
140.986
20
-133.597
11
140.986
21
-134.645
0
LINE
8
BLACK
6
CONTINUOUS
10
140.986
20
-133.597
11
141.082
21
-133.407
0
LINE
8
BLACK
6
CONTINUOUS
10
141.082
20
-133.407
11
141.272
21
-133.312
0
LINE
8
BLACK
6
CONTINUOUS
10
141.272
20
-133.312
11
141.558
21
-133.312
0
LINE
8
BLACK
6
CONTINUOUS
10
141.558
20
-133.312
11
141.748
21
-133.407
0
LINE
8
BLACK
6
CONTINUOUS
10
141.748
20
-133.407
11
141.843
21
-133.597
0
LINE
8
BLACK
6
CONTINUOUS
10
141.843
20
-133.597
11
141.843
21
-134.645
0
LINE
8
BLACK
6
CONTINUOUS
10
142.796
20
-134.645
11
142.796
21
-133.312
0
LINE
8
BLACK
6
CONTINUOUS
10
142.796
20
-133.502
11
142.891
21
-133.407
0
LINE
8
BLACK
6
CONTINUOUS
10
142.891
20
-133.407
11
143.082
21
-133.312
0
LINE
8
BLACK
6
CONTINUOUS
10
143.082
20
-133.312
11
143.367
21
-133.312
0
LINE
8
BLACK
6
CONTINUOUS
10
143.367
20
-133.312
11
143.558
21
-133.407
0
LINE
8
BLACK
6
CONTINUOUS
10
143.558
20
-133.407
11
143.653
21
-133.597
0
LINE
8
BLACK
6
CONTINUOUS
10
143.653
20
-133.597
11
143.653
21
-134.645
0
LINE
8
BLACK
6
CONTINUOUS
10
143.653
20
-133.597
11
143.748
21
-133.407
0
LINE
8
BLACK
6
CONTINUOUS
10
143.748
20
-133.407
11
143.939
21
-133.312
0
LINE
8
BLACK
6
CONTINUOUS
10
143.939
20
-133.312
11
144.224
21
-133.312
0
LINE
8
BLACK
6
CONTINUOUS
10
144.224
20
-133.312
11
144.415
21
-133.407
0
LINE
8
BLACK
6
CONTINUOUS
10
144.415
20
-133.407
11
144.51
21
-133.597
0
LINE
8
BLACK
6
CONTINUOUS
10
144.51
20
-133.597
11
144.51
21
-134.645
0
LINE
8
BLACK
6
CONTINUOUS
10
148.415
20
-132.55
11
146.701
21
-135.121
0
LINE
8
BLACK
6
CONTINUOUS
10
150.986
20
-132.645
11
151.177
21
-132.645
0
LINE
8
BLACK
6
CONTINUOUS
10
151.177
20
-132.645
11
151.367
21
-132.74
0
LINE
8
BLACK
6
CONTINUOUS
10
151.367
20
-132.74
11
151.463
21
-132.835
0
LINE
8
BLACK
6
CONTINUOUS
10
151.463
20
-132.835
11
151.558
21
-133.026
0
LINE
8
BLACK
6
CONTINUOUS
10
151.558
20
-133.026
11
151.653
21
-133.407
0
LINE
8
BLACK
6
CONTINUOUS
10
151.653
20
-133.407
11
151.653
21
-133.883
0
LINE
8
BLACK
6
CONTINUOUS
10
151.653
20
-133.883
11
151.558
21
-134.264
0
LINE
8
BLACK
6
CONTINUOUS
10
151.558
20
-134.264
11
151.463
21
-134.454
0
LINE
8
BLACK
6
CONTINUOUS
10
151.463
20
-134.454
11
151.367
21
-134.55
0
LINE
8
BLACK
6
CONTINUOUS
10
151.367
20
-134.55
11
151.177
21
-134.645
0
LINE
8
BLACK
6
CONTINUOUS
10
151.177
20
-134.645
11
150.986
21
-134.645
0
LINE
8
BLACK
6
CONTINUOUS
10
150.986
20
-134.645
11
150.796
21
-134.55
0
LINE
8
BLACK
6
CONTINUOUS
10
150.796
20
-134.55
11
150.701
21
-134.454
0
LINE
8
BLACK
6
CONTINUOUS
10
150.701
20
-134.454
11
150.605
21
-134.264
0
LINE
8
BLACK
6
CONTINUOUS
10
150.605
20
-134.264
11
150.51
21
-133.883
0
LINE
8
BLACK
6
CONTINUOUS
10
150.51
20
-133.883
11
150.51
21
-133.407
0
LINE
8
BLACK
6
CONTINUOUS
10
150.51
20
-133.407
11
150.605
21
-133.026
0
LINE
8
BLACK
6
CONTINUOUS
10
150.605
20
-133.026
11
150.701
21
-132.835
0
LINE
8
BLACK
6
CONTINUOUS
10
150.701
20
-132.835
11
150.796
21
-132.74
0
LINE
8
BLACK
6
CONTINUOUS
10
150.796
20
-132.74
11
150.986
21
-132.645
0
LINE
8
BLACK
6
CONTINUOUS
10
152.51
20
-134.454
11
152.605
21
-134.55
0
LINE
8
BLACK
6
CONTINUOUS
10
152.605
20
-134.55
11
152.51
21
-134.645
0
LINE
8
BLACK
6
CONTINUOUS
10
152.51
20
-134.645
11
152.415
21
-134.55
0
LINE
8
BLACK
6
CONTINUOUS
10
152.415
20
-134.55
11
152.51
21
-134.454
0
LINE
8
BLACK
6
CONTINUOUS
10
152.51
20
-134.454
11
152.51
21
-134.645
0
LINE
8
BLACK
6
CONTINUOUS
10
153.843
20
-132.645
11
154.034
21
-132.645
0
LINE
8
BLACK
6
CONTINUOUS
10
154.034
20
-132.645
11
154.224
21
-132.74
0
LINE
8
BLACK
6
CONTINUOUS
10
154.224
20
-132.74
11
154.32
21
-132.835
0
LINE
8
BLACK
6
CONTINUOUS
10
154.32
20
-132.835
11
154.415
21
-133.026
0
LINE
8
BLACK
6
CONTINUOUS
10
154.415
20
-133.026
11
154.51
21
-133.407
0
LINE
8
BLACK
6
CONTINUOUS
10
154.51
20
-133.407
11
154.51
21
-133.883
0
LINE
8
BLACK
6
CONTINUOUS
10
154.51
20
-133.883
11
154.415
21
-134.264
0
LINE
8
BLACK
6
CONTINUOUS
10
154.415
20
-134.264
11
154.32
21
-134.454
0
LINE
8
BLACK
6
CONTINUOUS
10
154.32
20
-134.454
11
154.224
21
-134.55
0
LINE
8
BLACK
6
CONTINUOUS
10
154.224
20
-134.55
11
154.034
21
-134.645
0
LINE
8
BLACK
6
CONTINUOUS
10
154.034
20
-134.645
11
153.843
21
-134.645
0
LINE
8
BLACK
6
CONTINUOUS
10
153.843
20
-134.645
11
153.653
21
-134.55
0
LINE
8
BLACK
6
CONTINUOUS
10
153.653
20
-134.55
11
153.558
21
-134.454
0
LINE
8
BLACK
6
CONTINUOUS
10
153.558
20
-134.454
11
153.463
21
-134.264
0
LINE
8
BLACK
6
CONTINUOUS
10
153.463
20
-134.264
11
153.367
21
-133.883
0
LINE
8
BLACK
6
CONTINUOUS
10
153.367
20
-133.883
11
153.367
21
-133.407
0
LINE
8
BLACK
6
CONTINUOUS
10
153.367
20
-133.407
11
153.463
21
-133.026
0
LINE
8
BLACK
6
CONTINUOUS
10
153.463
20
-133.026
11
153.558
21
-132.835
0
LINE
8
BLACK
6
CONTINUOUS
10
153.558
20
-132.835
11
153.653
21
-132.74
0
LINE
8
BLACK
6
CONTINUOUS
10
153.653
20
-132.74
11
153.843
21
-132.645
0
LINE
8
BLACK
6
CONTINUOUS
10
155.177
20
-132.645
11
156.415
21
-132.645
0
LINE
8
BLACK
6
CONTINUOUS
10
156.415
20
-132.645
11
155.748
21
-133.407
0
LINE
8
BLACK
6
CONTINUOUS
10
155.748
20
-133.407
11
156.034
21
-133.407
0
LINE
8
BLACK
6
CONTINUOUS
10
156.034
20
-133.407
11
156.224
21
-133.502
0
LINE
8
BLACK
6
CONTINUOUS
10
156.224
20
-133.502
11
156.32
21
-133.597
0
LINE
8
BLACK
6
CONTINUOUS
10
156.32
20
-133.597
11
156.415
21
-133.788
0
LINE
8
BLACK
6
CONTINUOUS
10
156.415
20
-133.788
11
156.415
21
-134.264
0
LINE
8
BLACK
6
CONTINUOUS
10
156.415
20
-134.264
11
156.32
21
-134.454
0
LINE
8
BLACK
6
CONTINUOUS
10
156.32
20
-134.454
11
156.224
21
-134.55
0
LINE
8
BLACK
6
CONTINUOUS
10
156.224
20
-134.55
11
156.034
21
-134.645
0
LINE
8
BLACK
6
CONTINUOUS
10
156.034
20
-134.645
11
155.463
21
-134.645
0
LINE
8
BLACK
6
CONTINUOUS
10
155.463
20
-134.645
11
155.272
21
-134.55
0
LINE
8
BLACK
6
CONTINUOUS
10
155.272
20
-134.55
11
155.177
21
-134.454
0
LINE
8
BLACK
6
CONTINUOUS
10
157.367
20
-134.645
11
157.748
21
-134.645
0
LINE
8
BLACK
6
CONTINUOUS
10
157.748
20
-134.645
11
157.939
21
-134.55
0
LINE
8
BLACK
6
CONTINUOUS
10
157.939
20
-134.55
11
158.034
21
-134.454
0
LINE
8
BLACK
6
CONTINUOUS
10
158.034
20
-134.454
11
158.224
21
-134.169
0
LINE
8
BLACK
6
CONTINUOUS
10
158.224
20
-134.169
11
158.32
21
-133.788
0
LINE
8
BLACK
6
CONTINUOUS
10
158.32
20
-133.788
11
158.32
21
-133.026
0
LINE
8
BLACK
6
CONTINUOUS
10
158.32
20
-133.026
11
158.224
21
-132.835
0
LINE
8
BLACK
6
CONTINUOUS
10
158.224
20
-132.835
11
158.129
21
-132.74
0
LINE
8
BLACK
6
CONTINUOUS
10
158.129
20
-132.74
11
157.939
21
-132.645
0
LINE
8
BLACK
6
CONTINUOUS
10
157.939
20
-132.645
11
157.558
21
-132.645
0
LINE
8
BLACK
6
CONTINUOUS
10
157.558
20
-132.645
11
157.367
21
-132.74
0
LINE
8
BLACK
6
CONTINUOUS
10
157.367
20
-132.74
11
157.272
21
-132.835
0
LINE
8
BLACK
6
CONTINUOUS
10
157.272
20
-132.835
11
157.177
21
-133.026
0
LINE
8
BLACK
6
CONTINUOUS
10
157.177
20
-133.026
11
157.177
21
-133.502
0
LINE
8
BLACK
6
CONTINUOUS
10
157.177
20
-133.502
11
157.272
21
-133.692
0
LINE
8
BLACK
6
CONTINUOUS
10
157.272
20
-133.692
11
157.367
21
-133.788
0
LINE
8
BLACK
6
CONTINUOUS
10
157.367
20
-133.788
11
157.558
21
-133.883
0
LINE
8
BLACK
6
CONTINUOUS
10
157.558
20
-133.883
11
157.939
21
-133.883
0
LINE
8
BLACK
6
CONTINUOUS
10
157.939
20
-133.883
11
158.129
21
-133.788
0
LINE
8
BLACK
6
CONTINUOUS
10
158.129
20
-133.788
11
158.224
21
-133.692
0
LINE
8
BLACK
6
CONTINUOUS
10
158.224
20
-133.692
11
158.32
21
-133.502
0
LINE
8
BLACK
6
CONTINUOUS
10
160.034
20
-133.312
11
160.034
21
-134.645
0
LINE
8
BLACK
6
CONTINUOUS
10
159.558
20
-132.55
11
159.082
21
-133.978
0
LINE
8
BLACK
6
CONTINUOUS
10
159.082
20
-133.978
11
160.32
21
-133.978
0
LINE
8
BLACK
6
CONTINUOUS
10
160.986
20
-132.645
11
160.986
21
-133.026
0
LINE
8
BLACK
6
CONTINUOUS
10
161.748
20
-132.645
11
161.748
21
-133.026
0
LINE
8
BLACK
6
CONTINUOUS
10
164.701
20
-135.407
11
164.605
21
-135.312
0
LINE
8
BLACK
6
CONTINUOUS
10
164.605
20
-135.312
11
164.415
21
-135.026
0
LINE
8
BLACK
6
CONTINUOUS
10
164.415
20
-135.026
11
164.32
21
-134.835
0
LINE
8
BLACK
6
CONTINUOUS
10
164.32
20
-134.835
11
164.224
21
-134.55
0
LINE
8
BLACK
6
CONTINUOUS
10
164.224
20
-134.55
11
164.129
21
-134.073
0
LINE
8
BLACK
6
CONTINUOUS
10
164.129
20
-134.073
11
164.129
21
-133.692
0
LINE
8
BLACK
6
CONTINUOUS
10
164.129
20
-133.692
11
164.224
21
-133.216
0
LINE
8
BLACK
6
CONTINUOUS
10
164.224
20
-133.216
11
164.32
21
-132.931
0
LINE
8
BLACK
6
CONTINUOUS
10
164.32
20
-132.931
11
164.415
21
-132.74
0
LINE
8
BLACK
6
CONTINUOUS
10
164.415
20
-132.74
11
164.605
21
-132.454
0
LINE
8
BLACK
6
CONTINUOUS
10
164.605
20
-132.454
11
164.701
21
-132.359
0
LINE
8
BLACK
6
CONTINUOUS
10
165.272
20
-132.645
11
166.51
21
-132.645
0
LINE
8
BLACK
6
CONTINUOUS
10
166.51
20
-132.645
11
165.843
21
-133.407
0
LINE
8
BLACK
6
CONTINUOUS
10
165.843
20
-133.407
11
166.129
21
-133.407
0
LINE
8
BLACK
6
CONTINUOUS
10
166.129
20
-133.407
11
166.32
21
-133.502
0
LINE
8
BLACK
6
CONTINUOUS
10
166.32
20
-133.502
11
166.415
21
-133.597
0
LINE
8
BLACK
6
CONTINUOUS
10
166.415
20
-133.597
11
166.51
21
-133.788
0
LINE
8
BLACK
6
CONTINUOUS
10
166.51
20
-133.788
11
166.51
21
-134.264
0
LINE
8
BLACK
6
CONTINUOUS
10
166.51
20
-134.264
11
166.415
21
-134.454
0
LINE
8
BLACK
6
CONTINUOUS
10
166.415
20
-134.454
11
166.32
21
-134.55
0
LINE
8
BLACK
6
CONTINUOUS
10
166.32
20
-134.55
11
166.129
21
-134.645
0
LINE
8
BLACK
6
CONTINUOUS
10
166.129
20
-134.645
11
165.558
21
-134.645
0
LINE
8
BLACK
6
CONTINUOUS
10
165.558
20
-134.645
11
165.367
21
-134.55
0
LINE
8
BLACK
6
CONTINUOUS
10
165.367
20
-134.55
11
165.272
21
-134.454
0
LINE
8
BLACK
6
CONTINUOUS
10
168.415
20
-134.645
11
167.272
21
-134.645
0
LINE
8
BLACK
6
CONTINUOUS
10
167.843
20
-134.645
11
167.843
21
-132.645
0
LINE
8
BLACK
6
CONTINUOUS
10
167.843
20
-132.645
11
167.653
21
-132.931
0
LINE
8
BLACK
6
CONTINUOUS
10
167.653
20
-132.931
11
167.463
21
-133.121
0
LINE
8
BLACK
6
CONTINUOUS
10
167.463
20
-133.121
11
167.272
21
-133.216
0
LINE
8
BLACK
6
CONTINUOUS
10
170.796
20
-134.645
11
170.796
21
-132.645
0
LINE
8
BLACK
6
CONTINUOUS
10
171.653
20
-134.645
11
171.653
21
-133.597
0
LINE
8
BLACK
6
CONTINUOUS
10
171.653
20
-133.597
11
171.558
21
-133.407
0
LINE
8
BLACK
6
CONTINUOUS
10
171.558
20
-133.407
11
171.367
21
-133.312
0
LINE
8
BLACK
6
CONTINUOUS
10
171.367
20
-133.312
11
171.082
21
-133.312
0
LINE
8
BLACK
6
CONTINUOUS
10
171.082
20
-133.312
11
170.891
21
-133.407
0
LINE
8
BLACK
6
CONTINUOUS
10
170.891
20
-133.407
11
170.796
21
-133.502
0
LINE
8
BLACK
6
CONTINUOUS
10
172.891
20
-134.645
11
172.701
21
-134.55
0
LINE
8
BLACK
6
CONTINUOUS
10
172.701
20
-134.55
11
172.605
21
-134.454
0
LINE
8
BLACK
6
CONTINUOUS
10
172.605
20
-134.454
11
172.51
21
-134.264
0
LINE
8
BLACK
6
CONTINUOUS
10
172.51
20
-134.264
11
172.51
21
-133.692
0
LINE
8
BLACK
6
CONTINUOUS
10
172.51
20
-133.692
11
172.605
21
-133.502
0
LINE
8
BLACK
6
CONTINUOUS
10
172.605
20
-133.502
11
172.701
21
-133.407
0
LINE
8
BLACK
6
CONTINUOUS
10
172.701
20
-133.407
11
172.891
21
-133.312
0
LINE
8
BLACK
6
CONTINUOUS
10
172.891
20
-133.312
11
173.177
21
-133.312
0
LINE
8
BLACK
6
CONTINUOUS
10
173.177
20
-133.312
11
173.367
21
-133.407
0
LINE
8
BLACK
6
CONTINUOUS
10
173.367
20
-133.407
11
173.463
21
-133.502
0
LINE
8
BLACK
6
CONTINUOUS
10
173.463
20
-133.502
11
173.558
21
-133.692
0
LINE
8
BLACK
6
CONTINUOUS
10
173.558
20
-133.692
11
173.558
21
-134.264
0
LINE
8
BLACK
6
CONTINUOUS
10
173.558
20
-134.264
11
173.463
21
-134.454
0
LINE
8
BLACK
6
CONTINUOUS
10
173.463
20
-134.454
11
173.367
21
-134.55
0
LINE
8
BLACK
6
CONTINUOUS
10
173.367
20
-134.55
11
173.177
21
-134.645
0
LINE
8
BLACK
6
CONTINUOUS
10
173.177
20
-134.645
11
172.891
21
-134.645
0
LINE
8
BLACK
6
CONTINUOUS
10
174.701
20
-134.645
11
174.51
21
-134.55
0
LINE
8
BLACK
6
CONTINUOUS
10
174.51
20
-134.55
11
174.415
21
-134.359
0
LINE
8
BLACK
6
CONTINUOUS
10
174.415
20
-134.359
11
174.415
21
-132.645
0
LINE
8
BLACK
6
CONTINUOUS
10
176.224
20
-134.55
11
176.034
21
-134.645
0
LINE
8
BLACK
6
CONTINUOUS
10
176.034
20
-134.645
11
175.653
21
-134.645
0
LINE
8
BLACK
6
CONTINUOUS
10
175.653
20
-134.645
11
175.463
21
-134.55
0
LINE
8
BLACK
6
CONTINUOUS
10
175.463
20
-134.55
11
175.367
21
-134.359
0
LINE
8
BLACK
6
CONTINUOUS
10
175.367
20
-134.359
11
175.367
21
-133.597
0
LINE
8
BLACK
6
CONTINUOUS
10
175.367
20
-133.597
11
175.463
21
-133.407
0
LINE
8
BLACK
6
CONTINUOUS
10
175.463
20
-133.407
11
175.653
21
-133.312
0
LINE
8
BLACK
6
CONTINUOUS
10
175.653
20
-133.312
11
176.034
21
-133.312
0
LINE
8
BLACK
6
CONTINUOUS
10
176.034
20
-133.312
11
176.224
21
-133.407
0
LINE
8
BLACK
6
CONTINUOUS
10
176.224
20
-133.407
11
176.32
21
-133.597
0
LINE
8
BLACK
6
CONTINUOUS
10
176.32
20
-133.597
11
176.32
21
-133.788
0
LINE
8
BLACK
6
CONTINUOUS
10
176.32
20
-133.788
11
175.367
21
-133.978
0
LINE
8
BLACK
6
CONTINUOUS
10
177.082
20
-134.55
11
177.272
21
-134.645
0
LINE
8
BLACK
6
CONTINUOUS
10
177.272
20
-134.645
11
177.653
21
-134.645
0
LINE
8
BLACK
6
CONTINUOUS
10
177.653
20
-134.645
11
177.843
21
-134.55
0
LINE
8
BLACK
6
CONTINUOUS
10
177.843
20
-134.55
11
177.939
21
-134.359
0
LINE
8
BLACK
6
CONTINUOUS
10
177.939
20
-134.359
11
177.939
21
-134.264
0
LINE
8
BLACK
6
CONTINUOUS
10
177.939
20
-134.264
11
177.843
21
-134.073
0
LINE
8
BLACK
6
CONTINUOUS
10
177.843
20
-134.073
11
177.653
21
-133.978
0
LINE
8
BLACK
6
CONTINUOUS
10
177.653
20
-133.978
11
177.367
21
-133.978
0
LINE
8
BLACK
6
CONTINUOUS
10
177.367
20
-133.978
11
177.177
21
-133.883
0
LINE
8
BLACK
6
CONTINUOUS
10
177.177
20
-133.883
11
177.082
21
-133.692
0
LINE
8
BLACK
6
CONTINUOUS
10
177.082
20
-133.692
11
177.082
21
-133.597
0
LINE
8
BLACK
6
CONTINUOUS
10
177.082
20
-133.597
11
177.177
21
-133.407
0
LINE
8
BLACK
6
CONTINUOUS
10
177.177
20
-133.407
11
177.367
21
-133.312
0
LINE
8
BLACK
6
CONTINUOUS
10
177.367
20
-133.312
11
177.653
21
-133.312
0
LINE
8
BLACK
6
CONTINUOUS
10
177.653
20
-133.312
11
177.843
21
-133.407
0
LINE
8
BLACK
6
CONTINUOUS
10
178.605
20
-135.407
11
178.701
21
-135.312
0
LINE
8
BLACK
6
CONTINUOUS
10
178.701
20
-135.312
11
178.891
21
-135.026
0
LINE
8
BLACK
6
CONTINUOUS
10
178.891
20
-135.026
11
178.986
21
-134.835
0
LINE
8
BLACK
6
CONTINUOUS
10
178.986
20
-134.835
11
179.082
21
-134.55
0
LINE
8
BLACK
6
CONTINUOUS
10
179.082
20
-134.55
11
179.177
21
-134.073
0
LINE
8
BLACK
6
CONTINUOUS
10
179.177
20
-134.073
11
179.177
21
-133.692
0
LINE
8
BLACK
6
CONTINUOUS
10
179.177
20
-133.692
11
179.082
21
-133.216
0
LINE
8
BLACK
6
CONTINUOUS
10
179.082
20
-133.216
11
178.986
21
-132.931
0
LINE
8
BLACK
6
CONTINUOUS
10
178.986
20
-132.931
11
178.891
21
-132.74
0
LINE
8
BLACK
6
CONTINUOUS
10
178.891
20
-132.74
11
178.701
21
-132.454
0
LINE
8
BLACK
6
CONTINUOUS
10
178.701
20
-132.454
11
178.605
21
-132.359
0
LINE
8
BLACK
6
CONTINUOUS
10
128.79
20
-136.756
11
128.79
21
-135.984
0
LINE
8
BLACK
6
CONTINUOUS
10
128.79
20
-135.984
11
128.018
21
-135.984
0
LINE
8
BLACK
6
CONTINUOUS
10
128.018
20
-135.984
11
128.018
21
-136.756
0
LINE
8
BLACK
6
CONTINUOUS
10
128.018
20
-136.756
11
128.79
21
-136.756
0
LINE
8
BLACK
6
CONTINUOUS
10
132.605
20
-137.285
11
131.463
21
-137.285
0
LINE
8
BLACK
6
CONTINUOUS
10
132.034
20
-137.285
11
132.034
21
-135.285
0
LINE
8
BLACK
6
CONTINUOUS
10
132.034
20
-135.285
11
131.843
21
-135.571
0
LINE
8
BLACK
6
CONTINUOUS
10
131.843
20
-135.571
11
131.653
21
-135.761
0
LINE
8
BLACK
6
CONTINUOUS
10
131.653
20
-135.761
11
131.463
21
-135.856
0
LINE
8
BLACK
6
CONTINUOUS
10
133.463
20
-137.094
11
133.558
21
-137.19
0
LINE
8
BLACK
6
CONTINUOUS
10
133.558
20
-137.19
11
133.463
21
-137.285
0
LINE
8
BLACK
6
CONTINUOUS
10
133.463
20
-137.285
11
133.367
21
-137.19
0
LINE
8
BLACK
6
CONTINUOUS
10
133.367
20
-137.19
11
133.463
21
-137.094
0
LINE
8
BLACK
6
CONTINUOUS
10
133.463
20
-137.094
11
133.463
21
-137.285
0
LINE
8
BLACK
6
CONTINUOUS
10
134.796
20
-135.285
11
134.986
21
-135.285
0
LINE
8
BLACK
6
CONTINUOUS
10
134.986
20
-135.285
11
135.177
21
-135.38
0
LINE
8
BLACK
6
CONTINUOUS
10
135.177
20
-135.38
11
135.272
21
-135.475
0
LINE
8
BLACK
6
CONTINUOUS
10
135.272
20
-135.475
11
135.367
21
-135.666
0
LINE
8
BLACK
6
CONTINUOUS
10
135.367
20
-135.666
11
135.463
21
-136.047
0
LINE
8
BLACK
6
CONTINUOUS
10
135.463
20
-136.047
11
135.463
21
-136.523
0
LINE
8
BLACK
6
CONTINUOUS
10
135.463
20
-136.523
11
135.367
21
-136.904
0
LINE
8
BLACK
6
CONTINUOUS
10
135.367
20
-136.904
11
135.272
21
-137.094
0
LINE
8
BLACK
6
CONTINUOUS
10
135.272
20
-137.094
11
135.177
21
-137.19
0
LINE
8
BLACK
6
CONTINUOUS
10
135.177
20
-137.19
11
134.986
21
-137.285
0
LINE
8
BLACK
6
CONTINUOUS
10
134.986
20
-137.285
11
134.796
21
-137.285
0
LINE
8
BLACK
6
CONTINUOUS
10
134.796
20
-137.285
11
134.605
21
-137.19
0
LINE
8
BLACK
6
CONTINUOUS
10
134.605
20
-137.19
11
134.51
21
-137.094
0
LINE
8
BLACK
6
CONTINUOUS
10
134.51
20
-137.094
11
134.415
21
-136.904
0
LINE
8
BLACK
6
CONTINUOUS
10
134.415
20
-136.904
11
134.32
21
-136.523
0
LINE
8
BLACK
6
CONTINUOUS
10
134.32
20
-136.523
11
134.32
21
-136.047
0
LINE
8
BLACK
6
CONTINUOUS
10
134.32
20
-136.047
11
134.415
21
-135.666
0
LINE
8
BLACK
6
CONTINUOUS
10
134.415
20
-135.666
11
134.51
21
-135.475
0
LINE
8
BLACK
6
CONTINUOUS
10
134.51
20
-135.475
11
134.605
21
-135.38
0
LINE
8
BLACK
6
CONTINUOUS
10
134.605
20
-135.38
11
134.796
21
-135.285
0
LINE
8
BLACK
6
CONTINUOUS
10
136.415
20
-137.285
11
136.796
21
-137.285
0
LINE
8
BLACK
6
CONTINUOUS
10
136.796
20
-137.285
11
136.986
21
-137.19
0
LINE
8
BLACK
6
CONTINUOUS
10
136.986
20
-137.19
11
137.082
21
-137.094
0
LINE
8
BLACK
6
CONTINUOUS
10
137.082
20
-137.094
11
137.272
21
-136.809
0
LINE
8
BLACK
6
CONTINUOUS
10
137.272
20
-136.809
11
137.367
21
-136.428
0
LINE
8
BLACK
6
CONTINUOUS
10
137.367
20
-136.428
11
137.367
21
-135.666
0
LINE
8
BLACK
6
CONTINUOUS
10
137.367
20
-135.666
11
137.272
21
-135.475
0
LINE
8
BLACK
6
CONTINUOUS
10
137.272
20
-135.475
11
137.177
21
-135.38
0
LINE
8
BLACK
6
CONTINUOUS
10
137.177
20
-135.38
11
136.986
21
-135.285
0
LINE
8
BLACK
6
CONTINUOUS
10
136.986
20
-135.285
11
136.605
21
-135.285
0
LINE
8
BLACK
6
CONTINUOUS
10
136.605
20
-135.285
11
136.415
21
-135.38
0
LINE
8
BLACK
6
CONTINUOUS
10
136.415
20
-135.38
11
136.32
21
-135.475
0
LINE
8
BLACK
6
CONTINUOUS
10
136.32
20
-135.475
11
136.224
21
-135.666
0
LINE
8
BLACK
6
CONTINUOUS
10
136.224
20
-135.666
11
136.224
21
-136.142
0
LINE
8
BLACK
6
CONTINUOUS
10
136.224
20
-136.142
11
136.32
21
-136.332
0
LINE
8
BLACK
6
CONTINUOUS
10
136.32
20
-136.332
11
136.415
21
-136.428
0
LINE
8
BLACK
6
CONTINUOUS
10
136.415
20
-136.428
11
136.605
21
-136.523
0
LINE
8
BLACK
6
CONTINUOUS
10
136.605
20
-136.523
11
136.986
21
-136.523
0
LINE
8
BLACK
6
CONTINUOUS
10
136.986
20
-136.523
11
137.177
21
-136.428
0
LINE
8
BLACK
6
CONTINUOUS
10
137.177
20
-136.428
11
137.272
21
-136.332
0
LINE
8
BLACK
6
CONTINUOUS
10
137.272
20
-136.332
11
137.367
21
-136.142
0
LINE
8
BLACK
6
CONTINUOUS
10
138.129
20
-135.475
11
138.224
21
-135.38
0
LINE
8
BLACK
6
CONTINUOUS
10
138.224
20
-135.38
11
138.415
21
-135.285
0
LINE
8
BLACK
6
CONTINUOUS
10
138.415
20
-135.285
11
138.891
21
-135.285
0
LINE
8
BLACK
6
CONTINUOUS
10
138.891
20
-135.285
11
139.082
21
-135.38
0
LINE
8
BLACK
6
CONTINUOUS
10
139.082
20
-135.38
11
139.177
21
-135.475
0
LINE
8
BLACK
6
CONTINUOUS
10
139.177
20
-135.475
11
139.272
21
-135.666
0
LINE
8
BLACK
6
CONTINUOUS
10
139.272
20
-135.666
11
139.272
21
-135.856
0
LINE
8
BLACK
6
CONTINUOUS
10
139.272
20
-135.856
11
139.177
21
-136.142
0
LINE
8
BLACK
6
CONTINUOUS
10
139.177
20
-136.142
11
138.034
21
-137.285
0
LINE
8
BLACK
6
CONTINUOUS
10
138.034
20
-137.285
11
139.272
21
-137.285
0
LINE
8
BLACK
6
CONTINUOUS
10
140.129
20
-137.285
11
140.129
21
-135.952
0
LINE
8
BLACK
6
CONTINUOUS
10
140.129
20
-136.142
11
140.224
21
-136.047
0
LINE
8
BLACK
6
CONTINUOUS
10
140.224
20
-136.047
11
140.415
21
-135.952
0
LINE
8
BLACK
6
CONTINUOUS
10
140.415
20
-135.952
11
140.701
21
-135.952
0
LINE
8
BLACK
6
CONTINUOUS
10
140.701
20
-135.952
11
140.891
21
-136.047
0
LINE
8
BLACK
6
CONTINUOUS
10
140.891
20
-136.047
11
140.986
21
-136.237
0
LINE
8
BLACK
6
CONTINUOUS
10
140.986
20
-136.237
11
140.986
21
-137.285
0
LINE
8
BLACK
6
CONTINUOUS
10
140.986
20
-136.237
11
141.082
21
-136.047
0
LINE
8
BLACK
6
CONTINUOUS
10
141.082
20
-136.047
11
141.272
21
-135.952
0
LINE
8
BLACK
6
CONTINUOUS
10
141.272
20
-135.952
11
141.558
21
-135.952
0
LINE
8
BLACK
6
CONTINUOUS
10
141.558
20
-135.952
11
141.748
21
-136.047
0
LINE
8
BLACK
6
CONTINUOUS
10
141.748
20
-136.047
11
141.843
21
-136.237
0
LINE
8
BLACK
6
CONTINUOUS
10
141.843
20
-136.237
11
141.843
21
-137.285
0
LINE
8
BLACK
6
CONTINUOUS
10
142.796
20
-137.285
11
142.796
21
-135.952
0
LINE
8
BLACK
6
CONTINUOUS
10
142.796
20
-136.142
11
142.891
21
-136.047
0
LINE
8
BLACK
6
CONTINUOUS
10
142.891
20
-136.047
11
143.082
21
-135.952
0
LINE
8
BLACK
6
CONTINUOUS
10
143.082
20
-135.952
11
143.367
21
-135.952
0
LINE
8
BLACK
6
CONTINUOUS
10
143.367
20
-135.952
11
143.558
21
-136.047
0
LINE
8
BLACK
6
CONTINUOUS
10
143.558
20
-136.047
11
143.653
21
-136.237
0
LINE
8
BLACK
6
CONTINUOUS
10
143.653
20
-136.237
11
143.653
21
-137.285
0
LINE
8
BLACK
6
CONTINUOUS
10
143.653
20
-136.237
11
143.748
21
-136.047
0
LINE
8
BLACK
6
CONTINUOUS
10
143.748
20
-136.047
11
143.939
21
-135.952
0
LINE
8
BLACK
6
CONTINUOUS
10
143.939
20
-135.952
11
144.224
21
-135.952
0
LINE
8
BLACK
6
CONTINUOUS
10
144.224
20
-135.952
11
144.415
21
-136.047
0
LINE
8
BLACK
6
CONTINUOUS
10
144.415
20
-136.047
11
144.51
21
-136.237
0
LINE
8
BLACK
6
CONTINUOUS
10
144.51
20
-136.237
11
144.51
21
-137.285
0
LINE
8
BLACK
6
CONTINUOUS
10
148.415
20
-135.19
11
146.701
21
-137.761
0
LINE
8
BLACK
6
CONTINUOUS
10
150.986
20
-135.285
11
151.177
21
-135.285
0
LINE
8
BLACK
6
CONTINUOUS
10
151.177
20
-135.285
11
151.367
21
-135.38
0
LINE
8
BLACK
6
CONTINUOUS
10
151.367
20
-135.38
11
151.463
21
-135.475
0
LINE
8
BLACK
6
CONTINUOUS
10
151.463
20
-135.475
11
151.558
21
-135.666
0
LINE
8
BLACK
6
CONTINUOUS
10
151.558
20
-135.666
11
151.653
21
-136.047
0
LINE
8
BLACK
6
CONTINUOUS
10
151.653
20
-136.047
11
151.653
21
-136.523
0
LINE
8
BLACK
6
CONTINUOUS
10
151.653
20
-136.523
11
151.558
21
-136.904
0
LINE
8
BLACK
6
CONTINUOUS
10
151.558
20
-136.904
11
151.463
21
-137.094
0
LINE
8
BLACK
6
CONTINUOUS
10
151.463
20
-137.094
11
151.367
21
-137.19
0
LINE
8
BLACK
6
CONTINUOUS
10
151.367
20
-137.19
11
151.177
21
-137.285
0
LINE
8
BLACK
6
CONTINUOUS
10
151.177
20
-137.285
11
150.986
21
-137.285
0
LINE
8
BLACK
6
CONTINUOUS
10
150.986
20
-137.285
11
150.796
21
-137.19
0
LINE
8
BLACK
6
CONTINUOUS
10
150.796
20
-137.19
11
150.701
21
-137.094
0
LINE
8
BLACK
6
CONTINUOUS
10
150.701
20
-137.094
11
150.605
21
-136.904
0
LINE
8
BLACK
6
CONTINUOUS
10
150.605
20
-136.904
11
150.51
21
-136.523
0
LINE
8
BLACK
6
CONTINUOUS
10
150.51
20
-136.523
11
150.51
21
-136.047
0
LINE
8
BLACK
6
CONTINUOUS
10
150.51
20
-136.047
11
150.605
21
-135.666
0
LINE
8
BLACK
6
CONTINUOUS
10
150.605
20
-135.666
11
150.701
21
-135.475
0
LINE
8
BLACK
6
CONTINUOUS
10
150.701
20
-135.475
11
150.796
21
-135.38
0
LINE
8
BLACK
6
CONTINUOUS
10
150.796
20
-135.38
11
150.986
21
-135.285
0
LINE
8
BLACK
6
CONTINUOUS
10
152.51
20
-137.094
11
152.605
21
-137.19
0
LINE
8
BLACK
6
CONTINUOUS
10
152.605
20
-137.19
11
152.51
21
-137.285
0
LINE
8
BLACK
6
CONTINUOUS
10
152.51
20
-137.285
11
152.415
21
-137.19
0
LINE
8
BLACK
6
CONTINUOUS
10
152.415
20
-137.19
11
152.51
21
-137.094
0
LINE
8
BLACK
6
CONTINUOUS
10
152.51
20
-137.094
11
152.51
21
-137.285
0
LINE
8
BLACK
6
CONTINUOUS
10
153.843
20
-135.285
11
154.034
21
-135.285
0
LINE
8
BLACK
6
CONTINUOUS
10
154.034
20
-135.285
11
154.224
21
-135.38
0
LINE
8
BLACK
6
CONTINUOUS
10
154.224
20
-135.38
11
154.32
21
-135.475
0
LINE
8
BLACK
6
CONTINUOUS
10
154.32
20
-135.475
11
154.415
21
-135.666
0
LINE
8
BLACK
6
CONTINUOUS
10
154.415
20
-135.666
11
154.51
21
-136.047
0
LINE
8
BLACK
6
CONTINUOUS
10
154.51
20
-136.047
11
154.51
21
-136.523
0
LINE
8
BLACK
6
CONTINUOUS
10
154.51
20
-136.523
11
154.415
21
-136.904
0
LINE
8
BLACK
6
CONTINUOUS
10
154.415
20
-136.904
11
154.32
21
-137.094
0
LINE
8
BLACK
6
CONTINUOUS
10
154.32
20
-137.094
11
154.224
21
-137.19
0
LINE
8
BLACK
6
CONTINUOUS
10
154.224
20
-137.19
11
154.034
21
-137.285
0
LINE
8
BLACK
6
CONTINUOUS
10
154.034
20
-137.285
11
153.843
21
-137.285
0
LINE
8
BLACK
6
CONTINUOUS
10
153.843
20
-137.285
11
153.653
21
-137.19
0
LINE
8
BLACK
6
CONTINUOUS
10
153.653
20
-137.19
11
153.558
21
-137.094
0
LINE
8
BLACK
6
CONTINUOUS
10
153.558
20
-137.094
11
153.463
21
-136.904
0
LINE
8
BLACK
6
CONTINUOUS
10
153.463
20
-136.904
11
153.367
21
-136.523
0
LINE
8
BLACK
6
CONTINUOUS
10
153.367
20
-136.523
11
153.367
21
-136.047
0
LINE
8
BLACK
6
CONTINUOUS
10
153.367
20
-136.047
11
153.463
21
-135.666
0
LINE
8
BLACK
6
CONTINUOUS
10
153.463
20
-135.666
11
153.558
21
-135.475
0
LINE
8
BLACK
6
CONTINUOUS
10
153.558
20
-135.475
11
153.653
21
-135.38
0
LINE
8
BLACK
6
CONTINUOUS
10
153.653
20
-135.38
11
153.843
21
-135.285
0
LINE
8
BLACK
6
CONTINUOUS
10
156.224
20
-135.952
11
156.224
21
-137.285
0
LINE
8
BLACK
6
CONTINUOUS
10
155.748
20
-135.19
11
155.272
21
-136.618
0
LINE
8
BLACK
6
CONTINUOUS
10
155.272
20
-136.618
11
156.51
21
-136.618
0
LINE
8
BLACK
6
CONTINUOUS
10
157.082
20
-135.285
11
158.32
21
-135.285
0
LINE
8
BLACK
6
CONTINUOUS
10
158.32
20
-135.285
11
157.653
21
-136.047
0
LINE
8
BLACK
6
CONTINUOUS
10
157.653
20
-136.047
11
157.939
21
-136.047
0
LINE
8
BLACK
6
CONTINUOUS
10
157.939
20
-136.047
11
158.129
21
-136.142
0
LINE
8
BLACK
6
CONTINUOUS
10
158.129
20
-136.142
11
158.224
21
-136.237
0
LINE
8
BLACK
6
CONTINUOUS
10
158.224
20
-136.237
11
158.32
21
-136.428
0
LINE
8
BLACK
6
CONTINUOUS
10
158.32
20
-136.428
11
158.32
21
-136.904
0
LINE
8
BLACK
6
CONTINUOUS
10
158.32
20
-136.904
11
158.224
21
-137.094
0
LINE
8
BLACK
6
CONTINUOUS
10
158.224
20
-137.094
11
158.129
21
-137.19
0
LINE
8
BLACK
6
CONTINUOUS
10
158.129
20
-137.19
11
157.939
21
-137.285
0
LINE
8
BLACK
6
CONTINUOUS
10
157.939
20
-137.285
11
157.367
21
-137.285
0
LINE
8
BLACK
6
CONTINUOUS
10
157.367
20
-137.285
11
157.177
21
-137.19
0
LINE
8
BLACK
6
CONTINUOUS
10
157.177
20
-137.19
11
157.082
21
-137.094
0
LINE
8
BLACK
6
CONTINUOUS
10
159.558
20
-135.285
11
159.748
21
-135.285
0
LINE
8
BLACK
6
CONTINUOUS
10
159.748
20
-135.285
11
159.939
21
-135.38
0
LINE
8
BLACK
6
CONTINUOUS
10
159.939
20
-135.38
11
160.034
21
-135.475
0
LINE
8
BLACK
6
CONTINUOUS
10
160.034
20
-135.475
11
160.129
21
-135.666
0
LINE
8
BLACK
6
CONTINUOUS
10
160.129
20
-135.666
11
160.224
21
-136.047
0
LINE
8
BLACK
6
CONTINUOUS
10
160.224
20
-136.047
11
160.224
21
-136.523
0
LINE
8
BLACK
6
CONTINUOUS
10
160.224
20
-136.523
11
160.129
21
-136.904
0
LINE
8
BLACK
6
CONTINUOUS
10
160.129
20
-136.904
11
160.034
21
-137.094
0
LINE
8
BLACK
6
CONTINUOUS
10
160.034
20
-137.094
11
159.939
21
-137.19
0
LINE
8
BLACK
6
CONTINUOUS
10
159.939
20
-137.19
11
159.748
21
-137.285
0
LINE
8
BLACK
6
CONTINUOUS
10
159.748
20
-137.285
11
159.558
21
-137.285
0
LINE
8
BLACK
6
CONTINUOUS
10
159.558
20
-137.285
11
159.367
21
-137.19
0
LINE
8
BLACK
6
CONTINUOUS
10
159.367
20
-137.19
11
159.272
21
-137.094
0
LINE
8
BLACK
6
CONTINUOUS
10
159.272
20
-137.094
11
159.177
21
-136.904
0
LINE
8
BLACK
6
CONTINUOUS
10
159.177
20
-136.904
11
159.082
21
-136.523
0
LINE
8
BLACK
6
CONTINUOUS
10
159.082
20
-136.523
11
159.082
21
-136.047
0
LINE
8
BLACK
6
CONTINUOUS
10
159.082
20
-136.047
11
159.177
21
-135.666
0
LINE
8
BLACK
6
CONTINUOUS
10
159.177
20
-135.666
11
159.272
21
-135.475
0
LINE
8
BLACK
6
CONTINUOUS
10
159.272
20
-135.475
11
159.367
21
-135.38
0
LINE
8
BLACK
6
CONTINUOUS
10
159.367
20
-135.38
11
159.558
21
-135.285
0
LINE
8
BLACK
6
CONTINUOUS
10
160.986
20
-135.285
11
160.986
21
-135.666
0
LINE
8
BLACK
6
CONTINUOUS
10
161.748
20
-135.285
11
161.748
21
-135.666
0
LINE
8
BLACK
6
CONTINUOUS
10
164.701
20
-138.047
11
164.605
21
-137.952
0
LINE
8
BLACK
6
CONTINUOUS
10
164.605
20
-137.952
11
164.415
21
-137.666
0
LINE
8
BLACK
6
CONTINUOUS
10
164.415
20
-137.666
11
164.32
21
-137.475
0
LINE
8
BLACK
6
CONTINUOUS
10
164.32
20
-137.475
11
164.224
21
-137.19
0
LINE
8
BLACK
6
CONTINUOUS
10
164.224
20
-137.19
11
164.129
21
-136.713
0
LINE
8
BLACK
6
CONTINUOUS
10
164.129
20
-136.713
11
164.129
21
-136.332
0
LINE
8
BLACK
6
CONTINUOUS
10
164.129
20
-136.332
11
164.224
21
-135.856
0
LINE
8
BLACK
6
CONTINUOUS
10
164.224
20
-135.856
11
164.32
21
-135.571
0
LINE
8
BLACK
6
CONTINUOUS
10
164.32
20
-135.571
11
164.415
21
-135.38
0
LINE
8
BLACK
6
CONTINUOUS
10
164.415
20
-135.38
11
164.605
21
-135.094
0
LINE
8
BLACK
6
CONTINUOUS
10
164.605
20
-135.094
11
164.701
21
-134.999
0
LINE
8
BLACK
6
CONTINUOUS
10
165.367
20
-135.475
11
165.463
21
-135.38
0
LINE
8
BLACK
6
CONTINUOUS
10
165.463
20
-135.38
11
165.653
21
-135.285
0
LINE
8
BLACK
6
CONTINUOUS
10
165.653
20
-135.285
11
166.129
21
-135.285
0
LINE
8
BLACK
6
CONTINUOUS
10
166.129
20
-135.285
11
166.32
21
-135.38
0
LINE
8
BLACK
6
CONTINUOUS
10
166.32
20
-135.38
11
166.415
21
-135.475
0
LINE
8
BLACK
6
CONTINUOUS
10
166.415
20
-135.475
11
166.51
21
-135.666
0
LINE
8
BLACK
6
CONTINUOUS
10
166.51
20
-135.666
11
166.51
21
-135.856
0
LINE
8
BLACK
6
CONTINUOUS
10
166.51
20
-135.856
11
166.415
21
-136.142
0
LINE
8
BLACK
6
CONTINUOUS
10
166.415
20
-136.142
11
165.272
21
-137.285
0
LINE
8
BLACK
6
CONTINUOUS
10
165.272
20
-137.285
11
166.51
21
-137.285
0
LINE
8
BLACK
6
CONTINUOUS
10
168.224
20
-135.952
11
168.224
21
-137.285
0
LINE
8
BLACK
6
CONTINUOUS
10
167.748
20
-135.19
11
167.272
21
-136.618
0
LINE
8
BLACK
6
CONTINUOUS
10
167.272
20
-136.618
11
168.51
21
-136.618
0
LINE
8
BLACK
6
CONTINUOUS
10
170.796
20
-137.285
11
170.796
21
-135.285
0
LINE
8
BLACK
6
CONTINUOUS
10
171.653
20
-137.285
11
171.653
21
-136.237
0
LINE
8
BLACK
6
CONTINUOUS
10
171.653
20
-136.237
11
171.558
21
-136.047
0
LINE
8
BLACK
6
CONTINUOUS
10
171.558
20
-136.047
11
171.367
21
-135.952
0
LINE
8
BLACK
6
CONTINUOUS
10
171.367
20
-135.952
11
171.082
21
-135.952
0
LINE
8
BLACK
6
CONTINUOUS
10
171.082
20
-135.952
11
170.891
21
-136.047
0
LINE
8
BLACK
6
CONTINUOUS
10
170.891
20
-136.047
11
170.796
21
-136.142
0
LINE
8
BLACK
6
CONTINUOUS
10
172.891
20
-137.285
11
172.701
21
-137.19
0
LINE
8
BLACK
6
CONTINUOUS
10
172.701
20
-137.19
11
172.605
21
-137.094
0
LINE
8
BLACK
6
CONTINUOUS
10
172.605
20
-137.094
11
172.51
21
-136.904
0
LINE
8
BLACK
6
CONTINUOUS
10
172.51
20
-136.904
11
172.51
21
-136.332
0
LINE
8
BLACK
6
CONTINUOUS
10
172.51
20
-136.332
11
172.605
21
-136.142
0
LINE
8
BLACK
6
CONTINUOUS
10
172.605
20
-136.142
11
172.701
21
-136.047
0
LINE
8
BLACK
6
CONTINUOUS
10
172.701
20
-136.047
11
172.891
21
-135.952
0
LINE
8
BLACK
6
CONTINUOUS
10
172.891
20
-135.952
11
173.177
21
-135.952
0
LINE
8
BLACK
6
CONTINUOUS
10
173.177
20
-135.952
11
173.367
21
-136.047
0
LINE
8
BLACK
6
CONTINUOUS
10
173.367
20
-136.047
11
173.463
21
-136.142
0
LINE
8
BLACK
6
CONTINUOUS
10
173.463
20
-136.142
11
173.558
21
-136.332
0
LINE
8
BLACK
6
CONTINUOUS
10
173.558
20
-136.332
11
173.558
21
-136.904
0
LINE
8
BLACK
6
CONTINUOUS
10
173.558
20
-136.904
11
173.463
21
-137.094
0
LINE
8
BLACK
6
CONTINUOUS
10
173.463
20
-137.094
11
173.367
21
-137.19
0
LINE
8
BLACK
6
CONTINUOUS
10
173.367
20
-137.19
11
173.177
21
-137.285
0
LINE
8
BLACK
6
CONTINUOUS
10
173.177
20
-137.285
11
172.891
21
-137.285
0
LINE
8
BLACK
6
CONTINUOUS
10
174.701
20
-137.285
11
174.51
21
-137.19
0
LINE
8
BLACK
6
CONTINUOUS
10
174.51
20
-137.19
11
174.415
21
-136.999
0
LINE
8
BLACK
6
CONTINUOUS
10
174.415
20
-136.999
11
174.415
21
-135.285
0
LINE
8
BLACK
6
CONTINUOUS
10
176.224
20
-137.19
11
176.034
21
-137.285
0
LINE
8
BLACK
6
CONTINUOUS
10
176.034
20
-137.285
11
175.653
21
-137.285
0
LINE
8
BLACK
6
CONTINUOUS
10
175.653
20
-137.285
11
175.463
21
-137.19
0
LINE
8
BLACK
6
CONTINUOUS
10
175.463
20
-137.19
11
175.367
21
-136.999
0
LINE
8
BLACK
6
CONTINUOUS
10
175.367
20
-136.999
11
175.367
21
-136.237
0
LINE
8
BLACK
6
CONTINUOUS
10
175.367
20
-136.237
11
175.463
21
-136.047
0
LINE
8
BLACK
6
CONTINUOUS
10
175.463
20
-136.047
11
175.653
21
-135.952
0
LINE
8
BLACK
6
CONTINUOUS
10
175.653
20
-135.952
11
176.034
21
-135.952
0
LINE
8
BLACK
6
CONTINUOUS
10
176.034
20
-135.952
11
176.224
21
-136.047
0
LINE
8
BLACK
6
CONTINUOUS
10
176.224
20
-136.047
11
176.32
21
-136.237
0
LINE
8
BLACK
6
CONTINUOUS
10
176.32
20
-136.237
11
176.32
21
-136.428
0
LINE
8
BLACK
6
CONTINUOUS
10
176.32
20
-136.428
11
175.367
21
-136.618
0
LINE
8
BLACK
6
CONTINUOUS
10
177.082
20
-137.19
11
177.272
21
-137.285
0
LINE
8
BLACK
6
CONTINUOUS
10
177.272
20
-137.285
11
177.653
21
-137.285
0
LINE
8
BLACK
6
CONTINUOUS
10
177.653
20
-137.285
11
177.843
21
-137.19
0
LINE
8
BLACK
6
CONTINUOUS
10
177.843
20
-137.19
11
177.939
21
-136.999
0
LINE
8
BLACK
6
CONTINUOUS
10
177.939
20
-136.999
11
177.939
21
-136.904
0
LINE
8
BLACK
6
CONTINUOUS
10
177.939
20
-136.904
11
177.843
21
-136.713
0
LINE
8
BLACK
6
CONTINUOUS
10
177.843
20
-136.713
11
177.653
21
-136.618
0
LINE
8
BLACK
6
CONTINUOUS
10
177.653
20
-136.618
11
177.367
21
-136.618
0
LINE
8
BLACK
6
CONTINUOUS
10
177.367
20
-136.618
11
177.177
21
-136.523
0
LINE
8
BLACK
6
CONTINUOUS
10
177.177
20
-136.523
11
177.082
21
-136.332
0
LINE
8
BLACK
6
CONTINUOUS
10
177.082
20
-136.332
11
177.082
21
-136.237
0
LINE
8
BLACK
6
CONTINUOUS
10
177.082
20
-136.237
11
177.177
21
-136.047
0
LINE
8
BLACK
6
CONTINUOUS
10
177.177
20
-136.047
11
177.367
21
-135.952
0
LINE
8
BLACK
6
CONTINUOUS
10
177.367
20
-135.952
11
177.653
21
-135.952
0
LINE
8
BLACK
6
CONTINUOUS
10
177.653
20
-135.952
11
177.843
21
-136.047
0
LINE
8
BLACK
6
CONTINUOUS
10
178.605
20
-138.047
11
178.701
21
-137.952
0
LINE
8
BLACK
6
CONTINUOUS
10
178.701
20
-137.952
11
178.891
21
-137.666
0
LINE
8
BLACK
6
CONTINUOUS
10
178.891
20
-137.666
11
178.986
21
-137.475
0
LINE
8
BLACK
6
CONTINUOUS
10
178.986
20
-137.475
11
179.082
21
-137.19
0
LINE
8
BLACK
6
CONTINUOUS
10
179.082
20
-137.19
11
179.177
21
-136.713
0
LINE
8
BLACK
6
CONTINUOUS
10
179.177
20
-136.713
11
179.177
21
-136.332
0
LINE
8
BLACK
6
CONTINUOUS
10
179.177
20
-136.332
11
179.082
21
-135.856
0
LINE
8
BLACK
6
CONTINUOUS
10
179.082
20
-135.856
11
178.986
21
-135.571
0
LINE
8
BLACK
6
CONTINUOUS
10
178.986
20
-135.571
11
178.891
21
-135.38
0
LINE
8
BLACK
6
CONTINUOUS
10
178.891
20
-135.38
11
178.701
21
-135.094
0
LINE
8
BLACK
6
CONTINUOUS
10
178.701
20
-135.094
11
178.605
21
-134.999
0
LINE
8
BLACK
6
CONTINUOUS
10
128.05
20
-139.91
11
128.95
21
-139.01
0
LINE
8
BLACK
6
CONTINUOUS
10
128.95
20
-139.01
11
128.05
21
-138.11
0
LINE
8
BLACK
6
CONTINUOUS
10
128.05
20
-138.11
11
127.15
21
-139.01
0
LINE
8
BLACK
6
CONTINUOUS
10
127.15
20
-139.01
11
128.05
21
-139.91
0
LINE
8
BLACK
6
CONTINUOUS
10
132.605
20
-139.925
11
131.463
21
-139.925
0
LINE
8
BLACK
6
CONTINUOUS
10
132.034
20
-139.925
11
132.034
21
-137.925
0
LINE
8
BLACK
6
CONTINUOUS
10
132.034
20
-137.925
11
131.843
21
-138.211
0
LINE
8
BLACK
6
CONTINUOUS
10
131.843
20
-138.211
11
131.653
21
-138.401
0
LINE
8
BLACK
6
CONTINUOUS
10
131.653
20
-138.401
11
131.463
21
-138.496
0
LINE
8
BLACK
6
CONTINUOUS
10
133.463
20
-139.734
11
133.558
21
-139.83
0
LINE
8
BLACK
6
CONTINUOUS
10
133.558
20
-139.83
11
133.463
21
-139.925
0
LINE
8
BLACK
6
CONTINUOUS
10
133.463
20
-139.925
11
133.367
21
-139.83
0
LINE
8
BLACK
6
CONTINUOUS
10
133.367
20
-139.83
11
133.463
21
-139.734
0
LINE
8
BLACK
6
CONTINUOUS
10
133.463
20
-139.734
11
133.463
21
-139.925
0
LINE
8
BLACK
6
CONTINUOUS
10
134.701
20
-138.782
11
134.51
21
-138.687
0
LINE
8
BLACK
6
CONTINUOUS
10
134.51
20
-138.687
11
134.415
21
-138.592
0
LINE
8
BLACK
6
CONTINUOUS
10
134.415
20
-138.592
11
134.32
21
-138.401
0
LINE
8
BLACK
6
CONTINUOUS
10
134.32
20
-138.401
11
134.32
21
-138.306
0
LINE
8
BLACK
6
CONTINUOUS
10
134.32
20
-138.306
11
134.415
21
-138.115
0
LINE
8
BLACK
6
CONTINUOUS
10
134.415
20
-138.115
11
134.51
21
-138.02
0
LINE
8
BLACK
6
CONTINUOUS
10
134.51
20
-138.02
11
134.701
21
-137.925
0
LINE
8
BLACK
6
CONTINUOUS
10
134.701
20
-137.925
11
135.082
21
-137.925
0
LINE
8
BLACK
6
CONTINUOUS
10
135.082
20
-137.925
11
135.272
21
-138.02
0
LINE
8
BLACK
6
CONTINUOUS
10
135.272
20
-138.02
11
135.367
21
-138.115
0
LINE
8
BLACK
6
CONTINUOUS
10
135.367
20
-138.115
11
135.463
21
-138.306
0
LINE
8
BLACK
6
CONTINUOUS
10
135.463
20
-138.306
11
135.463
21
-138.401
0
LINE
8
BLACK
6
CONTINUOUS
10
135.463
20
-138.401
11
135.367
21
-138.592
0
LINE
8
BLACK
6
CONTINUOUS
10
135.367
20
-138.592
11
135.272
21
-138.687
0
LINE
8
BLACK
6
CONTINUOUS
10
135.272
20
-138.687
11
135.082
21
-138.782
0
LINE
8
BLACK
6
CONTINUOUS
10
135.082
20
-138.782
11
134.701
21
-138.782
0
LINE
8
BLACK
6
CONTINUOUS
10
134.701
20
-138.782
11
134.51
21
-138.877
0
LINE
8
BLACK
6
CONTINUOUS
10
134.51
20
-138.877
11
134.415
21
-138.972
0
LINE
8
BLACK
6
CONTINUOUS
10
134.415
20
-138.972
11
134.32
21
-139.163
0
LINE
8
BLACK
6
CONTINUOUS
10
134.32
20
-139.163
11
134.32
21
-139.544
0
LINE
8
BLACK
6
CONTINUOUS
10
134.32
20
-139.544
11
134.415
21
-139.734
0
LINE
8
BLACK
6
CONTINUOUS
10
134.415
20
-139.734
11
134.51
21
-139.83
0
LINE
8
BLACK
6
CONTINUOUS
10
134.51
20
-139.83
11
134.701
21
-139.925
0
LINE
8
BLACK
6
CONTINUOUS
10
134.701
20
-139.925
11
135.082
21
-139.925
0
LINE
8
BLACK
6
CONTINUOUS
10
135.082
20
-139.925
11
135.272
21
-139.83
0
LINE
8
BLACK
6
CONTINUOUS
10
135.272
20
-139.83
11
135.367
21
-139.734
0
LINE
8
BLACK
6
CONTINUOUS
10
135.367
20
-139.734
11
135.463
21
-139.544
0
LINE
8
BLACK
6
CONTINUOUS
10
135.463
20
-139.544
11
135.463
21
-139.163
0
LINE
8
BLACK
6
CONTINUOUS
10
135.463
20
-139.163
11
135.367
21
-138.972
0
LINE
8
BLACK
6
CONTINUOUS
10
135.367
20
-138.972
11
135.272
21
-138.877
0
LINE
8
BLACK
6
CONTINUOUS
10
135.272
20
-138.877
11
135.082
21
-138.782
0
LINE
8
BLACK
6
CONTINUOUS
10
136.701
20
-137.925
11
136.891
21
-137.925
0
LINE
8
BLACK
6
CONTINUOUS
10
136.891
20
-137.925
11
137.082
21
-138.02
0
LINE
8
BLACK
6
CONTINUOUS
10
137.082
20
-138.02
11
137.177
21
-138.115
0
LINE
8
BLACK
6
CONTINUOUS
10
137.177
20
-138.115
11
137.272
21
-138.306
0
LINE
8
BLACK
6
CONTINUOUS
10
137.272
20
-138.306
11
137.367
21
-138.687
0
LINE
8
BLACK
6
CONTINUOUS
10
137.367
20
-138.687
11
137.367
21
-139.163
0
LINE
8
BLACK
6
CONTINUOUS
10
137.367
20
-139.163
11
137.272
21
-139.544
0
LINE
8
BLACK
6
CONTINUOUS
10
137.272
20
-139.544
11
137.177
21
-139.734
0
LINE
8
BLACK
6
CONTINUOUS
10
137.177
20
-139.734
11
137.082
21
-139.83
0
LINE
8
BLACK
6
CONTINUOUS
10
137.082
20
-139.83
11
136.891
21
-139.925
0
LINE
8
BLACK
6
CONTINUOUS
10
136.891
20
-139.925
11
136.701
21
-139.925
0
LINE
8
BLACK
6
CONTINUOUS
10
136.701
20
-139.925
11
136.51
21
-139.83
0
LINE
8
BLACK
6
CONTINUOUS
10
136.51
20
-139.83
11
136.415
21
-139.734
0
LINE
8
BLACK
6
CONTINUOUS
10
136.415
20
-139.734
11
136.32
21
-139.544
0
LINE
8
BLACK
6
CONTINUOUS
10
136.32
20
-139.544
11
136.224
21
-139.163
0
LINE
8
BLACK
6
CONTINUOUS
10
136.224
20
-139.163
11
136.224
21
-138.687
0
LINE
8
BLACK
6
CONTINUOUS
10
136.224
20
-138.687
11
136.32
21
-138.306
0
LINE
8
BLACK
6
CONTINUOUS
10
136.32
20
-138.306
11
136.415
21
-138.115
0
LINE
8
BLACK
6
CONTINUOUS
10
136.415
20
-138.115
11
136.51
21
-138.02
0
LINE
8
BLACK
6
CONTINUOUS
10
136.51
20
-138.02
11
136.701
21
-137.925
0
LINE
8
BLACK
6
CONTINUOUS
10
138.605
20
-137.925
11
138.796
21
-137.925
0
LINE
8
BLACK
6
CONTINUOUS
10
138.796
20
-137.925
11
138.986
21
-138.02
0
LINE
8
BLACK
6
CONTINUOUS
10
138.986
20
-138.02
11
139.082
21
-138.115
0
LINE
8
BLACK
6
CONTINUOUS
10
139.082
20
-138.115
11
139.177
21
-138.306
0
LINE
8
BLACK
6
CONTINUOUS
10
139.177
20
-138.306
11
139.272
21
-138.687
0
LINE
8
BLACK
6
CONTINUOUS
10
139.272
20
-138.687
11
139.272
21
-139.163
0
LINE
8
BLACK
6
CONTINUOUS
10
139.272
20
-139.163
11
139.177
21
-139.544
0
LINE
8
BLACK
6
CONTINUOUS
10
139.177
20
-139.544
11
139.082
21
-139.734
0
LINE
8
BLACK
6
CONTINUOUS
10
139.082
20
-139.734
11
138.986
21
-139.83
0
LINE
8
BLACK
6
CONTINUOUS
10
138.986
20
-139.83
11
138.796
21
-139.925
0
LINE
8
BLACK
6
CONTINUOUS
10
138.796
20
-139.925
11
138.605
21
-139.925
0
LINE
8
BLACK
6
CONTINUOUS
10
138.605
20
-139.925
11
138.415
21
-139.83
0
LINE
8
BLACK
6
CONTINUOUS
10
138.415
20
-139.83
11
138.32
21
-139.734
0
LINE
8
BLACK
6
CONTINUOUS
10
138.32
20
-139.734
11
138.224
21
-139.544
0
LINE
8
BLACK
6
CONTINUOUS
10
138.224
20
-139.544
11
138.129
21
-139.163
0
LINE
8
BLACK
6
CONTINUOUS
10
138.129
20
-139.163
11
138.129
21
-138.687
0
LINE
8
BLACK
6
CONTINUOUS
10
138.129
20
-138.687
11
138.224
21
-138.306
0
LINE
8
BLACK
6
CONTINUOUS
10
138.224
20
-138.306
11
138.32
21
-138.115
0
LINE
8
BLACK
6
CONTINUOUS
10
138.32
20
-138.115
11
138.415
21
-138.02
0
LINE
8
BLACK
6
CONTINUOUS
10
138.415
20
-138.02
11
138.605
21
-137.925
0
LINE
8
BLACK
6
CONTINUOUS
10
140.129
20
-139.925
11
140.129
21
-138.592
0
LINE
8
BLACK
6
CONTINUOUS
10
140.129
20
-138.782
11
140.224
21
-138.687
0
LINE
8
BLACK
6
CONTINUOUS
10
140.224
20
-138.687
11
140.415
21
-138.592
0
LINE
8
BLACK
6
CONTINUOUS
10
140.415
20
-138.592
11
140.701
21
-138.592
0
LINE
8
BLACK
6
CONTINUOUS
10
140.701
20
-138.592
11
140.891
21
-138.687
0
LINE
8
BLACK
6
CONTINUOUS
10
140.891
20
-138.687
11
140.986
21
-138.877
0
LINE
8
BLACK
6
CONTINUOUS
10
140.986
20
-138.877
11
140.986
21
-139.925
0
LINE
8
BLACK
6
CONTINUOUS
10
140.986
20
-138.877
11
141.082
21
-138.687
0
LINE
8
BLACK
6
CONTINUOUS
10
141.082
20
-138.687
11
141.272
21
-138.592
0
LINE
8
BLACK
6
CONTINUOUS
10
141.272
20
-138.592
11
141.558
21
-138.592
0
LINE
8
BLACK
6
CONTINUOUS
10
141.558
20
-138.592
11
141.748
21
-138.687
0
LINE
8
BLACK
6
CONTINUOUS
10
141.748
20
-138.687
11
141.843
21
-138.877
0
LINE
8
BLACK
6
CONTINUOUS
10
141.843
20
-138.877
11
141.843
21
-139.925
0
LINE
8
BLACK
6
CONTINUOUS
10
142.796
20
-139.925
11
142.796
21
-138.592
0
LINE
8
BLACK
6
CONTINUOUS
10
142.796
20
-138.782
11
142.891
21
-138.687
0
LINE
8
BLACK
6
CONTINUOUS
10
142.891
20
-138.687
11
143.082
21
-138.592
0
LINE
8
BLACK
6
CONTINUOUS
10
143.082
20
-138.592
11
143.367
21
-138.592
0
LINE
8
BLACK
6
CONTINUOUS
10
143.367
20
-138.592
11
143.558
21
-138.687
0
LINE
8
BLACK
6
CONTINUOUS
10
143.558
20
-138.687
11
143.653
21
-138.877
0
LINE
8
BLACK
6
CONTINUOUS
10
143.653
20
-138.877
11
143.653
21
-139.925
0
LINE
8
BLACK
6
CONTINUOUS
10
143.653
20
-138.877
11
143.748
21
-138.687
0
LINE
8
BLACK
6
CONTINUOUS
10
143.748
20
-138.687
11
143.939
21
-138.592
0
LINE
8
BLACK
6
CONTINUOUS
10
143.939
20
-138.592
11
144.224
21
-138.592
0
LINE
8
BLACK
6
CONTINUOUS
10
144.224
20
-138.592
11
144.415
21
-138.687
0
LINE
8
BLACK
6
CONTINUOUS
10
144.415
20
-138.687
11
144.51
21
-138.877
0
LINE
8
BLACK
6
CONTINUOUS
10
144.51
20
-138.877
11
144.51
21
-139.925
0
LINE
8
BLACK
6
CONTINUOUS
10
148.415
20
-137.83
11
146.701
21
-140.401
0
LINE
8
BLACK
6
CONTINUOUS
10
150.986
20
-137.925
11
151.177
21
-137.925
0
LINE
8
BLACK
6
CONTINUOUS
10
151.177
20
-137.925
11
151.367
21
-138.02
0
LINE
8
BLACK
6
CONTINUOUS
10
151.367
20
-138.02
11
151.463
21
-138.115
0
LINE
8
BLACK
6
CONTINUOUS
10
151.463
20
-138.115
11
151.558
21
-138.306
0
LINE
8
BLACK
6
CONTINUOUS
10
151.558
20
-138.306
11
151.653
21
-138.687
0
LINE
8
BLACK
6
CONTINUOUS
10
151.653
20
-138.687
11
151.653
21
-139.163
0
LINE
8
BLACK
6
CONTINUOUS
10
151.653
20
-139.163
11
151.558
21
-139.544
0
LINE
8
BLACK
6
CONTINUOUS
10
151.558
20
-139.544
11
151.463
21
-139.734
0
LINE
8
BLACK
6
CONTINUOUS
10
151.463
20
-139.734
11
151.367
21
-139.83
0
LINE
8
BLACK
6
CONTINUOUS
10
151.367
20
-139.83
11
151.177
21
-139.925
0
LINE
8
BLACK
6
CONTINUOUS
10
151.177
20
-139.925
11
150.986
21
-139.925
0
LINE
8
BLACK
6
CONTINUOUS
10
150.986
20
-139.925
11
150.796
21
-139.83
0
LINE
8
BLACK
6
CONTINUOUS
10
150.796
20
-139.83
11
150.701
21
-139.734
0
LINE
8
BLACK
6
CONTINUOUS
10
150.701
20
-139.734
11
150.605
21
-139.544
0
LINE
8
BLACK
6
CONTINUOUS
10
150.605
20
-139.544
11
150.51
21
-139.163
0
LINE
8
BLACK
6
CONTINUOUS
10
150.51
20
-139.163
11
150.51
21
-138.687
0
LINE
8
BLACK
6
CONTINUOUS
10
150.51
20
-138.687
11
150.605
21
-138.306
0
LINE
8
BLACK
6
CONTINUOUS
10
150.605
20
-138.306
11
150.701
21
-138.115
0
LINE
8
BLACK
6
CONTINUOUS
10
150.701
20
-138.115
11
150.796
21
-138.02
0
LINE
8
BLACK
6
CONTINUOUS
10
150.796
20
-138.02
11
150.986
21
-137.925
0
LINE
8
BLACK
6
CONTINUOUS
10
152.51
20
-139.734
11
152.605
21
-139.83
0
LINE
8
BLACK
6
CONTINUOUS
10
152.605
20
-139.83
11
152.51
21
-139.925
0
LINE
8
BLACK
6
CONTINUOUS
10
152.51
20
-139.925
11
152.415
21
-139.83
0
LINE
8
BLACK
6
CONTINUOUS
10
152.415
20
-139.83
11
152.51
21
-139.734
0
LINE
8
BLACK
6
CONTINUOUS
10
152.51
20
-139.734
11
152.51
21
-139.925
0
LINE
8
BLACK
6
CONTINUOUS
10
153.843
20
-137.925
11
154.034
21
-137.925
0
LINE
8
BLACK
6
CONTINUOUS
10
154.034
20
-137.925
11
154.224
21
-138.02
0
LINE
8
BLACK
6
CONTINUOUS
10
154.224
20
-138.02
11
154.32
21
-138.115
0
LINE
8
BLACK
6
CONTINUOUS
10
154.32
20
-138.115
11
154.415
21
-138.306
0
LINE
8
BLACK
6
CONTINUOUS
10
154.415
20
-138.306
11
154.51
21
-138.687
0
LINE
8
BLACK
6
CONTINUOUS
10
154.51
20
-138.687
11
154.51
21
-139.163
0
LINE
8
BLACK
6
CONTINUOUS
10
154.51
20
-139.163
11
154.415
21
-139.544
0
LINE
8
BLACK
6
CONTINUOUS
10
154.415
20
-139.544
11
154.32
21
-139.734
0
LINE
8
BLACK
6
CONTINUOUS
10
154.32
20
-139.734
11
154.224
21
-139.83
0
LINE
8
BLACK
6
CONTINUOUS
10
154.224
20
-139.83
11
154.034
21
-139.925
0
LINE
8
BLACK
6
CONTINUOUS
10
154.034
20
-139.925
11
153.843
21
-139.925
0
LINE
8
BLACK
6
CONTINUOUS
10
153.843
20
-139.925
11
153.653
21
-139.83
0
LINE
8
BLACK
6
CONTINUOUS
10
153.653
20
-139.83
11
153.558
21
-139.734
0
LINE
8
BLACK
6
CONTINUOUS
10
153.558
20
-139.734
11
153.463
21
-139.544
0
LINE
8
BLACK
6
CONTINUOUS
10
153.463
20
-139.544
11
153.367
21
-139.163
0
LINE
8
BLACK
6
CONTINUOUS
10
153.367
20
-139.163
11
153.367
21
-138.687
0
LINE
8
BLACK
6
CONTINUOUS
10
153.367
20
-138.687
11
153.463
21
-138.306
0
LINE
8
BLACK
6
CONTINUOUS
10
153.463
20
-138.306
11
153.558
21
-138.115
0
LINE
8
BLACK
6
CONTINUOUS
10
153.558
20
-138.115
11
153.653
21
-138.02
0
LINE
8
BLACK
6
CONTINUOUS
10
153.653
20
-138.02
11
153.843
21
-137.925
0
LINE
8
BLACK
6
CONTINUOUS
10
155.177
20
-137.925
11
156.51
21
-137.925
0
LINE
8
BLACK
6
CONTINUOUS
10
156.51
20
-137.925
11
155.653
21
-139.925
0
LINE
8
BLACK
6
CONTINUOUS
10
157.653
20
-137.925
11
157.843
21
-137.925
0
LINE
8
BLACK
6
CONTINUOUS
10
157.843
20
-137.925
11
158.034
21
-138.02
0
LINE
8
BLACK
6
CONTINUOUS
10
158.034
20
-138.02
11
158.129
21
-138.115
0
LINE
8
BLACK
6
CONTINUOUS
10
158.129
20
-138.115
11
158.224
21
-138.306
0
LINE
8
BLACK
6
CONTINUOUS
10
158.224
20
-138.306
11
158.32
21
-138.687
0
LINE
8
BLACK
6
CONTINUOUS
10
158.32
20
-138.687
11
158.32
21
-139.163
0
LINE
8
BLACK
6
CONTINUOUS
10
158.32
20
-139.163
11
158.224
21
-139.544
0
LINE
8
BLACK
6
CONTINUOUS
10
158.224
20
-139.544
11
158.129
21
-139.734
0
LINE
8
BLACK
6
CONTINUOUS
10
158.129
20
-139.734
11
158.034
21
-139.83
0
LINE
8
BLACK
6
CONTINUOUS
10
158.034
20
-139.83
11
157.843
21
-139.925
0
LINE
8
BLACK
6
CONTINUOUS
10
157.843
20
-139.925
11
157.653
21
-139.925
0
LINE
8
BLACK
6
CONTINUOUS
10
157.653
20
-139.925
11
157.463
21
-139.83
0
LINE
8
BLACK
6
CONTINUOUS
10
157.463
20
-139.83
11
157.367
21
-139.734
0
LINE
8
BLACK
6
CONTINUOUS
10
157.367
20
-139.734
11
157.272
21
-139.544
0
LINE
8
BLACK
6
CONTINUOUS
10
157.272
20
-139.544
11
157.177
21
-139.163
0
LINE
8
BLACK
6
CONTINUOUS
10
157.177
20
-139.163
11
157.177
21
-138.687
0
LINE
8
BLACK
6
CONTINUOUS
10
157.177
20
-138.687
11
157.272
21
-138.306
0
LINE
8
BLACK
6
CONTINUOUS
10
157.272
20
-138.306
11
157.367
21
-138.115
0
LINE
8
BLACK
6
CONTINUOUS
10
157.367
20
-138.115
11
157.463
21
-138.02
0
LINE
8
BLACK
6
CONTINUOUS
10
157.463
20
-138.02
11
157.653
21
-137.925
0
LINE
8
BLACK
6
CONTINUOUS
10
159.272
20
-139.925
11
159.653
21
-139.925
0
LINE
8
BLACK
6
CONTINUOUS
10
159.653
20
-139.925
11
159.843
21
-139.83
0
LINE
8
BLACK
6
CONTINUOUS
10
159.843
20
-139.83
11
159.939
21
-139.734
0
LINE
8
BLACK
6
CONTINUOUS
10
159.939
20
-139.734
11
160.129
21
-139.449
0
LINE
8
BLACK
6
CONTINUOUS
10
160.129
20
-139.449
11
160.224
21
-139.068
0
LINE
8
BLACK
6
CONTINUOUS
10
160.224
20
-139.068
11
160.224
21
-138.306
0
LINE
8
BLACK
6
CONTINUOUS
10
160.224
20
-138.306
11
160.129
21
-138.115
0
LINE
8
BLACK
6
CONTINUOUS
10
160.129
20
-138.115
11
160.034
21
-138.02
0
LINE
8
BLACK
6
CONTINUOUS
10
160.034
20
-138.02
11
159.843
21
-137.925
0
LINE
8
BLACK
6
CONTINUOUS
10
159.843
20
-137.925
11
159.463
21
-137.925
0
LINE
8
BLACK
6
CONTINUOUS
10
159.463
20
-137.925
11
159.272
21
-138.02
0
LINE
8
BLACK
6
CONTINUOUS
10
159.272
20
-138.02
11
159.177
21
-138.115
0
LINE
8
BLACK
6
CONTINUOUS
10
159.177
20
-138.115
11
159.082
21
-138.306
0
LINE
8
BLACK
6
CONTINUOUS
10
159.082
20
-138.306
11
159.082
21
-138.782
0
LINE
8
BLACK
6
CONTINUOUS
10
159.082
20
-138.782
11
159.177
21
-138.972
0
LINE
8
BLACK
6
CONTINUOUS
10
159.177
20
-138.972
11
159.272
21
-139.068
0
LINE
8
BLACK
6
CONTINUOUS
10
159.272
20
-139.068
11
159.463
21
-139.163
0
LINE
8
BLACK
6
CONTINUOUS
10
159.463
20
-139.163
11
159.843
21
-139.163
0
LINE
8
BLACK
6
CONTINUOUS
10
159.843
20
-139.163
11
160.034
21
-139.068
0
LINE
8
BLACK
6
CONTINUOUS
10
160.034
20
-139.068
11
160.129
21
-138.972
0
LINE
8
BLACK
6
CONTINUOUS
10
160.129
20
-138.972
11
160.224
21
-138.782
0
LINE
8
BLACK
6
CONTINUOUS
10
160.986
20
-137.925
11
160.986
21
-138.306
0
LINE
8
BLACK
6
CONTINUOUS
10
161.748
20
-137.925
11
161.748
21
-138.306
0
LINE
8
BLACK
6
CONTINUOUS
10
164.701
20
-140.687
11
164.605
21
-140.592
0
LINE
8
BLACK
6
CONTINUOUS
10
164.605
20
-140.592
11
164.415
21
-140.306
0
LINE
8
BLACK
6
CONTINUOUS
10
164.415
20
-140.306
11
164.32
21
-140.115
0
LINE
8
BLACK
6
CONTINUOUS
10
164.32
20
-140.115
11
164.224
21
-139.83
0
LINE
8
BLACK
6
CONTINUOUS
10
164.224
20
-139.83
11
164.129
21
-139.353
0
LINE
8
BLACK
6
CONTINUOUS
10
164.129
20
-139.353
11
164.129
21
-138.972
0
LINE
8
BLACK
6
CONTINUOUS
10
164.129
20
-138.972
11
164.224
21
-138.496
0
LINE
8
BLACK
6
CONTINUOUS
10
164.224
20
-138.496
11
164.32
21
-138.211
0
LINE
8
BLACK
6
CONTINUOUS
10
164.32
20
-138.211
11
164.415
21
-138.02
0
LINE
8
BLACK
6
CONTINUOUS
10
164.415
20
-138.02
11
164.605
21
-137.734
0
LINE
8
BLACK
6
CONTINUOUS
10
164.605
20
-137.734
11
164.701
21
-137.639
0
LINE
8
BLACK
6
CONTINUOUS
10
165.843
20
-137.925
11
166.034
21
-137.925
0
LINE
8
BLACK
6
CONTINUOUS
10
166.034
20
-137.925
11
166.224
21
-138.02
0
LINE
8
BLACK
6
CONTINUOUS
10
166.224
20
-138.02
11
166.32
21
-138.115
0
LINE
8
BLACK
6
CONTINUOUS
10
166.32
20
-138.115
11
166.415
21
-138.306
0
LINE
8
BLACK
6
CONTINUOUS
10
166.415
20
-138.306
11
166.51
21
-138.687
0
LINE
8
BLACK
6
CONTINUOUS
10
166.51
20
-138.687
11
166.51
21
-139.163
0
LINE
8
BLACK
6
CONTINUOUS
10
166.51
20
-139.163
11
166.415
21
-139.544
0
LINE
8
BLACK
6
CONTINUOUS
10
166.415
20
-139.544
11
166.32
21
-139.734
0
LINE
8
BLACK
6
CONTINUOUS
10
166.32
20
-139.734
11
166.224
21
-139.83
0
LINE
8
BLACK
6
CONTINUOUS
10
166.224
20
-139.83
11
166.034
21
-139.925
0
LINE
8
BLACK
6
CONTINUOUS
10
166.034
20
-139.925
11
165.843
21
-139.925
0
LINE
8
BLACK
6
CONTINUOUS
10
165.843
20
-139.925
11
165.653
21
-139.83
0
LINE
8
BLACK
6
CONTINUOUS
10
165.653
20
-139.83
11
165.558
21
-139.734
0
LINE
8
BLACK
6
CONTINUOUS
10
165.558
20
-139.734
11
165.463
21
-139.544
0
LINE
8
BLACK
6
CONTINUOUS
10
165.463
20
-139.544
11
165.367
21
-139.163
0
LINE
8
BLACK
6
CONTINUOUS
10
165.367
20
-139.163
11
165.367
21
-138.687
0
LINE
8
BLACK
6
CONTINUOUS
10
165.367
20
-138.687
11
165.463
21
-138.306
0
LINE
8
BLACK
6
CONTINUOUS
10
165.463
20
-138.306
11
165.558
21
-138.115
0
LINE
8
BLACK
6
CONTINUOUS
10
165.558
20
-138.115
11
165.653
21
-138.02
0
LINE
8
BLACK
6
CONTINUOUS
10
165.653
20
-138.02
11
165.843
21
-137.925
0
LINE
8
BLACK
6
CONTINUOUS
10
168.891
20
-139.925
11
168.891
21
-137.925
0
LINE
8
BLACK
6
CONTINUOUS
10
169.748
20
-139.925
11
169.748
21
-138.877
0
LINE
8
BLACK
6
CONTINUOUS
10
169.748
20
-138.877
11
169.653
21
-138.687
0
LINE
8
BLACK
6
CONTINUOUS
10
169.653
20
-138.687
11
169.463
21
-138.592
0
LINE
8
BLACK
6
CONTINUOUS
10
169.463
20
-138.592
11
169.177
21
-138.592
0
LINE
8
BLACK
6
CONTINUOUS
10
169.177
20
-138.592
11
168.986
21
-138.687
0
LINE
8
BLACK
6
CONTINUOUS
10
168.986
20
-138.687
11
168.891
21
-138.782
0
LINE
8
BLACK
6
CONTINUOUS
10
170.986
20
-139.925
11
170.796
21
-139.83
0
LINE
8
BLACK
6
CONTINUOUS
10
170.796
20
-139.83
11
170.701
21
-139.734
0
LINE
8
BLACK
6
CONTINUOUS
10
170.701
20
-139.734
11
170.605
21
-139.544
0
LINE
8
BLACK
6
CONTINUOUS
10
170.605
20
-139.544
11
170.605
21
-138.972
0
LINE
8
BLACK
6
CONTINUOUS
10
170.605
20
-138.972
11
170.701
21
-138.782
0
LINE
8
BLACK
6
CONTINUOUS
10
170.701
20
-138.782
11
170.796
21
-138.687
0
LINE
8
BLACK
6
CONTINUOUS
10
170.796
20
-138.687
11
170.986
21
-138.592
0
LINE
8
BLACK
6
CONTINUOUS
10
170.986
20
-138.592
11
171.272
21
-138.592
0
LINE
8
BLACK
6
CONTINUOUS
10
171.272
20
-138.592
11
171.463
21
-138.687
0
LINE
8
BLACK
6
CONTINUOUS
10
171.463
20
-138.687
11
171.558
21
-138.782
0
LINE
8
BLACK
6
CONTINUOUS
10
171.558
20
-138.782
11
171.653
21
-138.972
0
LINE
8
BLACK
6
CONTINUOUS
10
171.653
20
-138.972
11
171.653
21
-139.544
0
LINE
8
BLACK
6
CONTINUOUS
10
171.653
20
-139.544
11
171.558
21
-139.734
0
LINE
8
BLACK
6
CONTINUOUS
10
171.558
20
-139.734
11
171.463
21
-139.83
0
LINE
8
BLACK
6
CONTINUOUS
10
171.463
20
-139.83
11
171.272
21
-139.925
0
LINE
8
BLACK
6
CONTINUOUS
10
171.272
20
-139.925
11
170.986
21
-139.925
0
LINE
8
BLACK
6
CONTINUOUS
10
172.796
20
-139.925
11
172.605
21
-139.83
0
LINE
8
BLACK
6
CONTINUOUS
10
172.605
20
-139.83
11
172.51
21
-139.639
0
LINE
8
BLACK
6
CONTINUOUS
10
172.51
20
-139.639
11
172.51
21
-137.925
0
LINE
8
BLACK
6
CONTINUOUS
10
174.32
20
-139.83
11
174.129
21
-139.925
0
LINE
8
BLACK
6
CONTINUOUS
10
174.129
20
-139.925
11
173.748
21
-139.925
0
LINE
8
BLACK
6
CONTINUOUS
10
173.748
20
-139.925
11
173.558
21
-139.83
0
LINE
8
BLACK
6
CONTINUOUS
10
173.558
20
-139.83
11
173.463
21
-139.639
0
LINE
8
BLACK
6
CONTINUOUS
10
173.463
20
-139.639
11
173.463
21
-138.877
0
LINE
8
BLACK
6
CONTINUOUS
10
173.463
20
-138.877
11
173.558
21
-138.687
0
LINE
8
BLACK
6
CONTINUOUS
10
173.558
20
-138.687
11
173.748
21
-138.592
0
LINE
8
BLACK
6
CONTINUOUS
10
173.748
20
-138.592
11
174.129
21
-138.592
0
LINE
8
BLACK
6
CONTINUOUS
10
174.129
20
-138.592
11
174.32
21
-138.687
0
LINE
8
BLACK
6
CONTINUOUS
10
174.32
20
-138.687
11
174.415
21
-138.877
0
LINE
8
BLACK
6
CONTINUOUS
10
174.415
20
-138.877
11
174.415
21
-139.068
0
LINE
8
BLACK
6
CONTINUOUS
10
174.415
20
-139.068
11
173.463
21
-139.258
0
LINE
8
BLACK
6
CONTINUOUS
10
175.177
20
-139.83
11
175.367
21
-139.925
0
LINE
8
BLACK
6
CONTINUOUS
10
175.367
20
-139.925
11
175.748
21
-139.925
0
LINE
8
BLACK
6
CONTINUOUS
10
175.748
20
-139.925
11
175.939
21
-139.83
0
LINE
8
BLACK
6
CONTINUOUS
10
175.939
20
-139.83
11
176.034
21
-139.639
0
LINE
8
BLACK
6
CONTINUOUS
10
176.034
20
-139.639
11
176.034
21
-139.544
0
LINE
8
BLACK
6
CONTINUOUS
10
176.034
20
-139.544
11
175.939
21
-139.353
0
LINE
8
BLACK
6
CONTINUOUS
10
175.939
20
-139.353
11
175.748
21
-139.258
0
LINE
8
BLACK
6
CONTINUOUS
10
175.748
20
-139.258
11
175.463
21
-139.258
0
LINE
8
BLACK
6
CONTINUOUS
10
175.463
20
-139.258
11
175.272
21
-139.163
0
LINE
8
BLACK
6
CONTINUOUS
10
175.272
20
-139.163
11
175.177
21
-138.972
0
LINE
8
BLACK
6
CONTINUOUS
10
175.177
20
-138.972
11
175.177
21
-138.877
0
LINE
8
BLACK
6
CONTINUOUS
10
175.177
20
-138.877
11
175.272
21
-138.687
0
LINE
8
BLACK
6
CONTINUOUS
10
175.272
20
-138.687
11
175.463
21
-138.592
0
LINE
8
BLACK
6
CONTINUOUS
10
175.463
20
-138.592
11
175.748
21
-138.592
0
LINE
8
BLACK
6
CONTINUOUS
10
175.748
20
-138.592
11
175.939
21
-138.687
0
LINE
8
BLACK
6
CONTINUOUS
10
178.415
20
-139.163
11
179.939
21
-139.163
0
LINE
8
BLACK
6
CONTINUOUS
10
179.177
20
-139.925
11
179.177
21
-138.401
0
LINE
8
BLACK
6
CONTINUOUS
10
182.32
20
-138.115
11
182.415
21
-138.02
0
LINE
8
BLACK
6
CONTINUOUS
10
182.415
20
-138.02
11
182.605
21
-137.925
0
LINE
8
BLACK
6
CONTINUOUS
10
182.605
20
-137.925
11
183.082
21
-137.925
0
LINE
8
BLACK
6
CONTINUOUS
10
183.082
20
-137.925
11
183.272
21
-138.02
0
LINE
8
BLACK
6
CONTINUOUS
10
183.272
20
-138.02
11
183.367
21
-138.115
0
LINE
8
BLACK
6
CONTINUOUS
10
183.367
20
-138.115
11
183.463
21
-138.306
0
LINE
8
BLACK
6
CONTINUOUS
10
183.463
20
-138.306
11
183.463
21
-138.496
0
LINE
8
BLACK
6
CONTINUOUS
10
183.463
20
-138.496
11
183.367
21
-138.782
0
LINE
8
BLACK
6
CONTINUOUS
10
183.367
20
-138.782
11
182.224
21
-139.925
0
LINE
8
BLACK
6
CONTINUOUS
10
182.224
20
-139.925
11
183.463
21
-139.925
0
LINE
8
BLACK
6
CONTINUOUS
10
185.748
20
-139.83
11
185.939
21
-139.925
0
LINE
8
BLACK
6
CONTINUOUS
10
185.939
20
-139.925
11
186.32
21
-139.925
0
LINE
8
BLACK
6
CONTINUOUS
10
186.32
20
-139.925
11
186.51
21
-139.83
0
LINE
8
BLACK
6
CONTINUOUS
10
186.51
20
-139.83
11
186.605
21
-139.639
0
LINE
8
BLACK
6
CONTINUOUS
10
186.605
20
-139.639
11
186.605
21
-139.544
0
LINE
8
BLACK
6
CONTINUOUS
10
186.605
20
-139.544
11
186.51
21
-139.353
0
LINE
8
BLACK
6
CONTINUOUS
10
186.51
20
-139.353
11
186.32
21
-139.258
0
LINE
8
BLACK
6
CONTINUOUS
10
186.32
20
-139.258
11
186.034
21
-139.258
0
LINE
8
BLACK
6
CONTINUOUS
10
186.034
20
-139.258
11
185.843
21
-139.163
0
LINE
8
BLACK
6
CONTINUOUS
10
185.843
20
-139.163
11
185.748
21
-138.972
0
LINE
8
BLACK
6
CONTINUOUS
10
185.748
20
-138.972
11
185.748
21
-138.877
0
LINE
8
BLACK
6
CONTINUOUS
10
185.748
20
-138.877
11
185.843
21
-138.687
0
LINE
8
BLACK
6
CONTINUOUS
10
185.843
20
-138.687
11
186.034
21
-138.592
0
LINE
8
BLACK
6
CONTINUOUS
10
186.034
20
-138.592
11
186.32
21
-138.592
0
LINE
8
BLACK
6
CONTINUOUS
10
186.32
20
-138.592
11
186.51
21
-138.687
0
LINE
8
BLACK
6
CONTINUOUS
10
187.748
20
-139.925
11
187.558
21
-139.83
0
LINE
8
BLACK
6
CONTINUOUS
10
187.558
20
-139.83
11
187.463
21
-139.639
0
LINE
8
BLACK
6
CONTINUOUS
10
187.463
20
-139.639
11
187.463
21
-137.925
0
LINE
8
BLACK
6
CONTINUOUS
10
188.796
20
-139.925
11
188.605
21
-139.83
0
LINE
8
BLACK
6
CONTINUOUS
10
188.605
20
-139.83
11
188.51
21
-139.734
0
LINE
8
BLACK
6
CONTINUOUS
10
188.51
20
-139.734
11
188.415
21
-139.544
0
LINE
8
BLACK
6
CONTINUOUS
10
188.415
20
-139.544
11
188.415
21
-138.972
0
LINE
8
BLACK
6
CONTINUOUS
10
188.415
20
-138.972
11
188.51
21
-138.782
0
LINE
8
BLACK
6
CONTINUOUS
10
188.51
20
-138.782
11
188.605
21
-138.687
0
LINE
8
BLACK
6
CONTINUOUS
10
188.605
20
-138.687
11
188.796
21
-138.592
0
LINE
8
BLACK
6
CONTINUOUS
10
188.796
20
-138.592
11
189.082
21
-138.592
0
LINE
8
BLACK
6
CONTINUOUS
10
189.082
20
-138.592
11
189.272
21
-138.687
0
LINE
8
BLACK
6
CONTINUOUS
10
189.272
20
-138.687
11
189.367
21
-138.782
0
LINE
8
BLACK
6
CONTINUOUS
10
189.367
20
-138.782
11
189.463
21
-138.972
0
LINE
8
BLACK
6
CONTINUOUS
10
189.463
20
-138.972
11
189.463
21
-139.544
0
LINE
8
BLACK
6
CONTINUOUS
10
189.463
20
-139.544
11
189.367
21
-139.734
0
LINE
8
BLACK
6
CONTINUOUS
10
189.367
20
-139.734
11
189.272
21
-139.83
0
LINE
8
BLACK
6
CONTINUOUS
10
189.272
20
-139.83
11
189.082
21
-139.925
0
LINE
8
BLACK
6
CONTINUOUS
10
189.082
20
-139.925
11
188.796
21
-139.925
0
LINE
8
BLACK
6
CONTINUOUS
10
190.034
20
-138.592
11
190.796
21
-138.592
0
LINE
8
BLACK
6
CONTINUOUS
10
190.32
20
-137.925
11
190.32
21
-139.639
0
LINE
8
BLACK
6
CONTINUOUS
10
190.32
20
-139.639
11
190.415
21
-139.83
0
LINE
8
BLACK
6
CONTINUOUS
10
190.415
20
-139.83
11
190.605
21
-139.925
0
LINE
8
BLACK
6
CONTINUOUS
10
190.605
20
-139.925
11
190.796
21
-139.925
0
LINE
8
BLACK
6
CONTINUOUS
10
191.367
20
-139.83
11
191.558
21
-139.925
0
LINE
8
BLACK
6
CONTINUOUS
10
191.558
20
-139.925
11
191.939
21
-139.925
0
LINE
8
BLACK
6
CONTINUOUS
10
191.939
20
-139.925
11
192.129
21
-139.83
0
LINE
8
BLACK
6
CONTINUOUS
10
192.129
20
-139.83
11
192.224
21
-139.639
0
LINE
8
BLACK
6
CONTINUOUS
10
192.224
20
-139.639
11
192.224
21
-139.544
0
LINE
8
BLACK
6
CONTINUOUS
10
192.224
20
-139.544
11
192.129
21
-139.353
0
LINE
8
BLACK
6
CONTINUOUS
10
192.129
20
-139.353
11
191.939
21
-139.258
0
LINE
8
BLACK
6
CONTINUOUS
10
191.939
20
-139.258
11
191.653
21
-139.258
0
LINE
8
BLACK
6
CONTINUOUS
10
191.653
20
-139.258
11
191.463
21
-139.163
0
LINE
8
BLACK
6
CONTINUOUS
10
191.463
20
-139.163
11
191.367
21
-138.972
0
LINE
8
BLACK
6
CONTINUOUS
10
191.367
20
-138.972
11
191.367
21
-138.877
0
LINE
8
BLACK
6
CONTINUOUS
10
191.367
20
-138.877
11
191.463
21
-138.687
0
LINE
8
BLACK
6
CONTINUOUS
10
191.463
20
-138.687
11
191.653
21
-138.592
0
LINE
8
BLACK
6
CONTINUOUS
10
191.653
20
-138.592
11
191.939
21
-138.592
0
LINE
8
BLACK
6
CONTINUOUS
10
191.939
20
-138.592
11
192.129
21
-138.687
0
LINE
8
BLACK
6
CONTINUOUS
10
192.891
20
-140.687
11
192.986
21
-140.592
0
LINE
8
BLACK
6
CONTINUOUS
10
192.986
20
-140.592
11
193.177
21
-140.306
0
LINE
8
BLACK
6
CONTINUOUS
10
193.177
20
-140.306
11
193.272
21
-140.115
0
LINE
8
BLACK
6
CONTINUOUS
10
193.272
20
-140.115
11
193.367
21
-139.83
0
LINE
8
BLACK
6
CONTINUOUS
10
193.367
20
-139.83
11
193.463
21
-139.353
0
LINE
8
BLACK
6
CONTINUOUS
10
193.463
20
-139.353
11
193.463
21
-138.972
0
LINE
8
BLACK
6
CONTINUOUS
10
193.463
20
-138.972
11
193.367
21
-138.496
0
LINE
8
BLACK
6
CONTINUOUS
10
193.367
20
-138.496
11
193.272
21
-138.211
0
LINE
8
BLACK
6
CONTINUOUS
10
193.272
20
-138.211
11
193.177
21
-138.02
0
LINE
8
BLACK
6
CONTINUOUS
10
193.177
20
-138.02
11
192.986
21
-137.734
0
LINE
8
BLACK
6
CONTINUOUS
10
192.986
20
-137.734
11
192.891
21
-137.639
  0
ENDSEC
  0
EOF
