%TF.GenerationSoftware,KiCad,Pcbnew,7.0.5*%
%TF.CreationDate,2023-09-29T16:27:13+09:00*%
%TF.ProjectId,ProMicro________,50726f4d-6963-4726-9f5f-7e9d7bdeef42,rev?*%
%TF.SameCoordinates,Original*%
%TF.FileFunction,Legend,Bot*%
%TF.FilePolarity,Positive*%
%FSLAX46Y46*%
G04 Gerber Fmt 4.6, Leading zero omitted, Abs format (unit mm)*
G04 Created by KiCad (PCBNEW 7.0.5) date 2023-09-29 16:27:13*
%MOMM*%
%LPD*%
G01*
G04 APERTURE LIST*
%ADD10C,0.150000*%
%ADD11C,0.381000*%
%ADD12R,1.752600X1.752600*%
%ADD13C,1.752600*%
G04 APERTURE END LIST*
D10*
%TO.C,U1*%
X162148523Y-42237140D02*
X162224713Y-42199045D01*
X162224713Y-42199045D02*
X162338999Y-42199045D01*
X162338999Y-42199045D02*
X162453285Y-42237140D01*
X162453285Y-42237140D02*
X162529475Y-42313330D01*
X162529475Y-42313330D02*
X162567570Y-42389521D01*
X162567570Y-42389521D02*
X162605666Y-42541902D01*
X162605666Y-42541902D02*
X162605666Y-42656188D01*
X162605666Y-42656188D02*
X162567570Y-42808569D01*
X162567570Y-42808569D02*
X162529475Y-42884759D01*
X162529475Y-42884759D02*
X162453285Y-42960950D01*
X162453285Y-42960950D02*
X162338999Y-42999045D01*
X162338999Y-42999045D02*
X162262808Y-42999045D01*
X162262808Y-42999045D02*
X162148523Y-42960950D01*
X162148523Y-42960950D02*
X162110427Y-42922854D01*
X162110427Y-42922854D02*
X162110427Y-42656188D01*
X162110427Y-42656188D02*
X162262808Y-42656188D01*
X161767570Y-42999045D02*
X161767570Y-42199045D01*
X161767570Y-42199045D02*
X161310427Y-42999045D01*
X161310427Y-42999045D02*
X161310427Y-42199045D01*
X160929475Y-42999045D02*
X160929475Y-42199045D01*
X160929475Y-42199045D02*
X160738999Y-42199045D01*
X160738999Y-42199045D02*
X160624713Y-42237140D01*
X160624713Y-42237140D02*
X160548523Y-42313330D01*
X160548523Y-42313330D02*
X160510428Y-42389521D01*
X160510428Y-42389521D02*
X160472332Y-42541902D01*
X160472332Y-42541902D02*
X160472332Y-42656188D01*
X160472332Y-42656188D02*
X160510428Y-42808569D01*
X160510428Y-42808569D02*
X160548523Y-42884759D01*
X160548523Y-42884759D02*
X160624713Y-42960950D01*
X160624713Y-42960950D02*
X160738999Y-42999045D01*
X160738999Y-42999045D02*
X160929475Y-42999045D01*
X172784809Y-55279997D02*
X172670523Y-55318092D01*
X172670523Y-55318092D02*
X172632428Y-55356188D01*
X172632428Y-55356188D02*
X172594332Y-55432378D01*
X172594332Y-55432378D02*
X172594332Y-55546664D01*
X172594332Y-55546664D02*
X172632428Y-55622854D01*
X172632428Y-55622854D02*
X172670523Y-55660950D01*
X172670523Y-55660950D02*
X172746713Y-55699045D01*
X172746713Y-55699045D02*
X173051475Y-55699045D01*
X173051475Y-55699045D02*
X173051475Y-54899045D01*
X173051475Y-54899045D02*
X172784809Y-54899045D01*
X172784809Y-54899045D02*
X172708618Y-54937140D01*
X172708618Y-54937140D02*
X172670523Y-54975235D01*
X172670523Y-54975235D02*
X172632428Y-55051426D01*
X172632428Y-55051426D02*
X172632428Y-55127616D01*
X172632428Y-55127616D02*
X172670523Y-55203807D01*
X172670523Y-55203807D02*
X172708618Y-55241902D01*
X172708618Y-55241902D02*
X172784809Y-55279997D01*
X172784809Y-55279997D02*
X173051475Y-55279997D01*
X171832428Y-55699045D02*
X172289571Y-55699045D01*
X172060999Y-55699045D02*
X172060999Y-54899045D01*
X172060999Y-54899045D02*
X172137190Y-55013330D01*
X172137190Y-55013330D02*
X172213380Y-55089521D01*
X172213380Y-55089521D02*
X172289571Y-55127616D01*
X165618604Y-34579045D02*
X165161461Y-34579045D01*
X165390033Y-35379045D02*
X165390033Y-34579045D01*
X164970985Y-34579045D02*
X164437651Y-35379045D01*
X164437651Y-34579045D02*
X164970985Y-35379045D01*
X163980508Y-34579045D02*
X163904318Y-34579045D01*
X163904318Y-34579045D02*
X163828127Y-34617140D01*
X163828127Y-34617140D02*
X163790032Y-34655235D01*
X163790032Y-34655235D02*
X163751937Y-34731426D01*
X163751937Y-34731426D02*
X163713842Y-34883807D01*
X163713842Y-34883807D02*
X163713842Y-35074283D01*
X163713842Y-35074283D02*
X163751937Y-35226664D01*
X163751937Y-35226664D02*
X163790032Y-35302854D01*
X163790032Y-35302854D02*
X163828127Y-35340950D01*
X163828127Y-35340950D02*
X163904318Y-35379045D01*
X163904318Y-35379045D02*
X163980508Y-35379045D01*
X163980508Y-35379045D02*
X164056699Y-35340950D01*
X164056699Y-35340950D02*
X164094794Y-35302854D01*
X164094794Y-35302854D02*
X164132889Y-35226664D01*
X164132889Y-35226664D02*
X164170985Y-35074283D01*
X164170985Y-35074283D02*
X164170985Y-34883807D01*
X164170985Y-34883807D02*
X164132889Y-34731426D01*
X164132889Y-34731426D02*
X164094794Y-34655235D01*
X164094794Y-34655235D02*
X164056699Y-34617140D01*
X164056699Y-34617140D02*
X163980508Y-34579045D01*
X162799556Y-34540950D02*
X163485270Y-35569521D01*
X162532889Y-35379045D02*
X162532889Y-34579045D01*
X162532889Y-34579045D02*
X162342413Y-34579045D01*
X162342413Y-34579045D02*
X162228127Y-34617140D01*
X162228127Y-34617140D02*
X162151937Y-34693330D01*
X162151937Y-34693330D02*
X162113842Y-34769521D01*
X162113842Y-34769521D02*
X162075746Y-34921902D01*
X162075746Y-34921902D02*
X162075746Y-35036188D01*
X162075746Y-35036188D02*
X162113842Y-35188569D01*
X162113842Y-35188569D02*
X162151937Y-35264759D01*
X162151937Y-35264759D02*
X162228127Y-35340950D01*
X162228127Y-35340950D02*
X162342413Y-35379045D01*
X162342413Y-35379045D02*
X162532889Y-35379045D01*
X161809080Y-34579045D02*
X161313842Y-34579045D01*
X161313842Y-34579045D02*
X161580508Y-34883807D01*
X161580508Y-34883807D02*
X161466223Y-34883807D01*
X161466223Y-34883807D02*
X161390032Y-34921902D01*
X161390032Y-34921902D02*
X161351937Y-34959997D01*
X161351937Y-34959997D02*
X161313842Y-35036188D01*
X161313842Y-35036188D02*
X161313842Y-35226664D01*
X161313842Y-35226664D02*
X161351937Y-35302854D01*
X161351937Y-35302854D02*
X161390032Y-35340950D01*
X161390032Y-35340950D02*
X161466223Y-35379045D01*
X161466223Y-35379045D02*
X161694794Y-35379045D01*
X161694794Y-35379045D02*
X161770985Y-35340950D01*
X161770985Y-35340950D02*
X161809080Y-35302854D01*
X172727666Y-52739997D02*
X172994332Y-52739997D01*
X172994332Y-53159045D02*
X172994332Y-52359045D01*
X172994332Y-52359045D02*
X172613380Y-52359045D01*
X172384809Y-52359045D02*
X171851475Y-52359045D01*
X171851475Y-52359045D02*
X172194333Y-53159045D01*
X173070523Y-37157140D02*
X173146713Y-37119045D01*
X173146713Y-37119045D02*
X173260999Y-37119045D01*
X173260999Y-37119045D02*
X173375285Y-37157140D01*
X173375285Y-37157140D02*
X173451475Y-37233330D01*
X173451475Y-37233330D02*
X173489570Y-37309521D01*
X173489570Y-37309521D02*
X173527666Y-37461902D01*
X173527666Y-37461902D02*
X173527666Y-37576188D01*
X173527666Y-37576188D02*
X173489570Y-37728569D01*
X173489570Y-37728569D02*
X173451475Y-37804759D01*
X173451475Y-37804759D02*
X173375285Y-37880950D01*
X173375285Y-37880950D02*
X173260999Y-37919045D01*
X173260999Y-37919045D02*
X173184808Y-37919045D01*
X173184808Y-37919045D02*
X173070523Y-37880950D01*
X173070523Y-37880950D02*
X173032427Y-37842854D01*
X173032427Y-37842854D02*
X173032427Y-37576188D01*
X173032427Y-37576188D02*
X173184808Y-37576188D01*
X172689570Y-37919045D02*
X172689570Y-37119045D01*
X172689570Y-37119045D02*
X172232427Y-37919045D01*
X172232427Y-37919045D02*
X172232427Y-37119045D01*
X171851475Y-37919045D02*
X171851475Y-37119045D01*
X171851475Y-37119045D02*
X171660999Y-37119045D01*
X171660999Y-37119045D02*
X171546713Y-37157140D01*
X171546713Y-37157140D02*
X171470523Y-37233330D01*
X171470523Y-37233330D02*
X171432428Y-37309521D01*
X171432428Y-37309521D02*
X171394332Y-37461902D01*
X171394332Y-37461902D02*
X171394332Y-37576188D01*
X171394332Y-37576188D02*
X171432428Y-37728569D01*
X171432428Y-37728569D02*
X171470523Y-37804759D01*
X171470523Y-37804759D02*
X171546713Y-37880950D01*
X171546713Y-37880950D02*
X171660999Y-37919045D01*
X171660999Y-37919045D02*
X171851475Y-37919045D01*
X162129475Y-45539045D02*
X162129475Y-44739045D01*
X162129475Y-44739045D02*
X161938999Y-44739045D01*
X161938999Y-44739045D02*
X161824713Y-44777140D01*
X161824713Y-44777140D02*
X161748523Y-44853330D01*
X161748523Y-44853330D02*
X161710428Y-44929521D01*
X161710428Y-44929521D02*
X161672332Y-45081902D01*
X161672332Y-45081902D02*
X161672332Y-45196188D01*
X161672332Y-45196188D02*
X161710428Y-45348569D01*
X161710428Y-45348569D02*
X161748523Y-45424759D01*
X161748523Y-45424759D02*
X161824713Y-45500950D01*
X161824713Y-45500950D02*
X161938999Y-45539045D01*
X161938999Y-45539045D02*
X162129475Y-45539045D01*
X160910428Y-45539045D02*
X161367571Y-45539045D01*
X161138999Y-45539045D02*
X161138999Y-44739045D01*
X161138999Y-44739045D02*
X161215190Y-44853330D01*
X161215190Y-44853330D02*
X161291380Y-44929521D01*
X161291380Y-44929521D02*
X161367571Y-44967616D01*
X161862809Y-62899997D02*
X161748523Y-62938092D01*
X161748523Y-62938092D02*
X161710428Y-62976188D01*
X161710428Y-62976188D02*
X161672332Y-63052378D01*
X161672332Y-63052378D02*
X161672332Y-63166664D01*
X161672332Y-63166664D02*
X161710428Y-63242854D01*
X161710428Y-63242854D02*
X161748523Y-63280950D01*
X161748523Y-63280950D02*
X161824713Y-63319045D01*
X161824713Y-63319045D02*
X162129475Y-63319045D01*
X162129475Y-63319045D02*
X162129475Y-62519045D01*
X162129475Y-62519045D02*
X161862809Y-62519045D01*
X161862809Y-62519045D02*
X161786618Y-62557140D01*
X161786618Y-62557140D02*
X161748523Y-62595235D01*
X161748523Y-62595235D02*
X161710428Y-62671426D01*
X161710428Y-62671426D02*
X161710428Y-62747616D01*
X161710428Y-62747616D02*
X161748523Y-62823807D01*
X161748523Y-62823807D02*
X161786618Y-62861902D01*
X161786618Y-62861902D02*
X161862809Y-62899997D01*
X161862809Y-62899997D02*
X162129475Y-62899997D01*
X160948523Y-62519045D02*
X161329475Y-62519045D01*
X161329475Y-62519045D02*
X161367571Y-62899997D01*
X161367571Y-62899997D02*
X161329475Y-62861902D01*
X161329475Y-62861902D02*
X161253285Y-62823807D01*
X161253285Y-62823807D02*
X161062809Y-62823807D01*
X161062809Y-62823807D02*
X160986618Y-62861902D01*
X160986618Y-62861902D02*
X160948523Y-62899997D01*
X160948523Y-62899997D02*
X160910428Y-62976188D01*
X160910428Y-62976188D02*
X160910428Y-63166664D01*
X160910428Y-63166664D02*
X160948523Y-63242854D01*
X160948523Y-63242854D02*
X160986618Y-63280950D01*
X160986618Y-63280950D02*
X161062809Y-63319045D01*
X161062809Y-63319045D02*
X161253285Y-63319045D01*
X161253285Y-63319045D02*
X161329475Y-63280950D01*
X161329475Y-63280950D02*
X161367571Y-63242854D01*
X172727666Y-45119997D02*
X172994332Y-45119997D01*
X172994332Y-45539045D02*
X172994332Y-44739045D01*
X172994332Y-44739045D02*
X172613380Y-44739045D01*
X171965761Y-45005711D02*
X171965761Y-45539045D01*
X172156237Y-44700950D02*
X172346714Y-45272378D01*
X172346714Y-45272378D02*
X171851475Y-45272378D01*
X172727666Y-47659997D02*
X172994332Y-47659997D01*
X172994332Y-48079045D02*
X172994332Y-47279045D01*
X172994332Y-47279045D02*
X172613380Y-47279045D01*
X171927666Y-47279045D02*
X172308618Y-47279045D01*
X172308618Y-47279045D02*
X172346714Y-47659997D01*
X172346714Y-47659997D02*
X172308618Y-47621902D01*
X172308618Y-47621902D02*
X172232428Y-47583807D01*
X172232428Y-47583807D02*
X172041952Y-47583807D01*
X172041952Y-47583807D02*
X171965761Y-47621902D01*
X171965761Y-47621902D02*
X171927666Y-47659997D01*
X171927666Y-47659997D02*
X171889571Y-47736188D01*
X171889571Y-47736188D02*
X171889571Y-47926664D01*
X171889571Y-47926664D02*
X171927666Y-48002854D01*
X171927666Y-48002854D02*
X171965761Y-48040950D01*
X171965761Y-48040950D02*
X172041952Y-48079045D01*
X172041952Y-48079045D02*
X172232428Y-48079045D01*
X172232428Y-48079045D02*
X172308618Y-48040950D01*
X172308618Y-48040950D02*
X172346714Y-48002854D01*
X161862809Y-60359997D02*
X161748523Y-60398092D01*
X161748523Y-60398092D02*
X161710428Y-60436188D01*
X161710428Y-60436188D02*
X161672332Y-60512378D01*
X161672332Y-60512378D02*
X161672332Y-60626664D01*
X161672332Y-60626664D02*
X161710428Y-60702854D01*
X161710428Y-60702854D02*
X161748523Y-60740950D01*
X161748523Y-60740950D02*
X161824713Y-60779045D01*
X161824713Y-60779045D02*
X162129475Y-60779045D01*
X162129475Y-60779045D02*
X162129475Y-59979045D01*
X162129475Y-59979045D02*
X161862809Y-59979045D01*
X161862809Y-59979045D02*
X161786618Y-60017140D01*
X161786618Y-60017140D02*
X161748523Y-60055235D01*
X161748523Y-60055235D02*
X161710428Y-60131426D01*
X161710428Y-60131426D02*
X161710428Y-60207616D01*
X161710428Y-60207616D02*
X161748523Y-60283807D01*
X161748523Y-60283807D02*
X161786618Y-60321902D01*
X161786618Y-60321902D02*
X161862809Y-60359997D01*
X161862809Y-60359997D02*
X162129475Y-60359997D01*
X160986618Y-60245711D02*
X160986618Y-60779045D01*
X161177094Y-59940950D02*
X161367571Y-60512378D01*
X161367571Y-60512378D02*
X160872332Y-60512378D01*
X172727666Y-50199997D02*
X172994332Y-50199997D01*
X172994332Y-50619045D02*
X172994332Y-49819045D01*
X172994332Y-49819045D02*
X172613380Y-49819045D01*
X171965761Y-49819045D02*
X172118142Y-49819045D01*
X172118142Y-49819045D02*
X172194333Y-49857140D01*
X172194333Y-49857140D02*
X172232428Y-49895235D01*
X172232428Y-49895235D02*
X172308618Y-50009521D01*
X172308618Y-50009521D02*
X172346714Y-50161902D01*
X172346714Y-50161902D02*
X172346714Y-50466664D01*
X172346714Y-50466664D02*
X172308618Y-50542854D01*
X172308618Y-50542854D02*
X172270523Y-50580950D01*
X172270523Y-50580950D02*
X172194333Y-50619045D01*
X172194333Y-50619045D02*
X172041952Y-50619045D01*
X172041952Y-50619045D02*
X171965761Y-50580950D01*
X171965761Y-50580950D02*
X171927666Y-50542854D01*
X171927666Y-50542854D02*
X171889571Y-50466664D01*
X171889571Y-50466664D02*
X171889571Y-50276188D01*
X171889571Y-50276188D02*
X171927666Y-50199997D01*
X171927666Y-50199997D02*
X171965761Y-50161902D01*
X171965761Y-50161902D02*
X172041952Y-50123807D01*
X172041952Y-50123807D02*
X172194333Y-50123807D01*
X172194333Y-50123807D02*
X172270523Y-50161902D01*
X172270523Y-50161902D02*
X172308618Y-50199997D01*
X172308618Y-50199997D02*
X172346714Y-50276188D01*
X172784809Y-62899997D02*
X172670523Y-62938092D01*
X172670523Y-62938092D02*
X172632428Y-62976188D01*
X172632428Y-62976188D02*
X172594332Y-63052378D01*
X172594332Y-63052378D02*
X172594332Y-63166664D01*
X172594332Y-63166664D02*
X172632428Y-63242854D01*
X172632428Y-63242854D02*
X172670523Y-63280950D01*
X172670523Y-63280950D02*
X172746713Y-63319045D01*
X172746713Y-63319045D02*
X173051475Y-63319045D01*
X173051475Y-63319045D02*
X173051475Y-62519045D01*
X173051475Y-62519045D02*
X172784809Y-62519045D01*
X172784809Y-62519045D02*
X172708618Y-62557140D01*
X172708618Y-62557140D02*
X172670523Y-62595235D01*
X172670523Y-62595235D02*
X172632428Y-62671426D01*
X172632428Y-62671426D02*
X172632428Y-62747616D01*
X172632428Y-62747616D02*
X172670523Y-62823807D01*
X172670523Y-62823807D02*
X172708618Y-62861902D01*
X172708618Y-62861902D02*
X172784809Y-62899997D01*
X172784809Y-62899997D02*
X173051475Y-62899997D01*
X171908618Y-62519045D02*
X172060999Y-62519045D01*
X172060999Y-62519045D02*
X172137190Y-62557140D01*
X172137190Y-62557140D02*
X172175285Y-62595235D01*
X172175285Y-62595235D02*
X172251475Y-62709521D01*
X172251475Y-62709521D02*
X172289571Y-62861902D01*
X172289571Y-62861902D02*
X172289571Y-63166664D01*
X172289571Y-63166664D02*
X172251475Y-63242854D01*
X172251475Y-63242854D02*
X172213380Y-63280950D01*
X172213380Y-63280950D02*
X172137190Y-63319045D01*
X172137190Y-63319045D02*
X171984809Y-63319045D01*
X171984809Y-63319045D02*
X171908618Y-63280950D01*
X171908618Y-63280950D02*
X171870523Y-63242854D01*
X171870523Y-63242854D02*
X171832428Y-63166664D01*
X171832428Y-63166664D02*
X171832428Y-62976188D01*
X171832428Y-62976188D02*
X171870523Y-62899997D01*
X171870523Y-62899997D02*
X171908618Y-62861902D01*
X171908618Y-62861902D02*
X171984809Y-62823807D01*
X171984809Y-62823807D02*
X172137190Y-62823807D01*
X172137190Y-62823807D02*
X172213380Y-62861902D01*
X172213380Y-62861902D02*
X172251475Y-62899997D01*
X172251475Y-62899997D02*
X172289571Y-62976188D01*
X162091380Y-57819997D02*
X161824714Y-57819997D01*
X161710428Y-58239045D02*
X162091380Y-58239045D01*
X162091380Y-58239045D02*
X162091380Y-57439045D01*
X162091380Y-57439045D02*
X161710428Y-57439045D01*
X161024713Y-57439045D02*
X161177094Y-57439045D01*
X161177094Y-57439045D02*
X161253285Y-57477140D01*
X161253285Y-57477140D02*
X161291380Y-57515235D01*
X161291380Y-57515235D02*
X161367570Y-57629521D01*
X161367570Y-57629521D02*
X161405666Y-57781902D01*
X161405666Y-57781902D02*
X161405666Y-58086664D01*
X161405666Y-58086664D02*
X161367570Y-58162854D01*
X161367570Y-58162854D02*
X161329475Y-58200950D01*
X161329475Y-58200950D02*
X161253285Y-58239045D01*
X161253285Y-58239045D02*
X161100904Y-58239045D01*
X161100904Y-58239045D02*
X161024713Y-58200950D01*
X161024713Y-58200950D02*
X160986618Y-58162854D01*
X160986618Y-58162854D02*
X160948523Y-58086664D01*
X160948523Y-58086664D02*
X160948523Y-57896188D01*
X160948523Y-57896188D02*
X160986618Y-57819997D01*
X160986618Y-57819997D02*
X161024713Y-57781902D01*
X161024713Y-57781902D02*
X161100904Y-57743807D01*
X161100904Y-57743807D02*
X161253285Y-57743807D01*
X161253285Y-57743807D02*
X161329475Y-57781902D01*
X161329475Y-57781902D02*
X161367570Y-57819997D01*
X161367570Y-57819997D02*
X161405666Y-57896188D01*
X173527666Y-42199045D02*
X173260999Y-42999045D01*
X173260999Y-42999045D02*
X172994333Y-42199045D01*
X172270523Y-42922854D02*
X172308619Y-42960950D01*
X172308619Y-42960950D02*
X172422904Y-42999045D01*
X172422904Y-42999045D02*
X172499095Y-42999045D01*
X172499095Y-42999045D02*
X172613381Y-42960950D01*
X172613381Y-42960950D02*
X172689571Y-42884759D01*
X172689571Y-42884759D02*
X172727666Y-42808569D01*
X172727666Y-42808569D02*
X172765762Y-42656188D01*
X172765762Y-42656188D02*
X172765762Y-42541902D01*
X172765762Y-42541902D02*
X172727666Y-42389521D01*
X172727666Y-42389521D02*
X172689571Y-42313330D01*
X172689571Y-42313330D02*
X172613381Y-42237140D01*
X172613381Y-42237140D02*
X172499095Y-42199045D01*
X172499095Y-42199045D02*
X172422904Y-42199045D01*
X172422904Y-42199045D02*
X172308619Y-42237140D01*
X172308619Y-42237140D02*
X172270523Y-42275235D01*
X171470523Y-42922854D02*
X171508619Y-42960950D01*
X171508619Y-42960950D02*
X171622904Y-42999045D01*
X171622904Y-42999045D02*
X171699095Y-42999045D01*
X171699095Y-42999045D02*
X171813381Y-42960950D01*
X171813381Y-42960950D02*
X171889571Y-42884759D01*
X171889571Y-42884759D02*
X171927666Y-42808569D01*
X171927666Y-42808569D02*
X171965762Y-42656188D01*
X171965762Y-42656188D02*
X171965762Y-42541902D01*
X171965762Y-42541902D02*
X171927666Y-42389521D01*
X171927666Y-42389521D02*
X171889571Y-42313330D01*
X171889571Y-42313330D02*
X171813381Y-42237140D01*
X171813381Y-42237140D02*
X171699095Y-42199045D01*
X171699095Y-42199045D02*
X171622904Y-42199045D01*
X171622904Y-42199045D02*
X171508619Y-42237140D01*
X171508619Y-42237140D02*
X171470523Y-42275235D01*
X162129475Y-50619045D02*
X162129475Y-49819045D01*
X162129475Y-49819045D02*
X161938999Y-49819045D01*
X161938999Y-49819045D02*
X161824713Y-49857140D01*
X161824713Y-49857140D02*
X161748523Y-49933330D01*
X161748523Y-49933330D02*
X161710428Y-50009521D01*
X161710428Y-50009521D02*
X161672332Y-50161902D01*
X161672332Y-50161902D02*
X161672332Y-50276188D01*
X161672332Y-50276188D02*
X161710428Y-50428569D01*
X161710428Y-50428569D02*
X161748523Y-50504759D01*
X161748523Y-50504759D02*
X161824713Y-50580950D01*
X161824713Y-50580950D02*
X161938999Y-50619045D01*
X161938999Y-50619045D02*
X162129475Y-50619045D01*
X160986618Y-50085711D02*
X160986618Y-50619045D01*
X161177094Y-49780950D02*
X161367571Y-50352378D01*
X161367571Y-50352378D02*
X160872332Y-50352378D01*
X162129475Y-37919045D02*
X162129475Y-37119045D01*
X162129475Y-37119045D02*
X161938999Y-37119045D01*
X161938999Y-37119045D02*
X161824713Y-37157140D01*
X161824713Y-37157140D02*
X161748523Y-37233330D01*
X161748523Y-37233330D02*
X161710428Y-37309521D01*
X161710428Y-37309521D02*
X161672332Y-37461902D01*
X161672332Y-37461902D02*
X161672332Y-37576188D01*
X161672332Y-37576188D02*
X161710428Y-37728569D01*
X161710428Y-37728569D02*
X161748523Y-37804759D01*
X161748523Y-37804759D02*
X161824713Y-37880950D01*
X161824713Y-37880950D02*
X161938999Y-37919045D01*
X161938999Y-37919045D02*
X162129475Y-37919045D01*
X161367571Y-37195235D02*
X161329475Y-37157140D01*
X161329475Y-37157140D02*
X161253285Y-37119045D01*
X161253285Y-37119045D02*
X161062809Y-37119045D01*
X161062809Y-37119045D02*
X160986618Y-37157140D01*
X160986618Y-37157140D02*
X160948523Y-37195235D01*
X160948523Y-37195235D02*
X160910428Y-37271426D01*
X160910428Y-37271426D02*
X160910428Y-37347616D01*
X160910428Y-37347616D02*
X160948523Y-37461902D01*
X160948523Y-37461902D02*
X161405666Y-37919045D01*
X161405666Y-37919045D02*
X160910428Y-37919045D01*
X162129475Y-48079045D02*
X162129475Y-47279045D01*
X162129475Y-47279045D02*
X161938999Y-47279045D01*
X161938999Y-47279045D02*
X161824713Y-47317140D01*
X161824713Y-47317140D02*
X161748523Y-47393330D01*
X161748523Y-47393330D02*
X161710428Y-47469521D01*
X161710428Y-47469521D02*
X161672332Y-47621902D01*
X161672332Y-47621902D02*
X161672332Y-47736188D01*
X161672332Y-47736188D02*
X161710428Y-47888569D01*
X161710428Y-47888569D02*
X161748523Y-47964759D01*
X161748523Y-47964759D02*
X161824713Y-48040950D01*
X161824713Y-48040950D02*
X161938999Y-48079045D01*
X161938999Y-48079045D02*
X162129475Y-48079045D01*
X161177094Y-47279045D02*
X161100904Y-47279045D01*
X161100904Y-47279045D02*
X161024713Y-47317140D01*
X161024713Y-47317140D02*
X160986618Y-47355235D01*
X160986618Y-47355235D02*
X160948523Y-47431426D01*
X160948523Y-47431426D02*
X160910428Y-47583807D01*
X160910428Y-47583807D02*
X160910428Y-47774283D01*
X160910428Y-47774283D02*
X160948523Y-47926664D01*
X160948523Y-47926664D02*
X160986618Y-48002854D01*
X160986618Y-48002854D02*
X161024713Y-48040950D01*
X161024713Y-48040950D02*
X161100904Y-48079045D01*
X161100904Y-48079045D02*
X161177094Y-48079045D01*
X161177094Y-48079045D02*
X161253285Y-48040950D01*
X161253285Y-48040950D02*
X161291380Y-48002854D01*
X161291380Y-48002854D02*
X161329475Y-47926664D01*
X161329475Y-47926664D02*
X161367571Y-47774283D01*
X161367571Y-47774283D02*
X161367571Y-47583807D01*
X161367571Y-47583807D02*
X161329475Y-47431426D01*
X161329475Y-47431426D02*
X161291380Y-47355235D01*
X161291380Y-47355235D02*
X161253285Y-47317140D01*
X161253285Y-47317140D02*
X161177094Y-47279045D01*
X172784809Y-60359997D02*
X172670523Y-60398092D01*
X172670523Y-60398092D02*
X172632428Y-60436188D01*
X172632428Y-60436188D02*
X172594332Y-60512378D01*
X172594332Y-60512378D02*
X172594332Y-60626664D01*
X172594332Y-60626664D02*
X172632428Y-60702854D01*
X172632428Y-60702854D02*
X172670523Y-60740950D01*
X172670523Y-60740950D02*
X172746713Y-60779045D01*
X172746713Y-60779045D02*
X173051475Y-60779045D01*
X173051475Y-60779045D02*
X173051475Y-59979045D01*
X173051475Y-59979045D02*
X172784809Y-59979045D01*
X172784809Y-59979045D02*
X172708618Y-60017140D01*
X172708618Y-60017140D02*
X172670523Y-60055235D01*
X172670523Y-60055235D02*
X172632428Y-60131426D01*
X172632428Y-60131426D02*
X172632428Y-60207616D01*
X172632428Y-60207616D02*
X172670523Y-60283807D01*
X172670523Y-60283807D02*
X172708618Y-60321902D01*
X172708618Y-60321902D02*
X172784809Y-60359997D01*
X172784809Y-60359997D02*
X173051475Y-60359997D01*
X172289571Y-60055235D02*
X172251475Y-60017140D01*
X172251475Y-60017140D02*
X172175285Y-59979045D01*
X172175285Y-59979045D02*
X171984809Y-59979045D01*
X171984809Y-59979045D02*
X171908618Y-60017140D01*
X171908618Y-60017140D02*
X171870523Y-60055235D01*
X171870523Y-60055235D02*
X171832428Y-60131426D01*
X171832428Y-60131426D02*
X171832428Y-60207616D01*
X171832428Y-60207616D02*
X171870523Y-60321902D01*
X171870523Y-60321902D02*
X172327666Y-60779045D01*
X172327666Y-60779045D02*
X171832428Y-60779045D01*
X161672332Y-53082854D02*
X161710428Y-53120950D01*
X161710428Y-53120950D02*
X161824713Y-53159045D01*
X161824713Y-53159045D02*
X161900904Y-53159045D01*
X161900904Y-53159045D02*
X162015190Y-53120950D01*
X162015190Y-53120950D02*
X162091380Y-53044759D01*
X162091380Y-53044759D02*
X162129475Y-52968569D01*
X162129475Y-52968569D02*
X162167571Y-52816188D01*
X162167571Y-52816188D02*
X162167571Y-52701902D01*
X162167571Y-52701902D02*
X162129475Y-52549521D01*
X162129475Y-52549521D02*
X162091380Y-52473330D01*
X162091380Y-52473330D02*
X162015190Y-52397140D01*
X162015190Y-52397140D02*
X161900904Y-52359045D01*
X161900904Y-52359045D02*
X161824713Y-52359045D01*
X161824713Y-52359045D02*
X161710428Y-52397140D01*
X161710428Y-52397140D02*
X161672332Y-52435235D01*
X160986618Y-52359045D02*
X161138999Y-52359045D01*
X161138999Y-52359045D02*
X161215190Y-52397140D01*
X161215190Y-52397140D02*
X161253285Y-52435235D01*
X161253285Y-52435235D02*
X161329475Y-52549521D01*
X161329475Y-52549521D02*
X161367571Y-52701902D01*
X161367571Y-52701902D02*
X161367571Y-53006664D01*
X161367571Y-53006664D02*
X161329475Y-53082854D01*
X161329475Y-53082854D02*
X161291380Y-53120950D01*
X161291380Y-53120950D02*
X161215190Y-53159045D01*
X161215190Y-53159045D02*
X161062809Y-53159045D01*
X161062809Y-53159045D02*
X160986618Y-53120950D01*
X160986618Y-53120950D02*
X160948523Y-53082854D01*
X160948523Y-53082854D02*
X160910428Y-53006664D01*
X160910428Y-53006664D02*
X160910428Y-52816188D01*
X160910428Y-52816188D02*
X160948523Y-52739997D01*
X160948523Y-52739997D02*
X160986618Y-52701902D01*
X160986618Y-52701902D02*
X161062809Y-52663807D01*
X161062809Y-52663807D02*
X161215190Y-52663807D01*
X161215190Y-52663807D02*
X161291380Y-52701902D01*
X161291380Y-52701902D02*
X161329475Y-52739997D01*
X161329475Y-52739997D02*
X161367571Y-52816188D01*
X172784809Y-57819997D02*
X172670523Y-57858092D01*
X172670523Y-57858092D02*
X172632428Y-57896188D01*
X172632428Y-57896188D02*
X172594332Y-57972378D01*
X172594332Y-57972378D02*
X172594332Y-58086664D01*
X172594332Y-58086664D02*
X172632428Y-58162854D01*
X172632428Y-58162854D02*
X172670523Y-58200950D01*
X172670523Y-58200950D02*
X172746713Y-58239045D01*
X172746713Y-58239045D02*
X173051475Y-58239045D01*
X173051475Y-58239045D02*
X173051475Y-57439045D01*
X173051475Y-57439045D02*
X172784809Y-57439045D01*
X172784809Y-57439045D02*
X172708618Y-57477140D01*
X172708618Y-57477140D02*
X172670523Y-57515235D01*
X172670523Y-57515235D02*
X172632428Y-57591426D01*
X172632428Y-57591426D02*
X172632428Y-57667616D01*
X172632428Y-57667616D02*
X172670523Y-57743807D01*
X172670523Y-57743807D02*
X172708618Y-57781902D01*
X172708618Y-57781902D02*
X172784809Y-57819997D01*
X172784809Y-57819997D02*
X173051475Y-57819997D01*
X172327666Y-57439045D02*
X171832428Y-57439045D01*
X171832428Y-57439045D02*
X172099094Y-57743807D01*
X172099094Y-57743807D02*
X171984809Y-57743807D01*
X171984809Y-57743807D02*
X171908618Y-57781902D01*
X171908618Y-57781902D02*
X171870523Y-57819997D01*
X171870523Y-57819997D02*
X171832428Y-57896188D01*
X171832428Y-57896188D02*
X171832428Y-58086664D01*
X171832428Y-58086664D02*
X171870523Y-58162854D01*
X171870523Y-58162854D02*
X171908618Y-58200950D01*
X171908618Y-58200950D02*
X171984809Y-58239045D01*
X171984809Y-58239045D02*
X172213380Y-58239045D01*
X172213380Y-58239045D02*
X172289571Y-58200950D01*
X172289571Y-58200950D02*
X172327666Y-58162854D01*
X162148523Y-39697140D02*
X162224713Y-39659045D01*
X162224713Y-39659045D02*
X162338999Y-39659045D01*
X162338999Y-39659045D02*
X162453285Y-39697140D01*
X162453285Y-39697140D02*
X162529475Y-39773330D01*
X162529475Y-39773330D02*
X162567570Y-39849521D01*
X162567570Y-39849521D02*
X162605666Y-40001902D01*
X162605666Y-40001902D02*
X162605666Y-40116188D01*
X162605666Y-40116188D02*
X162567570Y-40268569D01*
X162567570Y-40268569D02*
X162529475Y-40344759D01*
X162529475Y-40344759D02*
X162453285Y-40420950D01*
X162453285Y-40420950D02*
X162338999Y-40459045D01*
X162338999Y-40459045D02*
X162262808Y-40459045D01*
X162262808Y-40459045D02*
X162148523Y-40420950D01*
X162148523Y-40420950D02*
X162110427Y-40382854D01*
X162110427Y-40382854D02*
X162110427Y-40116188D01*
X162110427Y-40116188D02*
X162262808Y-40116188D01*
X161767570Y-40459045D02*
X161767570Y-39659045D01*
X161767570Y-39659045D02*
X161310427Y-40459045D01*
X161310427Y-40459045D02*
X161310427Y-39659045D01*
X160929475Y-40459045D02*
X160929475Y-39659045D01*
X160929475Y-39659045D02*
X160738999Y-39659045D01*
X160738999Y-39659045D02*
X160624713Y-39697140D01*
X160624713Y-39697140D02*
X160548523Y-39773330D01*
X160548523Y-39773330D02*
X160510428Y-39849521D01*
X160510428Y-39849521D02*
X160472332Y-40001902D01*
X160472332Y-40001902D02*
X160472332Y-40116188D01*
X160472332Y-40116188D02*
X160510428Y-40268569D01*
X160510428Y-40268569D02*
X160548523Y-40344759D01*
X160548523Y-40344759D02*
X160624713Y-40420950D01*
X160624713Y-40420950D02*
X160738999Y-40459045D01*
X160738999Y-40459045D02*
X160929475Y-40459045D01*
X173013380Y-35379045D02*
X173280047Y-34998092D01*
X173470523Y-35379045D02*
X173470523Y-34579045D01*
X173470523Y-34579045D02*
X173165761Y-34579045D01*
X173165761Y-34579045D02*
X173089571Y-34617140D01*
X173089571Y-34617140D02*
X173051476Y-34655235D01*
X173051476Y-34655235D02*
X173013380Y-34731426D01*
X173013380Y-34731426D02*
X173013380Y-34845711D01*
X173013380Y-34845711D02*
X173051476Y-34921902D01*
X173051476Y-34921902D02*
X173089571Y-34959997D01*
X173089571Y-34959997D02*
X173165761Y-34998092D01*
X173165761Y-34998092D02*
X173470523Y-34998092D01*
X172708619Y-35150473D02*
X172327666Y-35150473D01*
X172784809Y-35379045D02*
X172518142Y-34579045D01*
X172518142Y-34579045D02*
X172251476Y-35379045D01*
X172061000Y-34579045D02*
X171870524Y-35379045D01*
X171870524Y-35379045D02*
X171718143Y-34807616D01*
X171718143Y-34807616D02*
X171565762Y-35379045D01*
X171565762Y-35379045D02*
X171375286Y-34579045D01*
X162129475Y-55699045D02*
X162129475Y-54899045D01*
X162129475Y-54899045D02*
X161938999Y-54899045D01*
X161938999Y-54899045D02*
X161824713Y-54937140D01*
X161824713Y-54937140D02*
X161748523Y-55013330D01*
X161748523Y-55013330D02*
X161710428Y-55089521D01*
X161710428Y-55089521D02*
X161672332Y-55241902D01*
X161672332Y-55241902D02*
X161672332Y-55356188D01*
X161672332Y-55356188D02*
X161710428Y-55508569D01*
X161710428Y-55508569D02*
X161748523Y-55584759D01*
X161748523Y-55584759D02*
X161824713Y-55660950D01*
X161824713Y-55660950D02*
X161938999Y-55699045D01*
X161938999Y-55699045D02*
X162129475Y-55699045D01*
X161405666Y-54899045D02*
X160872332Y-54899045D01*
X160872332Y-54899045D02*
X161215190Y-55699045D01*
X172573333Y-40400950D02*
X172459047Y-40439045D01*
X172459047Y-40439045D02*
X172268571Y-40439045D01*
X172268571Y-40439045D02*
X172192380Y-40400950D01*
X172192380Y-40400950D02*
X172154285Y-40362854D01*
X172154285Y-40362854D02*
X172116190Y-40286664D01*
X172116190Y-40286664D02*
X172116190Y-40210473D01*
X172116190Y-40210473D02*
X172154285Y-40134283D01*
X172154285Y-40134283D02*
X172192380Y-40096188D01*
X172192380Y-40096188D02*
X172268571Y-40058092D01*
X172268571Y-40058092D02*
X172420952Y-40019997D01*
X172420952Y-40019997D02*
X172497142Y-39981902D01*
X172497142Y-39981902D02*
X172535237Y-39943807D01*
X172535237Y-39943807D02*
X172573333Y-39867616D01*
X172573333Y-39867616D02*
X172573333Y-39791426D01*
X172573333Y-39791426D02*
X172535237Y-39715235D01*
X172535237Y-39715235D02*
X172497142Y-39677140D01*
X172497142Y-39677140D02*
X172420952Y-39639045D01*
X172420952Y-39639045D02*
X172230475Y-39639045D01*
X172230475Y-39639045D02*
X172116190Y-39677140D01*
X171887618Y-39639045D02*
X171430475Y-39639045D01*
X171659047Y-40439045D02*
X171659047Y-39639045D01*
D11*
X175890000Y-31206750D02*
X158110000Y-31206750D01*
X158110000Y-31206750D02*
X158110000Y-64226750D01*
X160650000Y-33746750D02*
X158110000Y-33746750D01*
X160650000Y-33746750D02*
X160650000Y-36286750D01*
X160650000Y-36286750D02*
X158110000Y-36286750D01*
X175890000Y-64226750D02*
X175890000Y-31206750D01*
X158110000Y-64226750D02*
X175890000Y-64226750D01*
D10*
X173344635Y-40435780D02*
X173244635Y-40435780D01*
X173244635Y-39635780D01*
X173344635Y-39635780D01*
X173344635Y-40435780D01*
G36*
X173344635Y-40435780D02*
G01*
X173244635Y-40435780D01*
X173244635Y-39635780D01*
X173344635Y-39635780D01*
X173344635Y-40435780D01*
G37*
X173344635Y-39735780D02*
X172844635Y-39735780D01*
X172844635Y-39635780D01*
X173344635Y-39635780D01*
X173344635Y-39735780D01*
G36*
X173344635Y-39735780D02*
G01*
X172844635Y-39735780D01*
X172844635Y-39635780D01*
X173344635Y-39635780D01*
X173344635Y-39735780D01*
G37*
X172944635Y-39935780D02*
X172844635Y-39935780D01*
X172844635Y-39635780D01*
X172944635Y-39635780D01*
X172944635Y-39935780D01*
G36*
X172944635Y-39935780D02*
G01*
X172844635Y-39935780D01*
X172844635Y-39635780D01*
X172944635Y-39635780D01*
X172944635Y-39935780D01*
G37*
X173144635Y-40135780D02*
X173044635Y-40135780D01*
X173044635Y-40035780D01*
X173144635Y-40035780D01*
X173144635Y-40135780D01*
G36*
X173144635Y-40135780D02*
G01*
X173044635Y-40135780D01*
X173044635Y-40035780D01*
X173144635Y-40035780D01*
X173144635Y-40135780D01*
G37*
X172944635Y-40435780D02*
X172844635Y-40435780D01*
X172844635Y-40235780D01*
X172944635Y-40235780D01*
X172944635Y-40435780D01*
G36*
X172944635Y-40435780D02*
G01*
X172844635Y-40435780D01*
X172844635Y-40235780D01*
X172944635Y-40235780D01*
X172944635Y-40435780D01*
G37*
%TD*%
D12*
%TO.C,U1*%
X159380000Y-35016750D03*
D13*
X159380000Y-37556750D03*
X159380000Y-40096750D03*
X159380000Y-42636750D03*
X159380000Y-45176750D03*
X159380000Y-47716750D03*
X159380000Y-50256750D03*
X159380000Y-52796750D03*
X159380000Y-55336750D03*
X159380000Y-57876750D03*
X159380000Y-60416750D03*
X159380000Y-62956750D03*
X174620000Y-62956750D03*
X174620000Y-60416750D03*
X174620000Y-57876750D03*
X174620000Y-55336750D03*
X174620000Y-52796750D03*
X174620000Y-50256750D03*
X174620000Y-47716750D03*
X174620000Y-45176750D03*
X174620000Y-42636750D03*
X174620000Y-40096750D03*
X174620000Y-37556750D03*
X174620000Y-35016750D03*
%TD*%
M02*
