%TF.GenerationSoftware,KiCad,Pcbnew,7.0.5*%
%TF.CreationDate,2023-09-29T16:27:14+09:00*%
%TF.ProjectId,ProMicro________,50726f4d-6963-4726-9f5f-7e9d7bdeef42,rev?*%
%TF.SameCoordinates,Original*%
%TF.FileFunction,Soldermask,Bot*%
%TF.FilePolarity,Negative*%
%FSLAX46Y46*%
G04 Gerber Fmt 4.6, Leading zero omitted, Abs format (unit mm)*
G04 Created by KiCad (PCBNEW 7.0.5) date 2023-09-29 16:27:14*
%MOMM*%
%LPD*%
G01*
G04 APERTURE LIST*
%ADD10C,1.524000*%
%ADD11C,1.600000*%
%ADD12R,2.600000X2.300000*%
%ADD13C,1.504000*%
%ADD14R,1.752600X1.752600*%
%ADD15C,1.752600*%
G04 APERTURE END LIST*
D10*
%TO.C,SW14*%
X197000000Y-115000000D03*
X202000000Y-115000000D03*
%TD*%
%TO.C,SW11*%
X165000000Y-115000000D03*
X170000000Y-115000000D03*
%TD*%
%TO.C,SW9*%
X145000000Y-115000000D03*
X150000000Y-115000000D03*
%TD*%
%TO.C,SW3*%
X155000000Y-91000000D03*
X160000000Y-91000000D03*
%TD*%
%TO.C,SW13*%
X186000000Y-115000000D03*
X191000000Y-115000000D03*
%TD*%
%TO.C,SW12*%
X175000000Y-115000000D03*
X180000000Y-115000000D03*
%TD*%
D11*
%TO.C,SW15*%
X175000000Y-101500000D03*
X175000000Y-104000000D03*
X175000000Y-106500000D03*
D12*
X177000000Y-99500000D03*
X177000000Y-108500000D03*
%TD*%
D10*
%TO.C,SW6*%
X185500000Y-91000000D03*
X190500000Y-91000000D03*
%TD*%
D13*
%TO.C,U5*%
X161820000Y-68325000D03*
X161820000Y-70105000D03*
X161820000Y-71885000D03*
X161820000Y-73665000D03*
X161820000Y-75445000D03*
X161820000Y-77225000D03*
X161820000Y-79005000D03*
X161820000Y-80785000D03*
X172520000Y-81675000D03*
X172520000Y-79895000D03*
X172520000Y-78115000D03*
X172520000Y-76335000D03*
X172520000Y-74555000D03*
X172520000Y-72775000D03*
X172520000Y-70995000D03*
X172520000Y-69215000D03*
%TD*%
D10*
%TO.C,SW8*%
X134500000Y-115000000D03*
X139500000Y-115000000D03*
%TD*%
%TO.C,SW1*%
X135000000Y-91000000D03*
X140000000Y-91000000D03*
%TD*%
%TO.C,SW7*%
X196000000Y-91000000D03*
X201000000Y-91000000D03*
%TD*%
D14*
%TO.C,U1*%
X159380000Y-35016750D03*
D15*
X159380000Y-37556750D03*
X159380000Y-40096750D03*
X159380000Y-42636750D03*
X159380000Y-45176750D03*
X159380000Y-47716750D03*
X159380000Y-50256750D03*
X159380000Y-52796750D03*
X159380000Y-55336750D03*
X159380000Y-57876750D03*
X159380000Y-60416750D03*
X159380000Y-62956750D03*
X174620000Y-62956750D03*
X174620000Y-60416750D03*
X174620000Y-57876750D03*
X174620000Y-55336750D03*
X174620000Y-52796750D03*
X174620000Y-50256750D03*
X174620000Y-47716750D03*
X174620000Y-45176750D03*
X174620000Y-42636750D03*
X174620000Y-40096750D03*
X174620000Y-37556750D03*
X174620000Y-35016750D03*
%TD*%
D10*
%TO.C,SW5*%
X175000000Y-91000000D03*
X180000000Y-91000000D03*
%TD*%
%TO.C,SW10*%
X155000000Y-115000000D03*
X160000000Y-115000000D03*
%TD*%
%TO.C,SW2*%
X145000000Y-91000000D03*
X150000000Y-91000000D03*
%TD*%
%TO.C,SW4*%
X155500000Y-104225000D03*
X160500000Y-104225000D03*
%TD*%
M02*
