  0
SECTION
  2
HEADER
  9
$ANGBASE
  50
0.0
  9
$ANGDIR
  70
1
  9
$MEASUREMENT
  70
1
  0
ENDSEC
  0
SECTION
  2
TABLES
  0
TABLE
  2
LTYPE
  70
4
  0
LTYPE
  5
40F
  2
CONTINUOUS
  70
0
  3
Solid line
  72
65
  73
0
  40
0.0
  0
LTYPE
  5
410
  2
DASHDOT
 70
0
  3
Dash Dot ____ _ ____ _
 72
65
 73
4
 40
2.0
 49
1.25
 49
-0.25
 49
0.25
 49
-0.25
  0
LTYPE
  5
411
  2
DASHED
 70
0
  3
Dashed __ __ __ __ __
 72
65
 73
2
 40
0.75
 49
0.5
 49
-0.25
  0
LTYPE
  5
43B
  2
DOTTED
 70
0
  3
Dotted .  .  .  .
 72
65
 73
2
 40
0.2
 49
0.0
 49
-0.2
  0
ENDTAB
  0
TABLE
  2
STYLE
  70
4
  0
STYLE
  2
KICAD
  70
0
  40
0
  41
1
  42
1
  50
0
  71
0
  3
isocp.shx
  0
STYLE
  2
KICADB
  70
0
  40
0
  41
1
  42
1
  50
0
  71
0
  3
isocp.shx
  0
STYLE
  2
KICADI
  70
0
  40
0
  41
1
  42
1
  50
15
  71
0
  3
isocp.shx
  0
STYLE
  2
KICADBI
  70
0
  40
0
  41
1
  42
1
  50
15
  71
0
  3
isocp.shx
  0
ENDTAB
  0
TABLE
  2
LAYER
  70
1
  0
LAYER
  2
BLACK
  70
0
  62
7
  6
CONTINUOUS
  0
ENDTAB
  0
ENDSEC
  0
SECTION
  2
ENTITIES
0
LINE
8
BLACK
6
CONTINUOUS
10
129
20
-120
11
129
21
-33
0
LINE
8
BLACK
6
CONTINUOUS
10
165
20
-95
11
172
21
-95
0
ARC
8
BLACK
10
204
20
-120
40
2
50
-90
51
-0
0
LINE
8
BLACK
6
CONTINUOUS
10
165
20
-109
11
165
21
-95
0
ARC
8
BLACK
10
131
20
-33
40
2
50
90
51
180
0
LINE
8
BLACK
6
CONTINUOUS
10
131
20
-31
11
204
21
-31
0
LINE
8
BLACK
6
CONTINUOUS
10
206
20
-33
11
206
21
-120
0
ARC
8
BLACK
10
204
20
-33
40
2
50
-0
51
90
0
LINE
8
BLACK
6
CONTINUOUS
10
172
20
-95
11
172
21
-109
0
ARC
8
BLACK
10
131
20
-120
40
2
50
-180
51
-90
0
LINE
8
BLACK
6
CONTINUOUS
10
172
20
-109
11
165
21
-109
0
LINE
8
BLACK
6
CONTINUOUS
10
204
20
-122
11
131
21
-122
0
LINE
8
BLACK
6
CONTINUOUS
10
131.558
20
-125.165
11
131.558
21
-123.165
0
LINE
8
BLACK
6
CONTINUOUS
10
131.558
20
-123.165
11
132.034
21
-123.165
0
LINE
8
BLACK
6
CONTINUOUS
10
132.034
20
-123.165
11
132.32
21
-123.26
0
LINE
8
BLACK
6
CONTINUOUS
10
132.32
20
-123.26
11
132.51
21
-123.451
0
LINE
8
BLACK
6
CONTINUOUS
10
132.51
20
-123.451
11
132.605
21
-123.641
0
LINE
8
BLACK
6
CONTINUOUS
10
132.605
20
-123.641
11
132.701
21
-124.022
0
LINE
8
BLACK
6
CONTINUOUS
10
132.701
20
-124.022
11
132.701
21
-124.308
0
LINE
8
BLACK
6
CONTINUOUS
10
132.701
20
-124.308
11
132.605
21
-124.689
0
LINE
8
BLACK
6
CONTINUOUS
10
132.605
20
-124.689
11
132.51
21
-124.879
0
LINE
8
BLACK
6
CONTINUOUS
10
132.51
20
-124.879
11
132.32
21
-125.07
0
LINE
8
BLACK
6
CONTINUOUS
10
132.32
20
-125.07
11
132.034
21
-125.165
0
LINE
8
BLACK
6
CONTINUOUS
10
132.034
20
-125.165
11
131.558
21
-125.165
0
LINE
8
BLACK
6
CONTINUOUS
10
133.558
20
-125.165
11
133.558
21
-123.832
0
LINE
8
BLACK
6
CONTINUOUS
10
133.558
20
-124.212
11
133.653
21
-124.022
0
LINE
8
BLACK
6
CONTINUOUS
10
133.653
20
-124.022
11
133.748
21
-123.927
0
LINE
8
BLACK
6
CONTINUOUS
10
133.748
20
-123.927
11
133.939
21
-123.832
0
LINE
8
BLACK
6
CONTINUOUS
10
133.939
20
-123.832
11
134.129
21
-123.832
0
LINE
8
BLACK
6
CONTINUOUS
10
134.796
20
-125.165
11
134.796
21
-123.832
0
LINE
8
BLACK
6
CONTINUOUS
10
134.796
20
-123.165
11
134.701
21
-123.26
0
LINE
8
BLACK
6
CONTINUOUS
10
134.701
20
-123.26
11
134.796
21
-123.355
0
LINE
8
BLACK
6
CONTINUOUS
10
134.796
20
-123.355
11
134.891
21
-123.26
0
LINE
8
BLACK
6
CONTINUOUS
10
134.891
20
-123.26
11
134.796
21
-123.165
0
LINE
8
BLACK
6
CONTINUOUS
10
134.796
20
-123.165
11
134.796
21
-123.355
0
LINE
8
BLACK
6
CONTINUOUS
10
136.034
20
-125.165
11
135.843
21
-125.07
0
LINE
8
BLACK
6
CONTINUOUS
10
135.843
20
-125.07
11
135.748
21
-124.879
0
LINE
8
BLACK
6
CONTINUOUS
10
135.748
20
-124.879
11
135.748
21
-123.165
0
LINE
8
BLACK
6
CONTINUOUS
10
137.082
20
-125.165
11
136.891
21
-125.07
0
LINE
8
BLACK
6
CONTINUOUS
10
136.891
20
-125.07
11
136.796
21
-124.879
0
LINE
8
BLACK
6
CONTINUOUS
10
136.796
20
-124.879
11
136.796
21
-123.165
0
LINE
8
BLACK
6
CONTINUOUS
10
139.367
20
-125.165
11
139.367
21
-123.165
0
LINE
8
BLACK
6
CONTINUOUS
10
139.367
20
-123.165
11
140.034
21
-124.593
0
LINE
8
BLACK
6
CONTINUOUS
10
140.034
20
-124.593
11
140.701
21
-123.165
0
LINE
8
BLACK
6
CONTINUOUS
10
140.701
20
-123.165
11
140.701
21
-125.165
0
LINE
8
BLACK
6
CONTINUOUS
10
142.51
20
-125.165
11
142.51
21
-124.117
0
LINE
8
BLACK
6
CONTINUOUS
10
142.51
20
-124.117
11
142.415
21
-123.927
0
LINE
8
BLACK
6
CONTINUOUS
10
142.415
20
-123.927
11
142.224
21
-123.832
0
LINE
8
BLACK
6
CONTINUOUS
10
142.224
20
-123.832
11
141.843
21
-123.832
0
LINE
8
BLACK
6
CONTINUOUS
10
141.843
20
-123.832
11
141.653
21
-123.927
0
LINE
8
BLACK
6
CONTINUOUS
10
142.51
20
-125.07
11
142.32
21
-125.165
0
LINE
8
BLACK
6
CONTINUOUS
10
142.32
20
-125.165
11
141.843
21
-125.165
0
LINE
8
BLACK
6
CONTINUOUS
10
141.843
20
-125.165
11
141.653
21
-125.07
0
LINE
8
BLACK
6
CONTINUOUS
10
141.653
20
-125.07
11
141.558
21
-124.879
0
LINE
8
BLACK
6
CONTINUOUS
10
141.558
20
-124.879
11
141.558
21
-124.689
0
LINE
8
BLACK
6
CONTINUOUS
10
141.558
20
-124.689
11
141.653
21
-124.498
0
LINE
8
BLACK
6
CONTINUOUS
10
141.653
20
-124.498
11
141.843
21
-124.403
0
LINE
8
BLACK
6
CONTINUOUS
10
141.843
20
-124.403
11
142.32
21
-124.403
0
LINE
8
BLACK
6
CONTINUOUS
10
142.32
20
-124.403
11
142.51
21
-124.308
0
LINE
8
BLACK
6
CONTINUOUS
10
143.463
20
-123.832
11
143.463
21
-125.832
0
LINE
8
BLACK
6
CONTINUOUS
10
143.463
20
-123.927
11
143.653
21
-123.832
0
LINE
8
BLACK
6
CONTINUOUS
10
143.653
20
-123.832
11
144.034
21
-123.832
0
LINE
8
BLACK
6
CONTINUOUS
10
144.034
20
-123.832
11
144.224
21
-123.927
0
LINE
8
BLACK
6
CONTINUOUS
10
144.224
20
-123.927
11
144.32
21
-124.022
0
LINE
8
BLACK
6
CONTINUOUS
10
144.32
20
-124.022
11
144.415
21
-124.212
0
LINE
8
BLACK
6
CONTINUOUS
10
144.415
20
-124.212
11
144.415
21
-124.784
0
LINE
8
BLACK
6
CONTINUOUS
10
144.415
20
-124.784
11
144.32
21
-124.974
0
LINE
8
BLACK
6
CONTINUOUS
10
144.32
20
-124.974
11
144.224
21
-125.07
0
LINE
8
BLACK
6
CONTINUOUS
10
144.224
20
-125.07
11
144.034
21
-125.165
0
LINE
8
BLACK
6
CONTINUOUS
10
144.034
20
-125.165
11
143.653
21
-125.165
0
LINE
8
BLACK
6
CONTINUOUS
10
143.653
20
-125.165
11
143.463
21
-125.07
0
LINE
8
BLACK
6
CONTINUOUS
10
145.272
20
-124.974
11
145.367
21
-125.07
0
LINE
8
BLACK
6
CONTINUOUS
10
145.367
20
-125.07
11
145.272
21
-125.165
0
LINE
8
BLACK
6
CONTINUOUS
10
145.272
20
-125.165
11
145.177
21
-125.07
0
LINE
8
BLACK
6
CONTINUOUS
10
145.177
20
-125.07
11
145.272
21
-124.974
0
LINE
8
BLACK
6
CONTINUOUS
10
145.272
20
-124.974
11
145.272
21
-125.165
0
LINE
8
BLACK
6
CONTINUOUS
10
145.272
20
-123.927
11
145.367
21
-124.022
0
LINE
8
BLACK
6
CONTINUOUS
10
145.367
20
-124.022
11
145.272
21
-124.117
0
LINE
8
BLACK
6
CONTINUOUS
10
145.272
20
-124.117
11
145.177
21
-124.022
0
LINE
8
BLACK
6
CONTINUOUS
10
145.177
20
-124.022
11
145.272
21
-123.927
0
LINE
8
BLACK
6
CONTINUOUS
10
145.272
20
-123.927
11
145.272
21
-124.117
  0
ENDSEC
  0
EOF
