%TF.GenerationSoftware,KiCad,Pcbnew,7.0.5*%
%TF.CreationDate,2023-09-29T16:27:13+09:00*%
%TF.ProjectId,ProMicro________,50726f4d-6963-4726-9f5f-7e9d7bdeef42,rev?*%
%TF.SameCoordinates,Original*%
%TF.FileFunction,Copper,L2,Bot*%
%TF.FilePolarity,Positive*%
%FSLAX46Y46*%
G04 Gerber Fmt 4.6, Leading zero omitted, Abs format (unit mm)*
G04 Created by KiCad (PCBNEW 7.0.5) date 2023-09-29 16:27:13*
%MOMM*%
%LPD*%
G01*
G04 APERTURE LIST*
%TA.AperFunction,ComponentPad*%
%ADD10C,1.524000*%
%TD*%
%TA.AperFunction,ComponentPad*%
%ADD11C,1.600000*%
%TD*%
%TA.AperFunction,ComponentPad*%
%ADD12R,2.600000X2.300000*%
%TD*%
%TA.AperFunction,ComponentPad*%
%ADD13C,1.300000*%
%TD*%
%TA.AperFunction,ComponentPad*%
%ADD14R,1.752600X1.752600*%
%TD*%
%TA.AperFunction,ComponentPad*%
%ADD15C,1.752600*%
%TD*%
%TA.AperFunction,ViaPad*%
%ADD16C,0.800000*%
%TD*%
%TA.AperFunction,Conductor*%
%ADD17C,0.250000*%
%TD*%
%TA.AperFunction,Conductor*%
%ADD18C,0.500000*%
%TD*%
G04 APERTURE END LIST*
D10*
%TO.P,SW14,1,1*%
%TO.N,COL6*%
X197000000Y-115000000D03*
%TO.P,SW14,2,2*%
%TO.N,Net-(D14-A)*%
X202000000Y-115000000D03*
%TD*%
%TO.P,SW11,1,1*%
%TO.N,COL3*%
X165000000Y-115000000D03*
%TO.P,SW11,2,2*%
%TO.N,Net-(D11-A)*%
X170000000Y-115000000D03*
%TD*%
%TO.P,SW9,1,1*%
%TO.N,COL1*%
X145000000Y-115000000D03*
%TO.P,SW9,2,2*%
%TO.N,Net-(D9-A)*%
X150000000Y-115000000D03*
%TD*%
%TO.P,SW3,1,1*%
%TO.N,COL2*%
X155000000Y-91000000D03*
%TO.P,SW3,2,2*%
%TO.N,Net-(D3-A)*%
X160000000Y-91000000D03*
%TD*%
%TO.P,SW13,1,1*%
%TO.N,COL5*%
X186000000Y-115000000D03*
%TO.P,SW13,2,2*%
%TO.N,Net-(D13-A)*%
X191000000Y-115000000D03*
%TD*%
%TO.P,SW12,1,1*%
%TO.N,COL4*%
X175000000Y-115000000D03*
%TO.P,SW12,2,2*%
%TO.N,Net-(D12-A)*%
X180000000Y-115000000D03*
%TD*%
D11*
%TO.P,SW15,1,A*%
%TO.N,RE0A*%
X175000000Y-101500000D03*
%TO.P,SW15,2,2*%
%TO.N,GND*%
X175000000Y-104000000D03*
%TO.P,SW15,3,3*%
%TO.N,RE0B*%
X175000000Y-106500000D03*
D12*
%TO.P,SW15,4*%
%TO.N,N/C*%
X177000000Y-99500000D03*
%TO.P,SW15,5*%
X177000000Y-108500000D03*
%TD*%
D10*
%TO.P,SW6,1,1*%
%TO.N,COL5*%
X185500000Y-91000000D03*
%TO.P,SW6,2,2*%
%TO.N,Net-(D6-A)*%
X190500000Y-91000000D03*
%TD*%
D13*
%TO.P,U5,1*%
%TO.N,N/C*%
X161820000Y-68325000D03*
%TO.P,U5,2*%
X161820000Y-70105000D03*
%TO.P,U5,3,VDDPIX*%
%TO.N,Net-(U5-VDDPIX)*%
X161820000Y-71885000D03*
%TO.P,U5,4,VDD*%
%TO.N,Net-(U2-OUT)*%
X161820000Y-73665000D03*
%TO.P,U5,5,VDDIO*%
X161820000Y-75445000D03*
%TO.P,U5,6*%
%TO.N,N/C*%
X161820000Y-77225000D03*
%TO.P,U5,7,~{RESET}*%
%TO.N,Net-(U5-~{RESET})*%
X161820000Y-79005000D03*
%TO.P,U5,8,GND*%
%TO.N,GND*%
X161820000Y-80785000D03*
%TO.P,U5,9,MOTION*%
%TO.N,unconnected-(U5-MOTION-Pad9)*%
X172520000Y-81675000D03*
%TO.P,U5,10,SCLK*%
%TO.N,SCLK1.9V*%
X172520000Y-79895000D03*
%TO.P,U5,11,MOSI*%
%TO.N,MOSI1.9V*%
X172520000Y-78115000D03*
%TO.P,U5,12,MISO*%
%TO.N,MISO1.9V*%
X172520000Y-76335000D03*
%TO.P,U5,13,~{CS}*%
%TO.N,NCS1.9V*%
X172520000Y-74555000D03*
%TO.P,U5,14*%
%TO.N,N/C*%
X172520000Y-72775000D03*
%TO.P,U5,15,LED_P*%
%TO.N,Net-(U5-LED_P)*%
X172520000Y-70995000D03*
%TO.P,U5,16*%
%TO.N,N/C*%
X172520000Y-69215000D03*
%TD*%
D10*
%TO.P,SW8,1,1*%
%TO.N,COL0*%
X134500000Y-115000000D03*
%TO.P,SW8,2,2*%
%TO.N,Net-(D8-A)*%
X139500000Y-115000000D03*
%TD*%
%TO.P,SW1,1,1*%
%TO.N,COL0*%
X135000000Y-91000000D03*
%TO.P,SW1,2,2*%
%TO.N,Net-(D1-A)*%
X140000000Y-91000000D03*
%TD*%
%TO.P,SW7,1,1*%
%TO.N,COL6*%
X196000000Y-91000000D03*
%TO.P,SW7,2,2*%
%TO.N,Net-(D7-A)*%
X201000000Y-91000000D03*
%TD*%
D14*
%TO.P,U1,1,TX0/D3*%
%TO.N,RE0B*%
X159380000Y-35016750D03*
D15*
%TO.P,U1,2,RX1/D2*%
%TO.N,RE0A*%
X159380000Y-37556750D03*
%TO.P,U1,3,GND*%
%TO.N,GND*%
X159380000Y-40096750D03*
%TO.P,U1,4,GND*%
X159380000Y-42636750D03*
%TO.P,U1,5,2/D1/SDA*%
%TO.N,COL0*%
X159380000Y-45176750D03*
%TO.P,U1,6,3/D0/SCL*%
%TO.N,COL1*%
X159380000Y-47716750D03*
%TO.P,U1,7,4/D4*%
%TO.N,COL2*%
X159380000Y-50256750D03*
%TO.P,U1,8,5/C6*%
%TO.N,COL3*%
X159380000Y-52796750D03*
%TO.P,U1,9,6/D7*%
%TO.N,COL4*%
X159380000Y-55336750D03*
%TO.P,U1,10,7/E6*%
%TO.N,COL5*%
X159380000Y-57876750D03*
%TO.P,U1,11,8/B4*%
%TO.N,COL6*%
X159380000Y-60416750D03*
%TO.P,U1,12,9/B5*%
%TO.N,unconnected-(U1-9{slash}B5-Pad12)*%
X159380000Y-62956750D03*
%TO.P,U1,13,B6/10*%
%TO.N,NCS*%
X174620000Y-62956750D03*
%TO.P,U1,14,B2/16*%
%TO.N,MOSI*%
X174620000Y-60416750D03*
%TO.P,U1,15,B3/14*%
%TO.N,MISO*%
X174620000Y-57876750D03*
%TO.P,U1,16,B1/15*%
%TO.N,SCLK*%
X174620000Y-55336750D03*
%TO.P,U1,17,F7/A0*%
%TO.N,unconnected-(U1-F7{slash}A0-Pad17)*%
X174620000Y-52796750D03*
%TO.P,U1,18,F6/A1*%
%TO.N,unconnected-(U1-F6{slash}A1-Pad18)*%
X174620000Y-50256750D03*
%TO.P,U1,19,F5/A2*%
%TO.N,ROW1*%
X174620000Y-47716750D03*
%TO.P,U1,20,F4/A3*%
%TO.N,ROW0*%
X174620000Y-45176750D03*
%TO.P,U1,21,VCC*%
%TO.N,VCC*%
X174620000Y-42636750D03*
%TO.P,U1,22,RST*%
%TO.N,RESET*%
X174620000Y-40096750D03*
%TO.P,U1,23,GND*%
%TO.N,GND*%
X174620000Y-37556750D03*
%TO.P,U1,24,RAW*%
%TO.N,unconnected-(U1-RAW-Pad24)*%
X174620000Y-35016750D03*
%TD*%
D10*
%TO.P,SW5,1,1*%
%TO.N,COL4*%
X175000000Y-91000000D03*
%TO.P,SW5,2,2*%
%TO.N,Net-(D5-A)*%
X180000000Y-91000000D03*
%TD*%
%TO.P,SW10,1,1*%
%TO.N,COL2*%
X155000000Y-115000000D03*
%TO.P,SW10,2,2*%
%TO.N,Net-(D10-A)*%
X160000000Y-115000000D03*
%TD*%
%TO.P,SW2,1,1*%
%TO.N,COL1*%
X145000000Y-91000000D03*
%TO.P,SW2,2,2*%
%TO.N,Net-(D2-A)*%
X150000000Y-91000000D03*
%TD*%
%TO.P,SW4,1,1*%
%TO.N,COL3*%
X155500000Y-104225000D03*
%TO.P,SW4,2,2*%
%TO.N,Net-(D4-A)*%
X160500000Y-104225000D03*
%TD*%
D16*
%TO.N,GND*%
X158000000Y-70000000D03*
%TO.N,MOSI*%
X182000000Y-59000000D03*
X178000000Y-60000000D03*
%TO.N,VCC*%
X178000000Y-74000000D03*
X184000000Y-61000000D03*
X171000000Y-54000000D03*
%TO.N,NCS1.9V*%
X179000000Y-77000000D03*
X189000000Y-68000000D03*
%TO.N,SCLK1.9V*%
X186000000Y-52000000D03*
X176000000Y-82000000D03*
%TO.N,MISO1.9V*%
X176000000Y-78000000D03*
X190000000Y-61000000D03*
%TO.N,MOSI1.9V*%
X188000000Y-60000000D03*
X176000000Y-80000000D03*
%TD*%
D17*
%TO.N,COL4*%
X173000000Y-113000000D02*
X175000000Y-115000000D01*
X175000000Y-91000000D02*
X173000000Y-93000000D01*
X173000000Y-93000000D02*
X173000000Y-113000000D01*
%TO.N,COL5*%
X185500000Y-91000000D02*
X184000000Y-92500000D01*
X184000000Y-92500000D02*
X184000000Y-113000000D01*
X184000000Y-113000000D02*
X186000000Y-115000000D01*
D18*
%TO.N,GND*%
X165000000Y-48256750D02*
X165000000Y-53000000D01*
X158000000Y-70000000D02*
X158000000Y-68000000D01*
X159000000Y-66000000D02*
X165000000Y-60000000D01*
X158000000Y-67000000D02*
X159000000Y-66000000D01*
X159380000Y-42636750D02*
X165000000Y-48256750D01*
X175000000Y-104000000D02*
X176131370Y-104000000D01*
X158000000Y-68000000D02*
X158000000Y-67000000D01*
X165000000Y-60000000D02*
X165000000Y-53000000D01*
D17*
%TO.N,COL0*%
X134000000Y-114500000D02*
X134500000Y-115000000D01*
X134000000Y-92000000D02*
X134000000Y-114500000D01*
X135000000Y-91000000D02*
X134000000Y-92000000D01*
%TO.N,COL1*%
X144000000Y-92000000D02*
X144000000Y-114000000D01*
X144000000Y-114000000D02*
X145000000Y-115000000D01*
X145000000Y-91000000D02*
X144000000Y-92000000D01*
%TO.N,COL2*%
X154000000Y-114000000D02*
X155000000Y-115000000D01*
X155000000Y-91000000D02*
X154000000Y-92000000D01*
X154000000Y-92000000D02*
X154000000Y-114000000D01*
%TO.N,COL3*%
X155500000Y-104225000D02*
X155500000Y-105500000D01*
X155500000Y-105500000D02*
X165000000Y-115000000D01*
%TO.N,COL6*%
X195000000Y-113000000D02*
X197000000Y-115000000D01*
X195000000Y-92000000D02*
X195000000Y-113000000D01*
X196000000Y-91000000D02*
X195000000Y-92000000D01*
%TO.N,MOSI*%
X178000000Y-60000000D02*
X181000000Y-60000000D01*
X181000000Y-60000000D02*
X182000000Y-59000000D01*
D18*
%TO.N,VCC*%
X174620000Y-42636750D02*
X171000000Y-46256750D01*
D17*
X184000000Y-61000000D02*
X184000000Y-59000000D01*
D18*
X178000000Y-67000000D02*
X184000000Y-61000000D01*
D17*
X184000000Y-59000000D02*
X179000000Y-54000000D01*
D18*
X178000000Y-74000000D02*
X178000000Y-67000000D01*
X171000000Y-46256750D02*
X171000000Y-54000000D01*
D17*
X179000000Y-54000000D02*
X171000000Y-54000000D01*
%TO.N,NCS1.9V*%
X179000000Y-77000000D02*
X180000000Y-77000000D01*
X180000000Y-77000000D02*
X189000000Y-68000000D01*
%TO.N,SCLK1.9V*%
X193000000Y-56000000D02*
X189000000Y-52000000D01*
X178636396Y-82000000D02*
X193000000Y-67636396D01*
X193000000Y-67636396D02*
X193000000Y-56000000D01*
X189000000Y-52000000D02*
X186000000Y-52000000D01*
X176000000Y-82000000D02*
X178636396Y-82000000D01*
%TO.N,MISO1.9V*%
X181000000Y-78000000D02*
X190000000Y-69000000D01*
X176000000Y-78000000D02*
X181000000Y-78000000D01*
X190000000Y-69000000D02*
X190000000Y-61000000D01*
%TO.N,MOSI1.9V*%
X190025305Y-60000000D02*
X188000000Y-60000000D01*
X192000000Y-68000000D02*
X192000000Y-61974695D01*
X176000000Y-80000000D02*
X180000000Y-80000000D01*
X192000000Y-61974695D02*
X190025305Y-60000000D01*
X180000000Y-80000000D02*
X192000000Y-68000000D01*
%TD*%
%TA.AperFunction,Conductor*%
%TO.N,GND*%
G36*
X174540507Y-104209844D02*
G01*
X174618239Y-104330798D01*
X174726900Y-104424952D01*
X174857685Y-104484680D01*
X174867466Y-104486086D01*
X174274526Y-105079025D01*
X174274526Y-105079026D01*
X174347512Y-105130131D01*
X174347515Y-105130132D01*
X174362974Y-105137341D01*
X174415414Y-105183513D01*
X174434567Y-105250706D01*
X174414352Y-105317587D01*
X174362978Y-105362105D01*
X174347269Y-105369430D01*
X174347265Y-105369432D01*
X174160858Y-105499954D01*
X173999954Y-105660858D01*
X173870103Y-105846307D01*
X173869432Y-105847266D01*
X173861880Y-105863459D01*
X173815709Y-105915897D01*
X173748515Y-105935048D01*
X173681634Y-105914832D01*
X173636300Y-105861666D01*
X173625500Y-105811052D01*
X173625500Y-104687765D01*
X173645185Y-104620726D01*
X173697989Y-104574971D01*
X173767147Y-104565027D01*
X173830703Y-104594052D01*
X173861883Y-104635362D01*
X173869866Y-104652482D01*
X173869866Y-104652483D01*
X173920973Y-104725471D01*
X173920973Y-104725472D01*
X174516922Y-104129522D01*
X174540507Y-104209844D01*
G37*
%TD.AperFunction*%
%TA.AperFunction,Conductor*%
G36*
X173830703Y-102095234D02*
G01*
X173861882Y-102136543D01*
X173869429Y-102152728D01*
X173869432Y-102152734D01*
X173999954Y-102339141D01*
X174160858Y-102500045D01*
X174160861Y-102500047D01*
X174347266Y-102630568D01*
X174362975Y-102637893D01*
X174415414Y-102684064D01*
X174434567Y-102751257D01*
X174414352Y-102818138D01*
X174362979Y-102862656D01*
X174347512Y-102869868D01*
X174274527Y-102920972D01*
X174274526Y-102920973D01*
X174867467Y-103513913D01*
X174857685Y-103515320D01*
X174726900Y-103575048D01*
X174618239Y-103669202D01*
X174540507Y-103790156D01*
X174516923Y-103870475D01*
X173920973Y-103274526D01*
X173869867Y-103347513D01*
X173861882Y-103364639D01*
X173815709Y-103417078D01*
X173748515Y-103436230D01*
X173681634Y-103416014D01*
X173636300Y-103362848D01*
X173625500Y-103312234D01*
X173625500Y-102188947D01*
X173645185Y-102121908D01*
X173697989Y-102076153D01*
X173767147Y-102066209D01*
X173830703Y-102095234D01*
G37*
%TD.AperFunction*%
%TA.AperFunction,Conductor*%
G36*
X204002019Y-31000633D02*
G01*
X204040149Y-31003131D01*
X204083793Y-31005992D01*
X204265459Y-31018985D01*
X204273102Y-31020015D01*
X204389451Y-31043158D01*
X204533666Y-31074531D01*
X204540383Y-31076395D01*
X204658618Y-31116531D01*
X204660224Y-31117103D01*
X204791740Y-31166156D01*
X204797483Y-31168635D01*
X204911830Y-31225024D01*
X204914042Y-31226173D01*
X205034913Y-31292173D01*
X205039641Y-31295037D01*
X205146649Y-31366537D01*
X205149358Y-31368454D01*
X205258652Y-31450271D01*
X205262345Y-31453265D01*
X205359502Y-31538469D01*
X205362448Y-31541228D01*
X205458769Y-31637549D01*
X205461526Y-31640492D01*
X205546729Y-31737648D01*
X205549732Y-31741353D01*
X205601564Y-31810592D01*
X205631543Y-31850639D01*
X205633461Y-31853349D01*
X205704961Y-31960357D01*
X205707828Y-31965091D01*
X205773802Y-32085912D01*
X205774992Y-32088204D01*
X205831356Y-32202499D01*
X205833842Y-32208258D01*
X205882878Y-32339727D01*
X205883497Y-32341465D01*
X205923597Y-32459596D01*
X205925472Y-32466352D01*
X205956848Y-32610590D01*
X205979980Y-32726880D01*
X205981015Y-32734560D01*
X205994021Y-32916413D01*
X205999367Y-32997966D01*
X205999500Y-33002023D01*
X205999500Y-119997976D01*
X205999367Y-120002033D01*
X205994021Y-120083585D01*
X205981015Y-120265438D01*
X205979980Y-120273118D01*
X205956848Y-120389408D01*
X205925472Y-120533646D01*
X205923597Y-120540402D01*
X205883497Y-120658533D01*
X205882878Y-120660271D01*
X205833842Y-120791740D01*
X205831356Y-120797499D01*
X205774992Y-120911794D01*
X205773802Y-120914086D01*
X205707828Y-121034907D01*
X205704961Y-121039641D01*
X205633461Y-121146649D01*
X205631543Y-121149359D01*
X205549744Y-121258631D01*
X205546723Y-121262357D01*
X205461529Y-121359502D01*
X205458755Y-121362464D01*
X205362464Y-121458755D01*
X205359502Y-121461529D01*
X205262357Y-121546723D01*
X205258631Y-121549744D01*
X205149359Y-121631543D01*
X205146649Y-121633461D01*
X205039641Y-121704961D01*
X205034907Y-121707828D01*
X204914086Y-121773802D01*
X204911794Y-121774992D01*
X204797499Y-121831356D01*
X204791740Y-121833842D01*
X204660271Y-121882878D01*
X204658533Y-121883497D01*
X204540402Y-121923597D01*
X204533646Y-121925472D01*
X204389408Y-121956848D01*
X204273118Y-121979980D01*
X204265438Y-121981015D01*
X204083585Y-121994021D01*
X204027608Y-121997690D01*
X204002025Y-121999367D01*
X203997976Y-121999500D01*
X131002024Y-121999500D01*
X130997974Y-121999367D01*
X130967355Y-121997360D01*
X130916413Y-121994021D01*
X130734560Y-121981015D01*
X130726880Y-121979980D01*
X130610590Y-121956848D01*
X130466352Y-121925472D01*
X130459596Y-121923597D01*
X130341465Y-121883497D01*
X130339727Y-121882878D01*
X130208258Y-121833842D01*
X130202499Y-121831356D01*
X130088204Y-121774992D01*
X130085912Y-121773802D01*
X129965091Y-121707828D01*
X129960357Y-121704961D01*
X129853349Y-121633461D01*
X129850639Y-121631543D01*
X129810592Y-121601564D01*
X129741353Y-121549732D01*
X129737648Y-121546729D01*
X129640492Y-121461526D01*
X129637549Y-121458769D01*
X129541228Y-121362448D01*
X129538469Y-121359502D01*
X129505450Y-121321851D01*
X129453265Y-121262345D01*
X129450271Y-121258652D01*
X129368454Y-121149358D01*
X129366537Y-121146649D01*
X129295037Y-121039641D01*
X129292170Y-121034907D01*
X129226173Y-120914042D01*
X129225024Y-120911830D01*
X129168635Y-120797483D01*
X129166156Y-120791740D01*
X129117103Y-120660224D01*
X129116531Y-120658618D01*
X129076395Y-120540383D01*
X129074531Y-120533666D01*
X129043150Y-120389408D01*
X129020015Y-120273102D01*
X129018985Y-120265459D01*
X129005992Y-120083793D01*
X129003256Y-120042056D01*
X129000633Y-120002018D01*
X129000500Y-119997963D01*
X129000500Y-115000002D01*
X133232677Y-115000002D01*
X133251929Y-115220062D01*
X133251930Y-115220070D01*
X133309104Y-115433445D01*
X133309105Y-115433447D01*
X133309106Y-115433450D01*
X133402466Y-115633661D01*
X133402466Y-115633662D01*
X133402468Y-115633666D01*
X133529170Y-115814615D01*
X133529175Y-115814621D01*
X133685378Y-115970824D01*
X133685384Y-115970829D01*
X133866333Y-116097531D01*
X133866335Y-116097532D01*
X133866338Y-116097534D01*
X134066550Y-116190894D01*
X134279932Y-116248070D01*
X134437123Y-116261822D01*
X134499998Y-116267323D01*
X134500000Y-116267323D01*
X134500002Y-116267323D01*
X134555017Y-116262509D01*
X134720068Y-116248070D01*
X134933450Y-116190894D01*
X135133662Y-116097534D01*
X135314620Y-115970826D01*
X135470826Y-115814620D01*
X135597534Y-115633662D01*
X135690894Y-115433450D01*
X135748070Y-115220068D01*
X135767323Y-115000002D01*
X138232677Y-115000002D01*
X138251929Y-115220062D01*
X138251930Y-115220070D01*
X138309104Y-115433445D01*
X138309105Y-115433447D01*
X138309106Y-115433450D01*
X138402466Y-115633662D01*
X138402468Y-115633666D01*
X138529170Y-115814615D01*
X138529175Y-115814621D01*
X138685378Y-115970824D01*
X138685384Y-115970829D01*
X138866333Y-116097531D01*
X138866335Y-116097532D01*
X138866338Y-116097534D01*
X139066550Y-116190894D01*
X139279932Y-116248070D01*
X139437123Y-116261822D01*
X139499998Y-116267323D01*
X139500000Y-116267323D01*
X139500002Y-116267323D01*
X139555016Y-116262509D01*
X139720068Y-116248070D01*
X139933450Y-116190894D01*
X140133662Y-116097534D01*
X140314620Y-115970826D01*
X140470826Y-115814620D01*
X140597534Y-115633662D01*
X140690894Y-115433450D01*
X140748070Y-115220068D01*
X140767323Y-115000000D01*
X140748070Y-114779932D01*
X140690894Y-114566550D01*
X140597534Y-114366339D01*
X140534179Y-114275859D01*
X140470827Y-114185381D01*
X140403304Y-114117858D01*
X140314620Y-114029174D01*
X140314616Y-114029171D01*
X140314615Y-114029170D01*
X140133666Y-113902468D01*
X140133662Y-113902466D01*
X140133660Y-113902465D01*
X139933450Y-113809106D01*
X139933447Y-113809105D01*
X139933445Y-113809104D01*
X139720070Y-113751930D01*
X139720062Y-113751929D01*
X139500002Y-113732677D01*
X139499998Y-113732677D01*
X139279937Y-113751929D01*
X139279929Y-113751930D01*
X139066554Y-113809104D01*
X139066548Y-113809107D01*
X138866340Y-113902465D01*
X138866338Y-113902466D01*
X138685377Y-114029175D01*
X138529175Y-114185377D01*
X138402466Y-114366338D01*
X138402465Y-114366340D01*
X138309107Y-114566548D01*
X138309104Y-114566554D01*
X138251930Y-114779929D01*
X138251929Y-114779937D01*
X138232677Y-114999997D01*
X138232677Y-115000002D01*
X135767323Y-115000002D01*
X135767323Y-115000000D01*
X135748070Y-114779932D01*
X135690894Y-114566550D01*
X135597534Y-114366339D01*
X135534179Y-114275859D01*
X135470827Y-114185381D01*
X135403304Y-114117858D01*
X135314620Y-114029174D01*
X135314616Y-114029171D01*
X135314615Y-114029170D01*
X135133666Y-113902468D01*
X135133662Y-113902466D01*
X135133660Y-113902465D01*
X134933450Y-113809106D01*
X134933447Y-113809105D01*
X134933445Y-113809104D01*
X134764020Y-113763707D01*
X134720068Y-113751930D01*
X134720066Y-113751929D01*
X134717406Y-113751217D01*
X134657746Y-113714852D01*
X134627217Y-113652005D01*
X134625500Y-113631442D01*
X134625500Y-92368289D01*
X134645185Y-92301250D01*
X134697989Y-92255495D01*
X134767147Y-92245551D01*
X134776289Y-92247427D01*
X134779922Y-92248067D01*
X134779932Y-92248070D01*
X134937123Y-92261822D01*
X134999998Y-92267323D01*
X135000000Y-92267323D01*
X135000002Y-92267323D01*
X135055017Y-92262509D01*
X135220068Y-92248070D01*
X135433450Y-92190894D01*
X135633662Y-92097534D01*
X135814620Y-91970826D01*
X135970826Y-91814620D01*
X136097534Y-91633662D01*
X136190894Y-91433450D01*
X136248070Y-91220068D01*
X136267323Y-91000002D01*
X138732677Y-91000002D01*
X138751929Y-91220062D01*
X138751930Y-91220070D01*
X138809104Y-91433445D01*
X138809105Y-91433447D01*
X138809106Y-91433450D01*
X138883654Y-91593319D01*
X138902466Y-91633662D01*
X138902468Y-91633666D01*
X139029170Y-91814615D01*
X139029175Y-91814621D01*
X139185378Y-91970824D01*
X139185384Y-91970829D01*
X139366333Y-92097531D01*
X139366335Y-92097532D01*
X139366338Y-92097534D01*
X139566550Y-92190894D01*
X139779932Y-92248070D01*
X139937123Y-92261822D01*
X139999998Y-92267323D01*
X140000000Y-92267323D01*
X140000002Y-92267323D01*
X140055017Y-92262509D01*
X140220068Y-92248070D01*
X140433450Y-92190894D01*
X140633662Y-92097534D01*
X140801240Y-91980195D01*
X143369840Y-91980195D01*
X143374225Y-92026583D01*
X143374500Y-92032421D01*
X143374500Y-113917255D01*
X143372775Y-113932872D01*
X143373061Y-113932899D01*
X143372326Y-113940666D01*
X143374469Y-114008846D01*
X143374500Y-114010793D01*
X143374500Y-114039343D01*
X143374501Y-114039360D01*
X143375368Y-114046231D01*
X143375826Y-114052050D01*
X143377290Y-114098624D01*
X143377291Y-114098627D01*
X143382880Y-114117867D01*
X143386824Y-114136911D01*
X143389336Y-114156792D01*
X143400655Y-114185381D01*
X143406490Y-114200119D01*
X143408382Y-114205647D01*
X143421381Y-114250388D01*
X143431580Y-114267634D01*
X143440138Y-114285103D01*
X143447514Y-114303732D01*
X143474898Y-114341423D01*
X143478106Y-114346307D01*
X143501827Y-114386416D01*
X143501833Y-114386424D01*
X143515990Y-114400580D01*
X143528628Y-114415376D01*
X143540405Y-114431586D01*
X143540406Y-114431587D01*
X143576309Y-114461288D01*
X143580620Y-114465210D01*
X143681953Y-114566543D01*
X143731613Y-114616203D01*
X143765098Y-114677526D01*
X143763707Y-114735976D01*
X143751931Y-114779926D01*
X143751930Y-114779933D01*
X143732677Y-114999997D01*
X143732677Y-115000002D01*
X143751929Y-115220062D01*
X143751930Y-115220070D01*
X143809104Y-115433445D01*
X143809105Y-115433447D01*
X143809106Y-115433450D01*
X143902466Y-115633661D01*
X143902466Y-115633662D01*
X143902468Y-115633666D01*
X144029170Y-115814615D01*
X144029175Y-115814621D01*
X144185378Y-115970824D01*
X144185384Y-115970829D01*
X144366333Y-116097531D01*
X144366335Y-116097532D01*
X144366338Y-116097534D01*
X144566550Y-116190894D01*
X144779932Y-116248070D01*
X144937123Y-116261822D01*
X144999998Y-116267323D01*
X145000000Y-116267323D01*
X145000002Y-116267323D01*
X145055017Y-116262509D01*
X145220068Y-116248070D01*
X145433450Y-116190894D01*
X145633662Y-116097534D01*
X145814620Y-115970826D01*
X145970826Y-115814620D01*
X146097534Y-115633662D01*
X146190894Y-115433450D01*
X146248070Y-115220068D01*
X146267323Y-115000002D01*
X148732677Y-115000002D01*
X148751929Y-115220062D01*
X148751930Y-115220070D01*
X148809104Y-115433445D01*
X148809105Y-115433447D01*
X148809106Y-115433450D01*
X148902466Y-115633662D01*
X148902468Y-115633666D01*
X149029170Y-115814615D01*
X149029175Y-115814621D01*
X149185378Y-115970824D01*
X149185384Y-115970829D01*
X149366333Y-116097531D01*
X149366335Y-116097532D01*
X149366338Y-116097534D01*
X149566550Y-116190894D01*
X149779932Y-116248070D01*
X149937123Y-116261822D01*
X149999998Y-116267323D01*
X150000000Y-116267323D01*
X150000002Y-116267323D01*
X150055016Y-116262509D01*
X150220068Y-116248070D01*
X150433450Y-116190894D01*
X150633662Y-116097534D01*
X150814620Y-115970826D01*
X150970826Y-115814620D01*
X151097534Y-115633662D01*
X151190894Y-115433450D01*
X151248070Y-115220068D01*
X151267323Y-115000000D01*
X151248070Y-114779932D01*
X151190894Y-114566550D01*
X151097534Y-114366339D01*
X151034180Y-114275859D01*
X150970827Y-114185381D01*
X150903304Y-114117858D01*
X150814620Y-114029174D01*
X150814616Y-114029171D01*
X150814615Y-114029170D01*
X150633666Y-113902468D01*
X150633662Y-113902466D01*
X150633660Y-113902465D01*
X150433450Y-113809106D01*
X150433447Y-113809105D01*
X150433445Y-113809104D01*
X150220070Y-113751930D01*
X150220062Y-113751929D01*
X150000002Y-113732677D01*
X149999998Y-113732677D01*
X149779937Y-113751929D01*
X149779929Y-113751930D01*
X149566554Y-113809104D01*
X149566548Y-113809107D01*
X149366340Y-113902465D01*
X149366338Y-113902466D01*
X149185377Y-114029175D01*
X149029175Y-114185377D01*
X148902466Y-114366338D01*
X148902465Y-114366340D01*
X148809107Y-114566548D01*
X148809104Y-114566554D01*
X148751930Y-114779929D01*
X148751929Y-114779937D01*
X148732677Y-114999997D01*
X148732677Y-115000002D01*
X146267323Y-115000002D01*
X146267323Y-115000000D01*
X146248070Y-114779932D01*
X146190894Y-114566550D01*
X146097534Y-114366339D01*
X146034180Y-114275859D01*
X145970827Y-114185381D01*
X145903304Y-114117858D01*
X145814620Y-114029174D01*
X145814616Y-114029171D01*
X145814615Y-114029170D01*
X145633666Y-113902468D01*
X145633662Y-113902466D01*
X145633660Y-113902465D01*
X145433450Y-113809106D01*
X145433447Y-113809105D01*
X145433445Y-113809104D01*
X145220070Y-113751930D01*
X145220062Y-113751929D01*
X145000002Y-113732677D01*
X144999998Y-113732677D01*
X144874506Y-113743656D01*
X144779932Y-113751930D01*
X144779930Y-113751930D01*
X144774596Y-113752871D01*
X144774321Y-113751311D01*
X144711742Y-113749822D01*
X144653880Y-113710659D01*
X144626377Y-113646430D01*
X144625500Y-113631710D01*
X144625500Y-92368289D01*
X144645185Y-92301250D01*
X144697989Y-92255495D01*
X144767147Y-92245551D01*
X144776289Y-92247427D01*
X144779922Y-92248067D01*
X144779932Y-92248070D01*
X144937123Y-92261822D01*
X144999998Y-92267323D01*
X145000000Y-92267323D01*
X145000002Y-92267323D01*
X145055017Y-92262509D01*
X145220068Y-92248070D01*
X145433450Y-92190894D01*
X145633662Y-92097534D01*
X145814620Y-91970826D01*
X145970826Y-91814620D01*
X146097534Y-91633662D01*
X146190894Y-91433450D01*
X146248070Y-91220068D01*
X146267323Y-91000002D01*
X148732677Y-91000002D01*
X148751929Y-91220062D01*
X148751930Y-91220070D01*
X148809104Y-91433445D01*
X148809105Y-91433447D01*
X148809106Y-91433450D01*
X148883654Y-91593319D01*
X148902466Y-91633662D01*
X148902468Y-91633666D01*
X149029170Y-91814615D01*
X149029175Y-91814621D01*
X149185378Y-91970824D01*
X149185384Y-91970829D01*
X149366333Y-92097531D01*
X149366335Y-92097532D01*
X149366338Y-92097534D01*
X149566550Y-92190894D01*
X149779932Y-92248070D01*
X149937123Y-92261822D01*
X149999998Y-92267323D01*
X150000000Y-92267323D01*
X150000002Y-92267323D01*
X150055016Y-92262509D01*
X150220068Y-92248070D01*
X150433450Y-92190894D01*
X150633662Y-92097534D01*
X150801240Y-91980195D01*
X153369840Y-91980195D01*
X153374225Y-92026583D01*
X153374500Y-92032421D01*
X153374500Y-113917255D01*
X153372775Y-113932872D01*
X153373061Y-113932899D01*
X153372326Y-113940666D01*
X153374469Y-114008846D01*
X153374500Y-114010793D01*
X153374500Y-114039343D01*
X153374501Y-114039360D01*
X153375368Y-114046231D01*
X153375826Y-114052050D01*
X153377290Y-114098624D01*
X153377291Y-114098627D01*
X153382880Y-114117867D01*
X153386824Y-114136911D01*
X153389336Y-114156792D01*
X153400655Y-114185381D01*
X153406490Y-114200119D01*
X153408382Y-114205647D01*
X153421381Y-114250388D01*
X153431580Y-114267634D01*
X153440138Y-114285103D01*
X153447514Y-114303732D01*
X153474898Y-114341423D01*
X153478106Y-114346307D01*
X153501827Y-114386416D01*
X153501833Y-114386424D01*
X153515990Y-114400580D01*
X153528628Y-114415376D01*
X153540405Y-114431586D01*
X153540406Y-114431587D01*
X153576309Y-114461288D01*
X153580620Y-114465210D01*
X153681953Y-114566543D01*
X153731613Y-114616203D01*
X153765098Y-114677526D01*
X153763707Y-114735976D01*
X153751931Y-114779926D01*
X153751930Y-114779933D01*
X153732677Y-114999997D01*
X153732677Y-115000002D01*
X153751929Y-115220062D01*
X153751930Y-115220070D01*
X153809104Y-115433445D01*
X153809105Y-115433447D01*
X153809106Y-115433450D01*
X153902466Y-115633661D01*
X153902466Y-115633662D01*
X153902468Y-115633666D01*
X154029170Y-115814615D01*
X154029175Y-115814621D01*
X154185378Y-115970824D01*
X154185384Y-115970829D01*
X154366333Y-116097531D01*
X154366335Y-116097532D01*
X154366338Y-116097534D01*
X154566550Y-116190894D01*
X154779932Y-116248070D01*
X154937123Y-116261822D01*
X154999998Y-116267323D01*
X155000000Y-116267323D01*
X155000002Y-116267323D01*
X155055017Y-116262509D01*
X155220068Y-116248070D01*
X155433450Y-116190894D01*
X155633662Y-116097534D01*
X155814620Y-115970826D01*
X155970826Y-115814620D01*
X156097534Y-115633662D01*
X156190894Y-115433450D01*
X156248070Y-115220068D01*
X156267323Y-115000002D01*
X158732677Y-115000002D01*
X158751929Y-115220062D01*
X158751930Y-115220070D01*
X158809104Y-115433445D01*
X158809105Y-115433447D01*
X158809106Y-115433450D01*
X158902466Y-115633662D01*
X158902468Y-115633666D01*
X159029170Y-115814615D01*
X159029175Y-115814621D01*
X159185378Y-115970824D01*
X159185384Y-115970829D01*
X159366333Y-116097531D01*
X159366335Y-116097532D01*
X159366338Y-116097534D01*
X159566550Y-116190894D01*
X159779932Y-116248070D01*
X159937123Y-116261822D01*
X159999998Y-116267323D01*
X160000000Y-116267323D01*
X160000002Y-116267323D01*
X160055017Y-116262509D01*
X160220068Y-116248070D01*
X160433450Y-116190894D01*
X160633662Y-116097534D01*
X160814620Y-115970826D01*
X160970826Y-115814620D01*
X161097534Y-115633662D01*
X161190894Y-115433450D01*
X161248070Y-115220068D01*
X161267323Y-115000000D01*
X161248070Y-114779932D01*
X161190894Y-114566550D01*
X161097534Y-114366339D01*
X161034180Y-114275859D01*
X160970827Y-114185381D01*
X160903304Y-114117858D01*
X160814620Y-114029174D01*
X160814616Y-114029171D01*
X160814615Y-114029170D01*
X160633666Y-113902468D01*
X160633662Y-113902466D01*
X160633660Y-113902465D01*
X160433450Y-113809106D01*
X160433447Y-113809105D01*
X160433445Y-113809104D01*
X160220070Y-113751930D01*
X160220062Y-113751929D01*
X160000002Y-113732677D01*
X159999998Y-113732677D01*
X159779937Y-113751929D01*
X159779929Y-113751930D01*
X159566554Y-113809104D01*
X159566548Y-113809107D01*
X159366340Y-113902465D01*
X159366338Y-113902466D01*
X159185377Y-114029175D01*
X159029175Y-114185377D01*
X158902466Y-114366338D01*
X158902465Y-114366340D01*
X158809107Y-114566548D01*
X158809104Y-114566554D01*
X158751930Y-114779929D01*
X158751929Y-114779937D01*
X158732677Y-114999997D01*
X158732677Y-115000002D01*
X156267323Y-115000002D01*
X156267323Y-115000000D01*
X156248070Y-114779932D01*
X156190894Y-114566550D01*
X156097534Y-114366339D01*
X156034180Y-114275859D01*
X155970827Y-114185381D01*
X155903304Y-114117858D01*
X155814620Y-114029174D01*
X155814616Y-114029171D01*
X155814615Y-114029170D01*
X155633666Y-113902468D01*
X155633662Y-113902466D01*
X155633660Y-113902465D01*
X155433450Y-113809106D01*
X155433447Y-113809105D01*
X155433445Y-113809104D01*
X155220070Y-113751930D01*
X155220062Y-113751929D01*
X155000002Y-113732677D01*
X154999998Y-113732677D01*
X154874506Y-113743656D01*
X154779932Y-113751930D01*
X154779930Y-113751930D01*
X154774596Y-113752871D01*
X154774321Y-113751311D01*
X154711742Y-113749822D01*
X154653880Y-113710659D01*
X154626377Y-113646430D01*
X154625500Y-113631710D01*
X154625500Y-105479946D01*
X154645185Y-105412907D01*
X154697989Y-105367152D01*
X154767147Y-105357208D01*
X154830703Y-105386233D01*
X154868477Y-105445011D01*
X154873439Y-105476051D01*
X154874469Y-105508846D01*
X154874500Y-105510793D01*
X154874500Y-105539343D01*
X154874501Y-105539360D01*
X154875368Y-105546231D01*
X154875826Y-105552050D01*
X154877290Y-105598624D01*
X154877291Y-105598627D01*
X154882880Y-105617867D01*
X154886824Y-105636911D01*
X154889336Y-105656791D01*
X154906490Y-105700119D01*
X154908382Y-105705647D01*
X154921381Y-105750388D01*
X154931580Y-105767634D01*
X154940138Y-105785103D01*
X154947514Y-105803732D01*
X154974898Y-105841423D01*
X154978106Y-105846307D01*
X155001827Y-105886416D01*
X155001833Y-105886424D01*
X155015990Y-105900580D01*
X155028627Y-105915375D01*
X155031261Y-105919000D01*
X155040405Y-105931586D01*
X155040406Y-105931587D01*
X155076309Y-105961288D01*
X155080620Y-105965210D01*
X158090877Y-108975467D01*
X163731613Y-114616204D01*
X163765098Y-114677527D01*
X163763707Y-114735977D01*
X163751931Y-114779926D01*
X163751930Y-114779933D01*
X163732677Y-114999997D01*
X163732677Y-115000002D01*
X163751929Y-115220062D01*
X163751930Y-115220070D01*
X163809104Y-115433445D01*
X163809105Y-115433447D01*
X163809106Y-115433450D01*
X163902466Y-115633661D01*
X163902466Y-115633662D01*
X163902468Y-115633666D01*
X164029170Y-115814615D01*
X164029175Y-115814621D01*
X164185378Y-115970824D01*
X164185384Y-115970829D01*
X164366333Y-116097531D01*
X164366335Y-116097532D01*
X164366338Y-116097534D01*
X164566550Y-116190894D01*
X164779932Y-116248070D01*
X164937123Y-116261822D01*
X164999998Y-116267323D01*
X165000000Y-116267323D01*
X165000002Y-116267323D01*
X165055017Y-116262509D01*
X165220068Y-116248070D01*
X165433450Y-116190894D01*
X165633662Y-116097534D01*
X165814620Y-115970826D01*
X165970826Y-115814620D01*
X166097534Y-115633662D01*
X166190894Y-115433450D01*
X166248070Y-115220068D01*
X166267323Y-115000002D01*
X168732677Y-115000002D01*
X168751929Y-115220062D01*
X168751930Y-115220070D01*
X168809104Y-115433445D01*
X168809105Y-115433447D01*
X168809106Y-115433450D01*
X168902466Y-115633662D01*
X168902468Y-115633666D01*
X169029170Y-115814615D01*
X169029175Y-115814621D01*
X169185378Y-115970824D01*
X169185384Y-115970829D01*
X169366333Y-116097531D01*
X169366335Y-116097532D01*
X169366338Y-116097534D01*
X169566550Y-116190894D01*
X169779932Y-116248070D01*
X169937123Y-116261822D01*
X169999998Y-116267323D01*
X170000000Y-116267323D01*
X170000002Y-116267323D01*
X170055016Y-116262509D01*
X170220068Y-116248070D01*
X170433450Y-116190894D01*
X170633662Y-116097534D01*
X170814620Y-115970826D01*
X170970826Y-115814620D01*
X171097534Y-115633662D01*
X171190894Y-115433450D01*
X171248070Y-115220068D01*
X171267323Y-115000000D01*
X171248070Y-114779932D01*
X171190894Y-114566550D01*
X171097534Y-114366339D01*
X171034180Y-114275859D01*
X170970827Y-114185381D01*
X170903304Y-114117858D01*
X170814620Y-114029174D01*
X170814616Y-114029171D01*
X170814615Y-114029170D01*
X170633666Y-113902468D01*
X170633662Y-113902466D01*
X170633660Y-113902465D01*
X170433450Y-113809106D01*
X170433447Y-113809105D01*
X170433445Y-113809104D01*
X170220070Y-113751930D01*
X170220062Y-113751929D01*
X170000002Y-113732677D01*
X169999998Y-113732677D01*
X169779937Y-113751929D01*
X169779929Y-113751930D01*
X169566554Y-113809104D01*
X169566548Y-113809107D01*
X169366340Y-113902465D01*
X169366338Y-113902466D01*
X169185377Y-114029175D01*
X169029175Y-114185377D01*
X168902466Y-114366338D01*
X168902465Y-114366340D01*
X168809107Y-114566548D01*
X168809104Y-114566554D01*
X168751930Y-114779929D01*
X168751929Y-114779937D01*
X168732677Y-114999997D01*
X168732677Y-115000002D01*
X166267323Y-115000002D01*
X166267323Y-115000000D01*
X166248070Y-114779932D01*
X166190894Y-114566550D01*
X166097534Y-114366339D01*
X166034180Y-114275859D01*
X165970827Y-114185381D01*
X165903304Y-114117858D01*
X165814620Y-114029174D01*
X165814616Y-114029171D01*
X165814615Y-114029170D01*
X165633666Y-113902468D01*
X165633662Y-113902466D01*
X165633660Y-113902465D01*
X165433450Y-113809106D01*
X165433447Y-113809105D01*
X165433445Y-113809104D01*
X165220070Y-113751930D01*
X165220062Y-113751929D01*
X165000002Y-113732677D01*
X164999998Y-113732677D01*
X164874506Y-113743656D01*
X164779932Y-113751930D01*
X164779930Y-113751930D01*
X164779926Y-113751931D01*
X164735976Y-113763707D01*
X164666126Y-113762043D01*
X164616203Y-113731613D01*
X159860480Y-108975889D01*
X164999416Y-108975889D01*
X164999459Y-109000001D01*
X164999544Y-109000206D01*
X164999616Y-109000382D01*
X164999618Y-109000384D01*
X164999808Y-109000462D01*
X165000000Y-109000541D01*
X165000002Y-109000539D01*
X165024616Y-109000524D01*
X165024616Y-109000528D01*
X165024760Y-109000500D01*
X171975240Y-109000500D01*
X171975383Y-109000528D01*
X171975384Y-109000524D01*
X171999997Y-109000539D01*
X172000000Y-109000541D01*
X172000383Y-109000383D01*
X172000500Y-109000099D01*
X172000541Y-109000000D01*
X172000540Y-108999997D01*
X172000583Y-108975889D01*
X172000500Y-108975467D01*
X172000500Y-95024759D01*
X172000528Y-95024616D01*
X172000524Y-95024616D01*
X172000539Y-95000002D01*
X172000541Y-95000000D01*
X172000462Y-94999808D01*
X172000384Y-94999618D01*
X172000383Y-94999617D01*
X172000381Y-94999616D01*
X172000090Y-94999496D01*
X172000001Y-94999459D01*
X171975446Y-94999459D01*
X171975240Y-94999500D01*
X165024760Y-94999500D01*
X165024554Y-94999459D01*
X164999998Y-94999459D01*
X164999909Y-94999496D01*
X164999619Y-94999615D01*
X164999615Y-94999618D01*
X164999459Y-94999999D01*
X164999476Y-95024616D01*
X164999471Y-95024616D01*
X164999500Y-95024759D01*
X164999500Y-108975467D01*
X164999416Y-108975889D01*
X159860480Y-108975889D01*
X156281364Y-105396773D01*
X156247879Y-105335450D01*
X156252863Y-105265758D01*
X156294735Y-105209825D01*
X156297876Y-105207549D01*
X156314620Y-105195826D01*
X156470826Y-105039620D01*
X156597534Y-104858662D01*
X156690894Y-104658450D01*
X156748070Y-104445068D01*
X156767323Y-104225002D01*
X159232677Y-104225002D01*
X159251929Y-104445062D01*
X159251930Y-104445070D01*
X159309104Y-104658445D01*
X159309105Y-104658447D01*
X159309106Y-104658450D01*
X159340359Y-104725472D01*
X159402466Y-104858662D01*
X159402468Y-104858666D01*
X159529170Y-105039615D01*
X159529175Y-105039621D01*
X159685378Y-105195824D01*
X159685384Y-105195829D01*
X159866333Y-105322531D01*
X159866335Y-105322532D01*
X159866338Y-105322534D01*
X160066550Y-105415894D01*
X160279932Y-105473070D01*
X160437123Y-105486822D01*
X160499998Y-105492323D01*
X160500000Y-105492323D01*
X160500002Y-105492323D01*
X160555017Y-105487509D01*
X160720068Y-105473070D01*
X160933450Y-105415894D01*
X161133662Y-105322534D01*
X161314620Y-105195826D01*
X161470826Y-105039620D01*
X161597534Y-104858662D01*
X161690894Y-104658450D01*
X161748070Y-104445068D01*
X161767323Y-104225000D01*
X161748070Y-104004932D01*
X161690894Y-103791550D01*
X161597534Y-103591339D01*
X161470826Y-103410380D01*
X161314620Y-103254174D01*
X161314616Y-103254171D01*
X161314615Y-103254170D01*
X161133666Y-103127468D01*
X161133662Y-103127466D01*
X161104447Y-103113843D01*
X160933450Y-103034106D01*
X160933447Y-103034105D01*
X160933445Y-103034104D01*
X160720070Y-102976930D01*
X160720062Y-102976929D01*
X160500002Y-102957677D01*
X160499998Y-102957677D01*
X160279937Y-102976929D01*
X160279929Y-102976930D01*
X160066554Y-103034104D01*
X160066548Y-103034107D01*
X159866340Y-103127465D01*
X159866338Y-103127466D01*
X159685377Y-103254175D01*
X159529175Y-103410377D01*
X159402466Y-103591338D01*
X159402465Y-103591340D01*
X159376769Y-103646446D01*
X159317570Y-103773400D01*
X159309107Y-103791548D01*
X159309104Y-103791554D01*
X159251930Y-104004929D01*
X159251929Y-104004937D01*
X159232677Y-104224997D01*
X159232677Y-104225002D01*
X156767323Y-104225002D01*
X156767323Y-104225000D01*
X156748070Y-104004932D01*
X156690894Y-103791550D01*
X156597534Y-103591339D01*
X156470826Y-103410380D01*
X156314620Y-103254174D01*
X156314616Y-103254171D01*
X156314615Y-103254170D01*
X156133666Y-103127468D01*
X156133662Y-103127466D01*
X156104447Y-103113843D01*
X155933450Y-103034106D01*
X155933447Y-103034105D01*
X155933445Y-103034104D01*
X155720070Y-102976930D01*
X155720062Y-102976929D01*
X155500002Y-102957677D01*
X155499998Y-102957677D01*
X155279937Y-102976929D01*
X155279929Y-102976930D01*
X155066554Y-103034104D01*
X155066548Y-103034107D01*
X154866340Y-103127465D01*
X154820622Y-103159477D01*
X154754416Y-103181804D01*
X154686648Y-103164792D01*
X154638836Y-103113843D01*
X154625500Y-103057901D01*
X154625500Y-92980195D01*
X172369840Y-92980195D01*
X172374225Y-93026583D01*
X172374500Y-93032421D01*
X172374500Y-112917255D01*
X172372775Y-112932872D01*
X172373061Y-112932899D01*
X172372326Y-112940666D01*
X172374469Y-113008846D01*
X172374500Y-113010793D01*
X172374500Y-113039343D01*
X172374501Y-113039360D01*
X172375368Y-113046231D01*
X172375826Y-113052050D01*
X172377290Y-113098624D01*
X172377291Y-113098627D01*
X172382880Y-113117867D01*
X172386824Y-113136911D01*
X172389336Y-113156791D01*
X172406490Y-113200119D01*
X172408382Y-113205647D01*
X172421381Y-113250388D01*
X172431580Y-113267634D01*
X172440138Y-113285103D01*
X172447514Y-113303732D01*
X172474898Y-113341423D01*
X172478106Y-113346307D01*
X172501827Y-113386416D01*
X172501833Y-113386424D01*
X172515990Y-113400580D01*
X172528628Y-113415376D01*
X172540405Y-113431586D01*
X172540406Y-113431587D01*
X172576309Y-113461288D01*
X172580620Y-113465210D01*
X173456832Y-114341423D01*
X173731613Y-114616204D01*
X173765098Y-114677527D01*
X173763707Y-114735977D01*
X173751931Y-114779926D01*
X173751930Y-114779933D01*
X173732677Y-114999997D01*
X173732677Y-115000002D01*
X173751929Y-115220062D01*
X173751930Y-115220070D01*
X173809104Y-115433445D01*
X173809105Y-115433447D01*
X173809106Y-115433450D01*
X173902466Y-115633661D01*
X173902466Y-115633662D01*
X173902468Y-115633666D01*
X174029170Y-115814615D01*
X174029175Y-115814621D01*
X174185378Y-115970824D01*
X174185384Y-115970829D01*
X174366333Y-116097531D01*
X174366335Y-116097532D01*
X174366338Y-116097534D01*
X174566550Y-116190894D01*
X174779932Y-116248070D01*
X174937123Y-116261822D01*
X174999998Y-116267323D01*
X175000000Y-116267323D01*
X175000002Y-116267323D01*
X175055017Y-116262509D01*
X175220068Y-116248070D01*
X175433450Y-116190894D01*
X175633662Y-116097534D01*
X175814620Y-115970826D01*
X175970826Y-115814620D01*
X176097534Y-115633662D01*
X176190894Y-115433450D01*
X176248070Y-115220068D01*
X176267323Y-115000002D01*
X178732677Y-115000002D01*
X178751929Y-115220062D01*
X178751930Y-115220070D01*
X178809104Y-115433445D01*
X178809105Y-115433447D01*
X178809106Y-115433450D01*
X178902466Y-115633661D01*
X178902466Y-115633662D01*
X178902468Y-115633666D01*
X179029170Y-115814615D01*
X179029175Y-115814621D01*
X179185378Y-115970824D01*
X179185384Y-115970829D01*
X179366333Y-116097531D01*
X179366335Y-116097532D01*
X179366338Y-116097534D01*
X179566550Y-116190894D01*
X179779932Y-116248070D01*
X179937123Y-116261822D01*
X179999998Y-116267323D01*
X180000000Y-116267323D01*
X180000002Y-116267323D01*
X180055017Y-116262509D01*
X180220068Y-116248070D01*
X180433450Y-116190894D01*
X180633662Y-116097534D01*
X180814620Y-115970826D01*
X180970826Y-115814620D01*
X181097534Y-115633662D01*
X181190894Y-115433450D01*
X181248070Y-115220068D01*
X181267323Y-115000000D01*
X181248070Y-114779932D01*
X181190894Y-114566550D01*
X181097534Y-114366339D01*
X181034180Y-114275859D01*
X180970827Y-114185381D01*
X180903304Y-114117858D01*
X180814620Y-114029174D01*
X180814616Y-114029171D01*
X180814615Y-114029170D01*
X180633666Y-113902468D01*
X180633662Y-113902466D01*
X180633661Y-113902465D01*
X180433450Y-113809106D01*
X180433447Y-113809105D01*
X180433445Y-113809104D01*
X180220070Y-113751930D01*
X180220062Y-113751929D01*
X180000002Y-113732677D01*
X179999998Y-113732677D01*
X179779937Y-113751929D01*
X179779929Y-113751930D01*
X179566554Y-113809104D01*
X179566548Y-113809107D01*
X179366340Y-113902465D01*
X179366338Y-113902466D01*
X179185377Y-114029175D01*
X179029175Y-114185377D01*
X178902466Y-114366338D01*
X178902465Y-114366340D01*
X178809107Y-114566548D01*
X178809104Y-114566554D01*
X178751930Y-114779929D01*
X178751929Y-114779937D01*
X178732677Y-114999997D01*
X178732677Y-115000002D01*
X176267323Y-115000002D01*
X176267323Y-115000000D01*
X176248070Y-114779932D01*
X176190894Y-114566550D01*
X176097534Y-114366339D01*
X176034180Y-114275859D01*
X175970827Y-114185381D01*
X175903304Y-114117858D01*
X175814620Y-114029174D01*
X175814616Y-114029171D01*
X175814615Y-114029170D01*
X175633666Y-113902468D01*
X175633662Y-113902466D01*
X175633660Y-113902465D01*
X175433450Y-113809106D01*
X175433447Y-113809105D01*
X175433445Y-113809104D01*
X175220070Y-113751930D01*
X175220062Y-113751929D01*
X175000002Y-113732677D01*
X174999998Y-113732677D01*
X174874506Y-113743656D01*
X174779932Y-113751930D01*
X174779930Y-113751930D01*
X174779926Y-113751931D01*
X174735977Y-113763707D01*
X174666127Y-113762044D01*
X174616204Y-113731613D01*
X173661819Y-112777227D01*
X173628334Y-112715904D01*
X173625500Y-112689546D01*
X173625500Y-107188947D01*
X173645185Y-107121908D01*
X173697989Y-107076153D01*
X173767147Y-107066209D01*
X173830703Y-107095234D01*
X173861882Y-107136543D01*
X173869429Y-107152728D01*
X173869432Y-107152734D01*
X173999954Y-107339141D01*
X174160858Y-107500045D01*
X174160861Y-107500047D01*
X174347266Y-107630568D01*
X174553504Y-107726739D01*
X174773308Y-107785635D01*
X175000000Y-107805468D01*
X175064693Y-107799807D01*
X175133191Y-107813573D01*
X175183375Y-107862187D01*
X175199500Y-107923335D01*
X175199500Y-109697870D01*
X175199501Y-109697876D01*
X175205908Y-109757483D01*
X175256202Y-109892328D01*
X175256206Y-109892335D01*
X175342452Y-110007544D01*
X175342455Y-110007547D01*
X175457664Y-110093793D01*
X175457671Y-110093797D01*
X175592517Y-110144091D01*
X175592516Y-110144091D01*
X175599444Y-110144835D01*
X175652127Y-110150500D01*
X178347872Y-110150499D01*
X178407483Y-110144091D01*
X178542331Y-110093796D01*
X178657546Y-110007546D01*
X178743796Y-109892331D01*
X178794091Y-109757483D01*
X178800500Y-109697873D01*
X178800499Y-107302128D01*
X178794091Y-107242517D01*
X178754565Y-107136543D01*
X178743797Y-107107671D01*
X178743793Y-107107664D01*
X178657547Y-106992455D01*
X178657544Y-106992452D01*
X178542335Y-106906206D01*
X178542328Y-106906202D01*
X178407482Y-106855908D01*
X178407483Y-106855908D01*
X178347883Y-106849501D01*
X178347881Y-106849500D01*
X178347873Y-106849500D01*
X178347865Y-106849500D01*
X176410213Y-106849500D01*
X176343174Y-106829815D01*
X176297419Y-106777011D01*
X176286685Y-106714693D01*
X176305468Y-106500001D01*
X176305468Y-106499998D01*
X176285635Y-106273313D01*
X176285635Y-106273308D01*
X176226739Y-106053504D01*
X176130568Y-105847266D01*
X176029439Y-105702837D01*
X176000045Y-105660858D01*
X175839141Y-105499954D01*
X175652734Y-105369432D01*
X175652730Y-105369430D01*
X175637022Y-105362105D01*
X175584583Y-105315931D01*
X175565433Y-105248737D01*
X175585650Y-105181857D01*
X175637028Y-105137340D01*
X175652481Y-105130134D01*
X175725472Y-105079025D01*
X175132534Y-104486086D01*
X175142315Y-104484680D01*
X175273100Y-104424952D01*
X175381761Y-104330798D01*
X175459493Y-104209844D01*
X175483076Y-104129523D01*
X176079025Y-104725472D01*
X176130136Y-104652478D01*
X176226264Y-104446331D01*
X176226269Y-104446317D01*
X176285139Y-104226610D01*
X176285141Y-104226599D01*
X176304966Y-104000002D01*
X176304966Y-103999997D01*
X176285141Y-103773400D01*
X176285139Y-103773389D01*
X176226269Y-103553682D01*
X176226265Y-103553673D01*
X176130133Y-103347516D01*
X176130131Y-103347512D01*
X176079026Y-103274526D01*
X176079025Y-103274526D01*
X175483076Y-103870475D01*
X175459493Y-103790156D01*
X175381761Y-103669202D01*
X175273100Y-103575048D01*
X175142315Y-103515320D01*
X175132533Y-103513913D01*
X175725472Y-102920974D01*
X175725471Y-102920973D01*
X175652483Y-102869866D01*
X175652481Y-102869865D01*
X175637023Y-102862657D01*
X175584584Y-102816484D01*
X175565432Y-102749290D01*
X175585648Y-102682409D01*
X175637023Y-102637893D01*
X175652734Y-102630568D01*
X175839139Y-102500047D01*
X176000047Y-102339139D01*
X176130568Y-102152734D01*
X176226739Y-101946496D01*
X176285635Y-101726692D01*
X176305468Y-101500000D01*
X176286685Y-101285306D01*
X176300452Y-101216806D01*
X176349067Y-101166623D01*
X176410213Y-101150499D01*
X178347871Y-101150499D01*
X178347872Y-101150499D01*
X178407483Y-101144091D01*
X178542331Y-101093796D01*
X178657546Y-101007546D01*
X178743796Y-100892331D01*
X178794091Y-100757483D01*
X178800500Y-100697873D01*
X178800499Y-98302128D01*
X178794091Y-98242517D01*
X178743796Y-98107669D01*
X178743795Y-98107668D01*
X178743793Y-98107664D01*
X178657547Y-97992455D01*
X178657544Y-97992452D01*
X178542335Y-97906206D01*
X178542328Y-97906202D01*
X178407482Y-97855908D01*
X178407483Y-97855908D01*
X178347883Y-97849501D01*
X178347881Y-97849500D01*
X178347873Y-97849500D01*
X178347864Y-97849500D01*
X175652129Y-97849500D01*
X175652123Y-97849501D01*
X175592516Y-97855908D01*
X175457671Y-97906202D01*
X175457664Y-97906206D01*
X175342455Y-97992452D01*
X175342452Y-97992455D01*
X175256206Y-98107664D01*
X175256202Y-98107671D01*
X175205908Y-98242517D01*
X175199501Y-98302116D01*
X175199501Y-98302123D01*
X175199500Y-98302135D01*
X175199500Y-100076663D01*
X175179815Y-100143702D01*
X175127011Y-100189457D01*
X175064694Y-100200191D01*
X175000004Y-100194532D01*
X174999998Y-100194532D01*
X174773313Y-100214364D01*
X174773302Y-100214366D01*
X174553511Y-100273258D01*
X174553502Y-100273261D01*
X174347267Y-100369431D01*
X174347265Y-100369432D01*
X174160858Y-100499954D01*
X173999954Y-100660858D01*
X173894789Y-100811052D01*
X173869432Y-100847266D01*
X173861880Y-100863459D01*
X173815709Y-100915897D01*
X173748515Y-100935048D01*
X173681634Y-100914832D01*
X173636300Y-100861666D01*
X173625500Y-100811052D01*
X173625500Y-93310452D01*
X173645185Y-93243413D01*
X173661819Y-93222771D01*
X174125500Y-92759090D01*
X174404394Y-92480195D01*
X183369840Y-92480195D01*
X183374225Y-92526583D01*
X183374500Y-92532421D01*
X183374500Y-112917255D01*
X183372775Y-112932872D01*
X183373061Y-112932899D01*
X183372326Y-112940666D01*
X183374469Y-113008846D01*
X183374500Y-113010793D01*
X183374500Y-113039343D01*
X183374501Y-113039360D01*
X183375368Y-113046231D01*
X183375826Y-113052050D01*
X183377290Y-113098624D01*
X183377291Y-113098627D01*
X183382880Y-113117867D01*
X183386824Y-113136911D01*
X183389336Y-113156791D01*
X183406490Y-113200119D01*
X183408382Y-113205647D01*
X183421381Y-113250388D01*
X183431580Y-113267634D01*
X183440138Y-113285103D01*
X183447514Y-113303732D01*
X183474898Y-113341423D01*
X183478106Y-113346307D01*
X183501827Y-113386416D01*
X183501833Y-113386424D01*
X183515990Y-113400580D01*
X183528628Y-113415376D01*
X183540405Y-113431586D01*
X183540406Y-113431587D01*
X183576309Y-113461288D01*
X183580620Y-113465210D01*
X184456832Y-114341423D01*
X184731613Y-114616204D01*
X184765098Y-114677527D01*
X184763707Y-114735977D01*
X184751931Y-114779926D01*
X184751930Y-114779933D01*
X184732677Y-114999997D01*
X184732677Y-115000002D01*
X184751929Y-115220062D01*
X184751930Y-115220070D01*
X184809104Y-115433445D01*
X184809105Y-115433447D01*
X184809106Y-115433450D01*
X184902466Y-115633661D01*
X184902466Y-115633662D01*
X184902468Y-115633666D01*
X185029170Y-115814615D01*
X185029175Y-115814621D01*
X185185378Y-115970824D01*
X185185384Y-115970829D01*
X185366333Y-116097531D01*
X185366335Y-116097532D01*
X185366338Y-116097534D01*
X185566550Y-116190894D01*
X185779932Y-116248070D01*
X185937123Y-116261822D01*
X185999998Y-116267323D01*
X186000000Y-116267323D01*
X186000002Y-116267323D01*
X186055016Y-116262509D01*
X186220068Y-116248070D01*
X186433450Y-116190894D01*
X186633662Y-116097534D01*
X186814620Y-115970826D01*
X186970826Y-115814620D01*
X187097534Y-115633662D01*
X187190894Y-115433450D01*
X187248070Y-115220068D01*
X187267323Y-115000002D01*
X189732677Y-115000002D01*
X189751929Y-115220062D01*
X189751930Y-115220070D01*
X189809104Y-115433445D01*
X189809105Y-115433447D01*
X189809106Y-115433450D01*
X189902465Y-115633661D01*
X189902466Y-115633662D01*
X189902468Y-115633666D01*
X190029170Y-115814615D01*
X190029175Y-115814621D01*
X190185378Y-115970824D01*
X190185384Y-115970829D01*
X190366333Y-116097531D01*
X190366335Y-116097532D01*
X190366338Y-116097534D01*
X190566550Y-116190894D01*
X190779932Y-116248070D01*
X190937123Y-116261822D01*
X190999998Y-116267323D01*
X191000000Y-116267323D01*
X191000002Y-116267323D01*
X191055017Y-116262509D01*
X191220068Y-116248070D01*
X191433450Y-116190894D01*
X191633662Y-116097534D01*
X191814620Y-115970826D01*
X191970826Y-115814620D01*
X192097534Y-115633662D01*
X192190894Y-115433450D01*
X192248070Y-115220068D01*
X192267323Y-115000000D01*
X192248070Y-114779932D01*
X192190894Y-114566550D01*
X192097534Y-114366339D01*
X192034179Y-114275859D01*
X191970827Y-114185381D01*
X191903304Y-114117858D01*
X191814620Y-114029174D01*
X191814616Y-114029171D01*
X191814615Y-114029170D01*
X191633666Y-113902468D01*
X191633662Y-113902466D01*
X191633662Y-113902465D01*
X191433450Y-113809106D01*
X191433447Y-113809105D01*
X191433445Y-113809104D01*
X191220070Y-113751930D01*
X191220062Y-113751929D01*
X191000002Y-113732677D01*
X190999998Y-113732677D01*
X190779937Y-113751929D01*
X190779929Y-113751930D01*
X190566554Y-113809104D01*
X190566548Y-113809107D01*
X190366340Y-113902465D01*
X190366338Y-113902466D01*
X190185377Y-114029175D01*
X190029175Y-114185377D01*
X189902466Y-114366338D01*
X189902465Y-114366340D01*
X189809107Y-114566548D01*
X189809104Y-114566554D01*
X189751930Y-114779929D01*
X189751929Y-114779937D01*
X189732677Y-114999997D01*
X189732677Y-115000002D01*
X187267323Y-115000002D01*
X187267323Y-115000000D01*
X187248070Y-114779932D01*
X187190894Y-114566550D01*
X187097534Y-114366339D01*
X187034180Y-114275859D01*
X186970827Y-114185381D01*
X186903304Y-114117858D01*
X186814620Y-114029174D01*
X186814616Y-114029171D01*
X186814615Y-114029170D01*
X186633666Y-113902468D01*
X186633662Y-113902466D01*
X186633662Y-113902465D01*
X186433450Y-113809106D01*
X186433447Y-113809105D01*
X186433445Y-113809104D01*
X186220070Y-113751930D01*
X186220062Y-113751929D01*
X186000002Y-113732677D01*
X185999998Y-113732677D01*
X185874506Y-113743656D01*
X185779932Y-113751930D01*
X185779930Y-113751930D01*
X185779926Y-113751931D01*
X185735977Y-113763707D01*
X185666127Y-113762044D01*
X185616204Y-113731613D01*
X184661819Y-112777228D01*
X184628334Y-112715905D01*
X184625500Y-112689547D01*
X184625500Y-92810452D01*
X184645185Y-92743413D01*
X184661819Y-92722771D01*
X184885391Y-92499199D01*
X185116205Y-92268384D01*
X185177526Y-92234901D01*
X185235976Y-92236291D01*
X185279932Y-92248070D01*
X185437123Y-92261822D01*
X185499998Y-92267323D01*
X185500000Y-92267323D01*
X185500002Y-92267323D01*
X185555016Y-92262509D01*
X185720068Y-92248070D01*
X185933450Y-92190894D01*
X186133662Y-92097534D01*
X186314620Y-91970826D01*
X186470826Y-91814620D01*
X186597534Y-91633662D01*
X186690894Y-91433450D01*
X186748070Y-91220068D01*
X186767323Y-91000002D01*
X189232677Y-91000002D01*
X189251929Y-91220062D01*
X189251930Y-91220070D01*
X189309104Y-91433445D01*
X189309105Y-91433447D01*
X189309106Y-91433450D01*
X189383654Y-91593319D01*
X189402466Y-91633662D01*
X189402468Y-91633666D01*
X189529170Y-91814615D01*
X189529175Y-91814621D01*
X189685378Y-91970824D01*
X189685384Y-91970829D01*
X189866333Y-92097531D01*
X189866335Y-92097532D01*
X189866338Y-92097534D01*
X190066550Y-92190894D01*
X190279932Y-92248070D01*
X190437123Y-92261822D01*
X190499998Y-92267323D01*
X190500000Y-92267323D01*
X190500002Y-92267323D01*
X190555017Y-92262509D01*
X190720068Y-92248070D01*
X190933450Y-92190894D01*
X191133662Y-92097534D01*
X191301240Y-91980195D01*
X194369840Y-91980195D01*
X194374225Y-92026583D01*
X194374500Y-92032421D01*
X194374500Y-112917255D01*
X194372775Y-112932872D01*
X194373061Y-112932899D01*
X194372326Y-112940666D01*
X194374469Y-113008846D01*
X194374500Y-113010793D01*
X194374500Y-113039343D01*
X194374501Y-113039360D01*
X194375368Y-113046231D01*
X194375826Y-113052050D01*
X194377290Y-113098624D01*
X194377291Y-113098627D01*
X194382880Y-113117867D01*
X194386824Y-113136911D01*
X194389336Y-113156791D01*
X194406490Y-113200119D01*
X194408382Y-113205647D01*
X194421381Y-113250388D01*
X194431580Y-113267634D01*
X194440138Y-113285103D01*
X194447514Y-113303732D01*
X194474898Y-113341423D01*
X194478106Y-113346307D01*
X194501827Y-113386416D01*
X194501833Y-113386424D01*
X194515990Y-113400580D01*
X194528628Y-113415376D01*
X194540405Y-113431586D01*
X194540406Y-113431587D01*
X194576309Y-113461288D01*
X194580620Y-113465210D01*
X195456832Y-114341423D01*
X195731613Y-114616204D01*
X195765098Y-114677527D01*
X195763707Y-114735977D01*
X195751931Y-114779926D01*
X195751930Y-114779933D01*
X195732677Y-114999997D01*
X195732677Y-115000002D01*
X195751929Y-115220062D01*
X195751930Y-115220070D01*
X195809104Y-115433445D01*
X195809105Y-115433447D01*
X195809106Y-115433450D01*
X195902465Y-115633662D01*
X195902466Y-115633662D01*
X195902468Y-115633666D01*
X196029170Y-115814615D01*
X196029175Y-115814621D01*
X196185378Y-115970824D01*
X196185384Y-115970829D01*
X196366333Y-116097531D01*
X196366335Y-116097532D01*
X196366338Y-116097534D01*
X196566550Y-116190894D01*
X196779932Y-116248070D01*
X196937123Y-116261822D01*
X196999998Y-116267323D01*
X197000000Y-116267323D01*
X197000002Y-116267323D01*
X197055017Y-116262509D01*
X197220068Y-116248070D01*
X197433450Y-116190894D01*
X197633662Y-116097534D01*
X197814620Y-115970826D01*
X197970826Y-115814620D01*
X198097534Y-115633662D01*
X198190894Y-115433450D01*
X198248070Y-115220068D01*
X198267323Y-115000002D01*
X200732677Y-115000002D01*
X200751929Y-115220062D01*
X200751930Y-115220070D01*
X200809104Y-115433445D01*
X200809105Y-115433447D01*
X200809106Y-115433450D01*
X200902466Y-115633661D01*
X200902466Y-115633662D01*
X200902468Y-115633666D01*
X201029170Y-115814615D01*
X201029175Y-115814621D01*
X201185378Y-115970824D01*
X201185384Y-115970829D01*
X201366333Y-116097531D01*
X201366335Y-116097532D01*
X201366338Y-116097534D01*
X201566550Y-116190894D01*
X201779932Y-116248070D01*
X201937123Y-116261822D01*
X201999998Y-116267323D01*
X202000000Y-116267323D01*
X202000002Y-116267323D01*
X202055016Y-116262509D01*
X202220068Y-116248070D01*
X202433450Y-116190894D01*
X202633662Y-116097534D01*
X202814620Y-115970826D01*
X202970826Y-115814620D01*
X203097534Y-115633662D01*
X203190894Y-115433450D01*
X203248070Y-115220068D01*
X203267323Y-115000000D01*
X203248070Y-114779932D01*
X203190894Y-114566550D01*
X203097534Y-114366339D01*
X203034180Y-114275859D01*
X202970827Y-114185381D01*
X202903304Y-114117858D01*
X202814620Y-114029174D01*
X202814616Y-114029171D01*
X202814615Y-114029170D01*
X202633666Y-113902468D01*
X202633662Y-113902466D01*
X202633662Y-113902465D01*
X202433450Y-113809106D01*
X202433447Y-113809105D01*
X202433445Y-113809104D01*
X202220070Y-113751930D01*
X202220062Y-113751929D01*
X202000002Y-113732677D01*
X201999998Y-113732677D01*
X201779937Y-113751929D01*
X201779929Y-113751930D01*
X201566554Y-113809104D01*
X201566548Y-113809107D01*
X201366340Y-113902465D01*
X201366338Y-113902466D01*
X201185377Y-114029175D01*
X201029175Y-114185377D01*
X200902466Y-114366338D01*
X200902465Y-114366340D01*
X200809107Y-114566548D01*
X200809104Y-114566554D01*
X200751930Y-114779929D01*
X200751929Y-114779937D01*
X200732677Y-114999997D01*
X200732677Y-115000002D01*
X198267323Y-115000002D01*
X198267323Y-115000000D01*
X198248070Y-114779932D01*
X198190894Y-114566550D01*
X198097534Y-114366339D01*
X198034179Y-114275859D01*
X197970827Y-114185381D01*
X197903304Y-114117858D01*
X197814620Y-114029174D01*
X197814616Y-114029171D01*
X197814615Y-114029170D01*
X197633666Y-113902468D01*
X197633662Y-113902466D01*
X197633662Y-113902465D01*
X197433450Y-113809106D01*
X197433447Y-113809105D01*
X197433445Y-113809104D01*
X197220070Y-113751930D01*
X197220062Y-113751929D01*
X197000002Y-113732677D01*
X196999998Y-113732677D01*
X196874506Y-113743656D01*
X196779932Y-113751930D01*
X196779930Y-113751930D01*
X196779926Y-113751931D01*
X196735977Y-113763707D01*
X196666127Y-113762044D01*
X196616204Y-113731613D01*
X195661819Y-112777227D01*
X195628334Y-112715904D01*
X195625500Y-112689546D01*
X195625500Y-92368289D01*
X195645185Y-92301250D01*
X195697989Y-92255495D01*
X195767147Y-92245551D01*
X195776289Y-92247427D01*
X195779922Y-92248067D01*
X195779932Y-92248070D01*
X195937123Y-92261822D01*
X195999998Y-92267323D01*
X196000000Y-92267323D01*
X196000002Y-92267323D01*
X196055017Y-92262509D01*
X196220068Y-92248070D01*
X196433450Y-92190894D01*
X196633662Y-92097534D01*
X196814620Y-91970826D01*
X196970826Y-91814620D01*
X197097534Y-91633662D01*
X197190894Y-91433450D01*
X197248070Y-91220068D01*
X197267323Y-91000002D01*
X199732677Y-91000002D01*
X199751929Y-91220062D01*
X199751930Y-91220070D01*
X199809104Y-91433445D01*
X199809105Y-91433447D01*
X199809106Y-91433450D01*
X199883654Y-91593319D01*
X199902466Y-91633662D01*
X199902468Y-91633666D01*
X200029170Y-91814615D01*
X200029175Y-91814621D01*
X200185378Y-91970824D01*
X200185384Y-91970829D01*
X200366333Y-92097531D01*
X200366335Y-92097532D01*
X200366338Y-92097534D01*
X200566550Y-92190894D01*
X200779932Y-92248070D01*
X200937123Y-92261822D01*
X200999998Y-92267323D01*
X201000000Y-92267323D01*
X201000002Y-92267323D01*
X201055017Y-92262509D01*
X201220068Y-92248070D01*
X201433450Y-92190894D01*
X201633662Y-92097534D01*
X201814620Y-91970826D01*
X201970826Y-91814620D01*
X202097534Y-91633662D01*
X202190894Y-91433450D01*
X202248070Y-91220068D01*
X202267323Y-91000000D01*
X202248070Y-90779932D01*
X202190894Y-90566550D01*
X202097534Y-90366339D01*
X201970826Y-90185380D01*
X201814620Y-90029174D01*
X201814616Y-90029171D01*
X201814615Y-90029170D01*
X201633666Y-89902468D01*
X201633662Y-89902466D01*
X201633661Y-89902465D01*
X201433450Y-89809106D01*
X201433447Y-89809105D01*
X201433445Y-89809104D01*
X201220070Y-89751930D01*
X201220062Y-89751929D01*
X201000002Y-89732677D01*
X200999998Y-89732677D01*
X200779937Y-89751929D01*
X200779929Y-89751930D01*
X200566554Y-89809104D01*
X200566548Y-89809107D01*
X200366340Y-89902465D01*
X200366338Y-89902466D01*
X200185377Y-90029175D01*
X200029175Y-90185377D01*
X199902466Y-90366338D01*
X199902465Y-90366340D01*
X199809107Y-90566548D01*
X199809104Y-90566554D01*
X199751930Y-90779929D01*
X199751929Y-90779937D01*
X199732677Y-90999997D01*
X199732677Y-91000002D01*
X197267323Y-91000002D01*
X197267323Y-91000000D01*
X197248070Y-90779932D01*
X197190894Y-90566550D01*
X197097534Y-90366339D01*
X196970826Y-90185380D01*
X196814620Y-90029174D01*
X196814616Y-90029171D01*
X196814615Y-90029170D01*
X196633666Y-89902468D01*
X196633662Y-89902466D01*
X196633660Y-89902465D01*
X196433450Y-89809106D01*
X196433447Y-89809105D01*
X196433445Y-89809104D01*
X196220070Y-89751930D01*
X196220062Y-89751929D01*
X196000002Y-89732677D01*
X195999998Y-89732677D01*
X195779937Y-89751929D01*
X195779929Y-89751930D01*
X195566554Y-89809104D01*
X195566548Y-89809107D01*
X195366340Y-89902465D01*
X195366338Y-89902466D01*
X195185377Y-90029175D01*
X195029175Y-90185377D01*
X194902466Y-90366338D01*
X194902465Y-90366340D01*
X194809107Y-90566548D01*
X194809104Y-90566554D01*
X194751930Y-90779929D01*
X194751929Y-90779937D01*
X194732677Y-90999997D01*
X194732677Y-91000000D01*
X194751929Y-91220062D01*
X194751930Y-91220066D01*
X194751930Y-91220067D01*
X194763707Y-91264019D01*
X194762044Y-91333869D01*
X194731613Y-91383794D01*
X194616208Y-91499199D01*
X194603951Y-91509020D01*
X194604134Y-91509241D01*
X194598122Y-91514214D01*
X194551432Y-91563932D01*
X194550079Y-91565329D01*
X194529889Y-91585519D01*
X194529877Y-91585532D01*
X194525621Y-91591017D01*
X194521837Y-91595447D01*
X194489937Y-91629418D01*
X194489936Y-91629420D01*
X194480284Y-91646976D01*
X194469610Y-91663226D01*
X194457329Y-91679061D01*
X194457324Y-91679068D01*
X194438815Y-91721838D01*
X194436245Y-91727084D01*
X194413803Y-91767906D01*
X194408822Y-91787307D01*
X194402521Y-91805710D01*
X194394562Y-91824102D01*
X194394561Y-91824105D01*
X194387271Y-91870127D01*
X194386087Y-91875846D01*
X194374501Y-91920972D01*
X194374499Y-91920984D01*
X194374499Y-91941020D01*
X194372973Y-91960411D01*
X194369840Y-91980194D01*
X194369840Y-91980195D01*
X191301240Y-91980195D01*
X191314620Y-91970826D01*
X191470826Y-91814620D01*
X191597534Y-91633662D01*
X191690894Y-91433450D01*
X191748070Y-91220068D01*
X191767323Y-91000000D01*
X191748070Y-90779932D01*
X191690894Y-90566550D01*
X191597534Y-90366339D01*
X191470826Y-90185380D01*
X191314620Y-90029174D01*
X191314616Y-90029171D01*
X191314615Y-90029170D01*
X191133666Y-89902468D01*
X191133662Y-89902466D01*
X191133660Y-89902465D01*
X190933450Y-89809106D01*
X190933447Y-89809105D01*
X190933445Y-89809104D01*
X190720070Y-89751930D01*
X190720062Y-89751929D01*
X190500002Y-89732677D01*
X190499998Y-89732677D01*
X190279937Y-89751929D01*
X190279929Y-89751930D01*
X190066554Y-89809104D01*
X190066548Y-89809107D01*
X189866340Y-89902465D01*
X189866338Y-89902466D01*
X189685377Y-90029175D01*
X189529175Y-90185377D01*
X189402466Y-90366338D01*
X189402465Y-90366340D01*
X189309107Y-90566548D01*
X189309104Y-90566554D01*
X189251930Y-90779929D01*
X189251929Y-90779937D01*
X189232677Y-90999997D01*
X189232677Y-91000002D01*
X186767323Y-91000002D01*
X186767323Y-91000000D01*
X186748070Y-90779932D01*
X186690894Y-90566550D01*
X186597534Y-90366339D01*
X186470826Y-90185380D01*
X186314620Y-90029174D01*
X186314616Y-90029171D01*
X186314615Y-90029170D01*
X186133666Y-89902468D01*
X186133662Y-89902466D01*
X186133660Y-89902465D01*
X185933450Y-89809106D01*
X185933447Y-89809105D01*
X185933445Y-89809104D01*
X185720070Y-89751930D01*
X185720062Y-89751929D01*
X185500002Y-89732677D01*
X185499998Y-89732677D01*
X185279937Y-89751929D01*
X185279929Y-89751930D01*
X185066554Y-89809104D01*
X185066548Y-89809107D01*
X184866340Y-89902465D01*
X184866338Y-89902466D01*
X184685377Y-90029175D01*
X184529175Y-90185377D01*
X184402466Y-90366338D01*
X184402465Y-90366340D01*
X184309107Y-90566548D01*
X184309104Y-90566554D01*
X184251930Y-90779929D01*
X184251929Y-90779937D01*
X184232677Y-90999997D01*
X184232677Y-91000000D01*
X184251929Y-91220062D01*
X184251930Y-91220066D01*
X184251930Y-91220067D01*
X184263707Y-91264019D01*
X184262044Y-91333869D01*
X184231613Y-91383794D01*
X183616208Y-91999199D01*
X183603951Y-92009020D01*
X183604134Y-92009241D01*
X183598122Y-92014214D01*
X183551432Y-92063932D01*
X183550079Y-92065329D01*
X183529889Y-92085519D01*
X183529877Y-92085532D01*
X183525621Y-92091017D01*
X183521837Y-92095447D01*
X183489937Y-92129418D01*
X183489936Y-92129420D01*
X183480284Y-92146976D01*
X183469610Y-92163226D01*
X183457329Y-92179061D01*
X183457324Y-92179068D01*
X183438815Y-92221838D01*
X183436245Y-92227084D01*
X183413803Y-92267906D01*
X183408822Y-92287307D01*
X183402521Y-92305710D01*
X183394562Y-92324102D01*
X183394561Y-92324105D01*
X183387271Y-92370127D01*
X183386087Y-92375846D01*
X183374501Y-92420972D01*
X183374499Y-92420984D01*
X183374499Y-92441020D01*
X183372973Y-92460411D01*
X183369840Y-92480194D01*
X183369840Y-92480195D01*
X174404394Y-92480195D01*
X174616205Y-92268384D01*
X174677526Y-92234901D01*
X174735976Y-92236291D01*
X174779932Y-92248070D01*
X174937123Y-92261822D01*
X174999998Y-92267323D01*
X175000000Y-92267323D01*
X175000002Y-92267323D01*
X175055017Y-92262509D01*
X175220068Y-92248070D01*
X175433450Y-92190894D01*
X175633662Y-92097534D01*
X175814620Y-91970826D01*
X175970826Y-91814620D01*
X176097534Y-91633662D01*
X176190894Y-91433450D01*
X176248070Y-91220068D01*
X176267323Y-91000002D01*
X178732677Y-91000002D01*
X178751929Y-91220062D01*
X178751930Y-91220070D01*
X178809104Y-91433445D01*
X178809105Y-91433447D01*
X178809106Y-91433450D01*
X178883654Y-91593319D01*
X178902466Y-91633662D01*
X178902468Y-91633666D01*
X179029170Y-91814615D01*
X179029175Y-91814621D01*
X179185378Y-91970824D01*
X179185384Y-91970829D01*
X179366333Y-92097531D01*
X179366335Y-92097532D01*
X179366338Y-92097534D01*
X179566550Y-92190894D01*
X179779932Y-92248070D01*
X179937123Y-92261822D01*
X179999998Y-92267323D01*
X180000000Y-92267323D01*
X180000002Y-92267323D01*
X180055017Y-92262509D01*
X180220068Y-92248070D01*
X180433450Y-92190894D01*
X180633662Y-92097534D01*
X180814620Y-91970826D01*
X180970826Y-91814620D01*
X181097534Y-91633662D01*
X181190894Y-91433450D01*
X181248070Y-91220068D01*
X181267323Y-91000000D01*
X181248070Y-90779932D01*
X181190894Y-90566550D01*
X181097534Y-90366339D01*
X180970826Y-90185380D01*
X180814620Y-90029174D01*
X180814616Y-90029171D01*
X180814615Y-90029170D01*
X180633666Y-89902468D01*
X180633662Y-89902466D01*
X180633661Y-89902465D01*
X180433450Y-89809106D01*
X180433447Y-89809105D01*
X180433445Y-89809104D01*
X180220070Y-89751930D01*
X180220062Y-89751929D01*
X180000002Y-89732677D01*
X179999998Y-89732677D01*
X179779937Y-89751929D01*
X179779929Y-89751930D01*
X179566554Y-89809104D01*
X179566548Y-89809107D01*
X179366340Y-89902465D01*
X179366338Y-89902466D01*
X179185377Y-90029175D01*
X179029175Y-90185377D01*
X178902466Y-90366338D01*
X178902465Y-90366340D01*
X178809107Y-90566548D01*
X178809104Y-90566554D01*
X178751930Y-90779929D01*
X178751929Y-90779937D01*
X178732677Y-90999997D01*
X178732677Y-91000002D01*
X176267323Y-91000002D01*
X176267323Y-91000000D01*
X176248070Y-90779932D01*
X176190894Y-90566550D01*
X176097534Y-90366339D01*
X175970826Y-90185380D01*
X175814620Y-90029174D01*
X175814616Y-90029171D01*
X175814615Y-90029170D01*
X175633666Y-89902468D01*
X175633662Y-89902466D01*
X175633662Y-89902465D01*
X175433450Y-89809106D01*
X175433447Y-89809105D01*
X175433445Y-89809104D01*
X175220070Y-89751930D01*
X175220062Y-89751929D01*
X175000002Y-89732677D01*
X174999998Y-89732677D01*
X174779937Y-89751929D01*
X174779929Y-89751930D01*
X174566554Y-89809104D01*
X174566548Y-89809107D01*
X174366340Y-89902465D01*
X174366338Y-89902466D01*
X174185377Y-90029175D01*
X174029175Y-90185377D01*
X173902466Y-90366338D01*
X173902465Y-90366340D01*
X173809107Y-90566548D01*
X173809104Y-90566554D01*
X173751930Y-90779929D01*
X173751929Y-90779937D01*
X173732677Y-90999997D01*
X173732677Y-91000000D01*
X173751929Y-91220062D01*
X173751930Y-91220066D01*
X173751930Y-91220067D01*
X173763707Y-91264019D01*
X173762044Y-91333869D01*
X173731613Y-91383794D01*
X172616208Y-92499199D01*
X172603951Y-92509020D01*
X172604134Y-92509241D01*
X172598122Y-92514214D01*
X172551432Y-92563932D01*
X172550079Y-92565329D01*
X172529889Y-92585519D01*
X172529877Y-92585532D01*
X172525621Y-92591017D01*
X172521837Y-92595447D01*
X172489937Y-92629418D01*
X172489936Y-92629420D01*
X172480284Y-92646976D01*
X172469610Y-92663226D01*
X172457329Y-92679061D01*
X172457324Y-92679068D01*
X172438815Y-92721838D01*
X172436245Y-92727084D01*
X172413803Y-92767906D01*
X172408822Y-92787307D01*
X172402521Y-92805710D01*
X172394562Y-92824102D01*
X172394561Y-92824106D01*
X172387271Y-92870127D01*
X172386087Y-92875846D01*
X172374499Y-92920983D01*
X172374499Y-92941019D01*
X172372973Y-92960407D01*
X172369840Y-92980192D01*
X172369840Y-92980195D01*
X154625500Y-92980195D01*
X154625500Y-92368289D01*
X154645185Y-92301250D01*
X154697989Y-92255495D01*
X154767147Y-92245551D01*
X154776289Y-92247427D01*
X154779922Y-92248067D01*
X154779932Y-92248070D01*
X154937123Y-92261822D01*
X154999998Y-92267323D01*
X155000000Y-92267323D01*
X155000002Y-92267323D01*
X155055017Y-92262509D01*
X155220068Y-92248070D01*
X155433450Y-92190894D01*
X155633662Y-92097534D01*
X155814620Y-91970826D01*
X155970826Y-91814620D01*
X156097534Y-91633662D01*
X156190894Y-91433450D01*
X156248070Y-91220068D01*
X156267323Y-91000002D01*
X158732677Y-91000002D01*
X158751929Y-91220062D01*
X158751930Y-91220070D01*
X158809104Y-91433445D01*
X158809105Y-91433447D01*
X158809106Y-91433450D01*
X158883654Y-91593319D01*
X158902466Y-91633662D01*
X158902468Y-91633666D01*
X159029170Y-91814615D01*
X159029175Y-91814621D01*
X159185378Y-91970824D01*
X159185384Y-91970829D01*
X159366333Y-92097531D01*
X159366335Y-92097532D01*
X159366338Y-92097534D01*
X159566550Y-92190894D01*
X159779932Y-92248070D01*
X159937123Y-92261822D01*
X159999998Y-92267323D01*
X160000000Y-92267323D01*
X160000002Y-92267323D01*
X160055017Y-92262509D01*
X160220068Y-92248070D01*
X160433450Y-92190894D01*
X160633662Y-92097534D01*
X160814620Y-91970826D01*
X160970826Y-91814620D01*
X161097534Y-91633662D01*
X161190894Y-91433450D01*
X161248070Y-91220068D01*
X161267323Y-91000000D01*
X161248070Y-90779932D01*
X161190894Y-90566550D01*
X161097534Y-90366339D01*
X160970826Y-90185380D01*
X160814620Y-90029174D01*
X160814616Y-90029171D01*
X160814615Y-90029170D01*
X160633666Y-89902468D01*
X160633662Y-89902466D01*
X160633662Y-89902465D01*
X160433450Y-89809106D01*
X160433447Y-89809105D01*
X160433445Y-89809104D01*
X160220070Y-89751930D01*
X160220062Y-89751929D01*
X160000002Y-89732677D01*
X159999998Y-89732677D01*
X159779937Y-89751929D01*
X159779929Y-89751930D01*
X159566554Y-89809104D01*
X159566548Y-89809107D01*
X159366340Y-89902465D01*
X159366338Y-89902466D01*
X159185377Y-90029175D01*
X159029175Y-90185377D01*
X158902466Y-90366338D01*
X158902465Y-90366340D01*
X158809107Y-90566548D01*
X158809104Y-90566554D01*
X158751930Y-90779929D01*
X158751929Y-90779937D01*
X158732677Y-90999997D01*
X158732677Y-91000002D01*
X156267323Y-91000002D01*
X156267323Y-91000000D01*
X156248070Y-90779932D01*
X156190894Y-90566550D01*
X156097534Y-90366339D01*
X155970826Y-90185380D01*
X155814620Y-90029174D01*
X155814616Y-90029171D01*
X155814615Y-90029170D01*
X155633666Y-89902468D01*
X155633662Y-89902466D01*
X155633662Y-89902465D01*
X155433450Y-89809106D01*
X155433447Y-89809105D01*
X155433445Y-89809104D01*
X155220070Y-89751930D01*
X155220062Y-89751929D01*
X155000002Y-89732677D01*
X154999998Y-89732677D01*
X154779937Y-89751929D01*
X154779929Y-89751930D01*
X154566554Y-89809104D01*
X154566548Y-89809107D01*
X154366340Y-89902465D01*
X154366338Y-89902466D01*
X154185377Y-90029175D01*
X154029175Y-90185377D01*
X153902466Y-90366338D01*
X153902465Y-90366340D01*
X153809107Y-90566548D01*
X153809104Y-90566554D01*
X153751930Y-90779929D01*
X153751929Y-90779937D01*
X153732677Y-90999997D01*
X153732677Y-91000000D01*
X153751929Y-91220062D01*
X153751930Y-91220066D01*
X153751930Y-91220067D01*
X153763707Y-91264019D01*
X153762044Y-91333869D01*
X153731613Y-91383794D01*
X153616208Y-91499199D01*
X153603951Y-91509020D01*
X153604134Y-91509241D01*
X153598122Y-91514214D01*
X153551432Y-91563932D01*
X153550079Y-91565329D01*
X153529889Y-91585519D01*
X153529877Y-91585532D01*
X153525621Y-91591017D01*
X153521837Y-91595447D01*
X153489937Y-91629418D01*
X153489936Y-91629420D01*
X153480284Y-91646976D01*
X153469610Y-91663226D01*
X153457329Y-91679061D01*
X153457324Y-91679068D01*
X153438815Y-91721838D01*
X153436245Y-91727084D01*
X153413803Y-91767906D01*
X153408822Y-91787307D01*
X153402521Y-91805710D01*
X153394562Y-91824102D01*
X153394561Y-91824105D01*
X153387271Y-91870127D01*
X153386087Y-91875846D01*
X153374501Y-91920972D01*
X153374500Y-91920982D01*
X153374500Y-91941016D01*
X153372973Y-91960415D01*
X153369840Y-91980194D01*
X153369840Y-91980195D01*
X150801240Y-91980195D01*
X150814620Y-91970826D01*
X150970826Y-91814620D01*
X151097534Y-91633662D01*
X151190894Y-91433450D01*
X151248070Y-91220068D01*
X151267323Y-91000000D01*
X151248070Y-90779932D01*
X151190894Y-90566550D01*
X151097534Y-90366339D01*
X150970826Y-90185380D01*
X150814620Y-90029174D01*
X150814616Y-90029171D01*
X150814615Y-90029170D01*
X150633666Y-89902468D01*
X150633662Y-89902466D01*
X150633662Y-89902465D01*
X150433450Y-89809106D01*
X150433447Y-89809105D01*
X150433445Y-89809104D01*
X150220070Y-89751930D01*
X150220062Y-89751929D01*
X150000002Y-89732677D01*
X149999998Y-89732677D01*
X149779937Y-89751929D01*
X149779929Y-89751930D01*
X149566554Y-89809104D01*
X149566548Y-89809107D01*
X149366340Y-89902465D01*
X149366338Y-89902466D01*
X149185377Y-90029175D01*
X149029175Y-90185377D01*
X148902466Y-90366338D01*
X148902465Y-90366340D01*
X148809107Y-90566548D01*
X148809104Y-90566554D01*
X148751930Y-90779929D01*
X148751929Y-90779937D01*
X148732677Y-90999997D01*
X148732677Y-91000002D01*
X146267323Y-91000002D01*
X146267323Y-91000000D01*
X146248070Y-90779932D01*
X146190894Y-90566550D01*
X146097534Y-90366339D01*
X145970826Y-90185380D01*
X145814620Y-90029174D01*
X145814616Y-90029171D01*
X145814615Y-90029170D01*
X145633666Y-89902468D01*
X145633662Y-89902466D01*
X145633662Y-89902465D01*
X145433450Y-89809106D01*
X145433447Y-89809105D01*
X145433445Y-89809104D01*
X145220070Y-89751930D01*
X145220062Y-89751929D01*
X145000002Y-89732677D01*
X144999998Y-89732677D01*
X144779937Y-89751929D01*
X144779929Y-89751930D01*
X144566554Y-89809104D01*
X144566548Y-89809107D01*
X144366340Y-89902465D01*
X144366338Y-89902466D01*
X144185377Y-90029175D01*
X144029175Y-90185377D01*
X143902466Y-90366338D01*
X143902465Y-90366340D01*
X143809107Y-90566548D01*
X143809104Y-90566554D01*
X143751930Y-90779929D01*
X143751929Y-90779937D01*
X143732677Y-90999997D01*
X143732677Y-91000000D01*
X143751929Y-91220062D01*
X143751930Y-91220066D01*
X143751930Y-91220067D01*
X143763707Y-91264019D01*
X143762044Y-91333869D01*
X143731613Y-91383794D01*
X143616208Y-91499199D01*
X143603951Y-91509020D01*
X143604134Y-91509241D01*
X143598122Y-91514214D01*
X143551432Y-91563932D01*
X143550079Y-91565329D01*
X143529889Y-91585519D01*
X143529877Y-91585532D01*
X143525621Y-91591017D01*
X143521837Y-91595447D01*
X143489937Y-91629418D01*
X143489936Y-91629420D01*
X143480284Y-91646976D01*
X143469610Y-91663226D01*
X143457329Y-91679061D01*
X143457324Y-91679068D01*
X143438815Y-91721838D01*
X143436245Y-91727084D01*
X143413803Y-91767906D01*
X143408822Y-91787307D01*
X143402521Y-91805710D01*
X143394562Y-91824102D01*
X143394561Y-91824105D01*
X143387271Y-91870127D01*
X143386087Y-91875846D01*
X143374501Y-91920972D01*
X143374500Y-91920982D01*
X143374500Y-91941016D01*
X143372973Y-91960415D01*
X143369840Y-91980194D01*
X143369840Y-91980195D01*
X140801240Y-91980195D01*
X140814620Y-91970826D01*
X140970826Y-91814620D01*
X141097534Y-91633662D01*
X141190894Y-91433450D01*
X141248070Y-91220068D01*
X141267323Y-91000000D01*
X141248070Y-90779932D01*
X141190894Y-90566550D01*
X141097534Y-90366339D01*
X140970826Y-90185380D01*
X140814620Y-90029174D01*
X140814616Y-90029171D01*
X140814615Y-90029170D01*
X140633666Y-89902468D01*
X140633662Y-89902466D01*
X140633662Y-89902465D01*
X140433450Y-89809106D01*
X140433447Y-89809105D01*
X140433445Y-89809104D01*
X140220070Y-89751930D01*
X140220062Y-89751929D01*
X140000002Y-89732677D01*
X139999998Y-89732677D01*
X139779937Y-89751929D01*
X139779929Y-89751930D01*
X139566554Y-89809104D01*
X139566548Y-89809107D01*
X139366340Y-89902465D01*
X139366338Y-89902466D01*
X139185377Y-90029175D01*
X139029175Y-90185377D01*
X138902466Y-90366338D01*
X138902465Y-90366340D01*
X138809107Y-90566548D01*
X138809104Y-90566554D01*
X138751930Y-90779929D01*
X138751929Y-90779937D01*
X138732677Y-90999997D01*
X138732677Y-91000002D01*
X136267323Y-91000002D01*
X136267323Y-91000000D01*
X136248070Y-90779932D01*
X136190894Y-90566550D01*
X136097534Y-90366339D01*
X135970826Y-90185380D01*
X135814620Y-90029174D01*
X135814616Y-90029171D01*
X135814615Y-90029170D01*
X135633666Y-89902468D01*
X135633662Y-89902466D01*
X135633662Y-89902465D01*
X135433450Y-89809106D01*
X135433447Y-89809105D01*
X135433445Y-89809104D01*
X135220070Y-89751930D01*
X135220062Y-89751929D01*
X135000002Y-89732677D01*
X134999998Y-89732677D01*
X134779937Y-89751929D01*
X134779929Y-89751930D01*
X134566554Y-89809104D01*
X134566548Y-89809107D01*
X134366340Y-89902465D01*
X134366338Y-89902466D01*
X134185377Y-90029175D01*
X134029175Y-90185377D01*
X133902466Y-90366338D01*
X133902465Y-90366340D01*
X133809107Y-90566548D01*
X133809104Y-90566554D01*
X133751930Y-90779929D01*
X133751929Y-90779937D01*
X133732677Y-90999997D01*
X133732677Y-91000000D01*
X133751929Y-91220062D01*
X133751930Y-91220066D01*
X133751930Y-91220067D01*
X133763707Y-91264019D01*
X133762044Y-91333869D01*
X133731613Y-91383794D01*
X133616208Y-91499199D01*
X133603951Y-91509020D01*
X133604134Y-91509241D01*
X133598122Y-91514214D01*
X133551432Y-91563932D01*
X133550079Y-91565329D01*
X133529889Y-91585519D01*
X133529877Y-91585532D01*
X133525621Y-91591017D01*
X133521837Y-91595447D01*
X133489937Y-91629418D01*
X133489936Y-91629420D01*
X133480284Y-91646976D01*
X133469610Y-91663226D01*
X133457329Y-91679061D01*
X133457324Y-91679068D01*
X133438815Y-91721838D01*
X133436245Y-91727084D01*
X133413803Y-91767906D01*
X133408822Y-91787307D01*
X133402521Y-91805710D01*
X133394562Y-91824102D01*
X133394561Y-91824105D01*
X133387271Y-91870127D01*
X133386087Y-91875846D01*
X133374501Y-91920972D01*
X133374500Y-91920982D01*
X133374500Y-91941016D01*
X133372973Y-91960415D01*
X133369840Y-91980194D01*
X133369840Y-91980195D01*
X133374225Y-92026583D01*
X133374500Y-92032421D01*
X133374500Y-114398821D01*
X133362882Y-114451225D01*
X133309108Y-114566543D01*
X133309104Y-114566554D01*
X133251930Y-114779929D01*
X133251929Y-114779937D01*
X133232677Y-114999997D01*
X133232677Y-115000002D01*
X129000500Y-115000002D01*
X129000500Y-80785000D01*
X160665073Y-80785000D01*
X160684737Y-80997216D01*
X160684738Y-80997219D01*
X160743058Y-81202196D01*
X160743066Y-81202216D01*
X160838060Y-81392990D01*
X160846834Y-81404609D01*
X160846835Y-81404609D01*
X161466446Y-80785000D01*
X161466446Y-80784999D01*
X160846835Y-80165389D01*
X160838056Y-80177015D01*
X160743066Y-80367783D01*
X160743058Y-80367803D01*
X160684738Y-80572780D01*
X160684737Y-80572783D01*
X160665073Y-80784999D01*
X160665073Y-80785000D01*
X129000500Y-80785000D01*
X129000500Y-79005000D01*
X160664571Y-79005000D01*
X160684244Y-79217310D01*
X160715486Y-79327114D01*
X160742596Y-79422392D01*
X160742596Y-79422394D01*
X160837632Y-79613253D01*
X160966127Y-79783406D01*
X160966128Y-79783407D01*
X161123698Y-79927052D01*
X161304981Y-80039298D01*
X161481163Y-80107550D01*
X161524049Y-80135496D01*
X161823553Y-80435000D01*
X161790995Y-80435000D01*
X161704784Y-80449386D01*
X161602053Y-80504981D01*
X161522940Y-80590921D01*
X161476018Y-80697892D01*
X161466372Y-80814302D01*
X161495047Y-80927538D01*
X161558936Y-81025327D01*
X161651115Y-81097072D01*
X161761595Y-81135000D01*
X161823551Y-81135000D01*
X161202991Y-81755560D01*
X161202992Y-81755561D01*
X161305201Y-81818845D01*
X161305210Y-81818850D01*
X161503936Y-81895836D01*
X161503941Y-81895837D01*
X161713439Y-81935000D01*
X161926561Y-81935000D01*
X162136058Y-81895837D01*
X162136063Y-81895836D01*
X162334789Y-81818850D01*
X162334798Y-81818846D01*
X162515995Y-81706654D01*
X162516957Y-81705778D01*
X162517520Y-81705503D01*
X162520573Y-81703198D01*
X162521023Y-81703795D01*
X162579760Y-81675158D01*
X162649147Y-81683352D01*
X162703090Y-81727759D01*
X162724460Y-81794280D01*
X162724500Y-81797411D01*
X162724500Y-82912967D01*
X162724416Y-82913389D01*
X162724459Y-82937501D01*
X162724544Y-82937706D01*
X162724616Y-82937882D01*
X162724618Y-82937884D01*
X162724808Y-82937962D01*
X162725000Y-82938041D01*
X162725002Y-82938039D01*
X162749616Y-82938024D01*
X162749616Y-82938028D01*
X162749760Y-82938000D01*
X171590240Y-82938000D01*
X171590383Y-82938028D01*
X171590384Y-82938024D01*
X171614997Y-82938039D01*
X171615000Y-82938041D01*
X171615383Y-82937883D01*
X171615500Y-82937599D01*
X171615541Y-82937500D01*
X171615540Y-82937497D01*
X171615583Y-82913389D01*
X171615500Y-82912967D01*
X171615500Y-82688087D01*
X171635185Y-82621048D01*
X171687989Y-82575293D01*
X171757147Y-82565349D01*
X171819093Y-82593638D01*
X171819124Y-82593598D01*
X171819307Y-82593736D01*
X171820703Y-82594374D01*
X171823013Y-82596428D01*
X171823698Y-82597052D01*
X172004981Y-82709298D01*
X172203802Y-82786321D01*
X172413390Y-82825500D01*
X172413392Y-82825500D01*
X172626608Y-82825500D01*
X172626610Y-82825500D01*
X172836198Y-82786321D01*
X173035019Y-82709298D01*
X173216302Y-82597052D01*
X173373872Y-82453407D01*
X173502366Y-82283255D01*
X173549668Y-82188259D01*
X173597403Y-82092394D01*
X173597403Y-82092393D01*
X173597405Y-82092389D01*
X173623692Y-82000000D01*
X175094540Y-82000000D01*
X175114326Y-82188256D01*
X175114327Y-82188259D01*
X175172818Y-82368277D01*
X175172821Y-82368284D01*
X175267467Y-82532216D01*
X175388401Y-82666526D01*
X175394129Y-82672888D01*
X175547265Y-82784148D01*
X175547270Y-82784151D01*
X175720192Y-82861142D01*
X175720197Y-82861144D01*
X175905354Y-82900500D01*
X175905355Y-82900500D01*
X176094644Y-82900500D01*
X176094646Y-82900500D01*
X176279803Y-82861144D01*
X176452730Y-82784151D01*
X176605871Y-82672888D01*
X176608788Y-82669647D01*
X176611600Y-82666526D01*
X176671087Y-82629879D01*
X176703748Y-82625500D01*
X178553653Y-82625500D01*
X178569273Y-82627224D01*
X178569300Y-82626939D01*
X178577062Y-82627673D01*
X178577062Y-82627672D01*
X178577063Y-82627673D01*
X178580395Y-82627568D01*
X178645243Y-82625531D01*
X178647190Y-82625500D01*
X178675743Y-82625500D01*
X178675746Y-82625500D01*
X178682624Y-82624630D01*
X178688437Y-82624172D01*
X178735023Y-82622709D01*
X178754265Y-82617117D01*
X178773308Y-82613174D01*
X178793188Y-82610664D01*
X178836518Y-82593507D01*
X178842042Y-82591617D01*
X178845792Y-82590527D01*
X178886786Y-82578618D01*
X178904025Y-82568422D01*
X178921499Y-82559862D01*
X178940123Y-82552488D01*
X178940123Y-82552487D01*
X178940128Y-82552486D01*
X178977845Y-82525082D01*
X178982701Y-82521892D01*
X179022816Y-82498170D01*
X179036985Y-82483999D01*
X179051775Y-82471368D01*
X179067983Y-82459594D01*
X179097695Y-82423676D01*
X179101608Y-82419376D01*
X193383786Y-68137198D01*
X193396048Y-68127376D01*
X193395865Y-68127155D01*
X193401873Y-68122184D01*
X193401877Y-68122182D01*
X193448649Y-68072373D01*
X193449891Y-68071093D01*
X193470120Y-68050866D01*
X193474373Y-68045382D01*
X193478150Y-68040959D01*
X193510062Y-68006978D01*
X193519714Y-67989419D01*
X193530389Y-67973168D01*
X193542674Y-67957332D01*
X193561186Y-67914548D01*
X193563742Y-67909331D01*
X193586197Y-67868488D01*
X193591180Y-67849076D01*
X193597477Y-67830687D01*
X193605438Y-67812291D01*
X193612729Y-67766249D01*
X193613908Y-67760558D01*
X193625500Y-67715415D01*
X193625500Y-67695370D01*
X193627025Y-67675987D01*
X193630160Y-67656200D01*
X193627846Y-67631716D01*
X193625775Y-67609811D01*
X193625500Y-67603973D01*
X193625500Y-56082737D01*
X193627224Y-56067123D01*
X193626938Y-56067096D01*
X193627672Y-56059333D01*
X193625531Y-55991171D01*
X193625500Y-55989224D01*
X193625500Y-55960651D01*
X193625500Y-55960650D01*
X193624629Y-55953759D01*
X193624172Y-55947945D01*
X193622709Y-55901372D01*
X193617122Y-55882144D01*
X193613174Y-55863084D01*
X193610664Y-55843208D01*
X193593507Y-55799875D01*
X193591619Y-55794359D01*
X193578619Y-55749612D01*
X193568418Y-55732363D01*
X193559860Y-55714894D01*
X193552486Y-55696268D01*
X193552483Y-55696264D01*
X193552483Y-55696263D01*
X193525098Y-55658571D01*
X193521890Y-55653687D01*
X193498172Y-55613582D01*
X193498163Y-55613571D01*
X193484005Y-55599413D01*
X193471370Y-55584620D01*
X193459593Y-55568412D01*
X193423693Y-55538713D01*
X193419381Y-55534790D01*
X189500803Y-51616211D01*
X189490980Y-51603950D01*
X189490759Y-51604134D01*
X189485786Y-51598122D01*
X189436066Y-51551432D01*
X189434666Y-51550075D01*
X189414476Y-51529884D01*
X189408986Y-51525625D01*
X189404561Y-51521847D01*
X189370582Y-51489938D01*
X189370580Y-51489936D01*
X189370577Y-51489935D01*
X189353029Y-51480288D01*
X189336763Y-51469604D01*
X189320933Y-51457325D01*
X189278168Y-51438818D01*
X189272922Y-51436248D01*
X189232093Y-51413803D01*
X189232092Y-51413802D01*
X189212693Y-51408822D01*
X189194281Y-51402518D01*
X189175898Y-51394562D01*
X189175892Y-51394560D01*
X189129874Y-51387272D01*
X189124152Y-51386087D01*
X189079021Y-51374500D01*
X189079019Y-51374500D01*
X189058984Y-51374500D01*
X189039586Y-51372973D01*
X189032162Y-51371797D01*
X189019805Y-51369840D01*
X189019804Y-51369840D01*
X188973416Y-51374225D01*
X188967578Y-51374500D01*
X186703748Y-51374500D01*
X186636709Y-51354815D01*
X186611600Y-51333474D01*
X186605873Y-51327114D01*
X186605869Y-51327110D01*
X186452734Y-51215851D01*
X186452729Y-51215848D01*
X186279807Y-51138857D01*
X186279802Y-51138855D01*
X186134001Y-51107865D01*
X186094646Y-51099500D01*
X185905354Y-51099500D01*
X185878081Y-51105297D01*
X185720197Y-51138855D01*
X185720192Y-51138857D01*
X185547270Y-51215848D01*
X185547265Y-51215851D01*
X185394129Y-51327111D01*
X185267466Y-51467785D01*
X185172821Y-51631715D01*
X185172818Y-51631722D01*
X185124532Y-51780332D01*
X185114326Y-51811744D01*
X185094540Y-52000000D01*
X185114326Y-52188256D01*
X185114327Y-52188259D01*
X185172818Y-52368277D01*
X185172821Y-52368284D01*
X185267467Y-52532216D01*
X185369185Y-52645185D01*
X185394129Y-52672888D01*
X185547265Y-52784148D01*
X185547270Y-52784151D01*
X185720192Y-52861142D01*
X185720197Y-52861144D01*
X185905354Y-52900500D01*
X185905355Y-52900500D01*
X186094644Y-52900500D01*
X186094646Y-52900500D01*
X186279803Y-52861144D01*
X186452730Y-52784151D01*
X186605871Y-52672888D01*
X186608788Y-52669647D01*
X186611600Y-52666526D01*
X186671087Y-52629879D01*
X186703748Y-52625500D01*
X188689548Y-52625500D01*
X188756587Y-52645185D01*
X188777229Y-52661819D01*
X192338181Y-56222771D01*
X192371666Y-56284094D01*
X192374500Y-56310452D01*
X192374500Y-61165242D01*
X192354815Y-61232281D01*
X192302011Y-61278036D01*
X192232853Y-61287980D01*
X192169297Y-61258955D01*
X192162819Y-61252923D01*
X190526108Y-59616212D01*
X190516285Y-59603950D01*
X190516064Y-59604134D01*
X190511091Y-59598122D01*
X190461371Y-59551432D01*
X190459971Y-59550075D01*
X190439781Y-59529884D01*
X190434291Y-59525625D01*
X190429866Y-59521847D01*
X190395887Y-59489938D01*
X190395885Y-59489936D01*
X190395882Y-59489935D01*
X190378334Y-59480288D01*
X190362068Y-59469604D01*
X190346238Y-59457325D01*
X190303473Y-59438818D01*
X190298227Y-59436248D01*
X190257398Y-59413803D01*
X190257397Y-59413802D01*
X190237998Y-59408822D01*
X190219586Y-59402518D01*
X190201203Y-59394562D01*
X190201197Y-59394560D01*
X190155179Y-59387272D01*
X190149457Y-59386087D01*
X190104326Y-59374500D01*
X190104324Y-59374500D01*
X190084289Y-59374500D01*
X190064891Y-59372973D01*
X190056638Y-59371666D01*
X190045110Y-59369840D01*
X190045109Y-59369840D01*
X189998721Y-59374225D01*
X189992883Y-59374500D01*
X188703748Y-59374500D01*
X188636709Y-59354815D01*
X188611600Y-59333474D01*
X188605873Y-59327114D01*
X188605869Y-59327110D01*
X188452734Y-59215851D01*
X188452729Y-59215848D01*
X188279807Y-59138857D01*
X188279802Y-59138855D01*
X188134000Y-59107865D01*
X188094646Y-59099500D01*
X187905354Y-59099500D01*
X187872897Y-59106398D01*
X187720197Y-59138855D01*
X187720192Y-59138857D01*
X187547270Y-59215848D01*
X187547265Y-59215851D01*
X187394129Y-59327111D01*
X187267466Y-59467785D01*
X187172821Y-59631715D01*
X187172818Y-59631722D01*
X187114327Y-59811740D01*
X187114326Y-59811744D01*
X187094540Y-60000000D01*
X187114326Y-60188256D01*
X187114327Y-60188259D01*
X187172818Y-60368277D01*
X187172821Y-60368284D01*
X187267467Y-60532216D01*
X187357060Y-60631719D01*
X187394129Y-60672888D01*
X187547265Y-60784148D01*
X187547270Y-60784151D01*
X187720192Y-60861142D01*
X187720197Y-60861144D01*
X187905354Y-60900500D01*
X187905355Y-60900500D01*
X188094644Y-60900500D01*
X188094646Y-60900500D01*
X188279803Y-60861144D01*
X188452730Y-60784151D01*
X188605871Y-60672888D01*
X188608788Y-60669647D01*
X188611600Y-60666526D01*
X188671087Y-60629879D01*
X188703748Y-60625500D01*
X189004169Y-60625500D01*
X189071208Y-60645185D01*
X189116963Y-60697989D01*
X189126907Y-60767147D01*
X189122099Y-60787818D01*
X189114326Y-60811744D01*
X189094540Y-61000000D01*
X189114326Y-61188256D01*
X189114327Y-61188259D01*
X189172818Y-61368277D01*
X189172821Y-61368284D01*
X189267467Y-61532216D01*
X189304470Y-61573312D01*
X189342650Y-61615715D01*
X189372880Y-61678706D01*
X189374500Y-61698687D01*
X189374500Y-67005857D01*
X189354815Y-67072896D01*
X189302011Y-67118651D01*
X189232853Y-67128595D01*
X189224720Y-67127147D01*
X189094647Y-67099500D01*
X189094646Y-67099500D01*
X188905354Y-67099500D01*
X188872897Y-67106398D01*
X188720197Y-67138855D01*
X188720192Y-67138857D01*
X188547270Y-67215848D01*
X188547265Y-67215851D01*
X188394129Y-67327111D01*
X188267466Y-67467785D01*
X188172821Y-67631715D01*
X188172818Y-67631722D01*
X188130041Y-67763378D01*
X188114326Y-67811744D01*
X188106405Y-67887105D01*
X188096678Y-67979651D01*
X188070093Y-68044266D01*
X188061038Y-68054370D01*
X179784700Y-76330708D01*
X179723377Y-76364193D01*
X179653685Y-76359209D01*
X179611534Y-76330534D01*
X179610701Y-76331461D01*
X179605869Y-76327110D01*
X179452734Y-76215851D01*
X179452729Y-76215848D01*
X179279807Y-76138857D01*
X179279802Y-76138855D01*
X179134000Y-76107865D01*
X179094646Y-76099500D01*
X178905354Y-76099500D01*
X178872897Y-76106398D01*
X178720197Y-76138855D01*
X178720192Y-76138857D01*
X178547270Y-76215848D01*
X178547265Y-76215851D01*
X178394129Y-76327111D01*
X178267466Y-76467785D01*
X178172821Y-76631715D01*
X178172818Y-76631722D01*
X178133610Y-76752394D01*
X178114326Y-76811744D01*
X178094540Y-77000000D01*
X178114326Y-77188256D01*
X178114327Y-77188259D01*
X178122100Y-77212182D01*
X178124095Y-77282023D01*
X178088015Y-77341856D01*
X178025314Y-77372684D01*
X178004169Y-77374500D01*
X176703748Y-77374500D01*
X176636709Y-77354815D01*
X176611600Y-77333474D01*
X176605873Y-77327114D01*
X176605869Y-77327110D01*
X176452734Y-77215851D01*
X176452729Y-77215848D01*
X176279807Y-77138857D01*
X176279802Y-77138855D01*
X176134000Y-77107865D01*
X176094646Y-77099500D01*
X175905354Y-77099500D01*
X175872897Y-77106398D01*
X175720197Y-77138855D01*
X175720192Y-77138857D01*
X175547270Y-77215848D01*
X175547265Y-77215851D01*
X175394129Y-77327111D01*
X175267466Y-77467785D01*
X175172821Y-77631715D01*
X175172818Y-77631722D01*
X175151410Y-77697611D01*
X175114326Y-77811744D01*
X175094540Y-78000000D01*
X175114326Y-78188256D01*
X175114327Y-78188259D01*
X175172818Y-78368277D01*
X175172821Y-78368284D01*
X175267467Y-78532216D01*
X175369185Y-78645185D01*
X175394129Y-78672888D01*
X175547265Y-78784148D01*
X175547270Y-78784151D01*
X175720192Y-78861142D01*
X175720197Y-78861144D01*
X175802839Y-78878710D01*
X175864321Y-78911902D01*
X175898097Y-78973065D01*
X175893445Y-79042780D01*
X175851840Y-79098912D01*
X175802839Y-79121290D01*
X175720197Y-79138855D01*
X175720192Y-79138857D01*
X175547270Y-79215848D01*
X175547265Y-79215851D01*
X175394129Y-79327111D01*
X175267466Y-79467785D01*
X175172821Y-79631715D01*
X175172818Y-79631722D01*
X175123533Y-79783407D01*
X175114326Y-79811744D01*
X175094540Y-80000000D01*
X175114326Y-80188256D01*
X175114327Y-80188259D01*
X175172818Y-80368277D01*
X175172821Y-80368284D01*
X175267467Y-80532216D01*
X175366733Y-80642462D01*
X175394129Y-80672888D01*
X175547265Y-80784148D01*
X175547270Y-80784151D01*
X175720192Y-80861142D01*
X175720197Y-80861144D01*
X175802839Y-80878710D01*
X175864321Y-80911902D01*
X175898097Y-80973065D01*
X175893445Y-81042780D01*
X175851840Y-81098912D01*
X175802839Y-81121290D01*
X175720197Y-81138855D01*
X175720192Y-81138857D01*
X175547270Y-81215848D01*
X175547265Y-81215851D01*
X175394129Y-81327111D01*
X175267466Y-81467785D01*
X175172821Y-81631715D01*
X175172818Y-81631722D01*
X175132581Y-81755560D01*
X175114326Y-81811744D01*
X175094540Y-82000000D01*
X173623692Y-82000000D01*
X173655756Y-81887310D01*
X173675429Y-81675000D01*
X173655756Y-81462690D01*
X173597405Y-81257611D01*
X173597403Y-81257606D01*
X173597403Y-81257605D01*
X173502367Y-81066746D01*
X173373870Y-80896590D01*
X173351982Y-80876637D01*
X173315700Y-80816926D01*
X173317461Y-80747078D01*
X173351982Y-80693363D01*
X173373870Y-80673409D01*
X173374263Y-80672889D01*
X173502366Y-80503255D01*
X173569573Y-80368284D01*
X173597403Y-80312394D01*
X173597403Y-80312393D01*
X173597405Y-80312389D01*
X173655756Y-80107310D01*
X173675429Y-79895000D01*
X173655756Y-79682690D01*
X173597405Y-79477611D01*
X173597403Y-79477606D01*
X173597403Y-79477605D01*
X173502367Y-79286746D01*
X173373870Y-79116590D01*
X173351982Y-79096637D01*
X173315700Y-79036926D01*
X173317461Y-78967078D01*
X173351982Y-78913363D01*
X173373870Y-78893409D01*
X173373872Y-78893407D01*
X173502366Y-78723255D01*
X173527447Y-78672885D01*
X173597403Y-78532394D01*
X173597403Y-78532393D01*
X173597405Y-78532389D01*
X173655756Y-78327310D01*
X173675429Y-78115000D01*
X173655756Y-77902690D01*
X173597405Y-77697611D01*
X173597403Y-77697606D01*
X173597403Y-77697605D01*
X173502367Y-77506746D01*
X173373872Y-77336593D01*
X173363470Y-77327110D01*
X173351979Y-77316634D01*
X173315699Y-77256924D01*
X173317460Y-77187077D01*
X173351981Y-77133362D01*
X173373872Y-77113407D01*
X173502366Y-76943255D01*
X173597405Y-76752389D01*
X173655756Y-76547310D01*
X173675429Y-76335000D01*
X173655756Y-76122690D01*
X173597405Y-75917611D01*
X173597403Y-75917606D01*
X173597403Y-75917605D01*
X173502367Y-75726746D01*
X173373870Y-75556590D01*
X173351982Y-75536637D01*
X173315700Y-75476926D01*
X173317461Y-75407078D01*
X173351982Y-75353363D01*
X173373870Y-75333409D01*
X173424500Y-75266365D01*
X173502366Y-75163255D01*
X173597405Y-74972389D01*
X173655756Y-74767310D01*
X173675429Y-74555000D01*
X173655756Y-74342690D01*
X173597405Y-74137611D01*
X173597403Y-74137606D01*
X173597403Y-74137605D01*
X173502367Y-73946746D01*
X173373870Y-73776590D01*
X173351982Y-73756637D01*
X173315700Y-73696926D01*
X173317461Y-73627078D01*
X173351982Y-73573363D01*
X173373870Y-73553409D01*
X173373872Y-73553407D01*
X173502366Y-73383255D01*
X173597405Y-73192389D01*
X173655756Y-72987310D01*
X173675429Y-72775000D01*
X173655756Y-72562690D01*
X173597405Y-72357611D01*
X173597403Y-72357606D01*
X173597403Y-72357605D01*
X173502367Y-72166746D01*
X173373870Y-71996590D01*
X173351982Y-71976637D01*
X173315700Y-71916926D01*
X173317461Y-71847078D01*
X173351982Y-71793363D01*
X173373870Y-71773409D01*
X173424500Y-71706365D01*
X173502366Y-71603255D01*
X173597405Y-71412389D01*
X173655756Y-71207310D01*
X173675429Y-70995000D01*
X173655756Y-70782690D01*
X173597405Y-70577611D01*
X173597403Y-70577606D01*
X173597403Y-70577605D01*
X173502367Y-70386746D01*
X173373870Y-70216590D01*
X173351982Y-70196637D01*
X173315700Y-70136926D01*
X173317461Y-70067078D01*
X173351982Y-70013363D01*
X173373870Y-69993409D01*
X173424500Y-69926365D01*
X173502366Y-69823255D01*
X173597405Y-69632389D01*
X173655756Y-69427310D01*
X173675429Y-69215000D01*
X173655756Y-69002690D01*
X173597405Y-68797611D01*
X173597403Y-68797606D01*
X173597403Y-68797605D01*
X173502367Y-68606746D01*
X173373872Y-68436593D01*
X173373871Y-68436593D01*
X173216302Y-68292948D01*
X173035019Y-68180702D01*
X173035017Y-68180701D01*
X172922734Y-68137203D01*
X172836198Y-68103679D01*
X172626610Y-68064500D01*
X172413390Y-68064500D01*
X172203802Y-68103679D01*
X172203799Y-68103679D01*
X172203799Y-68103680D01*
X172004982Y-68180701D01*
X172004980Y-68180702D01*
X171823696Y-68292949D01*
X171823035Y-68293552D01*
X171822648Y-68293740D01*
X171819124Y-68296402D01*
X171818603Y-68295712D01*
X171760230Y-68324167D01*
X171690843Y-68315967D01*
X171636905Y-68271555D01*
X171615539Y-68205032D01*
X171615500Y-68201912D01*
X171615500Y-67087259D01*
X171615528Y-67087116D01*
X171615524Y-67087116D01*
X171615539Y-67062502D01*
X171615541Y-67062500D01*
X171615462Y-67062308D01*
X171615384Y-67062118D01*
X171615383Y-67062117D01*
X171615381Y-67062116D01*
X171615090Y-67061996D01*
X171615001Y-67061959D01*
X171590446Y-67061959D01*
X171590240Y-67062000D01*
X162749760Y-67062000D01*
X162749554Y-67061959D01*
X162724998Y-67061959D01*
X162724909Y-67061996D01*
X162724619Y-67062115D01*
X162724615Y-67062118D01*
X162724459Y-67062499D01*
X162724476Y-67087116D01*
X162724471Y-67087116D01*
X162724500Y-67087259D01*
X162724500Y-67311912D01*
X162704815Y-67378951D01*
X162652011Y-67424706D01*
X162582853Y-67434650D01*
X162520907Y-67406360D01*
X162520876Y-67406402D01*
X162520688Y-67406260D01*
X162519297Y-67405625D01*
X162516965Y-67403552D01*
X162516303Y-67402949D01*
X162516302Y-67402948D01*
X162335019Y-67290702D01*
X162335017Y-67290701D01*
X162235608Y-67252190D01*
X162136198Y-67213679D01*
X161926610Y-67174500D01*
X161713390Y-67174500D01*
X161503802Y-67213679D01*
X161503799Y-67213679D01*
X161503799Y-67213680D01*
X161304982Y-67290701D01*
X161304980Y-67290702D01*
X161123699Y-67402947D01*
X160966127Y-67546593D01*
X160837632Y-67716746D01*
X160742596Y-67907605D01*
X160742596Y-67907607D01*
X160684244Y-68112689D01*
X160664571Y-68324999D01*
X160664571Y-68325000D01*
X160684244Y-68537310D01*
X160742596Y-68742392D01*
X160742596Y-68742394D01*
X160837632Y-68933253D01*
X160966129Y-69103408D01*
X160988017Y-69123362D01*
X161024299Y-69183073D01*
X161022538Y-69252921D01*
X160988021Y-69306633D01*
X160966128Y-69326592D01*
X160837632Y-69496746D01*
X160742596Y-69687605D01*
X160742596Y-69687607D01*
X160684244Y-69892689D01*
X160664571Y-70104999D01*
X160664571Y-70105000D01*
X160684244Y-70317310D01*
X160742596Y-70522392D01*
X160742596Y-70522394D01*
X160837632Y-70713253D01*
X160966129Y-70883408D01*
X160988017Y-70903362D01*
X161024299Y-70963073D01*
X161022538Y-71032921D01*
X160988021Y-71086632D01*
X160966131Y-71106588D01*
X160966130Y-71106589D01*
X160837632Y-71276746D01*
X160742596Y-71467605D01*
X160742596Y-71467607D01*
X160684244Y-71672689D01*
X160664571Y-71884999D01*
X160664571Y-71885000D01*
X160684244Y-72097310D01*
X160742596Y-72302392D01*
X160742596Y-72302394D01*
X160837632Y-72493253D01*
X160966129Y-72663408D01*
X160988017Y-72683362D01*
X161024299Y-72743073D01*
X161022538Y-72812921D01*
X160988021Y-72866632D01*
X160966131Y-72886588D01*
X160966130Y-72886589D01*
X160837632Y-73056746D01*
X160742596Y-73247605D01*
X160742596Y-73247607D01*
X160684244Y-73452689D01*
X160664571Y-73664999D01*
X160664571Y-73665000D01*
X160684244Y-73877310D01*
X160742596Y-74082392D01*
X160742596Y-74082394D01*
X160837632Y-74273253D01*
X160966129Y-74443408D01*
X160988017Y-74463362D01*
X161024299Y-74523073D01*
X161022538Y-74592921D01*
X160988021Y-74646633D01*
X160966128Y-74666592D01*
X160837632Y-74836746D01*
X160742596Y-75027605D01*
X160742596Y-75027607D01*
X160684244Y-75232689D01*
X160664571Y-75444999D01*
X160664571Y-75445000D01*
X160684244Y-75657310D01*
X160742596Y-75862392D01*
X160742596Y-75862394D01*
X160837632Y-76053253D01*
X160837634Y-76053255D01*
X160960420Y-76215849D01*
X160966130Y-76223409D01*
X160966130Y-76223410D01*
X160988019Y-76243365D01*
X161024299Y-76303077D01*
X161022537Y-76372924D01*
X160988019Y-76426635D01*
X160966130Y-76446589D01*
X160966130Y-76446590D01*
X160837632Y-76616746D01*
X160742596Y-76807605D01*
X160742596Y-76807607D01*
X160684244Y-77012689D01*
X160664571Y-77224999D01*
X160664571Y-77225000D01*
X160684244Y-77437310D01*
X160742596Y-77642392D01*
X160742596Y-77642394D01*
X160837632Y-77833253D01*
X160890069Y-77902690D01*
X160963554Y-77999999D01*
X160966129Y-78003408D01*
X160988017Y-78023362D01*
X161024299Y-78083073D01*
X161022538Y-78152921D01*
X160988021Y-78206632D01*
X160966131Y-78226588D01*
X160966130Y-78226589D01*
X160837632Y-78396746D01*
X160742596Y-78587605D01*
X160742596Y-78587607D01*
X160686674Y-78784151D01*
X160684244Y-78792690D01*
X160664571Y-79005000D01*
X129000500Y-79005000D01*
X129000500Y-62956755D01*
X157998481Y-62956755D01*
X158017321Y-63184133D01*
X158017323Y-63184141D01*
X158073335Y-63405327D01*
X158164989Y-63614279D01*
X158289787Y-63805298D01*
X158444319Y-63973163D01*
X158444323Y-63973167D01*
X158624381Y-64113311D01*
X158825050Y-64221908D01*
X159040857Y-64295995D01*
X159265915Y-64333550D01*
X159494085Y-64333550D01*
X159719143Y-64295995D01*
X159934950Y-64221908D01*
X160135619Y-64113311D01*
X160315677Y-63973167D01*
X160470213Y-63805297D01*
X160595010Y-63614280D01*
X160686664Y-63405328D01*
X160742677Y-63184141D01*
X160761519Y-62956750D01*
X160742677Y-62729359D01*
X160686664Y-62508172D01*
X160595010Y-62299220D01*
X160568595Y-62258789D01*
X160470212Y-62108201D01*
X160315680Y-61940336D01*
X160315676Y-61940332D01*
X160135620Y-61800190D01*
X160135619Y-61800189D01*
X160127517Y-61795804D01*
X160077928Y-61746587D01*
X160062818Y-61678371D01*
X160086988Y-61612815D01*
X160127517Y-61577695D01*
X160135619Y-61573311D01*
X160315677Y-61433167D01*
X160470213Y-61265297D01*
X160595010Y-61074280D01*
X160686664Y-60865328D01*
X160742677Y-60644141D01*
X160743706Y-60631722D01*
X160761519Y-60416755D01*
X160761519Y-60416744D01*
X160742678Y-60189366D01*
X160742677Y-60189363D01*
X160742677Y-60189359D01*
X160686664Y-59968172D01*
X160595010Y-59759220D01*
X160470213Y-59568203D01*
X160470212Y-59568201D01*
X160315680Y-59400336D01*
X160315676Y-59400332D01*
X160135620Y-59260190D01*
X160135619Y-59260189D01*
X160127517Y-59255804D01*
X160077928Y-59206587D01*
X160062818Y-59138371D01*
X160086988Y-59072815D01*
X160127517Y-59037695D01*
X160135619Y-59033311D01*
X160315677Y-58893167D01*
X160470213Y-58725297D01*
X160595010Y-58534280D01*
X160686664Y-58325328D01*
X160742677Y-58104141D01*
X160749746Y-58018834D01*
X160761519Y-57876755D01*
X160761519Y-57876744D01*
X160742678Y-57649366D01*
X160742677Y-57649363D01*
X160742677Y-57649359D01*
X160686664Y-57428172D01*
X160595010Y-57219220D01*
X160470213Y-57028203D01*
X160470212Y-57028201D01*
X160315680Y-56860336D01*
X160315676Y-56860332D01*
X160135620Y-56720190D01*
X160135619Y-56720189D01*
X160127517Y-56715804D01*
X160077928Y-56666587D01*
X160062818Y-56598371D01*
X160086988Y-56532815D01*
X160127517Y-56497695D01*
X160135619Y-56493311D01*
X160315677Y-56353167D01*
X160470213Y-56185297D01*
X160595010Y-55994280D01*
X160686664Y-55785328D01*
X160742677Y-55564141D01*
X160744784Y-55538713D01*
X160761519Y-55336755D01*
X160761519Y-55336744D01*
X160742678Y-55109366D01*
X160742677Y-55109363D01*
X160742677Y-55109359D01*
X160686664Y-54888172D01*
X160595010Y-54679220D01*
X160470213Y-54488203D01*
X160470212Y-54488201D01*
X160315680Y-54320336D01*
X160315676Y-54320332D01*
X160145987Y-54188259D01*
X160135619Y-54180189D01*
X160127517Y-54175804D01*
X160077928Y-54126587D01*
X160062818Y-54058371D01*
X160084339Y-54000000D01*
X170094540Y-54000000D01*
X170114326Y-54188256D01*
X170114327Y-54188259D01*
X170172818Y-54368277D01*
X170172821Y-54368284D01*
X170267467Y-54532216D01*
X170369185Y-54645185D01*
X170394129Y-54672888D01*
X170547265Y-54784148D01*
X170547270Y-54784151D01*
X170720192Y-54861142D01*
X170720197Y-54861144D01*
X170905354Y-54900500D01*
X170905355Y-54900500D01*
X171094644Y-54900500D01*
X171094646Y-54900500D01*
X171279803Y-54861144D01*
X171452730Y-54784151D01*
X171605871Y-54672888D01*
X171608788Y-54669647D01*
X171611600Y-54666526D01*
X171671087Y-54629879D01*
X171703748Y-54625500D01*
X173238758Y-54625500D01*
X173305797Y-54645185D01*
X173351552Y-54697989D01*
X173361496Y-54767147D01*
X173352314Y-54799309D01*
X173313337Y-54888169D01*
X173313336Y-54888171D01*
X173257323Y-55109358D01*
X173257321Y-55109366D01*
X173238481Y-55336744D01*
X173238481Y-55336755D01*
X173257321Y-55564133D01*
X173257323Y-55564141D01*
X173313335Y-55785327D01*
X173404989Y-55994279D01*
X173529787Y-56185298D01*
X173684319Y-56353163D01*
X173684323Y-56353167D01*
X173864379Y-56493310D01*
X173864383Y-56493312D01*
X173872483Y-56497696D01*
X173922073Y-56546916D01*
X173937180Y-56615133D01*
X173913008Y-56680689D01*
X173872483Y-56715804D01*
X173864383Y-56720187D01*
X173864379Y-56720189D01*
X173684323Y-56860332D01*
X173684319Y-56860336D01*
X173529787Y-57028201D01*
X173404989Y-57219220D01*
X173313335Y-57428172D01*
X173257323Y-57649358D01*
X173257321Y-57649366D01*
X173238481Y-57876744D01*
X173238481Y-57876755D01*
X173257321Y-58104133D01*
X173257323Y-58104141D01*
X173313335Y-58325327D01*
X173404989Y-58534279D01*
X173529787Y-58725298D01*
X173684319Y-58893163D01*
X173684323Y-58893167D01*
X173864379Y-59033310D01*
X173864383Y-59033312D01*
X173872483Y-59037696D01*
X173922073Y-59086916D01*
X173937180Y-59155133D01*
X173913008Y-59220689D01*
X173872483Y-59255804D01*
X173864383Y-59260187D01*
X173864379Y-59260189D01*
X173684323Y-59400332D01*
X173684319Y-59400336D01*
X173529787Y-59568201D01*
X173404989Y-59759220D01*
X173313335Y-59968172D01*
X173257323Y-60189358D01*
X173257321Y-60189366D01*
X173238481Y-60416744D01*
X173238481Y-60416755D01*
X173257321Y-60644133D01*
X173257323Y-60644141D01*
X173313335Y-60865327D01*
X173404989Y-61074279D01*
X173529787Y-61265298D01*
X173684319Y-61433163D01*
X173684323Y-61433167D01*
X173864379Y-61573310D01*
X173864383Y-61573312D01*
X173872483Y-61577696D01*
X173922073Y-61626916D01*
X173937180Y-61695133D01*
X173913008Y-61760689D01*
X173872483Y-61795804D01*
X173864383Y-61800187D01*
X173864379Y-61800189D01*
X173684323Y-61940332D01*
X173684319Y-61940336D01*
X173529787Y-62108201D01*
X173404989Y-62299220D01*
X173313335Y-62508172D01*
X173257323Y-62729358D01*
X173257321Y-62729366D01*
X173238481Y-62956744D01*
X173238481Y-62956755D01*
X173257321Y-63184133D01*
X173257323Y-63184141D01*
X173313335Y-63405327D01*
X173404989Y-63614279D01*
X173529787Y-63805298D01*
X173684319Y-63973163D01*
X173684323Y-63973167D01*
X173864381Y-64113311D01*
X174065050Y-64221908D01*
X174280857Y-64295995D01*
X174505915Y-64333550D01*
X174734085Y-64333550D01*
X174959143Y-64295995D01*
X175174950Y-64221908D01*
X175375619Y-64113311D01*
X175555677Y-63973167D01*
X175710213Y-63805297D01*
X175835010Y-63614280D01*
X175926664Y-63405328D01*
X175982677Y-63184141D01*
X176001519Y-62956750D01*
X175982677Y-62729359D01*
X175926664Y-62508172D01*
X175835010Y-62299220D01*
X175808595Y-62258789D01*
X175710212Y-62108201D01*
X175555680Y-61940336D01*
X175555676Y-61940332D01*
X175375620Y-61800189D01*
X175375611Y-61800184D01*
X175367513Y-61795801D01*
X175317924Y-61746580D01*
X175302819Y-61678362D01*
X175326993Y-61612808D01*
X175367523Y-61577691D01*
X175375619Y-61573311D01*
X175555677Y-61433167D01*
X175710213Y-61265297D01*
X175835010Y-61074280D01*
X175926664Y-60865328D01*
X175982677Y-60644141D01*
X175983706Y-60631722D01*
X176001519Y-60416755D01*
X176001519Y-60416744D01*
X175982678Y-60189366D01*
X175982677Y-60189363D01*
X175982677Y-60189359D01*
X175926664Y-59968172D01*
X175835010Y-59759220D01*
X175710213Y-59568203D01*
X175710212Y-59568201D01*
X175555680Y-59400336D01*
X175555676Y-59400332D01*
X175375620Y-59260190D01*
X175375619Y-59260189D01*
X175367517Y-59255804D01*
X175317928Y-59206587D01*
X175302818Y-59138371D01*
X175326988Y-59072815D01*
X175367517Y-59037695D01*
X175375619Y-59033311D01*
X175555677Y-58893167D01*
X175710213Y-58725297D01*
X175835010Y-58534280D01*
X175926664Y-58325328D01*
X175982677Y-58104141D01*
X175989746Y-58018834D01*
X176001519Y-57876755D01*
X176001519Y-57876744D01*
X175982678Y-57649366D01*
X175982677Y-57649363D01*
X175982677Y-57649359D01*
X175926664Y-57428172D01*
X175835010Y-57219220D01*
X175710213Y-57028203D01*
X175710212Y-57028201D01*
X175555680Y-56860336D01*
X175555676Y-56860332D01*
X175375620Y-56720190D01*
X175375619Y-56720189D01*
X175367517Y-56715804D01*
X175317928Y-56666587D01*
X175302818Y-56598371D01*
X175326988Y-56532815D01*
X175367517Y-56497695D01*
X175375619Y-56493311D01*
X175555677Y-56353167D01*
X175710213Y-56185297D01*
X175835010Y-55994280D01*
X175926664Y-55785328D01*
X175982677Y-55564141D01*
X175984784Y-55538713D01*
X176001519Y-55336755D01*
X176001519Y-55336744D01*
X175982678Y-55109366D01*
X175982677Y-55109363D01*
X175982677Y-55109359D01*
X175926664Y-54888172D01*
X175905339Y-54839556D01*
X175887686Y-54799309D01*
X175878783Y-54730009D01*
X175908761Y-54666897D01*
X175968100Y-54630011D01*
X176001242Y-54625500D01*
X178689548Y-54625500D01*
X178756587Y-54645185D01*
X178777229Y-54661819D01*
X182003228Y-57887819D01*
X182036713Y-57949142D01*
X182031729Y-58018834D01*
X181989857Y-58074767D01*
X181924393Y-58099184D01*
X181915547Y-58099500D01*
X181905354Y-58099500D01*
X181883520Y-58104141D01*
X181720197Y-58138855D01*
X181720192Y-58138857D01*
X181547270Y-58215848D01*
X181547265Y-58215851D01*
X181394129Y-58327111D01*
X181267466Y-58467785D01*
X181172821Y-58631715D01*
X181172818Y-58631722D01*
X181114327Y-58811740D01*
X181114326Y-58811744D01*
X181096679Y-58979650D01*
X181070094Y-59044264D01*
X181061039Y-59054369D01*
X180777228Y-59338181D01*
X180715905Y-59371666D01*
X180689547Y-59374500D01*
X178703748Y-59374500D01*
X178636709Y-59354815D01*
X178611600Y-59333474D01*
X178605873Y-59327114D01*
X178605869Y-59327110D01*
X178452734Y-59215851D01*
X178452729Y-59215848D01*
X178279807Y-59138857D01*
X178279802Y-59138855D01*
X178134000Y-59107865D01*
X178094646Y-59099500D01*
X177905354Y-59099500D01*
X177872897Y-59106398D01*
X177720197Y-59138855D01*
X177720192Y-59138857D01*
X177547270Y-59215848D01*
X177547265Y-59215851D01*
X177394129Y-59327111D01*
X177267466Y-59467785D01*
X177172821Y-59631715D01*
X177172818Y-59631722D01*
X177114327Y-59811740D01*
X177114326Y-59811744D01*
X177094540Y-60000000D01*
X177114326Y-60188256D01*
X177114327Y-60188259D01*
X177172818Y-60368277D01*
X177172821Y-60368284D01*
X177267467Y-60532216D01*
X177357060Y-60631719D01*
X177394129Y-60672888D01*
X177547265Y-60784148D01*
X177547270Y-60784151D01*
X177720192Y-60861142D01*
X177720197Y-60861144D01*
X177905354Y-60900500D01*
X177905355Y-60900500D01*
X178094644Y-60900500D01*
X178094646Y-60900500D01*
X178279803Y-60861144D01*
X178452730Y-60784151D01*
X178605871Y-60672888D01*
X178608788Y-60669647D01*
X178611600Y-60666526D01*
X178671087Y-60629879D01*
X178703748Y-60625500D01*
X180917257Y-60625500D01*
X180932877Y-60627224D01*
X180932904Y-60626939D01*
X180940666Y-60627673D01*
X180940666Y-60627672D01*
X180940667Y-60627673D01*
X180943999Y-60627568D01*
X181008847Y-60625531D01*
X181010794Y-60625500D01*
X181039347Y-60625500D01*
X181039350Y-60625500D01*
X181046228Y-60624630D01*
X181052041Y-60624172D01*
X181098627Y-60622709D01*
X181117869Y-60617117D01*
X181136912Y-60613174D01*
X181156792Y-60610664D01*
X181200122Y-60593507D01*
X181205646Y-60591617D01*
X181209396Y-60590527D01*
X181250390Y-60578618D01*
X181267629Y-60568422D01*
X181285103Y-60559862D01*
X181303727Y-60552488D01*
X181303727Y-60552487D01*
X181303732Y-60552486D01*
X181341449Y-60525082D01*
X181346305Y-60521892D01*
X181386420Y-60498170D01*
X181400589Y-60483999D01*
X181415379Y-60471368D01*
X181431587Y-60459594D01*
X181461299Y-60423676D01*
X181465212Y-60419376D01*
X181947770Y-59936819D01*
X182009094Y-59903334D01*
X182035452Y-59900500D01*
X182094644Y-59900500D01*
X182094646Y-59900500D01*
X182279803Y-59861144D01*
X182452730Y-59784151D01*
X182605871Y-59672888D01*
X182732533Y-59532216D01*
X182827179Y-59368284D01*
X182885674Y-59188256D01*
X182898253Y-59068562D01*
X182924837Y-59003950D01*
X182982135Y-58963965D01*
X183051954Y-58961305D01*
X183109253Y-58993844D01*
X183134294Y-59018884D01*
X183338180Y-59222771D01*
X183371665Y-59284094D01*
X183374499Y-59310452D01*
X183374499Y-60301312D01*
X183354814Y-60368351D01*
X183342649Y-60384284D01*
X183267470Y-60467778D01*
X183267465Y-60467785D01*
X183172821Y-60631715D01*
X183172819Y-60631719D01*
X183117478Y-60802041D01*
X183087228Y-60851403D01*
X177514358Y-66424272D01*
X177500729Y-66436051D01*
X177481468Y-66450390D01*
X177447898Y-66490397D01*
X177444253Y-66494376D01*
X177438407Y-66500223D01*
X177418618Y-66525251D01*
X177417481Y-66526647D01*
X177368694Y-66584790D01*
X177364729Y-66590819D01*
X177364682Y-66590788D01*
X177360630Y-66597147D01*
X177360679Y-66597177D01*
X177356889Y-66603321D01*
X177324812Y-66672110D01*
X177324027Y-66673731D01*
X177289957Y-66741572D01*
X177287488Y-66748357D01*
X177287432Y-66748336D01*
X177284960Y-66755450D01*
X177285015Y-66755469D01*
X177282743Y-66762325D01*
X177267391Y-66836670D01*
X177267001Y-66838428D01*
X177249499Y-66912279D01*
X177248661Y-66919454D01*
X177248601Y-66919447D01*
X177247835Y-66926945D01*
X177247895Y-66926951D01*
X177247265Y-66934140D01*
X177249474Y-67010030D01*
X177249500Y-67011833D01*
X177249500Y-73465677D01*
X177232887Y-73527677D01*
X177172821Y-73631714D01*
X177132231Y-73756637D01*
X177114326Y-73811744D01*
X177094540Y-74000000D01*
X177114326Y-74188256D01*
X177114327Y-74188259D01*
X177172818Y-74368277D01*
X177172821Y-74368284D01*
X177267467Y-74532216D01*
X177370489Y-74646633D01*
X177394129Y-74672888D01*
X177547265Y-74784148D01*
X177547270Y-74784151D01*
X177720192Y-74861142D01*
X177720197Y-74861144D01*
X177905354Y-74900500D01*
X177905355Y-74900500D01*
X178094644Y-74900500D01*
X178094646Y-74900500D01*
X178279803Y-74861144D01*
X178452730Y-74784151D01*
X178605871Y-74672888D01*
X178732533Y-74532216D01*
X178827179Y-74368284D01*
X178885674Y-74188256D01*
X178905460Y-74000000D01*
X178885674Y-73811744D01*
X178827179Y-73631716D01*
X178767113Y-73527677D01*
X178750500Y-73465677D01*
X178750500Y-67362228D01*
X178770185Y-67295189D01*
X178786814Y-67274552D01*
X184152770Y-61908595D01*
X184214091Y-61875112D01*
X184214427Y-61875039D01*
X184279803Y-61861144D01*
X184452730Y-61784151D01*
X184605871Y-61672888D01*
X184732533Y-61532216D01*
X184827179Y-61368284D01*
X184885674Y-61188256D01*
X184905460Y-61000000D01*
X184885674Y-60811744D01*
X184827179Y-60631716D01*
X184732533Y-60467784D01*
X184690802Y-60421437D01*
X184657350Y-60384284D01*
X184627120Y-60321292D01*
X184625500Y-60301312D01*
X184625500Y-59082742D01*
X184627224Y-59067122D01*
X184626939Y-59067096D01*
X184627673Y-59059333D01*
X184625531Y-58991152D01*
X184625500Y-58989205D01*
X184625500Y-58960654D01*
X184625500Y-58960650D01*
X184624631Y-58953772D01*
X184624172Y-58947943D01*
X184622709Y-58901372D01*
X184617122Y-58882144D01*
X184613174Y-58863084D01*
X184610663Y-58843204D01*
X184593512Y-58799887D01*
X184591619Y-58794358D01*
X184578618Y-58749609D01*
X184578616Y-58749606D01*
X184568423Y-58732371D01*
X184559861Y-58714894D01*
X184552487Y-58696270D01*
X184552486Y-58696268D01*
X184525079Y-58658545D01*
X184521888Y-58653686D01*
X184508895Y-58631716D01*
X184498170Y-58613580D01*
X184498168Y-58613578D01*
X184498165Y-58613574D01*
X184484006Y-58599415D01*
X184471368Y-58584619D01*
X184459594Y-58568413D01*
X184423688Y-58538709D01*
X184419376Y-58534786D01*
X179500803Y-53616212D01*
X179490980Y-53603950D01*
X179490759Y-53604134D01*
X179485786Y-53598122D01*
X179436066Y-53551432D01*
X179434666Y-53550075D01*
X179414476Y-53529884D01*
X179408986Y-53525625D01*
X179404561Y-53521847D01*
X179370582Y-53489938D01*
X179370580Y-53489936D01*
X179370577Y-53489935D01*
X179353029Y-53480288D01*
X179336763Y-53469604D01*
X179320936Y-53457327D01*
X179320935Y-53457326D01*
X179320933Y-53457325D01*
X179278168Y-53438818D01*
X179272922Y-53436248D01*
X179232093Y-53413803D01*
X179232092Y-53413802D01*
X179212693Y-53408822D01*
X179194281Y-53402518D01*
X179175898Y-53394562D01*
X179175892Y-53394560D01*
X179129874Y-53387272D01*
X179124152Y-53386087D01*
X179079021Y-53374500D01*
X179079019Y-53374500D01*
X179058984Y-53374500D01*
X179039586Y-53372973D01*
X179032162Y-53371797D01*
X179019805Y-53369840D01*
X179019804Y-53369840D01*
X178973416Y-53374225D01*
X178967578Y-53374500D01*
X176053269Y-53374500D01*
X175986230Y-53354815D01*
X175940475Y-53302011D01*
X175930531Y-53232853D01*
X175933063Y-53220059D01*
X175982677Y-53024141D01*
X175992922Y-52900500D01*
X176001519Y-52796755D01*
X176001519Y-52796744D01*
X175982678Y-52569366D01*
X175982677Y-52569363D01*
X175982677Y-52569359D01*
X175926664Y-52348172D01*
X175835010Y-52139220D01*
X175710212Y-51948201D01*
X175555680Y-51780336D01*
X175555676Y-51780332D01*
X175375620Y-51640190D01*
X175375619Y-51640189D01*
X175367517Y-51635804D01*
X175317928Y-51586587D01*
X175302818Y-51518371D01*
X175326988Y-51452815D01*
X175367517Y-51417695D01*
X175375619Y-51413311D01*
X175555677Y-51273167D01*
X175710213Y-51105297D01*
X175835010Y-50914280D01*
X175926664Y-50705328D01*
X175982677Y-50484141D01*
X176001519Y-50256750D01*
X175982677Y-50029359D01*
X175926664Y-49808172D01*
X175835010Y-49599220D01*
X175710213Y-49408203D01*
X175710212Y-49408201D01*
X175555680Y-49240336D01*
X175555676Y-49240332D01*
X175375620Y-49100190D01*
X175375619Y-49100189D01*
X175367517Y-49095804D01*
X175317928Y-49046587D01*
X175302818Y-48978371D01*
X175326988Y-48912815D01*
X175367517Y-48877695D01*
X175375619Y-48873311D01*
X175555677Y-48733167D01*
X175710213Y-48565297D01*
X175835010Y-48374280D01*
X175926664Y-48165328D01*
X175982677Y-47944141D01*
X176001519Y-47716750D01*
X175982677Y-47489359D01*
X175926664Y-47268172D01*
X175835010Y-47059220D01*
X175710213Y-46868203D01*
X175710212Y-46868201D01*
X175555680Y-46700336D01*
X175555676Y-46700332D01*
X175375620Y-46560190D01*
X175375619Y-46560189D01*
X175367517Y-46555804D01*
X175317928Y-46506587D01*
X175302818Y-46438371D01*
X175326988Y-46372815D01*
X175367517Y-46337695D01*
X175375619Y-46333311D01*
X175555677Y-46193167D01*
X175710213Y-46025297D01*
X175835010Y-45834280D01*
X175926664Y-45625328D01*
X175982677Y-45404141D01*
X175993276Y-45276233D01*
X176001519Y-45176755D01*
X176001519Y-45176744D01*
X175982678Y-44949366D01*
X175982677Y-44949363D01*
X175982677Y-44949359D01*
X175926664Y-44728172D01*
X175835010Y-44519220D01*
X175710213Y-44328203D01*
X175710212Y-44328201D01*
X175555680Y-44160336D01*
X175555676Y-44160332D01*
X175375620Y-44020190D01*
X175375619Y-44020189D01*
X175367517Y-44015804D01*
X175317928Y-43966587D01*
X175302818Y-43898371D01*
X175326988Y-43832815D01*
X175367517Y-43797695D01*
X175375619Y-43793311D01*
X175555677Y-43653167D01*
X175710213Y-43485297D01*
X175835010Y-43294280D01*
X175926664Y-43085328D01*
X175982677Y-42864141D01*
X175982678Y-42864133D01*
X176001519Y-42636755D01*
X176001519Y-42636744D01*
X175982678Y-42409366D01*
X175982677Y-42409363D01*
X175982677Y-42409359D01*
X175926664Y-42188172D01*
X175835010Y-41979220D01*
X175710213Y-41788203D01*
X175710212Y-41788201D01*
X175555680Y-41620336D01*
X175555676Y-41620332D01*
X175402726Y-41501287D01*
X175375619Y-41480189D01*
X175367517Y-41475804D01*
X175317928Y-41426587D01*
X175302818Y-41358371D01*
X175326988Y-41292815D01*
X175367517Y-41257695D01*
X175375619Y-41253311D01*
X175555677Y-41113167D01*
X175710213Y-40945297D01*
X175835010Y-40754280D01*
X175926664Y-40545328D01*
X175982677Y-40324141D01*
X175982678Y-40324133D01*
X176001519Y-40096755D01*
X176001519Y-40096744D01*
X175982678Y-39869366D01*
X175982677Y-39869363D01*
X175982677Y-39869359D01*
X175926664Y-39648172D01*
X175835010Y-39439220D01*
X175710213Y-39248203D01*
X175710212Y-39248201D01*
X175555680Y-39080336D01*
X175555676Y-39080332D01*
X175375620Y-38940189D01*
X175375616Y-38940187D01*
X175366989Y-38935518D01*
X175317400Y-38886297D01*
X175302294Y-38818079D01*
X175326467Y-38752525D01*
X175366997Y-38717408D01*
X175375341Y-38712892D01*
X175375349Y-38712887D01*
X175401910Y-38692213D01*
X174788603Y-38078906D01*
X174906412Y-38027735D01*
X175022862Y-37932996D01*
X175109433Y-37810353D01*
X175140300Y-37723498D01*
X175754063Y-38337261D01*
X175834569Y-38214037D01*
X175926190Y-38005165D01*
X175982182Y-37784054D01*
X176001017Y-37556755D01*
X176001017Y-37556744D01*
X175982182Y-37329445D01*
X175926190Y-37108334D01*
X175834568Y-36899459D01*
X175754063Y-36776237D01*
X175142630Y-37387670D01*
X175139406Y-37372153D01*
X175070342Y-37238864D01*
X174967877Y-37129152D01*
X174839612Y-37051152D01*
X174786832Y-37036363D01*
X175401910Y-36421286D01*
X175401909Y-36421285D01*
X175375349Y-36400612D01*
X175375339Y-36400605D01*
X175366990Y-36396087D01*
X175317401Y-36346867D01*
X175302294Y-36278650D01*
X175326466Y-36213095D01*
X175366995Y-36177978D01*
X175375612Y-36173315D01*
X175375619Y-36173311D01*
X175555677Y-36033167D01*
X175710213Y-35865297D01*
X175835010Y-35674280D01*
X175926664Y-35465328D01*
X175982677Y-35244141D01*
X176001519Y-35016750D01*
X175982677Y-34789359D01*
X175926664Y-34568172D01*
X175835010Y-34359220D01*
X175710213Y-34168203D01*
X175710212Y-34168201D01*
X175555680Y-34000336D01*
X175555676Y-34000332D01*
X175375620Y-33860190D01*
X175375619Y-33860189D01*
X175174950Y-33751592D01*
X175174942Y-33751589D01*
X174959145Y-33677505D01*
X174734085Y-33639950D01*
X174505915Y-33639950D01*
X174280854Y-33677505D01*
X174065057Y-33751589D01*
X174065049Y-33751592D01*
X173864379Y-33860190D01*
X173684323Y-34000332D01*
X173684319Y-34000336D01*
X173529787Y-34168201D01*
X173404989Y-34359220D01*
X173313335Y-34568172D01*
X173257323Y-34789358D01*
X173257321Y-34789366D01*
X173238481Y-35016744D01*
X173238481Y-35016755D01*
X173257321Y-35244133D01*
X173257323Y-35244141D01*
X173313335Y-35465327D01*
X173404989Y-35674279D01*
X173529787Y-35865298D01*
X173684319Y-36033163D01*
X173684323Y-36033167D01*
X173864379Y-36173310D01*
X173864387Y-36173315D01*
X173873007Y-36177980D01*
X173922598Y-36227200D01*
X173937705Y-36295416D01*
X173913534Y-36360972D01*
X173873009Y-36396087D01*
X173864661Y-36400604D01*
X173864646Y-36400614D01*
X173838089Y-36421284D01*
X173838089Y-36421286D01*
X174451396Y-37034593D01*
X174333588Y-37085765D01*
X174217138Y-37180504D01*
X174130567Y-37303147D01*
X174099699Y-37390000D01*
X173485935Y-36776238D01*
X173405431Y-36899460D01*
X173405429Y-36899464D01*
X173313809Y-37108334D01*
X173257817Y-37329445D01*
X173238983Y-37556744D01*
X173238983Y-37556755D01*
X173257817Y-37784054D01*
X173313809Y-38005165D01*
X173405431Y-38214040D01*
X173485934Y-38337260D01*
X174097368Y-37725826D01*
X174100594Y-37741347D01*
X174169658Y-37874636D01*
X174272123Y-37984348D01*
X174400388Y-38062348D01*
X174453166Y-38077135D01*
X173838088Y-38692212D01*
X173838089Y-38692213D01*
X173864651Y-38712887D01*
X173864657Y-38712891D01*
X173873006Y-38717410D01*
X173922597Y-38766629D01*
X173937705Y-38834845D01*
X173913535Y-38900401D01*
X173873014Y-38935516D01*
X173864383Y-38940187D01*
X173864379Y-38940189D01*
X173684323Y-39080332D01*
X173684319Y-39080336D01*
X173529787Y-39248201D01*
X173404989Y-39439220D01*
X173313335Y-39648172D01*
X173257323Y-39869358D01*
X173257321Y-39869366D01*
X173238481Y-40096744D01*
X173238481Y-40096755D01*
X173257321Y-40324133D01*
X173257323Y-40324141D01*
X173313335Y-40545327D01*
X173404989Y-40754279D01*
X173529787Y-40945298D01*
X173684319Y-41113163D01*
X173684323Y-41113167D01*
X173864379Y-41253310D01*
X173864383Y-41253312D01*
X173872483Y-41257696D01*
X173922073Y-41306916D01*
X173937180Y-41375133D01*
X173913008Y-41440689D01*
X173872483Y-41475804D01*
X173864383Y-41480187D01*
X173864379Y-41480189D01*
X173684323Y-41620332D01*
X173684319Y-41620336D01*
X173529787Y-41788201D01*
X173404989Y-41979220D01*
X173313335Y-42188172D01*
X173257323Y-42409358D01*
X173257321Y-42409366D01*
X173238481Y-42636744D01*
X173238481Y-42636755D01*
X173257322Y-42864146D01*
X173257391Y-42864555D01*
X173257370Y-42864722D01*
X173257746Y-42869252D01*
X173256813Y-42869329D01*
X173248995Y-42933918D01*
X173222759Y-42972621D01*
X170514358Y-45681022D01*
X170500729Y-45692801D01*
X170481468Y-45707140D01*
X170447898Y-45747147D01*
X170444253Y-45751126D01*
X170438407Y-45756973D01*
X170418618Y-45782001D01*
X170417481Y-45783397D01*
X170368694Y-45841540D01*
X170364729Y-45847569D01*
X170364682Y-45847538D01*
X170360630Y-45853897D01*
X170360679Y-45853927D01*
X170356889Y-45860071D01*
X170324812Y-45928860D01*
X170324027Y-45930481D01*
X170289957Y-45998322D01*
X170287488Y-46005107D01*
X170287432Y-46005086D01*
X170284960Y-46012200D01*
X170285015Y-46012219D01*
X170282743Y-46019075D01*
X170267391Y-46093420D01*
X170267001Y-46095178D01*
X170249499Y-46169029D01*
X170248661Y-46176204D01*
X170248601Y-46176197D01*
X170247835Y-46183695D01*
X170247895Y-46183701D01*
X170247265Y-46190890D01*
X170249474Y-46266780D01*
X170249500Y-46268583D01*
X170249500Y-53465677D01*
X170232887Y-53527677D01*
X170172821Y-53631714D01*
X170114327Y-53811740D01*
X170114326Y-53811744D01*
X170094540Y-54000000D01*
X160084339Y-54000000D01*
X160086988Y-53992815D01*
X160127517Y-53957695D01*
X160135619Y-53953311D01*
X160315677Y-53813167D01*
X160470213Y-53645297D01*
X160595010Y-53454280D01*
X160686664Y-53245328D01*
X160742677Y-53024141D01*
X160752922Y-52900500D01*
X160761519Y-52796755D01*
X160761519Y-52796744D01*
X160742678Y-52569366D01*
X160742677Y-52569363D01*
X160742677Y-52569359D01*
X160686664Y-52348172D01*
X160595010Y-52139220D01*
X160595010Y-52139219D01*
X160470212Y-51948201D01*
X160315680Y-51780336D01*
X160315676Y-51780332D01*
X160135620Y-51640190D01*
X160135619Y-51640189D01*
X160127517Y-51635804D01*
X160077928Y-51586587D01*
X160062818Y-51518371D01*
X160086988Y-51452815D01*
X160127517Y-51417695D01*
X160135619Y-51413311D01*
X160315677Y-51273167D01*
X160470213Y-51105297D01*
X160595010Y-50914280D01*
X160686664Y-50705328D01*
X160742677Y-50484141D01*
X160761519Y-50256750D01*
X160742677Y-50029359D01*
X160686664Y-49808172D01*
X160595010Y-49599220D01*
X160470213Y-49408203D01*
X160470212Y-49408201D01*
X160315680Y-49240336D01*
X160315676Y-49240332D01*
X160135620Y-49100190D01*
X160135619Y-49100189D01*
X160127517Y-49095804D01*
X160077928Y-49046587D01*
X160062818Y-48978371D01*
X160086988Y-48912815D01*
X160127517Y-48877695D01*
X160135619Y-48873311D01*
X160315677Y-48733167D01*
X160470213Y-48565297D01*
X160595010Y-48374280D01*
X160686664Y-48165328D01*
X160742677Y-47944141D01*
X160761519Y-47716750D01*
X160742677Y-47489359D01*
X160686664Y-47268172D01*
X160595010Y-47059220D01*
X160470213Y-46868203D01*
X160470212Y-46868201D01*
X160315680Y-46700336D01*
X160315676Y-46700332D01*
X160135620Y-46560190D01*
X160135619Y-46560189D01*
X160127517Y-46555804D01*
X160077928Y-46506587D01*
X160062818Y-46438371D01*
X160086988Y-46372815D01*
X160127517Y-46337695D01*
X160135619Y-46333311D01*
X160315677Y-46193167D01*
X160470213Y-46025297D01*
X160595010Y-45834280D01*
X160686664Y-45625328D01*
X160742677Y-45404141D01*
X160753276Y-45276233D01*
X160761519Y-45176755D01*
X160761519Y-45176744D01*
X160742678Y-44949366D01*
X160742677Y-44949363D01*
X160742677Y-44949359D01*
X160686664Y-44728172D01*
X160595010Y-44519220D01*
X160470213Y-44328203D01*
X160470212Y-44328201D01*
X160315680Y-44160336D01*
X160315676Y-44160332D01*
X160135620Y-44020189D01*
X160135616Y-44020187D01*
X160126989Y-44015518D01*
X160077400Y-43966297D01*
X160062294Y-43898079D01*
X160086467Y-43832525D01*
X160126997Y-43797408D01*
X160135341Y-43792892D01*
X160135349Y-43792887D01*
X160161910Y-43772213D01*
X159548603Y-43158906D01*
X159666412Y-43107735D01*
X159782862Y-43012996D01*
X159869433Y-42890353D01*
X159900300Y-42803498D01*
X160514063Y-43417261D01*
X160594569Y-43294037D01*
X160686190Y-43085165D01*
X160742182Y-42864054D01*
X160761017Y-42636755D01*
X160761017Y-42636744D01*
X160742182Y-42409445D01*
X160686190Y-42188334D01*
X160594568Y-41979459D01*
X160514063Y-41856237D01*
X159902630Y-42467670D01*
X159899406Y-42452153D01*
X159830342Y-42318864D01*
X159727877Y-42209152D01*
X159599612Y-42131152D01*
X159546833Y-42116364D01*
X160161910Y-41501287D01*
X160161909Y-41501285D01*
X160135349Y-41480612D01*
X160135348Y-41480611D01*
X160126468Y-41475806D01*
X160076877Y-41426587D01*
X160061767Y-41358371D01*
X160085937Y-41292815D01*
X160126468Y-41257694D01*
X160135346Y-41252889D01*
X160135349Y-41252887D01*
X160161910Y-41232213D01*
X159548603Y-40618906D01*
X159666412Y-40567735D01*
X159782862Y-40472996D01*
X159869433Y-40350353D01*
X159900300Y-40263498D01*
X160514063Y-40877261D01*
X160594569Y-40754037D01*
X160686190Y-40545165D01*
X160742182Y-40324054D01*
X160761017Y-40096755D01*
X160761017Y-40096744D01*
X160742182Y-39869445D01*
X160686190Y-39648334D01*
X160594568Y-39439459D01*
X160514063Y-39316237D01*
X159902630Y-39927670D01*
X159899406Y-39912153D01*
X159830342Y-39778864D01*
X159727877Y-39669152D01*
X159599612Y-39591152D01*
X159546833Y-39576364D01*
X160161910Y-38961287D01*
X160161909Y-38961285D01*
X160135349Y-38940612D01*
X160135339Y-38940605D01*
X160126990Y-38936087D01*
X160077401Y-38886867D01*
X160062294Y-38818650D01*
X160086466Y-38753095D01*
X160126995Y-38717978D01*
X160135612Y-38713315D01*
X160135619Y-38713311D01*
X160315677Y-38573167D01*
X160470213Y-38405297D01*
X160595010Y-38214280D01*
X160686664Y-38005328D01*
X160742677Y-37784141D01*
X160742678Y-37784133D01*
X160761519Y-37556755D01*
X160761519Y-37556744D01*
X160742678Y-37329366D01*
X160742677Y-37329363D01*
X160742677Y-37329359D01*
X160686664Y-37108172D01*
X160595010Y-36899220D01*
X160514662Y-36776237D01*
X160470212Y-36708201D01*
X160347920Y-36575358D01*
X160316997Y-36512704D01*
X160324857Y-36443278D01*
X160369004Y-36389122D01*
X160395817Y-36375193D01*
X160498626Y-36336848D01*
X160498626Y-36336847D01*
X160498631Y-36336846D01*
X160613846Y-36250596D01*
X160700096Y-36135381D01*
X160750391Y-36000533D01*
X160756800Y-35940923D01*
X160756799Y-34092578D01*
X160750391Y-34032967D01*
X160738220Y-34000336D01*
X160700097Y-33898121D01*
X160700093Y-33898114D01*
X160613847Y-33782905D01*
X160613844Y-33782902D01*
X160498635Y-33696656D01*
X160498628Y-33696652D01*
X160363782Y-33646358D01*
X160363783Y-33646358D01*
X160304183Y-33639951D01*
X160304181Y-33639950D01*
X160304173Y-33639950D01*
X160304164Y-33639950D01*
X158455829Y-33639950D01*
X158455823Y-33639951D01*
X158396216Y-33646358D01*
X158261371Y-33696652D01*
X158261364Y-33696656D01*
X158146155Y-33782902D01*
X158146152Y-33782905D01*
X158059906Y-33898114D01*
X158059902Y-33898121D01*
X158009608Y-34032967D01*
X158003201Y-34092566D01*
X158003201Y-34092573D01*
X158003200Y-34092585D01*
X158003200Y-35940920D01*
X158003201Y-35940926D01*
X158009608Y-36000533D01*
X158059902Y-36135378D01*
X158059906Y-36135385D01*
X158146152Y-36250594D01*
X158146155Y-36250597D01*
X158261364Y-36336843D01*
X158261371Y-36336847D01*
X158364183Y-36375193D01*
X158420116Y-36417064D01*
X158444534Y-36482528D01*
X158429683Y-36550801D01*
X158412080Y-36575358D01*
X158289784Y-36708205D01*
X158164989Y-36899220D01*
X158073335Y-37108172D01*
X158017323Y-37329358D01*
X158017321Y-37329366D01*
X157998481Y-37556744D01*
X157998481Y-37556755D01*
X158017321Y-37784133D01*
X158017323Y-37784141D01*
X158073335Y-38005327D01*
X158164989Y-38214279D01*
X158289787Y-38405298D01*
X158444319Y-38573163D01*
X158444323Y-38573167D01*
X158624379Y-38713310D01*
X158624387Y-38713315D01*
X158633007Y-38717980D01*
X158682598Y-38767200D01*
X158697705Y-38835416D01*
X158673534Y-38900972D01*
X158633009Y-38936087D01*
X158624661Y-38940604D01*
X158624646Y-38940614D01*
X158598089Y-38961284D01*
X158598089Y-38961286D01*
X159211396Y-39574593D01*
X159093588Y-39625765D01*
X158977138Y-39720504D01*
X158890567Y-39843147D01*
X158859699Y-39930002D01*
X158245935Y-39316238D01*
X158165431Y-39439460D01*
X158165429Y-39439464D01*
X158073809Y-39648334D01*
X158017817Y-39869445D01*
X157998983Y-40096744D01*
X157998983Y-40096755D01*
X158017817Y-40324054D01*
X158073809Y-40545165D01*
X158165431Y-40754040D01*
X158245934Y-40877260D01*
X158857368Y-40265827D01*
X158860594Y-40281347D01*
X158929658Y-40414636D01*
X159032123Y-40524348D01*
X159160388Y-40602348D01*
X159213166Y-40617135D01*
X158598088Y-41232212D01*
X158598089Y-41232213D01*
X158624651Y-41252887D01*
X158624652Y-41252888D01*
X158633530Y-41257693D01*
X158683121Y-41306912D01*
X158698231Y-41375129D01*
X158674061Y-41440685D01*
X158633540Y-41475799D01*
X158624662Y-41480604D01*
X158624646Y-41480614D01*
X158598089Y-41501284D01*
X158598089Y-41501286D01*
X159211396Y-42114593D01*
X159093588Y-42165765D01*
X158977138Y-42260504D01*
X158890567Y-42383147D01*
X158859699Y-42470002D01*
X158245935Y-41856238D01*
X158165431Y-41979460D01*
X158165429Y-41979464D01*
X158073809Y-42188334D01*
X158017817Y-42409445D01*
X157998983Y-42636744D01*
X157998983Y-42636755D01*
X158017817Y-42864054D01*
X158073809Y-43085165D01*
X158165431Y-43294040D01*
X158245934Y-43417260D01*
X158857368Y-42805827D01*
X158860594Y-42821347D01*
X158929658Y-42954636D01*
X159032123Y-43064348D01*
X159160388Y-43142348D01*
X159213166Y-43157135D01*
X158598088Y-43772212D01*
X158598089Y-43772213D01*
X158624651Y-43792887D01*
X158624657Y-43792891D01*
X158633006Y-43797410D01*
X158682597Y-43846629D01*
X158697705Y-43914845D01*
X158673535Y-43980401D01*
X158633014Y-44015516D01*
X158624383Y-44020187D01*
X158624379Y-44020189D01*
X158444323Y-44160332D01*
X158444319Y-44160336D01*
X158289787Y-44328201D01*
X158164989Y-44519220D01*
X158073335Y-44728172D01*
X158017323Y-44949358D01*
X158017321Y-44949366D01*
X157998481Y-45176744D01*
X157998481Y-45176755D01*
X158017321Y-45404133D01*
X158017323Y-45404141D01*
X158073335Y-45625327D01*
X158164989Y-45834279D01*
X158289787Y-46025298D01*
X158444319Y-46193163D01*
X158444323Y-46193167D01*
X158624379Y-46333310D01*
X158624383Y-46333312D01*
X158632483Y-46337696D01*
X158682073Y-46386916D01*
X158697180Y-46455133D01*
X158673008Y-46520689D01*
X158632483Y-46555804D01*
X158624383Y-46560187D01*
X158624379Y-46560189D01*
X158444323Y-46700332D01*
X158444319Y-46700336D01*
X158289787Y-46868201D01*
X158164989Y-47059220D01*
X158073335Y-47268172D01*
X158017323Y-47489358D01*
X158017321Y-47489366D01*
X157998481Y-47716744D01*
X157998481Y-47716755D01*
X158017321Y-47944133D01*
X158017323Y-47944141D01*
X158073335Y-48165327D01*
X158164989Y-48374279D01*
X158289787Y-48565298D01*
X158444319Y-48733163D01*
X158444323Y-48733167D01*
X158624379Y-48873310D01*
X158624380Y-48873310D01*
X158624381Y-48873311D01*
X158632477Y-48877692D01*
X158682069Y-48926909D01*
X158697181Y-48995125D01*
X158673013Y-49060681D01*
X158632490Y-49095799D01*
X158624388Y-49100184D01*
X158624379Y-49100189D01*
X158444323Y-49240332D01*
X158444319Y-49240336D01*
X158289787Y-49408201D01*
X158164989Y-49599220D01*
X158073335Y-49808172D01*
X158017323Y-50029358D01*
X158017321Y-50029366D01*
X157998481Y-50256744D01*
X157998481Y-50256755D01*
X158017321Y-50484133D01*
X158017323Y-50484141D01*
X158073335Y-50705327D01*
X158164989Y-50914279D01*
X158289787Y-51105298D01*
X158444319Y-51273163D01*
X158444323Y-51273167D01*
X158624379Y-51413310D01*
X158624383Y-51413312D01*
X158632483Y-51417696D01*
X158682073Y-51466916D01*
X158697180Y-51535133D01*
X158673008Y-51600689D01*
X158632483Y-51635804D01*
X158624383Y-51640187D01*
X158624379Y-51640189D01*
X158444323Y-51780332D01*
X158444319Y-51780336D01*
X158289787Y-51948201D01*
X158164989Y-52139220D01*
X158073335Y-52348172D01*
X158017323Y-52569358D01*
X158017321Y-52569366D01*
X157998481Y-52796744D01*
X157998481Y-52796755D01*
X158017321Y-53024133D01*
X158017323Y-53024141D01*
X158073335Y-53245327D01*
X158164989Y-53454279D01*
X158289787Y-53645298D01*
X158444319Y-53813163D01*
X158444323Y-53813167D01*
X158624379Y-53953310D01*
X158624383Y-53953312D01*
X158632483Y-53957696D01*
X158682073Y-54006916D01*
X158697180Y-54075133D01*
X158673008Y-54140689D01*
X158632483Y-54175804D01*
X158624383Y-54180187D01*
X158624379Y-54180189D01*
X158444323Y-54320332D01*
X158444319Y-54320336D01*
X158289787Y-54488201D01*
X158164989Y-54679220D01*
X158073335Y-54888172D01*
X158017323Y-55109358D01*
X158017321Y-55109366D01*
X157998481Y-55336744D01*
X157998481Y-55336755D01*
X158017321Y-55564133D01*
X158017323Y-55564141D01*
X158073335Y-55785327D01*
X158164989Y-55994279D01*
X158289787Y-56185298D01*
X158444319Y-56353163D01*
X158444323Y-56353167D01*
X158624379Y-56493310D01*
X158624383Y-56493312D01*
X158632483Y-56497696D01*
X158682073Y-56546916D01*
X158697180Y-56615133D01*
X158673008Y-56680689D01*
X158632483Y-56715804D01*
X158624383Y-56720187D01*
X158624379Y-56720189D01*
X158444323Y-56860332D01*
X158444319Y-56860336D01*
X158289787Y-57028201D01*
X158164989Y-57219220D01*
X158073335Y-57428172D01*
X158017323Y-57649358D01*
X158017321Y-57649366D01*
X157998481Y-57876744D01*
X157998481Y-57876755D01*
X158017321Y-58104133D01*
X158017323Y-58104141D01*
X158073335Y-58325327D01*
X158164989Y-58534279D01*
X158289787Y-58725298D01*
X158444319Y-58893163D01*
X158444323Y-58893167D01*
X158624379Y-59033310D01*
X158624380Y-59033310D01*
X158624381Y-59033311D01*
X158632477Y-59037692D01*
X158682069Y-59086909D01*
X158697181Y-59155125D01*
X158673013Y-59220681D01*
X158632490Y-59255799D01*
X158624388Y-59260184D01*
X158624379Y-59260189D01*
X158444323Y-59400332D01*
X158444319Y-59400336D01*
X158289787Y-59568201D01*
X158164989Y-59759220D01*
X158073335Y-59968172D01*
X158017323Y-60189358D01*
X158017321Y-60189366D01*
X157998481Y-60416744D01*
X157998481Y-60416755D01*
X158017321Y-60644133D01*
X158017323Y-60644141D01*
X158073335Y-60865327D01*
X158164989Y-61074279D01*
X158289787Y-61265298D01*
X158444319Y-61433163D01*
X158444323Y-61433167D01*
X158624379Y-61573310D01*
X158624383Y-61573312D01*
X158632483Y-61577696D01*
X158682073Y-61626916D01*
X158697180Y-61695133D01*
X158673008Y-61760689D01*
X158632483Y-61795804D01*
X158624383Y-61800187D01*
X158624379Y-61800189D01*
X158444323Y-61940332D01*
X158444319Y-61940336D01*
X158289787Y-62108201D01*
X158164989Y-62299220D01*
X158073335Y-62508172D01*
X158017323Y-62729358D01*
X158017321Y-62729366D01*
X157998481Y-62956744D01*
X157998481Y-62956755D01*
X129000500Y-62956755D01*
X129000500Y-33002036D01*
X129000633Y-32997981D01*
X129004023Y-32946237D01*
X129005986Y-32916290D01*
X129018986Y-32734536D01*
X129020015Y-32726901D01*
X129043155Y-32610567D01*
X129074533Y-32466323D01*
X129076392Y-32459625D01*
X129116547Y-32341335D01*
X129117087Y-32339817D01*
X129166162Y-32208242D01*
X129168628Y-32202530D01*
X129225044Y-32088129D01*
X129226152Y-32085996D01*
X129292184Y-31965066D01*
X129295029Y-31960368D01*
X129366563Y-31853311D01*
X129368428Y-31850676D01*
X129450291Y-31741321D01*
X129453244Y-31737678D01*
X129538503Y-31640459D01*
X129541198Y-31637581D01*
X129637581Y-31541198D01*
X129640459Y-31538503D01*
X129737678Y-31453244D01*
X129741321Y-31450291D01*
X129850676Y-31368428D01*
X129853311Y-31366563D01*
X129960368Y-31295029D01*
X129965066Y-31292184D01*
X130085996Y-31226152D01*
X130088129Y-31225044D01*
X130202530Y-31168628D01*
X130208242Y-31166162D01*
X130339817Y-31117087D01*
X130341335Y-31116547D01*
X130459625Y-31076392D01*
X130466323Y-31074533D01*
X130610567Y-31043155D01*
X130726901Y-31020015D01*
X130734536Y-31018986D01*
X130916290Y-31005986D01*
X130946237Y-31004023D01*
X130997981Y-31000633D01*
X131002036Y-31000500D01*
X203997964Y-31000500D01*
X204002019Y-31000633D01*
G37*
%TD.AperFunction*%
%TD*%
M02*
