M48
; DRILL file {KiCad 7.0.5} date Fri Sep 29 16:25:42 2023
; FORMAT={-:-/ absolute / metric / decimal}
; #@! TF.CreationDate,2023-09-29T16:25:42+09:00
; #@! TF.GenerationSoftware,Kicad,Pcbnew,7.0.5
; #@! TF.FileFunction,Plated,1,2,PTH
FMAT,2
METRIC
; #@! TA.AperFunction,Plated,PTH,ViaDrill
T1C0.400
; #@! TA.AperFunction,Plated,PTH,ComponentDrill
T2C0.700
; #@! TA.AperFunction,Plated,PTH,ComponentDrill
T3C1.000
; #@! TA.AperFunction,Plated,PTH,ComponentDrill
T4C1.092
; #@! TA.AperFunction,Plated,PTH,ComponentDrill
T5C1.800
%
G90
G05
T1
X158.0Y-70.0
X171.0Y-54.0
X176.0Y-78.0
X176.0Y-80.0
X176.0Y-82.0
X178.0Y-60.0
X178.0Y-74.0
X179.0Y-77.0
X182.0Y-59.0
X184.0Y-61.0
X186.0Y-52.0
X188.0Y-60.0
X189.0Y-68.0
X190.0Y-61.0
T2
X161.82Y-68.325
X161.82Y-70.105
X161.82Y-71.885
X161.82Y-73.665
X161.82Y-75.445
X161.82Y-77.225
X161.82Y-79.005
X161.82Y-80.785
X172.52Y-69.215
X172.52Y-70.995
X172.52Y-72.775
X172.52Y-74.555
X172.52Y-76.335
X172.52Y-78.115
X172.52Y-79.895
X172.52Y-81.675
T3
X134.5Y-115.0
X135.0Y-91.0
X139.5Y-115.0
X140.0Y-91.0
X145.0Y-91.0
X145.0Y-115.0
X150.0Y-91.0
X150.0Y-115.0
X155.0Y-91.0
X155.0Y-115.0
X155.5Y-104.225
X160.0Y-91.0
X160.0Y-115.0
X160.5Y-104.225
X165.0Y-115.0
X170.0Y-115.0
X175.0Y-91.0
X175.0Y-101.5
X175.0Y-104.0
X175.0Y-106.5
X175.0Y-115.0
X180.0Y-91.0
X180.0Y-115.0
X185.5Y-91.0
X186.0Y-115.0
X190.5Y-91.0
X191.0Y-115.0
X196.0Y-91.0
X197.0Y-115.0
X201.0Y-91.0
X202.0Y-115.0
T4
X159.38Y-35.017
X159.38Y-37.557
X159.38Y-40.097
X159.38Y-42.637
X159.38Y-45.177
X159.38Y-47.717
X159.38Y-50.257
X159.38Y-52.797
X159.38Y-55.337
X159.38Y-57.877
X159.38Y-60.417
X159.38Y-62.957
X174.62Y-35.017
X174.62Y-37.557
X174.62Y-40.097
X174.62Y-42.637
X174.62Y-45.177
X174.62Y-47.717
X174.62Y-50.257
X174.62Y-52.797
X174.62Y-55.337
X174.62Y-57.877
X174.62Y-60.417
X174.62Y-62.957
T5
G00X177.15Y-99.5
M15
G01X176.85Y-99.5
M16
G05
G00X177.15Y-108.5
M15
G01X176.85Y-108.5
M16
G05
T0
M30
